%TF.GenerationSoftware,KiCad,Pcbnew,8.0.1*%
%TF.CreationDate,2024-03-30T16:51:32-04:00*%
%TF.ProjectId,pulp,70756c70-2e6b-4696-9361-645f70636258,rev?*%
%TF.SameCoordinates,Original*%
%TF.FileFunction,Drillmap*%
%TF.FilePolarity,Positive*%
%FSLAX45Y45*%
G04 Gerber Fmt 4.5, Leading zero omitted, Abs format (unit mm)*
G04 Created by KiCad (PCBNEW 8.0.1) date 2024-03-30 16:51:32*
%MOMM*%
%LPD*%
G01*
G04 APERTURE LIST*
%ADD10C,0.100000*%
%ADD11C,0.200000*%
G04 APERTURE END LIST*
D10*
X11700000Y-6305000D02*
X9800000Y-8210000D01*
X3303000Y-8210000D01*
X3303000Y-4400000D01*
X9800000Y-4400000D01*
X11700000Y-6305000D01*
D11*
D10*
X4155000Y-8035000D02*
X4165000Y-8045000D01*
X4165000Y-8035000D02*
X4155000Y-8045000D01*
X4175000Y-7595000D02*
X4185000Y-7605000D01*
X4185000Y-7595000D02*
X4175000Y-7605000D01*
X5445000Y-4695000D02*
X5455000Y-4705000D01*
X5455000Y-4695000D02*
X5445000Y-4705000D01*
X6158000Y-6550000D02*
X6168000Y-6560000D01*
X6168000Y-6550000D02*
X6158000Y-6560000D01*
X6208000Y-6475000D02*
X6218000Y-6485000D01*
X6218000Y-6475000D02*
X6208000Y-6485000D01*
X6783000Y-6525000D02*
X6793000Y-6535000D01*
X6793000Y-6525000D02*
X6783000Y-6535000D01*
X6845000Y-7220000D02*
X6855000Y-7230000D01*
X6855000Y-7220000D02*
X6845000Y-7230000D01*
X6995000Y-6945000D02*
X7005000Y-6955000D01*
X7005000Y-6945000D02*
X6995000Y-6955000D01*
X7070000Y-7570000D02*
X7080000Y-7580000D01*
X7080000Y-7570000D02*
X7070000Y-7580000D01*
X7145000Y-7195000D02*
X7155000Y-7205000D01*
X7155000Y-7195000D02*
X7145000Y-7205000D01*
X8033000Y-6550000D02*
X8043000Y-6560000D01*
X8043000Y-6550000D02*
X8033000Y-6560000D01*
X8508000Y-6825000D02*
X8518000Y-6835000D01*
X8518000Y-6825000D02*
X8508000Y-6835000D01*
X9008000Y-6200000D02*
X9018000Y-6210000D01*
X9018000Y-6200000D02*
X9008000Y-6210000D01*
X9008000Y-6250000D02*
X9018000Y-6260000D01*
X9018000Y-6250000D02*
X9008000Y-6260000D01*
X9108000Y-6350000D02*
X9118000Y-6360000D01*
X9118000Y-6350000D02*
X9108000Y-6360000D01*
X9157674Y-6832674D02*
X9167674Y-6842674D01*
X9167674Y-6832674D02*
X9157674Y-6842674D01*
X9184517Y-6377500D02*
X9194517Y-6387500D01*
X9194517Y-6377500D02*
X9184517Y-6387500D01*
X9283000Y-7050000D02*
X9293000Y-7060000D01*
X9293000Y-7050000D02*
X9283000Y-7060000D01*
X9345000Y-6795000D02*
X9355000Y-6805000D01*
X9355000Y-6795000D02*
X9345000Y-6805000D01*
X9410000Y-6930000D02*
X9420000Y-6940000D01*
X9420000Y-6930000D02*
X9410000Y-6940000D01*
X9595000Y-6580000D02*
X9605000Y-6590000D01*
X9605000Y-6580000D02*
X9595000Y-6590000D01*
X9620000Y-4945000D02*
X9630000Y-4955000D01*
X9630000Y-4945000D02*
X9620000Y-4955000D01*
X9660000Y-4645000D02*
X9670000Y-4655000D01*
X9670000Y-4645000D02*
X9660000Y-4655000D01*
X9665000Y-6750000D02*
X9675000Y-6760000D01*
X9675000Y-6750000D02*
X9665000Y-6760000D01*
X9720000Y-6525000D02*
X9730000Y-6535000D01*
X9730000Y-6525000D02*
X9720000Y-6535000D01*
X9758000Y-6125000D02*
X9768000Y-6135000D01*
X9768000Y-6125000D02*
X9758000Y-6135000D01*
X9808000Y-6575000D02*
X9818000Y-6585000D01*
X9818000Y-6575000D02*
X9808000Y-6585000D01*
X9830000Y-4815000D02*
X9840000Y-4825000D01*
X9840000Y-4815000D02*
X9830000Y-4825000D01*
X9833000Y-6125000D02*
X9843000Y-6135000D01*
X9843000Y-6125000D02*
X9833000Y-6135000D01*
X9933000Y-6075000D02*
X9943000Y-6085000D01*
X9943000Y-6075000D02*
X9933000Y-6085000D01*
X10295000Y-6095000D02*
X10305000Y-6105000D01*
X10305000Y-6095000D02*
X10295000Y-6105000D01*
X10720000Y-6295000D02*
X10730000Y-6305000D01*
X10730000Y-6295000D02*
X10720000Y-6305000D01*
X10808000Y-6025000D02*
X10818000Y-6035000D01*
X10818000Y-6025000D02*
X10808000Y-6035000D01*
X10985000Y-6109500D02*
X10995000Y-6119500D01*
X10995000Y-6109500D02*
X10985000Y-6119500D01*
X4000000Y-7560000D02*
G75*
G02*
X3960000Y-7560000I-20000J0D01*
G01*
X3960000Y-7560000D02*
G75*
G02*
X4000000Y-7560000I20000J0D01*
G01*
X4083000Y-4830000D02*
G75*
G02*
X4043000Y-4830000I-20000J0D01*
G01*
X4043000Y-4830000D02*
G75*
G02*
X4083000Y-4830000I20000J0D01*
G01*
X4133000Y-7430000D02*
G75*
G02*
X4093000Y-7430000I-20000J0D01*
G01*
X4093000Y-7430000D02*
G75*
G02*
X4133000Y-7430000I20000J0D01*
G01*
X4520000Y-5250000D02*
G75*
G02*
X4480000Y-5250000I-20000J0D01*
G01*
X4480000Y-5250000D02*
G75*
G02*
X4520000Y-5250000I20000J0D01*
G01*
X4520000Y-6500000D02*
G75*
G02*
X4480000Y-6500000I-20000J0D01*
G01*
X4480000Y-6500000D02*
G75*
G02*
X4520000Y-6500000I20000J0D01*
G01*
X4520000Y-6750000D02*
G75*
G02*
X4480000Y-6750000I-20000J0D01*
G01*
X4480000Y-6750000D02*
G75*
G02*
X4520000Y-6750000I20000J0D01*
G01*
X4770000Y-5250000D02*
G75*
G02*
X4730000Y-5250000I-20000J0D01*
G01*
X4730000Y-5250000D02*
G75*
G02*
X4770000Y-5250000I20000J0D01*
G01*
X4770000Y-7000000D02*
G75*
G02*
X4730000Y-7000000I-20000J0D01*
G01*
X4730000Y-7000000D02*
G75*
G02*
X4770000Y-7000000I20000J0D01*
G01*
X5020000Y-5250000D02*
G75*
G02*
X4980000Y-5250000I-20000J0D01*
G01*
X4980000Y-5250000D02*
G75*
G02*
X5020000Y-5250000I20000J0D01*
G01*
X5020000Y-7000000D02*
G75*
G02*
X4980000Y-7000000I-20000J0D01*
G01*
X4980000Y-7000000D02*
G75*
G02*
X5020000Y-7000000I20000J0D01*
G01*
X5270000Y-5500000D02*
G75*
G02*
X5230000Y-5500000I-20000J0D01*
G01*
X5230000Y-5500000D02*
G75*
G02*
X5270000Y-5500000I20000J0D01*
G01*
X5270000Y-7000000D02*
G75*
G02*
X5230000Y-7000000I-20000J0D01*
G01*
X5230000Y-7000000D02*
G75*
G02*
X5270000Y-7000000I20000J0D01*
G01*
X5520000Y-5500000D02*
G75*
G02*
X5480000Y-5500000I-20000J0D01*
G01*
X5480000Y-5500000D02*
G75*
G02*
X5520000Y-5500000I20000J0D01*
G01*
X5520000Y-7000000D02*
G75*
G02*
X5480000Y-7000000I-20000J0D01*
G01*
X5480000Y-7000000D02*
G75*
G02*
X5520000Y-7000000I20000J0D01*
G01*
X5770000Y-5500000D02*
G75*
G02*
X5730000Y-5500000I-20000J0D01*
G01*
X5730000Y-5500000D02*
G75*
G02*
X5770000Y-5500000I20000J0D01*
G01*
X5770000Y-7000000D02*
G75*
G02*
X5730000Y-7000000I-20000J0D01*
G01*
X5730000Y-7000000D02*
G75*
G02*
X5770000Y-7000000I20000J0D01*
G01*
X6020000Y-5500000D02*
G75*
G02*
X5980000Y-5500000I-20000J0D01*
G01*
X5980000Y-5500000D02*
G75*
G02*
X6020000Y-5500000I20000J0D01*
G01*
X6020000Y-7000000D02*
G75*
G02*
X5980000Y-7000000I-20000J0D01*
G01*
X5980000Y-7000000D02*
G75*
G02*
X6020000Y-7000000I20000J0D01*
G01*
X6270000Y-5500000D02*
G75*
G02*
X6230000Y-5500000I-20000J0D01*
G01*
X6230000Y-5500000D02*
G75*
G02*
X6270000Y-5500000I20000J0D01*
G01*
X6400000Y-7860000D02*
G75*
G02*
X6360000Y-7860000I-20000J0D01*
G01*
X6360000Y-7860000D02*
G75*
G02*
X6400000Y-7860000I20000J0D01*
G01*
X6520000Y-5750000D02*
G75*
G02*
X6480000Y-5750000I-20000J0D01*
G01*
X6480000Y-5750000D02*
G75*
G02*
X6520000Y-5750000I20000J0D01*
G01*
X6520000Y-6000000D02*
G75*
G02*
X6480000Y-6000000I-20000J0D01*
G01*
X6480000Y-6000000D02*
G75*
G02*
X6520000Y-6000000I20000J0D01*
G01*
X6550000Y-7095000D02*
G75*
G02*
X6510000Y-7095000I-20000J0D01*
G01*
X6510000Y-7095000D02*
G75*
G02*
X6550000Y-7095000I20000J0D01*
G01*
X6705000Y-6640000D02*
G75*
G02*
X6665000Y-6640000I-20000J0D01*
G01*
X6665000Y-6640000D02*
G75*
G02*
X6705000Y-6640000I20000J0D01*
G01*
X6820000Y-7740000D02*
G75*
G02*
X6780000Y-7740000I-20000J0D01*
G01*
X6780000Y-7740000D02*
G75*
G02*
X6820000Y-7740000I20000J0D01*
G01*
X7080000Y-6200000D02*
G75*
G02*
X7040000Y-6200000I-20000J0D01*
G01*
X7040000Y-6200000D02*
G75*
G02*
X7080000Y-6200000I20000J0D01*
G01*
X7100000Y-7920000D02*
G75*
G02*
X7060000Y-7920000I-20000J0D01*
G01*
X7060000Y-7920000D02*
G75*
G02*
X7100000Y-7920000I20000J0D01*
G01*
X7333000Y-6630000D02*
G75*
G02*
X7293000Y-6630000I-20000J0D01*
G01*
X7293000Y-6630000D02*
G75*
G02*
X7333000Y-6630000I20000J0D01*
G01*
X7545000Y-6945000D02*
G75*
G02*
X7505000Y-6945000I-20000J0D01*
G01*
X7505000Y-6945000D02*
G75*
G02*
X7545000Y-6945000I20000J0D01*
G01*
X7550000Y-5885000D02*
G75*
G02*
X7510000Y-5885000I-20000J0D01*
G01*
X7510000Y-5885000D02*
G75*
G02*
X7550000Y-5885000I20000J0D01*
G01*
X7775000Y-7445000D02*
G75*
G02*
X7735000Y-7445000I-20000J0D01*
G01*
X7735000Y-7445000D02*
G75*
G02*
X7775000Y-7445000I20000J0D01*
G01*
X8008000Y-7380000D02*
G75*
G02*
X7968000Y-7380000I-20000J0D01*
G01*
X7968000Y-7380000D02*
G75*
G02*
X8008000Y-7380000I20000J0D01*
G01*
X8035000Y-5445000D02*
G75*
G02*
X7995000Y-5445000I-20000J0D01*
G01*
X7995000Y-5445000D02*
G75*
G02*
X8035000Y-5445000I20000J0D01*
G01*
X8125000Y-7045000D02*
G75*
G02*
X8085000Y-7045000I-20000J0D01*
G01*
X8085000Y-7045000D02*
G75*
G02*
X8125000Y-7045000I20000J0D01*
G01*
X8400000Y-8025000D02*
G75*
G02*
X8360000Y-8025000I-20000J0D01*
G01*
X8360000Y-8025000D02*
G75*
G02*
X8400000Y-8025000I20000J0D01*
G01*
X8515000Y-6565000D02*
G75*
G02*
X8475000Y-6565000I-20000J0D01*
G01*
X8475000Y-6565000D02*
G75*
G02*
X8515000Y-6565000I20000J0D01*
G01*
X8533000Y-5830000D02*
G75*
G02*
X8493000Y-5830000I-20000J0D01*
G01*
X8493000Y-5830000D02*
G75*
G02*
X8533000Y-5830000I20000J0D01*
G01*
X8583000Y-7330000D02*
G75*
G02*
X8543000Y-7330000I-20000J0D01*
G01*
X8543000Y-7330000D02*
G75*
G02*
X8583000Y-7330000I20000J0D01*
G01*
X8684756Y-5953244D02*
G75*
G02*
X8644756Y-5953244I-20000J0D01*
G01*
X8644756Y-5953244D02*
G75*
G02*
X8684756Y-5953244I20000J0D01*
G01*
X8708000Y-7605000D02*
G75*
G02*
X8668000Y-7605000I-20000J0D01*
G01*
X8668000Y-7605000D02*
G75*
G02*
X8708000Y-7605000I20000J0D01*
G01*
X8745000Y-6180000D02*
G75*
G02*
X8705000Y-6180000I-20000J0D01*
G01*
X8705000Y-6180000D02*
G75*
G02*
X8745000Y-6180000I20000J0D01*
G01*
X8775000Y-7060000D02*
G75*
G02*
X8735000Y-7060000I-20000J0D01*
G01*
X8735000Y-7060000D02*
G75*
G02*
X8775000Y-7060000I20000J0D01*
G01*
X8980713Y-5663787D02*
G75*
G02*
X8940713Y-5663787I-20000J0D01*
G01*
X8940713Y-5663787D02*
G75*
G02*
X8980713Y-5663787I20000J0D01*
G01*
X9020000Y-6570000D02*
G75*
G02*
X8980000Y-6570000I-20000J0D01*
G01*
X8980000Y-6570000D02*
G75*
G02*
X9020000Y-6570000I20000J0D01*
G01*
X9033000Y-7855000D02*
G75*
G02*
X8993000Y-7855000I-20000J0D01*
G01*
X8993000Y-7855000D02*
G75*
G02*
X9033000Y-7855000I20000J0D01*
G01*
X9040225Y-5543000D02*
G75*
G02*
X9000225Y-5543000I-20000J0D01*
G01*
X9000225Y-5543000D02*
G75*
G02*
X9040225Y-5543000I20000J0D01*
G01*
X9228500Y-6686000D02*
G75*
G02*
X9188500Y-6686000I-20000J0D01*
G01*
X9188500Y-6686000D02*
G75*
G02*
X9228500Y-6686000I20000J0D01*
G01*
X9295000Y-7430000D02*
G75*
G02*
X9255000Y-7430000I-20000J0D01*
G01*
X9255000Y-7430000D02*
G75*
G02*
X9295000Y-7430000I20000J0D01*
G01*
X9368200Y-5466800D02*
G75*
G02*
X9328200Y-5466800I-20000J0D01*
G01*
X9328200Y-5466800D02*
G75*
G02*
X9368200Y-5466800I20000J0D01*
G01*
X9390800Y-5567987D02*
G75*
G02*
X9350800Y-5567987I-20000J0D01*
G01*
X9350800Y-5567987D02*
G75*
G02*
X9390800Y-5567987I20000J0D01*
G01*
X9482500Y-6368500D02*
G75*
G02*
X9442500Y-6368500I-20000J0D01*
G01*
X9442500Y-6368500D02*
G75*
G02*
X9482500Y-6368500I20000J0D01*
G01*
X9529913Y-5684728D02*
G75*
G02*
X9489913Y-5684728I-20000J0D01*
G01*
X9489913Y-5684728D02*
G75*
G02*
X9529913Y-5684728I20000J0D01*
G01*
X9550167Y-5586851D02*
G75*
G02*
X9510167Y-5586851I-20000J0D01*
G01*
X9510167Y-5586851D02*
G75*
G02*
X9550167Y-5586851I20000J0D01*
G01*
X9600000Y-5275000D02*
G75*
G02*
X9560000Y-5275000I-20000J0D01*
G01*
X9560000Y-5275000D02*
G75*
G02*
X9600000Y-5275000I20000J0D01*
G01*
X9609950Y-5815826D02*
G75*
G02*
X9569950Y-5815826I-20000J0D01*
G01*
X9569950Y-5815826D02*
G75*
G02*
X9609950Y-5815826I20000J0D01*
G01*
X9775000Y-6840000D02*
G75*
G02*
X9735000Y-6840000I-20000J0D01*
G01*
X9735000Y-6840000D02*
G75*
G02*
X9775000Y-6840000I20000J0D01*
G01*
X9805000Y-7895000D02*
G75*
G02*
X9765000Y-7895000I-20000J0D01*
G01*
X9765000Y-7895000D02*
G75*
G02*
X9805000Y-7895000I20000J0D01*
G01*
X9830000Y-5860500D02*
G75*
G02*
X9790000Y-5860500I-20000J0D01*
G01*
X9790000Y-5860500D02*
G75*
G02*
X9830000Y-5860500I20000J0D01*
G01*
X9855000Y-4990000D02*
G75*
G02*
X9815000Y-4990000I-20000J0D01*
G01*
X9815000Y-4990000D02*
G75*
G02*
X9855000Y-4990000I20000J0D01*
G01*
X9924625Y-5481235D02*
G75*
G02*
X9884625Y-5481235I-20000J0D01*
G01*
X9884625Y-5481235D02*
G75*
G02*
X9924625Y-5481235I20000J0D01*
G01*
X9989999Y-6870000D02*
G75*
G02*
X9949999Y-6870000I-20000J0D01*
G01*
X9949999Y-6870000D02*
G75*
G02*
X9989999Y-6870000I20000J0D01*
G01*
X10104800Y-5847800D02*
G75*
G02*
X10064800Y-5847800I-20000J0D01*
G01*
X10064800Y-5847800D02*
G75*
G02*
X10104800Y-5847800I20000J0D01*
G01*
X10110000Y-7085000D02*
G75*
G02*
X10070000Y-7085000I-20000J0D01*
G01*
X10070000Y-7085000D02*
G75*
G02*
X10110000Y-7085000I20000J0D01*
G01*
X10183000Y-7330000D02*
G75*
G02*
X10143000Y-7330000I-20000J0D01*
G01*
X10143000Y-7330000D02*
G75*
G02*
X10183000Y-7330000I20000J0D01*
G01*
X10370000Y-5380000D02*
G75*
G02*
X10330000Y-5380000I-20000J0D01*
G01*
X10330000Y-5380000D02*
G75*
G02*
X10370000Y-5380000I20000J0D01*
G01*
X10460000Y-6680000D02*
G75*
G02*
X10420000Y-6680000I-20000J0D01*
G01*
X10420000Y-6680000D02*
G75*
G02*
X10460000Y-6680000I20000J0D01*
G01*
X10890000Y-6455000D02*
G75*
G02*
X10850000Y-6455000I-20000J0D01*
G01*
X10850000Y-6455000D02*
G75*
G02*
X10890000Y-6455000I20000J0D01*
G01*
X11280000Y-5960000D02*
G75*
G02*
X11240000Y-5960000I-20000J0D01*
G01*
X11240000Y-5960000D02*
G75*
G02*
X11280000Y-5960000I20000J0D01*
G01*
X11600000Y-6320000D02*
G75*
G02*
X11560000Y-6320000I-20000J0D01*
G01*
X11560000Y-6320000D02*
G75*
G02*
X11600000Y-6320000I20000J0D01*
G01*
X6800000Y-7465000D02*
X6800000Y-7505000D01*
X6780000Y-7485000D02*
X6820000Y-7485000D01*
X6840000Y-7555000D02*
X6840000Y-7595000D01*
X6820000Y-7575000D02*
X6860000Y-7575000D01*
X6920000Y-7555000D02*
X6920000Y-7595000D01*
X6900000Y-7575000D02*
X6940000Y-7575000D01*
X6960000Y-7465000D02*
X6960000Y-7505000D01*
X6940000Y-7485000D02*
X6980000Y-7485000D01*
X7000000Y-7555000D02*
X7000000Y-7595000D01*
X6980000Y-7575000D02*
X7020000Y-7575000D01*
X7040000Y-7465000D02*
X7040000Y-7505000D01*
X7020000Y-7485000D02*
X7060000Y-7485000D01*
X7120000Y-7465000D02*
X7120000Y-7505000D01*
X7100000Y-7485000D02*
X7140000Y-7485000D01*
X7160000Y-7555000D02*
X7160000Y-7595000D01*
X7140000Y-7575000D02*
X7180000Y-7575000D01*
X7200000Y-7465000D02*
X7200000Y-7505000D01*
X7180000Y-7485000D02*
X7220000Y-7485000D01*
X7240000Y-7555000D02*
X7240000Y-7595000D01*
X7220000Y-7575000D02*
X7260000Y-7575000D01*
X7320000Y-7555000D02*
X7320000Y-7595000D01*
X7300000Y-7575000D02*
X7340000Y-7575000D01*
X7360000Y-7465000D02*
X7360000Y-7505000D01*
X7340000Y-7485000D02*
X7380000Y-7485000D01*
X6641946Y-7924446D02*
X6641946Y-7885554D01*
X6603054Y-7885554D01*
X6603054Y-7924446D01*
X6641946Y-7924446D01*
X6595000Y-7852500D02*
X6595000Y-7957500D01*
X6650000Y-7957500D02*
G75*
G02*
X6595000Y-7957500I-27500J0D01*
G01*
X6650000Y-7957500D02*
X6650000Y-7852500D01*
X6650000Y-7852500D02*
G75*
G03*
X6595000Y-7852500I-27500J0D01*
G01*
X6669946Y-7421446D02*
X6669946Y-7382554D01*
X6631054Y-7382554D01*
X6631054Y-7421446D01*
X6669946Y-7421446D01*
X6623000Y-7359500D02*
X6623000Y-7444500D01*
X6678000Y-7444500D02*
G75*
G02*
X6623000Y-7444500I-27500J0D01*
G01*
X6678000Y-7444500D02*
X6678000Y-7359500D01*
X6678000Y-7359500D02*
G75*
G03*
X6623000Y-7359500I-27500J0D01*
G01*
X7528946Y-7421446D02*
X7528946Y-7382554D01*
X7490054Y-7382554D01*
X7490054Y-7421446D01*
X7528946Y-7421446D01*
X7482000Y-7359500D02*
X7482000Y-7444500D01*
X7537000Y-7444500D02*
G75*
G02*
X7482000Y-7444500I-27500J0D01*
G01*
X7537000Y-7444500D02*
X7537000Y-7359500D01*
X7537000Y-7359500D02*
G75*
G03*
X7482000Y-7359500I-27500J0D01*
G01*
X7556946Y-7924446D02*
X7556946Y-7885554D01*
X7518054Y-7885554D01*
X7518054Y-7924446D01*
X7556946Y-7924446D01*
X7510000Y-7852500D02*
X7510000Y-7957500D01*
X7565000Y-7957500D02*
G75*
G02*
X7510000Y-7957500I-27500J0D01*
G01*
X7565000Y-7957500D02*
X7565000Y-7852500D01*
X7565000Y-7852500D02*
G75*
G03*
X7510000Y-7852500I-27500J0D01*
G01*
X6641000Y-7646500D02*
X6687500Y-7600000D01*
X6641000Y-7553500D01*
X6594500Y-7600000D01*
X6641000Y-7646500D01*
X6594500Y-7567500D02*
X6594500Y-7632500D01*
X6687500Y-7632500D02*
G75*
G02*
X6594500Y-7632500I-46500J0D01*
G01*
X6687500Y-7632500D02*
X6687500Y-7567500D01*
X6687500Y-7567500D02*
G75*
G03*
X6594500Y-7567500I-46500J0D01*
G01*
X7519000Y-7646500D02*
X7565500Y-7600000D01*
X7519000Y-7553500D01*
X7472500Y-7600000D01*
X7519000Y-7646500D01*
X7472500Y-7567500D02*
X7472500Y-7632500D01*
X7565500Y-7632500D02*
G75*
G02*
X7472500Y-7632500I-46500J0D01*
G01*
X7565500Y-7632500D02*
X7565500Y-7567500D01*
X7565500Y-7567500D02*
G75*
G03*
X7472500Y-7567500I-46500J0D01*
G01*
X3687500Y-4594500D02*
X3787500Y-4694500D01*
X3787500Y-4594500D02*
X3687500Y-4694500D01*
X3787500Y-4644500D02*
G75*
G02*
X3687500Y-4644500I-50000J0D01*
G01*
X3687500Y-4644500D02*
G75*
G02*
X3787500Y-4644500I50000J0D01*
G01*
X3687500Y-4848500D02*
X3787500Y-4948500D01*
X3787500Y-4848500D02*
X3687500Y-4948500D01*
X3787500Y-4898500D02*
G75*
G02*
X3687500Y-4898500I-50000J0D01*
G01*
X3687500Y-4898500D02*
G75*
G02*
X3787500Y-4898500I50000J0D01*
G01*
X3687500Y-5102500D02*
X3787500Y-5202500D01*
X3787500Y-5102500D02*
X3687500Y-5202500D01*
X3787500Y-5152500D02*
G75*
G02*
X3687500Y-5152500I-50000J0D01*
G01*
X3687500Y-5152500D02*
G75*
G02*
X3787500Y-5152500I50000J0D01*
G01*
X3690500Y-7394500D02*
X3790500Y-7494500D01*
X3790500Y-7394500D02*
X3690500Y-7494500D01*
X3790500Y-7444500D02*
G75*
G02*
X3690500Y-7444500I-50000J0D01*
G01*
X3690500Y-7444500D02*
G75*
G02*
X3790500Y-7444500I50000J0D01*
G01*
X3690500Y-7648500D02*
X3790500Y-7748500D01*
X3790500Y-7648500D02*
X3690500Y-7748500D01*
X3790500Y-7698500D02*
G75*
G02*
X3690500Y-7698500I-50000J0D01*
G01*
X3690500Y-7698500D02*
G75*
G02*
X3790500Y-7698500I50000J0D01*
G01*
X3690500Y-7902500D02*
X3790500Y-8002500D01*
X3790500Y-7902500D02*
X3690500Y-8002500D01*
X3790500Y-7952500D02*
G75*
G02*
X3690500Y-7952500I-50000J0D01*
G01*
X3690500Y-7952500D02*
G75*
G02*
X3790500Y-7952500I50000J0D01*
G01*
X7378500Y-4540500D02*
X7478500Y-4640500D01*
X7478500Y-4540500D02*
X7378500Y-4640500D01*
X7478500Y-4590500D02*
G75*
G02*
X7378500Y-4590500I-50000J0D01*
G01*
X7378500Y-4590500D02*
G75*
G02*
X7478500Y-4590500I50000J0D01*
G01*
X7632500Y-4540500D02*
X7732500Y-4640500D01*
X7732500Y-4540500D02*
X7632500Y-4640500D01*
X7732500Y-4590500D02*
G75*
G02*
X7632500Y-4590500I-50000J0D01*
G01*
X7632500Y-4590500D02*
G75*
G02*
X7732500Y-4590500I50000J0D01*
G01*
X7886500Y-4540500D02*
X7986500Y-4640500D01*
X7986500Y-4540500D02*
X7886500Y-4640500D01*
X7986500Y-4590500D02*
G75*
G02*
X7886500Y-4590500I-50000J0D01*
G01*
X7886500Y-4590500D02*
G75*
G02*
X7986500Y-4590500I50000J0D01*
G01*
X8140500Y-4540500D02*
X8240500Y-4640500D01*
X8240500Y-4540500D02*
X8140500Y-4640500D01*
X8240500Y-4590500D02*
G75*
G02*
X8140500Y-4590500I-50000J0D01*
G01*
X8140500Y-4590500D02*
G75*
G02*
X8240500Y-4590500I50000J0D01*
G01*
X8394500Y-4540500D02*
X8494500Y-4640500D01*
X8494500Y-4540500D02*
X8394500Y-4640500D01*
X8494500Y-4590500D02*
G75*
G02*
X8394500Y-4590500I-50000J0D01*
G01*
X8394500Y-4590500D02*
G75*
G02*
X8494500Y-4590500I50000J0D01*
G01*
X8648500Y-4540500D02*
X8748500Y-4640500D01*
X8748500Y-4540500D02*
X8648500Y-4640500D01*
X8748500Y-4590500D02*
G75*
G02*
X8648500Y-4590500I-50000J0D01*
G01*
X8648500Y-4590500D02*
G75*
G02*
X8748500Y-4590500I50000J0D01*
G01*
X8902500Y-4540500D02*
X9002500Y-4640500D01*
X9002500Y-4540500D02*
X8902500Y-4640500D01*
X9002500Y-4590500D02*
G75*
G02*
X8902500Y-4590500I-50000J0D01*
G01*
X8902500Y-4590500D02*
G75*
G02*
X9002500Y-4590500I50000J0D01*
G01*
X9156500Y-4540500D02*
X9256500Y-4640500D01*
X9256500Y-4540500D02*
X9156500Y-4640500D01*
X9256500Y-4590500D02*
G75*
G02*
X9156500Y-4590500I-50000J0D01*
G01*
X9156500Y-4590500D02*
G75*
G02*
X9256500Y-4590500I50000J0D01*
G01*
X9410500Y-4540500D02*
X9510500Y-4640500D01*
X9510500Y-4540500D02*
X9410500Y-4640500D01*
X9510500Y-4590500D02*
G75*
G02*
X9410500Y-4590500I-50000J0D01*
G01*
X9410500Y-4590500D02*
G75*
G02*
X9510500Y-4590500I50000J0D01*
G01*
X10550485Y-5589203D02*
X10650485Y-5689203D01*
X10650485Y-5589203D02*
X10550485Y-5689203D01*
X10650485Y-5639203D02*
G75*
G02*
X10550485Y-5639203I-50000J0D01*
G01*
X10550485Y-5639203D02*
G75*
G02*
X10650485Y-5639203I50000J0D01*
G01*
X10551192Y-6890090D02*
X10651192Y-6990090D01*
X10651192Y-6890090D02*
X10551192Y-6990090D01*
X10651192Y-6940090D02*
G75*
G02*
X10551192Y-6940090I-50000J0D01*
G01*
X10551192Y-6940090D02*
G75*
G02*
X10651192Y-6940090I50000J0D01*
G01*
X10730090Y-5768808D02*
X10830090Y-5868808D01*
X10830090Y-5768808D02*
X10730090Y-5868808D01*
X10830090Y-5818808D02*
G75*
G02*
X10730090Y-5818808I-50000J0D01*
G01*
X10730090Y-5818808D02*
G75*
G02*
X10830090Y-5818808I50000J0D01*
G01*
X10730797Y-6710485D02*
X10830797Y-6810485D01*
X10830797Y-6710485D02*
X10730797Y-6810485D01*
X10830797Y-6760485D02*
G75*
G02*
X10730797Y-6760485I-50000J0D01*
G01*
X10730797Y-6760485D02*
G75*
G02*
X10830797Y-6760485I50000J0D01*
G01*
D11*
X3558777Y-8526484D02*
X3558777Y-8326484D01*
X3558777Y-8326484D02*
X3606396Y-8326484D01*
X3606396Y-8326484D02*
X3634967Y-8336008D01*
X3634967Y-8336008D02*
X3654015Y-8355055D01*
X3654015Y-8355055D02*
X3663539Y-8374103D01*
X3663539Y-8374103D02*
X3673062Y-8412198D01*
X3673062Y-8412198D02*
X3673062Y-8440770D01*
X3673062Y-8440770D02*
X3663539Y-8478865D01*
X3663539Y-8478865D02*
X3654015Y-8497912D01*
X3654015Y-8497912D02*
X3634967Y-8516960D01*
X3634967Y-8516960D02*
X3606396Y-8526484D01*
X3606396Y-8526484D02*
X3558777Y-8526484D01*
X3758777Y-8526484D02*
X3758777Y-8393150D01*
X3758777Y-8431246D02*
X3768301Y-8412198D01*
X3768301Y-8412198D02*
X3777824Y-8402674D01*
X3777824Y-8402674D02*
X3796872Y-8393150D01*
X3796872Y-8393150D02*
X3815920Y-8393150D01*
X3882586Y-8526484D02*
X3882586Y-8393150D01*
X3882586Y-8326484D02*
X3873062Y-8336008D01*
X3873062Y-8336008D02*
X3882586Y-8345531D01*
X3882586Y-8345531D02*
X3892110Y-8336008D01*
X3892110Y-8336008D02*
X3882586Y-8326484D01*
X3882586Y-8326484D02*
X3882586Y-8345531D01*
X4006396Y-8526484D02*
X3987348Y-8516960D01*
X3987348Y-8516960D02*
X3977824Y-8497912D01*
X3977824Y-8497912D02*
X3977824Y-8326484D01*
X4111158Y-8526484D02*
X4092110Y-8516960D01*
X4092110Y-8516960D02*
X4082586Y-8497912D01*
X4082586Y-8497912D02*
X4082586Y-8326484D01*
X4339729Y-8526484D02*
X4339729Y-8326484D01*
X4339729Y-8326484D02*
X4406396Y-8469341D01*
X4406396Y-8469341D02*
X4473063Y-8326484D01*
X4473063Y-8326484D02*
X4473063Y-8526484D01*
X4654015Y-8526484D02*
X4654015Y-8421722D01*
X4654015Y-8421722D02*
X4644491Y-8402674D01*
X4644491Y-8402674D02*
X4625444Y-8393150D01*
X4625444Y-8393150D02*
X4587348Y-8393150D01*
X4587348Y-8393150D02*
X4568301Y-8402674D01*
X4654015Y-8516960D02*
X4634967Y-8526484D01*
X4634967Y-8526484D02*
X4587348Y-8526484D01*
X4587348Y-8526484D02*
X4568301Y-8516960D01*
X4568301Y-8516960D02*
X4558777Y-8497912D01*
X4558777Y-8497912D02*
X4558777Y-8478865D01*
X4558777Y-8478865D02*
X4568301Y-8459817D01*
X4568301Y-8459817D02*
X4587348Y-8450293D01*
X4587348Y-8450293D02*
X4634967Y-8450293D01*
X4634967Y-8450293D02*
X4654015Y-8440770D01*
X4749253Y-8393150D02*
X4749253Y-8593150D01*
X4749253Y-8402674D02*
X4768301Y-8393150D01*
X4768301Y-8393150D02*
X4806396Y-8393150D01*
X4806396Y-8393150D02*
X4825444Y-8402674D01*
X4825444Y-8402674D02*
X4834967Y-8412198D01*
X4834967Y-8412198D02*
X4844491Y-8431246D01*
X4844491Y-8431246D02*
X4844491Y-8488389D01*
X4844491Y-8488389D02*
X4834967Y-8507436D01*
X4834967Y-8507436D02*
X4825444Y-8516960D01*
X4825444Y-8516960D02*
X4806396Y-8526484D01*
X4806396Y-8526484D02*
X4768301Y-8526484D01*
X4768301Y-8526484D02*
X4749253Y-8516960D01*
X4930205Y-8507436D02*
X4939729Y-8516960D01*
X4939729Y-8516960D02*
X4930205Y-8526484D01*
X4930205Y-8526484D02*
X4920682Y-8516960D01*
X4920682Y-8516960D02*
X4930205Y-8507436D01*
X4930205Y-8507436D02*
X4930205Y-8526484D01*
X4930205Y-8402674D02*
X4939729Y-8412198D01*
X4939729Y-8412198D02*
X4930205Y-8421722D01*
X4930205Y-8421722D02*
X4920682Y-8412198D01*
X4920682Y-8412198D02*
X4930205Y-8402674D01*
X4930205Y-8402674D02*
X4930205Y-8421722D01*
D10*
X3288000Y-8850000D02*
X3298000Y-8860000D01*
X3298000Y-8850000D02*
X3288000Y-8860000D01*
D11*
X3596872Y-8746484D02*
X3615920Y-8746484D01*
X3615920Y-8746484D02*
X3634967Y-8756008D01*
X3634967Y-8756008D02*
X3644491Y-8765531D01*
X3644491Y-8765531D02*
X3654015Y-8784579D01*
X3654015Y-8784579D02*
X3663539Y-8822674D01*
X3663539Y-8822674D02*
X3663539Y-8870293D01*
X3663539Y-8870293D02*
X3654015Y-8908389D01*
X3654015Y-8908389D02*
X3644491Y-8927436D01*
X3644491Y-8927436D02*
X3634967Y-8936960D01*
X3634967Y-8936960D02*
X3615920Y-8946484D01*
X3615920Y-8946484D02*
X3596872Y-8946484D01*
X3596872Y-8946484D02*
X3577824Y-8936960D01*
X3577824Y-8936960D02*
X3568301Y-8927436D01*
X3568301Y-8927436D02*
X3558777Y-8908389D01*
X3558777Y-8908389D02*
X3549253Y-8870293D01*
X3549253Y-8870293D02*
X3549253Y-8822674D01*
X3549253Y-8822674D02*
X3558777Y-8784579D01*
X3558777Y-8784579D02*
X3568301Y-8765531D01*
X3568301Y-8765531D02*
X3577824Y-8756008D01*
X3577824Y-8756008D02*
X3596872Y-8746484D01*
X3749253Y-8927436D02*
X3758777Y-8936960D01*
X3758777Y-8936960D02*
X3749253Y-8946484D01*
X3749253Y-8946484D02*
X3739729Y-8936960D01*
X3739729Y-8936960D02*
X3749253Y-8927436D01*
X3749253Y-8927436D02*
X3749253Y-8946484D01*
X3949253Y-8946484D02*
X3834967Y-8946484D01*
X3892110Y-8946484D02*
X3892110Y-8746484D01*
X3892110Y-8746484D02*
X3873062Y-8775055D01*
X3873062Y-8775055D02*
X3854015Y-8794103D01*
X3854015Y-8794103D02*
X3834967Y-8803627D01*
X4073062Y-8746484D02*
X4092110Y-8746484D01*
X4092110Y-8746484D02*
X4111158Y-8756008D01*
X4111158Y-8756008D02*
X4120682Y-8765531D01*
X4120682Y-8765531D02*
X4130205Y-8784579D01*
X4130205Y-8784579D02*
X4139729Y-8822674D01*
X4139729Y-8822674D02*
X4139729Y-8870293D01*
X4139729Y-8870293D02*
X4130205Y-8908389D01*
X4130205Y-8908389D02*
X4120682Y-8927436D01*
X4120682Y-8927436D02*
X4111158Y-8936960D01*
X4111158Y-8936960D02*
X4092110Y-8946484D01*
X4092110Y-8946484D02*
X4073062Y-8946484D01*
X4073062Y-8946484D02*
X4054015Y-8936960D01*
X4054015Y-8936960D02*
X4044491Y-8927436D01*
X4044491Y-8927436D02*
X4034967Y-8908389D01*
X4034967Y-8908389D02*
X4025443Y-8870293D01*
X4025443Y-8870293D02*
X4025443Y-8822674D01*
X4025443Y-8822674D02*
X4034967Y-8784579D01*
X4034967Y-8784579D02*
X4044491Y-8765531D01*
X4044491Y-8765531D02*
X4054015Y-8756008D01*
X4054015Y-8756008D02*
X4073062Y-8746484D01*
X4263539Y-8746484D02*
X4282586Y-8746484D01*
X4282586Y-8746484D02*
X4301634Y-8756008D01*
X4301634Y-8756008D02*
X4311158Y-8765531D01*
X4311158Y-8765531D02*
X4320682Y-8784579D01*
X4320682Y-8784579D02*
X4330205Y-8822674D01*
X4330205Y-8822674D02*
X4330205Y-8870293D01*
X4330205Y-8870293D02*
X4320682Y-8908389D01*
X4320682Y-8908389D02*
X4311158Y-8927436D01*
X4311158Y-8927436D02*
X4301634Y-8936960D01*
X4301634Y-8936960D02*
X4282586Y-8946484D01*
X4282586Y-8946484D02*
X4263539Y-8946484D01*
X4263539Y-8946484D02*
X4244491Y-8936960D01*
X4244491Y-8936960D02*
X4234967Y-8927436D01*
X4234967Y-8927436D02*
X4225444Y-8908389D01*
X4225444Y-8908389D02*
X4215920Y-8870293D01*
X4215920Y-8870293D02*
X4215920Y-8822674D01*
X4215920Y-8822674D02*
X4225444Y-8784579D01*
X4225444Y-8784579D02*
X4234967Y-8765531D01*
X4234967Y-8765531D02*
X4244491Y-8756008D01*
X4244491Y-8756008D02*
X4263539Y-8746484D01*
X4415920Y-8946484D02*
X4415920Y-8813150D01*
X4415920Y-8832198D02*
X4425444Y-8822674D01*
X4425444Y-8822674D02*
X4444491Y-8813150D01*
X4444491Y-8813150D02*
X4473063Y-8813150D01*
X4473063Y-8813150D02*
X4492110Y-8822674D01*
X4492110Y-8822674D02*
X4501634Y-8841722D01*
X4501634Y-8841722D02*
X4501634Y-8946484D01*
X4501634Y-8841722D02*
X4511158Y-8822674D01*
X4511158Y-8822674D02*
X4530205Y-8813150D01*
X4530205Y-8813150D02*
X4558777Y-8813150D01*
X4558777Y-8813150D02*
X4577825Y-8822674D01*
X4577825Y-8822674D02*
X4587348Y-8841722D01*
X4587348Y-8841722D02*
X4587348Y-8946484D01*
X4682586Y-8946484D02*
X4682586Y-8813150D01*
X4682586Y-8832198D02*
X4692110Y-8822674D01*
X4692110Y-8822674D02*
X4711158Y-8813150D01*
X4711158Y-8813150D02*
X4739729Y-8813150D01*
X4739729Y-8813150D02*
X4758777Y-8822674D01*
X4758777Y-8822674D02*
X4768301Y-8841722D01*
X4768301Y-8841722D02*
X4768301Y-8946484D01*
X4768301Y-8841722D02*
X4777825Y-8822674D01*
X4777825Y-8822674D02*
X4796872Y-8813150D01*
X4796872Y-8813150D02*
X4825444Y-8813150D01*
X4825444Y-8813150D02*
X4844491Y-8822674D01*
X4844491Y-8822674D02*
X4854015Y-8841722D01*
X4854015Y-8841722D02*
X4854015Y-8946484D01*
X5244491Y-8736960D02*
X5073063Y-8994103D01*
X5501634Y-8746484D02*
X5520682Y-8746484D01*
X5520682Y-8746484D02*
X5539729Y-8756008D01*
X5539729Y-8756008D02*
X5549253Y-8765531D01*
X5549253Y-8765531D02*
X5558777Y-8784579D01*
X5558777Y-8784579D02*
X5568301Y-8822674D01*
X5568301Y-8822674D02*
X5568301Y-8870293D01*
X5568301Y-8870293D02*
X5558777Y-8908389D01*
X5558777Y-8908389D02*
X5549253Y-8927436D01*
X5549253Y-8927436D02*
X5539729Y-8936960D01*
X5539729Y-8936960D02*
X5520682Y-8946484D01*
X5520682Y-8946484D02*
X5501634Y-8946484D01*
X5501634Y-8946484D02*
X5482587Y-8936960D01*
X5482587Y-8936960D02*
X5473063Y-8927436D01*
X5473063Y-8927436D02*
X5463539Y-8908389D01*
X5463539Y-8908389D02*
X5454015Y-8870293D01*
X5454015Y-8870293D02*
X5454015Y-8822674D01*
X5454015Y-8822674D02*
X5463539Y-8784579D01*
X5463539Y-8784579D02*
X5473063Y-8765531D01*
X5473063Y-8765531D02*
X5482587Y-8756008D01*
X5482587Y-8756008D02*
X5501634Y-8746484D01*
X5654015Y-8927436D02*
X5663539Y-8936960D01*
X5663539Y-8936960D02*
X5654015Y-8946484D01*
X5654015Y-8946484D02*
X5644491Y-8936960D01*
X5644491Y-8936960D02*
X5654015Y-8927436D01*
X5654015Y-8927436D02*
X5654015Y-8946484D01*
X5787348Y-8746484D02*
X5806396Y-8746484D01*
X5806396Y-8746484D02*
X5825444Y-8756008D01*
X5825444Y-8756008D02*
X5834967Y-8765531D01*
X5834967Y-8765531D02*
X5844491Y-8784579D01*
X5844491Y-8784579D02*
X5854015Y-8822674D01*
X5854015Y-8822674D02*
X5854015Y-8870293D01*
X5854015Y-8870293D02*
X5844491Y-8908389D01*
X5844491Y-8908389D02*
X5834967Y-8927436D01*
X5834967Y-8927436D02*
X5825444Y-8936960D01*
X5825444Y-8936960D02*
X5806396Y-8946484D01*
X5806396Y-8946484D02*
X5787348Y-8946484D01*
X5787348Y-8946484D02*
X5768301Y-8936960D01*
X5768301Y-8936960D02*
X5758777Y-8927436D01*
X5758777Y-8927436D02*
X5749253Y-8908389D01*
X5749253Y-8908389D02*
X5739729Y-8870293D01*
X5739729Y-8870293D02*
X5739729Y-8822674D01*
X5739729Y-8822674D02*
X5749253Y-8784579D01*
X5749253Y-8784579D02*
X5758777Y-8765531D01*
X5758777Y-8765531D02*
X5768301Y-8756008D01*
X5768301Y-8756008D02*
X5787348Y-8746484D01*
X5977825Y-8746484D02*
X5996872Y-8746484D01*
X5996872Y-8746484D02*
X6015920Y-8756008D01*
X6015920Y-8756008D02*
X6025444Y-8765531D01*
X6025444Y-8765531D02*
X6034967Y-8784579D01*
X6034967Y-8784579D02*
X6044491Y-8822674D01*
X6044491Y-8822674D02*
X6044491Y-8870293D01*
X6044491Y-8870293D02*
X6034967Y-8908389D01*
X6034967Y-8908389D02*
X6025444Y-8927436D01*
X6025444Y-8927436D02*
X6015920Y-8936960D01*
X6015920Y-8936960D02*
X5996872Y-8946484D01*
X5996872Y-8946484D02*
X5977825Y-8946484D01*
X5977825Y-8946484D02*
X5958777Y-8936960D01*
X5958777Y-8936960D02*
X5949253Y-8927436D01*
X5949253Y-8927436D02*
X5939729Y-8908389D01*
X5939729Y-8908389D02*
X5930206Y-8870293D01*
X5930206Y-8870293D02*
X5930206Y-8822674D01*
X5930206Y-8822674D02*
X5939729Y-8784579D01*
X5939729Y-8784579D02*
X5949253Y-8765531D01*
X5949253Y-8765531D02*
X5958777Y-8756008D01*
X5958777Y-8756008D02*
X5977825Y-8746484D01*
X6111158Y-8746484D02*
X6234967Y-8746484D01*
X6234967Y-8746484D02*
X6168301Y-8822674D01*
X6168301Y-8822674D02*
X6196872Y-8822674D01*
X6196872Y-8822674D02*
X6215920Y-8832198D01*
X6215920Y-8832198D02*
X6225444Y-8841722D01*
X6225444Y-8841722D02*
X6234967Y-8860770D01*
X6234967Y-8860770D02*
X6234967Y-8908389D01*
X6234967Y-8908389D02*
X6225444Y-8927436D01*
X6225444Y-8927436D02*
X6215920Y-8936960D01*
X6215920Y-8936960D02*
X6196872Y-8946484D01*
X6196872Y-8946484D02*
X6139729Y-8946484D01*
X6139729Y-8946484D02*
X6120682Y-8936960D01*
X6120682Y-8936960D02*
X6111158Y-8927436D01*
X6330206Y-8946484D02*
X6368301Y-8946484D01*
X6368301Y-8946484D02*
X6387348Y-8936960D01*
X6387348Y-8936960D02*
X6396872Y-8927436D01*
X6396872Y-8927436D02*
X6415920Y-8898865D01*
X6415920Y-8898865D02*
X6425444Y-8860770D01*
X6425444Y-8860770D02*
X6425444Y-8784579D01*
X6425444Y-8784579D02*
X6415920Y-8765531D01*
X6415920Y-8765531D02*
X6406396Y-8756008D01*
X6406396Y-8756008D02*
X6387348Y-8746484D01*
X6387348Y-8746484D02*
X6349253Y-8746484D01*
X6349253Y-8746484D02*
X6330206Y-8756008D01*
X6330206Y-8756008D02*
X6320682Y-8765531D01*
X6320682Y-8765531D02*
X6311158Y-8784579D01*
X6311158Y-8784579D02*
X6311158Y-8832198D01*
X6311158Y-8832198D02*
X6320682Y-8851246D01*
X6320682Y-8851246D02*
X6330206Y-8860770D01*
X6330206Y-8860770D02*
X6349253Y-8870293D01*
X6349253Y-8870293D02*
X6387348Y-8870293D01*
X6387348Y-8870293D02*
X6406396Y-8860770D01*
X6406396Y-8860770D02*
X6415920Y-8851246D01*
X6415920Y-8851246D02*
X6425444Y-8832198D01*
X6501634Y-8746484D02*
X6501634Y-8784579D01*
X6577825Y-8746484D02*
X6577825Y-8784579D01*
X6873063Y-9022674D02*
X6863539Y-9013150D01*
X6863539Y-9013150D02*
X6844491Y-8984579D01*
X6844491Y-8984579D02*
X6834968Y-8965531D01*
X6834968Y-8965531D02*
X6825444Y-8936960D01*
X6825444Y-8936960D02*
X6815920Y-8889341D01*
X6815920Y-8889341D02*
X6815920Y-8851246D01*
X6815920Y-8851246D02*
X6825444Y-8803627D01*
X6825444Y-8803627D02*
X6834968Y-8775055D01*
X6834968Y-8775055D02*
X6844491Y-8756008D01*
X6844491Y-8756008D02*
X6863539Y-8727436D01*
X6863539Y-8727436D02*
X6873063Y-8717912D01*
X6930206Y-8746484D02*
X7054015Y-8746484D01*
X7054015Y-8746484D02*
X6987348Y-8822674D01*
X6987348Y-8822674D02*
X7015920Y-8822674D01*
X7015920Y-8822674D02*
X7034968Y-8832198D01*
X7034968Y-8832198D02*
X7044491Y-8841722D01*
X7044491Y-8841722D02*
X7054015Y-8860770D01*
X7054015Y-8860770D02*
X7054015Y-8908389D01*
X7054015Y-8908389D02*
X7044491Y-8927436D01*
X7044491Y-8927436D02*
X7034968Y-8936960D01*
X7034968Y-8936960D02*
X7015920Y-8946484D01*
X7015920Y-8946484D02*
X6958777Y-8946484D01*
X6958777Y-8946484D02*
X6939729Y-8936960D01*
X6939729Y-8936960D02*
X6930206Y-8927436D01*
X7225444Y-8813150D02*
X7225444Y-8946484D01*
X7177825Y-8736960D02*
X7130206Y-8879817D01*
X7130206Y-8879817D02*
X7254015Y-8879817D01*
X7482587Y-8946484D02*
X7482587Y-8746484D01*
X7568301Y-8946484D02*
X7568301Y-8841722D01*
X7568301Y-8841722D02*
X7558777Y-8822674D01*
X7558777Y-8822674D02*
X7539730Y-8813150D01*
X7539730Y-8813150D02*
X7511158Y-8813150D01*
X7511158Y-8813150D02*
X7492110Y-8822674D01*
X7492110Y-8822674D02*
X7482587Y-8832198D01*
X7692110Y-8946484D02*
X7673063Y-8936960D01*
X7673063Y-8936960D02*
X7663539Y-8927436D01*
X7663539Y-8927436D02*
X7654015Y-8908389D01*
X7654015Y-8908389D02*
X7654015Y-8851246D01*
X7654015Y-8851246D02*
X7663539Y-8832198D01*
X7663539Y-8832198D02*
X7673063Y-8822674D01*
X7673063Y-8822674D02*
X7692110Y-8813150D01*
X7692110Y-8813150D02*
X7720682Y-8813150D01*
X7720682Y-8813150D02*
X7739730Y-8822674D01*
X7739730Y-8822674D02*
X7749253Y-8832198D01*
X7749253Y-8832198D02*
X7758777Y-8851246D01*
X7758777Y-8851246D02*
X7758777Y-8908389D01*
X7758777Y-8908389D02*
X7749253Y-8927436D01*
X7749253Y-8927436D02*
X7739730Y-8936960D01*
X7739730Y-8936960D02*
X7720682Y-8946484D01*
X7720682Y-8946484D02*
X7692110Y-8946484D01*
X7873063Y-8946484D02*
X7854015Y-8936960D01*
X7854015Y-8936960D02*
X7844491Y-8917912D01*
X7844491Y-8917912D02*
X7844491Y-8746484D01*
X8025444Y-8936960D02*
X8006396Y-8946484D01*
X8006396Y-8946484D02*
X7968301Y-8946484D01*
X7968301Y-8946484D02*
X7949253Y-8936960D01*
X7949253Y-8936960D02*
X7939730Y-8917912D01*
X7939730Y-8917912D02*
X7939730Y-8841722D01*
X7939730Y-8841722D02*
X7949253Y-8822674D01*
X7949253Y-8822674D02*
X7968301Y-8813150D01*
X7968301Y-8813150D02*
X8006396Y-8813150D01*
X8006396Y-8813150D02*
X8025444Y-8822674D01*
X8025444Y-8822674D02*
X8034968Y-8841722D01*
X8034968Y-8841722D02*
X8034968Y-8860770D01*
X8034968Y-8860770D02*
X7939730Y-8879817D01*
X8111158Y-8936960D02*
X8130206Y-8946484D01*
X8130206Y-8946484D02*
X8168301Y-8946484D01*
X8168301Y-8946484D02*
X8187349Y-8936960D01*
X8187349Y-8936960D02*
X8196872Y-8917912D01*
X8196872Y-8917912D02*
X8196872Y-8908389D01*
X8196872Y-8908389D02*
X8187349Y-8889341D01*
X8187349Y-8889341D02*
X8168301Y-8879817D01*
X8168301Y-8879817D02*
X8139730Y-8879817D01*
X8139730Y-8879817D02*
X8120682Y-8870293D01*
X8120682Y-8870293D02*
X8111158Y-8851246D01*
X8111158Y-8851246D02*
X8111158Y-8841722D01*
X8111158Y-8841722D02*
X8120682Y-8822674D01*
X8120682Y-8822674D02*
X8139730Y-8813150D01*
X8139730Y-8813150D02*
X8168301Y-8813150D01*
X8168301Y-8813150D02*
X8187349Y-8822674D01*
X8263539Y-9022674D02*
X8273063Y-9013150D01*
X8273063Y-9013150D02*
X8292111Y-8984579D01*
X8292111Y-8984579D02*
X8301634Y-8965531D01*
X8301634Y-8965531D02*
X8311158Y-8936960D01*
X8311158Y-8936960D02*
X8320682Y-8889341D01*
X8320682Y-8889341D02*
X8320682Y-8851246D01*
X8320682Y-8851246D02*
X8311158Y-8803627D01*
X8311158Y-8803627D02*
X8301634Y-8775055D01*
X8301634Y-8775055D02*
X8292111Y-8756008D01*
X8292111Y-8756008D02*
X8273063Y-8727436D01*
X8273063Y-8727436D02*
X8263539Y-8717912D01*
D10*
X3298000Y-9119000D02*
G75*
G02*
X3258000Y-9119000I-20000J0D01*
G01*
X3258000Y-9119000D02*
G75*
G02*
X3298000Y-9119000I20000J0D01*
G01*
D11*
X3596872Y-9010484D02*
X3615920Y-9010484D01*
X3615920Y-9010484D02*
X3634967Y-9020008D01*
X3634967Y-9020008D02*
X3644491Y-9029531D01*
X3644491Y-9029531D02*
X3654015Y-9048579D01*
X3654015Y-9048579D02*
X3663539Y-9086674D01*
X3663539Y-9086674D02*
X3663539Y-9134293D01*
X3663539Y-9134293D02*
X3654015Y-9172389D01*
X3654015Y-9172389D02*
X3644491Y-9191436D01*
X3644491Y-9191436D02*
X3634967Y-9200960D01*
X3634967Y-9200960D02*
X3615920Y-9210484D01*
X3615920Y-9210484D02*
X3596872Y-9210484D01*
X3596872Y-9210484D02*
X3577824Y-9200960D01*
X3577824Y-9200960D02*
X3568301Y-9191436D01*
X3568301Y-9191436D02*
X3558777Y-9172389D01*
X3558777Y-9172389D02*
X3549253Y-9134293D01*
X3549253Y-9134293D02*
X3549253Y-9086674D01*
X3549253Y-9086674D02*
X3558777Y-9048579D01*
X3558777Y-9048579D02*
X3568301Y-9029531D01*
X3568301Y-9029531D02*
X3577824Y-9020008D01*
X3577824Y-9020008D02*
X3596872Y-9010484D01*
X3749253Y-9191436D02*
X3758777Y-9200960D01*
X3758777Y-9200960D02*
X3749253Y-9210484D01*
X3749253Y-9210484D02*
X3739729Y-9200960D01*
X3739729Y-9200960D02*
X3749253Y-9191436D01*
X3749253Y-9191436D02*
X3749253Y-9210484D01*
X3930205Y-9077150D02*
X3930205Y-9210484D01*
X3882586Y-9000960D02*
X3834967Y-9143817D01*
X3834967Y-9143817D02*
X3958777Y-9143817D01*
X4073062Y-9010484D02*
X4092110Y-9010484D01*
X4092110Y-9010484D02*
X4111158Y-9020008D01*
X4111158Y-9020008D02*
X4120682Y-9029531D01*
X4120682Y-9029531D02*
X4130205Y-9048579D01*
X4130205Y-9048579D02*
X4139729Y-9086674D01*
X4139729Y-9086674D02*
X4139729Y-9134293D01*
X4139729Y-9134293D02*
X4130205Y-9172389D01*
X4130205Y-9172389D02*
X4120682Y-9191436D01*
X4120682Y-9191436D02*
X4111158Y-9200960D01*
X4111158Y-9200960D02*
X4092110Y-9210484D01*
X4092110Y-9210484D02*
X4073062Y-9210484D01*
X4073062Y-9210484D02*
X4054015Y-9200960D01*
X4054015Y-9200960D02*
X4044491Y-9191436D01*
X4044491Y-9191436D02*
X4034967Y-9172389D01*
X4034967Y-9172389D02*
X4025443Y-9134293D01*
X4025443Y-9134293D02*
X4025443Y-9086674D01*
X4025443Y-9086674D02*
X4034967Y-9048579D01*
X4034967Y-9048579D02*
X4044491Y-9029531D01*
X4044491Y-9029531D02*
X4054015Y-9020008D01*
X4054015Y-9020008D02*
X4073062Y-9010484D01*
X4263539Y-9010484D02*
X4282586Y-9010484D01*
X4282586Y-9010484D02*
X4301634Y-9020008D01*
X4301634Y-9020008D02*
X4311158Y-9029531D01*
X4311158Y-9029531D02*
X4320682Y-9048579D01*
X4320682Y-9048579D02*
X4330205Y-9086674D01*
X4330205Y-9086674D02*
X4330205Y-9134293D01*
X4330205Y-9134293D02*
X4320682Y-9172389D01*
X4320682Y-9172389D02*
X4311158Y-9191436D01*
X4311158Y-9191436D02*
X4301634Y-9200960D01*
X4301634Y-9200960D02*
X4282586Y-9210484D01*
X4282586Y-9210484D02*
X4263539Y-9210484D01*
X4263539Y-9210484D02*
X4244491Y-9200960D01*
X4244491Y-9200960D02*
X4234967Y-9191436D01*
X4234967Y-9191436D02*
X4225444Y-9172389D01*
X4225444Y-9172389D02*
X4215920Y-9134293D01*
X4215920Y-9134293D02*
X4215920Y-9086674D01*
X4215920Y-9086674D02*
X4225444Y-9048579D01*
X4225444Y-9048579D02*
X4234967Y-9029531D01*
X4234967Y-9029531D02*
X4244491Y-9020008D01*
X4244491Y-9020008D02*
X4263539Y-9010484D01*
X4415920Y-9210484D02*
X4415920Y-9077150D01*
X4415920Y-9096198D02*
X4425444Y-9086674D01*
X4425444Y-9086674D02*
X4444491Y-9077150D01*
X4444491Y-9077150D02*
X4473063Y-9077150D01*
X4473063Y-9077150D02*
X4492110Y-9086674D01*
X4492110Y-9086674D02*
X4501634Y-9105722D01*
X4501634Y-9105722D02*
X4501634Y-9210484D01*
X4501634Y-9105722D02*
X4511158Y-9086674D01*
X4511158Y-9086674D02*
X4530205Y-9077150D01*
X4530205Y-9077150D02*
X4558777Y-9077150D01*
X4558777Y-9077150D02*
X4577825Y-9086674D01*
X4577825Y-9086674D02*
X4587348Y-9105722D01*
X4587348Y-9105722D02*
X4587348Y-9210484D01*
X4682586Y-9210484D02*
X4682586Y-9077150D01*
X4682586Y-9096198D02*
X4692110Y-9086674D01*
X4692110Y-9086674D02*
X4711158Y-9077150D01*
X4711158Y-9077150D02*
X4739729Y-9077150D01*
X4739729Y-9077150D02*
X4758777Y-9086674D01*
X4758777Y-9086674D02*
X4768301Y-9105722D01*
X4768301Y-9105722D02*
X4768301Y-9210484D01*
X4768301Y-9105722D02*
X4777825Y-9086674D01*
X4777825Y-9086674D02*
X4796872Y-9077150D01*
X4796872Y-9077150D02*
X4825444Y-9077150D01*
X4825444Y-9077150D02*
X4844491Y-9086674D01*
X4844491Y-9086674D02*
X4854015Y-9105722D01*
X4854015Y-9105722D02*
X4854015Y-9210484D01*
X5244491Y-9000960D02*
X5073063Y-9258103D01*
X5501634Y-9010484D02*
X5520682Y-9010484D01*
X5520682Y-9010484D02*
X5539729Y-9020008D01*
X5539729Y-9020008D02*
X5549253Y-9029531D01*
X5549253Y-9029531D02*
X5558777Y-9048579D01*
X5558777Y-9048579D02*
X5568301Y-9086674D01*
X5568301Y-9086674D02*
X5568301Y-9134293D01*
X5568301Y-9134293D02*
X5558777Y-9172389D01*
X5558777Y-9172389D02*
X5549253Y-9191436D01*
X5549253Y-9191436D02*
X5539729Y-9200960D01*
X5539729Y-9200960D02*
X5520682Y-9210484D01*
X5520682Y-9210484D02*
X5501634Y-9210484D01*
X5501634Y-9210484D02*
X5482587Y-9200960D01*
X5482587Y-9200960D02*
X5473063Y-9191436D01*
X5473063Y-9191436D02*
X5463539Y-9172389D01*
X5463539Y-9172389D02*
X5454015Y-9134293D01*
X5454015Y-9134293D02*
X5454015Y-9086674D01*
X5454015Y-9086674D02*
X5463539Y-9048579D01*
X5463539Y-9048579D02*
X5473063Y-9029531D01*
X5473063Y-9029531D02*
X5482587Y-9020008D01*
X5482587Y-9020008D02*
X5501634Y-9010484D01*
X5654015Y-9191436D02*
X5663539Y-9200960D01*
X5663539Y-9200960D02*
X5654015Y-9210484D01*
X5654015Y-9210484D02*
X5644491Y-9200960D01*
X5644491Y-9200960D02*
X5654015Y-9191436D01*
X5654015Y-9191436D02*
X5654015Y-9210484D01*
X5787348Y-9010484D02*
X5806396Y-9010484D01*
X5806396Y-9010484D02*
X5825444Y-9020008D01*
X5825444Y-9020008D02*
X5834967Y-9029531D01*
X5834967Y-9029531D02*
X5844491Y-9048579D01*
X5844491Y-9048579D02*
X5854015Y-9086674D01*
X5854015Y-9086674D02*
X5854015Y-9134293D01*
X5854015Y-9134293D02*
X5844491Y-9172389D01*
X5844491Y-9172389D02*
X5834967Y-9191436D01*
X5834967Y-9191436D02*
X5825444Y-9200960D01*
X5825444Y-9200960D02*
X5806396Y-9210484D01*
X5806396Y-9210484D02*
X5787348Y-9210484D01*
X5787348Y-9210484D02*
X5768301Y-9200960D01*
X5768301Y-9200960D02*
X5758777Y-9191436D01*
X5758777Y-9191436D02*
X5749253Y-9172389D01*
X5749253Y-9172389D02*
X5739729Y-9134293D01*
X5739729Y-9134293D02*
X5739729Y-9086674D01*
X5739729Y-9086674D02*
X5749253Y-9048579D01*
X5749253Y-9048579D02*
X5758777Y-9029531D01*
X5758777Y-9029531D02*
X5768301Y-9020008D01*
X5768301Y-9020008D02*
X5787348Y-9010484D01*
X6044491Y-9210484D02*
X5930206Y-9210484D01*
X5987348Y-9210484D02*
X5987348Y-9010484D01*
X5987348Y-9010484D02*
X5968301Y-9039055D01*
X5968301Y-9039055D02*
X5949253Y-9058103D01*
X5949253Y-9058103D02*
X5930206Y-9067627D01*
X6225444Y-9010484D02*
X6130206Y-9010484D01*
X6130206Y-9010484D02*
X6120682Y-9105722D01*
X6120682Y-9105722D02*
X6130206Y-9096198D01*
X6130206Y-9096198D02*
X6149253Y-9086674D01*
X6149253Y-9086674D02*
X6196872Y-9086674D01*
X6196872Y-9086674D02*
X6215920Y-9096198D01*
X6215920Y-9096198D02*
X6225444Y-9105722D01*
X6225444Y-9105722D02*
X6234967Y-9124770D01*
X6234967Y-9124770D02*
X6234967Y-9172389D01*
X6234967Y-9172389D02*
X6225444Y-9191436D01*
X6225444Y-9191436D02*
X6215920Y-9200960D01*
X6215920Y-9200960D02*
X6196872Y-9210484D01*
X6196872Y-9210484D02*
X6149253Y-9210484D01*
X6149253Y-9210484D02*
X6130206Y-9200960D01*
X6130206Y-9200960D02*
X6120682Y-9191436D01*
X6301634Y-9010484D02*
X6434967Y-9010484D01*
X6434967Y-9010484D02*
X6349253Y-9210484D01*
X6501634Y-9010484D02*
X6501634Y-9048579D01*
X6577825Y-9010484D02*
X6577825Y-9048579D01*
X6873063Y-9286674D02*
X6863539Y-9277150D01*
X6863539Y-9277150D02*
X6844491Y-9248579D01*
X6844491Y-9248579D02*
X6834968Y-9229531D01*
X6834968Y-9229531D02*
X6825444Y-9200960D01*
X6825444Y-9200960D02*
X6815920Y-9153341D01*
X6815920Y-9153341D02*
X6815920Y-9115246D01*
X6815920Y-9115246D02*
X6825444Y-9067627D01*
X6825444Y-9067627D02*
X6834968Y-9039055D01*
X6834968Y-9039055D02*
X6844491Y-9020008D01*
X6844491Y-9020008D02*
X6863539Y-8991436D01*
X6863539Y-8991436D02*
X6873063Y-8981912D01*
X7034968Y-9010484D02*
X6996872Y-9010484D01*
X6996872Y-9010484D02*
X6977825Y-9020008D01*
X6977825Y-9020008D02*
X6968301Y-9029531D01*
X6968301Y-9029531D02*
X6949253Y-9058103D01*
X6949253Y-9058103D02*
X6939729Y-9096198D01*
X6939729Y-9096198D02*
X6939729Y-9172389D01*
X6939729Y-9172389D02*
X6949253Y-9191436D01*
X6949253Y-9191436D02*
X6958777Y-9200960D01*
X6958777Y-9200960D02*
X6977825Y-9210484D01*
X6977825Y-9210484D02*
X7015920Y-9210484D01*
X7015920Y-9210484D02*
X7034968Y-9200960D01*
X7034968Y-9200960D02*
X7044491Y-9191436D01*
X7044491Y-9191436D02*
X7054015Y-9172389D01*
X7054015Y-9172389D02*
X7054015Y-9124770D01*
X7054015Y-9124770D02*
X7044491Y-9105722D01*
X7044491Y-9105722D02*
X7034968Y-9096198D01*
X7034968Y-9096198D02*
X7015920Y-9086674D01*
X7015920Y-9086674D02*
X6977825Y-9086674D01*
X6977825Y-9086674D02*
X6958777Y-9096198D01*
X6958777Y-9096198D02*
X6949253Y-9105722D01*
X6949253Y-9105722D02*
X6939729Y-9124770D01*
X7149253Y-9210484D02*
X7187348Y-9210484D01*
X7187348Y-9210484D02*
X7206396Y-9200960D01*
X7206396Y-9200960D02*
X7215920Y-9191436D01*
X7215920Y-9191436D02*
X7234968Y-9162865D01*
X7234968Y-9162865D02*
X7244491Y-9124770D01*
X7244491Y-9124770D02*
X7244491Y-9048579D01*
X7244491Y-9048579D02*
X7234968Y-9029531D01*
X7234968Y-9029531D02*
X7225444Y-9020008D01*
X7225444Y-9020008D02*
X7206396Y-9010484D01*
X7206396Y-9010484D02*
X7168301Y-9010484D01*
X7168301Y-9010484D02*
X7149253Y-9020008D01*
X7149253Y-9020008D02*
X7139729Y-9029531D01*
X7139729Y-9029531D02*
X7130206Y-9048579D01*
X7130206Y-9048579D02*
X7130206Y-9096198D01*
X7130206Y-9096198D02*
X7139729Y-9115246D01*
X7139729Y-9115246D02*
X7149253Y-9124770D01*
X7149253Y-9124770D02*
X7168301Y-9134293D01*
X7168301Y-9134293D02*
X7206396Y-9134293D01*
X7206396Y-9134293D02*
X7225444Y-9124770D01*
X7225444Y-9124770D02*
X7234968Y-9115246D01*
X7234968Y-9115246D02*
X7244491Y-9096198D01*
X7482587Y-9210484D02*
X7482587Y-9010484D01*
X7568301Y-9210484D02*
X7568301Y-9105722D01*
X7568301Y-9105722D02*
X7558777Y-9086674D01*
X7558777Y-9086674D02*
X7539730Y-9077150D01*
X7539730Y-9077150D02*
X7511158Y-9077150D01*
X7511158Y-9077150D02*
X7492110Y-9086674D01*
X7492110Y-9086674D02*
X7482587Y-9096198D01*
X7692110Y-9210484D02*
X7673063Y-9200960D01*
X7673063Y-9200960D02*
X7663539Y-9191436D01*
X7663539Y-9191436D02*
X7654015Y-9172389D01*
X7654015Y-9172389D02*
X7654015Y-9115246D01*
X7654015Y-9115246D02*
X7663539Y-9096198D01*
X7663539Y-9096198D02*
X7673063Y-9086674D01*
X7673063Y-9086674D02*
X7692110Y-9077150D01*
X7692110Y-9077150D02*
X7720682Y-9077150D01*
X7720682Y-9077150D02*
X7739730Y-9086674D01*
X7739730Y-9086674D02*
X7749253Y-9096198D01*
X7749253Y-9096198D02*
X7758777Y-9115246D01*
X7758777Y-9115246D02*
X7758777Y-9172389D01*
X7758777Y-9172389D02*
X7749253Y-9191436D01*
X7749253Y-9191436D02*
X7739730Y-9200960D01*
X7739730Y-9200960D02*
X7720682Y-9210484D01*
X7720682Y-9210484D02*
X7692110Y-9210484D01*
X7873063Y-9210484D02*
X7854015Y-9200960D01*
X7854015Y-9200960D02*
X7844491Y-9181912D01*
X7844491Y-9181912D02*
X7844491Y-9010484D01*
X8025444Y-9200960D02*
X8006396Y-9210484D01*
X8006396Y-9210484D02*
X7968301Y-9210484D01*
X7968301Y-9210484D02*
X7949253Y-9200960D01*
X7949253Y-9200960D02*
X7939730Y-9181912D01*
X7939730Y-9181912D02*
X7939730Y-9105722D01*
X7939730Y-9105722D02*
X7949253Y-9086674D01*
X7949253Y-9086674D02*
X7968301Y-9077150D01*
X7968301Y-9077150D02*
X8006396Y-9077150D01*
X8006396Y-9077150D02*
X8025444Y-9086674D01*
X8025444Y-9086674D02*
X8034968Y-9105722D01*
X8034968Y-9105722D02*
X8034968Y-9124770D01*
X8034968Y-9124770D02*
X7939730Y-9143817D01*
X8111158Y-9200960D02*
X8130206Y-9210484D01*
X8130206Y-9210484D02*
X8168301Y-9210484D01*
X8168301Y-9210484D02*
X8187349Y-9200960D01*
X8187349Y-9200960D02*
X8196872Y-9181912D01*
X8196872Y-9181912D02*
X8196872Y-9172389D01*
X8196872Y-9172389D02*
X8187349Y-9153341D01*
X8187349Y-9153341D02*
X8168301Y-9143817D01*
X8168301Y-9143817D02*
X8139730Y-9143817D01*
X8139730Y-9143817D02*
X8120682Y-9134293D01*
X8120682Y-9134293D02*
X8111158Y-9115246D01*
X8111158Y-9115246D02*
X8111158Y-9105722D01*
X8111158Y-9105722D02*
X8120682Y-9086674D01*
X8120682Y-9086674D02*
X8139730Y-9077150D01*
X8139730Y-9077150D02*
X8168301Y-9077150D01*
X8168301Y-9077150D02*
X8187349Y-9086674D01*
X8263539Y-9286674D02*
X8273063Y-9277150D01*
X8273063Y-9277150D02*
X8292111Y-9248579D01*
X8292111Y-9248579D02*
X8301634Y-9229531D01*
X8301634Y-9229531D02*
X8311158Y-9200960D01*
X8311158Y-9200960D02*
X8320682Y-9153341D01*
X8320682Y-9153341D02*
X8320682Y-9115246D01*
X8320682Y-9115246D02*
X8311158Y-9067627D01*
X8311158Y-9067627D02*
X8301634Y-9039055D01*
X8301634Y-9039055D02*
X8292111Y-9020008D01*
X8292111Y-9020008D02*
X8273063Y-8991436D01*
X8273063Y-8991436D02*
X8263539Y-8981912D01*
D10*
X3278000Y-9363000D02*
X3278000Y-9403000D01*
X3258000Y-9383000D02*
X3298000Y-9383000D01*
D11*
X3596872Y-9274484D02*
X3615920Y-9274484D01*
X3615920Y-9274484D02*
X3634967Y-9284008D01*
X3634967Y-9284008D02*
X3644491Y-9293531D01*
X3644491Y-9293531D02*
X3654015Y-9312579D01*
X3654015Y-9312579D02*
X3663539Y-9350674D01*
X3663539Y-9350674D02*
X3663539Y-9398293D01*
X3663539Y-9398293D02*
X3654015Y-9436389D01*
X3654015Y-9436389D02*
X3644491Y-9455436D01*
X3644491Y-9455436D02*
X3634967Y-9464960D01*
X3634967Y-9464960D02*
X3615920Y-9474484D01*
X3615920Y-9474484D02*
X3596872Y-9474484D01*
X3596872Y-9474484D02*
X3577824Y-9464960D01*
X3577824Y-9464960D02*
X3568301Y-9455436D01*
X3568301Y-9455436D02*
X3558777Y-9436389D01*
X3558777Y-9436389D02*
X3549253Y-9398293D01*
X3549253Y-9398293D02*
X3549253Y-9350674D01*
X3549253Y-9350674D02*
X3558777Y-9312579D01*
X3558777Y-9312579D02*
X3568301Y-9293531D01*
X3568301Y-9293531D02*
X3577824Y-9284008D01*
X3577824Y-9284008D02*
X3596872Y-9274484D01*
X3749253Y-9455436D02*
X3758777Y-9464960D01*
X3758777Y-9464960D02*
X3749253Y-9474484D01*
X3749253Y-9474484D02*
X3739729Y-9464960D01*
X3739729Y-9464960D02*
X3749253Y-9455436D01*
X3749253Y-9455436D02*
X3749253Y-9474484D01*
X3930205Y-9341150D02*
X3930205Y-9474484D01*
X3882586Y-9264960D02*
X3834967Y-9407817D01*
X3834967Y-9407817D02*
X3958777Y-9407817D01*
X4073062Y-9274484D02*
X4092110Y-9274484D01*
X4092110Y-9274484D02*
X4111158Y-9284008D01*
X4111158Y-9284008D02*
X4120682Y-9293531D01*
X4120682Y-9293531D02*
X4130205Y-9312579D01*
X4130205Y-9312579D02*
X4139729Y-9350674D01*
X4139729Y-9350674D02*
X4139729Y-9398293D01*
X4139729Y-9398293D02*
X4130205Y-9436389D01*
X4130205Y-9436389D02*
X4120682Y-9455436D01*
X4120682Y-9455436D02*
X4111158Y-9464960D01*
X4111158Y-9464960D02*
X4092110Y-9474484D01*
X4092110Y-9474484D02*
X4073062Y-9474484D01*
X4073062Y-9474484D02*
X4054015Y-9464960D01*
X4054015Y-9464960D02*
X4044491Y-9455436D01*
X4044491Y-9455436D02*
X4034967Y-9436389D01*
X4034967Y-9436389D02*
X4025443Y-9398293D01*
X4025443Y-9398293D02*
X4025443Y-9350674D01*
X4025443Y-9350674D02*
X4034967Y-9312579D01*
X4034967Y-9312579D02*
X4044491Y-9293531D01*
X4044491Y-9293531D02*
X4054015Y-9284008D01*
X4054015Y-9284008D02*
X4073062Y-9274484D01*
X4263539Y-9274484D02*
X4282586Y-9274484D01*
X4282586Y-9274484D02*
X4301634Y-9284008D01*
X4301634Y-9284008D02*
X4311158Y-9293531D01*
X4311158Y-9293531D02*
X4320682Y-9312579D01*
X4320682Y-9312579D02*
X4330205Y-9350674D01*
X4330205Y-9350674D02*
X4330205Y-9398293D01*
X4330205Y-9398293D02*
X4320682Y-9436389D01*
X4320682Y-9436389D02*
X4311158Y-9455436D01*
X4311158Y-9455436D02*
X4301634Y-9464960D01*
X4301634Y-9464960D02*
X4282586Y-9474484D01*
X4282586Y-9474484D02*
X4263539Y-9474484D01*
X4263539Y-9474484D02*
X4244491Y-9464960D01*
X4244491Y-9464960D02*
X4234967Y-9455436D01*
X4234967Y-9455436D02*
X4225444Y-9436389D01*
X4225444Y-9436389D02*
X4215920Y-9398293D01*
X4215920Y-9398293D02*
X4215920Y-9350674D01*
X4215920Y-9350674D02*
X4225444Y-9312579D01*
X4225444Y-9312579D02*
X4234967Y-9293531D01*
X4234967Y-9293531D02*
X4244491Y-9284008D01*
X4244491Y-9284008D02*
X4263539Y-9274484D01*
X4415920Y-9474484D02*
X4415920Y-9341150D01*
X4415920Y-9360198D02*
X4425444Y-9350674D01*
X4425444Y-9350674D02*
X4444491Y-9341150D01*
X4444491Y-9341150D02*
X4473063Y-9341150D01*
X4473063Y-9341150D02*
X4492110Y-9350674D01*
X4492110Y-9350674D02*
X4501634Y-9369722D01*
X4501634Y-9369722D02*
X4501634Y-9474484D01*
X4501634Y-9369722D02*
X4511158Y-9350674D01*
X4511158Y-9350674D02*
X4530205Y-9341150D01*
X4530205Y-9341150D02*
X4558777Y-9341150D01*
X4558777Y-9341150D02*
X4577825Y-9350674D01*
X4577825Y-9350674D02*
X4587348Y-9369722D01*
X4587348Y-9369722D02*
X4587348Y-9474484D01*
X4682586Y-9474484D02*
X4682586Y-9341150D01*
X4682586Y-9360198D02*
X4692110Y-9350674D01*
X4692110Y-9350674D02*
X4711158Y-9341150D01*
X4711158Y-9341150D02*
X4739729Y-9341150D01*
X4739729Y-9341150D02*
X4758777Y-9350674D01*
X4758777Y-9350674D02*
X4768301Y-9369722D01*
X4768301Y-9369722D02*
X4768301Y-9474484D01*
X4768301Y-9369722D02*
X4777825Y-9350674D01*
X4777825Y-9350674D02*
X4796872Y-9341150D01*
X4796872Y-9341150D02*
X4825444Y-9341150D01*
X4825444Y-9341150D02*
X4844491Y-9350674D01*
X4844491Y-9350674D02*
X4854015Y-9369722D01*
X4854015Y-9369722D02*
X4854015Y-9474484D01*
X5244491Y-9264960D02*
X5073063Y-9522103D01*
X5501634Y-9274484D02*
X5520682Y-9274484D01*
X5520682Y-9274484D02*
X5539729Y-9284008D01*
X5539729Y-9284008D02*
X5549253Y-9293531D01*
X5549253Y-9293531D02*
X5558777Y-9312579D01*
X5558777Y-9312579D02*
X5568301Y-9350674D01*
X5568301Y-9350674D02*
X5568301Y-9398293D01*
X5568301Y-9398293D02*
X5558777Y-9436389D01*
X5558777Y-9436389D02*
X5549253Y-9455436D01*
X5549253Y-9455436D02*
X5539729Y-9464960D01*
X5539729Y-9464960D02*
X5520682Y-9474484D01*
X5520682Y-9474484D02*
X5501634Y-9474484D01*
X5501634Y-9474484D02*
X5482587Y-9464960D01*
X5482587Y-9464960D02*
X5473063Y-9455436D01*
X5473063Y-9455436D02*
X5463539Y-9436389D01*
X5463539Y-9436389D02*
X5454015Y-9398293D01*
X5454015Y-9398293D02*
X5454015Y-9350674D01*
X5454015Y-9350674D02*
X5463539Y-9312579D01*
X5463539Y-9312579D02*
X5473063Y-9293531D01*
X5473063Y-9293531D02*
X5482587Y-9284008D01*
X5482587Y-9284008D02*
X5501634Y-9274484D01*
X5654015Y-9455436D02*
X5663539Y-9464960D01*
X5663539Y-9464960D02*
X5654015Y-9474484D01*
X5654015Y-9474484D02*
X5644491Y-9464960D01*
X5644491Y-9464960D02*
X5654015Y-9455436D01*
X5654015Y-9455436D02*
X5654015Y-9474484D01*
X5787348Y-9274484D02*
X5806396Y-9274484D01*
X5806396Y-9274484D02*
X5825444Y-9284008D01*
X5825444Y-9284008D02*
X5834967Y-9293531D01*
X5834967Y-9293531D02*
X5844491Y-9312579D01*
X5844491Y-9312579D02*
X5854015Y-9350674D01*
X5854015Y-9350674D02*
X5854015Y-9398293D01*
X5854015Y-9398293D02*
X5844491Y-9436389D01*
X5844491Y-9436389D02*
X5834967Y-9455436D01*
X5834967Y-9455436D02*
X5825444Y-9464960D01*
X5825444Y-9464960D02*
X5806396Y-9474484D01*
X5806396Y-9474484D02*
X5787348Y-9474484D01*
X5787348Y-9474484D02*
X5768301Y-9464960D01*
X5768301Y-9464960D02*
X5758777Y-9455436D01*
X5758777Y-9455436D02*
X5749253Y-9436389D01*
X5749253Y-9436389D02*
X5739729Y-9398293D01*
X5739729Y-9398293D02*
X5739729Y-9350674D01*
X5739729Y-9350674D02*
X5749253Y-9312579D01*
X5749253Y-9312579D02*
X5758777Y-9293531D01*
X5758777Y-9293531D02*
X5768301Y-9284008D01*
X5768301Y-9284008D02*
X5787348Y-9274484D01*
X6044491Y-9474484D02*
X5930206Y-9474484D01*
X5987348Y-9474484D02*
X5987348Y-9274484D01*
X5987348Y-9274484D02*
X5968301Y-9303055D01*
X5968301Y-9303055D02*
X5949253Y-9322103D01*
X5949253Y-9322103D02*
X5930206Y-9331627D01*
X6225444Y-9274484D02*
X6130206Y-9274484D01*
X6130206Y-9274484D02*
X6120682Y-9369722D01*
X6120682Y-9369722D02*
X6130206Y-9360198D01*
X6130206Y-9360198D02*
X6149253Y-9350674D01*
X6149253Y-9350674D02*
X6196872Y-9350674D01*
X6196872Y-9350674D02*
X6215920Y-9360198D01*
X6215920Y-9360198D02*
X6225444Y-9369722D01*
X6225444Y-9369722D02*
X6234967Y-9388770D01*
X6234967Y-9388770D02*
X6234967Y-9436389D01*
X6234967Y-9436389D02*
X6225444Y-9455436D01*
X6225444Y-9455436D02*
X6215920Y-9464960D01*
X6215920Y-9464960D02*
X6196872Y-9474484D01*
X6196872Y-9474484D02*
X6149253Y-9474484D01*
X6149253Y-9474484D02*
X6130206Y-9464960D01*
X6130206Y-9464960D02*
X6120682Y-9455436D01*
X6301634Y-9274484D02*
X6434967Y-9274484D01*
X6434967Y-9274484D02*
X6349253Y-9474484D01*
X6501634Y-9274484D02*
X6501634Y-9312579D01*
X6577825Y-9274484D02*
X6577825Y-9312579D01*
X6873063Y-9550674D02*
X6863539Y-9541150D01*
X6863539Y-9541150D02*
X6844491Y-9512579D01*
X6844491Y-9512579D02*
X6834968Y-9493531D01*
X6834968Y-9493531D02*
X6825444Y-9464960D01*
X6825444Y-9464960D02*
X6815920Y-9417341D01*
X6815920Y-9417341D02*
X6815920Y-9379246D01*
X6815920Y-9379246D02*
X6825444Y-9331627D01*
X6825444Y-9331627D02*
X6834968Y-9303055D01*
X6834968Y-9303055D02*
X6844491Y-9284008D01*
X6844491Y-9284008D02*
X6863539Y-9255436D01*
X6863539Y-9255436D02*
X6873063Y-9245912D01*
X7054015Y-9474484D02*
X6939729Y-9474484D01*
X6996872Y-9474484D02*
X6996872Y-9274484D01*
X6996872Y-9274484D02*
X6977825Y-9303055D01*
X6977825Y-9303055D02*
X6958777Y-9322103D01*
X6958777Y-9322103D02*
X6939729Y-9331627D01*
X7130206Y-9293531D02*
X7139729Y-9284008D01*
X7139729Y-9284008D02*
X7158777Y-9274484D01*
X7158777Y-9274484D02*
X7206396Y-9274484D01*
X7206396Y-9274484D02*
X7225444Y-9284008D01*
X7225444Y-9284008D02*
X7234968Y-9293531D01*
X7234968Y-9293531D02*
X7244491Y-9312579D01*
X7244491Y-9312579D02*
X7244491Y-9331627D01*
X7244491Y-9331627D02*
X7234968Y-9360198D01*
X7234968Y-9360198D02*
X7120682Y-9474484D01*
X7120682Y-9474484D02*
X7244491Y-9474484D01*
X7482587Y-9474484D02*
X7482587Y-9274484D01*
X7568301Y-9474484D02*
X7568301Y-9369722D01*
X7568301Y-9369722D02*
X7558777Y-9350674D01*
X7558777Y-9350674D02*
X7539730Y-9341150D01*
X7539730Y-9341150D02*
X7511158Y-9341150D01*
X7511158Y-9341150D02*
X7492110Y-9350674D01*
X7492110Y-9350674D02*
X7482587Y-9360198D01*
X7692110Y-9474484D02*
X7673063Y-9464960D01*
X7673063Y-9464960D02*
X7663539Y-9455436D01*
X7663539Y-9455436D02*
X7654015Y-9436389D01*
X7654015Y-9436389D02*
X7654015Y-9379246D01*
X7654015Y-9379246D02*
X7663539Y-9360198D01*
X7663539Y-9360198D02*
X7673063Y-9350674D01*
X7673063Y-9350674D02*
X7692110Y-9341150D01*
X7692110Y-9341150D02*
X7720682Y-9341150D01*
X7720682Y-9341150D02*
X7739730Y-9350674D01*
X7739730Y-9350674D02*
X7749253Y-9360198D01*
X7749253Y-9360198D02*
X7758777Y-9379246D01*
X7758777Y-9379246D02*
X7758777Y-9436389D01*
X7758777Y-9436389D02*
X7749253Y-9455436D01*
X7749253Y-9455436D02*
X7739730Y-9464960D01*
X7739730Y-9464960D02*
X7720682Y-9474484D01*
X7720682Y-9474484D02*
X7692110Y-9474484D01*
X7873063Y-9474484D02*
X7854015Y-9464960D01*
X7854015Y-9464960D02*
X7844491Y-9445912D01*
X7844491Y-9445912D02*
X7844491Y-9274484D01*
X8025444Y-9464960D02*
X8006396Y-9474484D01*
X8006396Y-9474484D02*
X7968301Y-9474484D01*
X7968301Y-9474484D02*
X7949253Y-9464960D01*
X7949253Y-9464960D02*
X7939730Y-9445912D01*
X7939730Y-9445912D02*
X7939730Y-9369722D01*
X7939730Y-9369722D02*
X7949253Y-9350674D01*
X7949253Y-9350674D02*
X7968301Y-9341150D01*
X7968301Y-9341150D02*
X8006396Y-9341150D01*
X8006396Y-9341150D02*
X8025444Y-9350674D01*
X8025444Y-9350674D02*
X8034968Y-9369722D01*
X8034968Y-9369722D02*
X8034968Y-9388770D01*
X8034968Y-9388770D02*
X7939730Y-9407817D01*
X8111158Y-9464960D02*
X8130206Y-9474484D01*
X8130206Y-9474484D02*
X8168301Y-9474484D01*
X8168301Y-9474484D02*
X8187349Y-9464960D01*
X8187349Y-9464960D02*
X8196872Y-9445912D01*
X8196872Y-9445912D02*
X8196872Y-9436389D01*
X8196872Y-9436389D02*
X8187349Y-9417341D01*
X8187349Y-9417341D02*
X8168301Y-9407817D01*
X8168301Y-9407817D02*
X8139730Y-9407817D01*
X8139730Y-9407817D02*
X8120682Y-9398293D01*
X8120682Y-9398293D02*
X8111158Y-9379246D01*
X8111158Y-9379246D02*
X8111158Y-9369722D01*
X8111158Y-9369722D02*
X8120682Y-9350674D01*
X8120682Y-9350674D02*
X8139730Y-9341150D01*
X8139730Y-9341150D02*
X8168301Y-9341150D01*
X8168301Y-9341150D02*
X8187349Y-9350674D01*
X8263539Y-9550674D02*
X8273063Y-9541150D01*
X8273063Y-9541150D02*
X8292111Y-9512579D01*
X8292111Y-9512579D02*
X8301634Y-9493531D01*
X8301634Y-9493531D02*
X8311158Y-9464960D01*
X8311158Y-9464960D02*
X8320682Y-9417341D01*
X8320682Y-9417341D02*
X8320682Y-9379246D01*
X8320682Y-9379246D02*
X8311158Y-9331627D01*
X8311158Y-9331627D02*
X8301634Y-9303055D01*
X8301634Y-9303055D02*
X8292111Y-9284008D01*
X8292111Y-9284008D02*
X8273063Y-9255436D01*
X8273063Y-9255436D02*
X8263539Y-9245912D01*
D10*
X3289946Y-9666446D02*
X3289946Y-9627554D01*
X3251054Y-9627554D01*
X3251054Y-9666446D01*
X3289946Y-9666446D01*
D11*
X3596872Y-9538484D02*
X3615920Y-9538484D01*
X3615920Y-9538484D02*
X3634967Y-9548008D01*
X3634967Y-9548008D02*
X3644491Y-9557531D01*
X3644491Y-9557531D02*
X3654015Y-9576579D01*
X3654015Y-9576579D02*
X3663539Y-9614674D01*
X3663539Y-9614674D02*
X3663539Y-9662293D01*
X3663539Y-9662293D02*
X3654015Y-9700389D01*
X3654015Y-9700389D02*
X3644491Y-9719436D01*
X3644491Y-9719436D02*
X3634967Y-9728960D01*
X3634967Y-9728960D02*
X3615920Y-9738484D01*
X3615920Y-9738484D02*
X3596872Y-9738484D01*
X3596872Y-9738484D02*
X3577824Y-9728960D01*
X3577824Y-9728960D02*
X3568301Y-9719436D01*
X3568301Y-9719436D02*
X3558777Y-9700389D01*
X3558777Y-9700389D02*
X3549253Y-9662293D01*
X3549253Y-9662293D02*
X3549253Y-9614674D01*
X3549253Y-9614674D02*
X3558777Y-9576579D01*
X3558777Y-9576579D02*
X3568301Y-9557531D01*
X3568301Y-9557531D02*
X3577824Y-9548008D01*
X3577824Y-9548008D02*
X3596872Y-9538484D01*
X3749253Y-9719436D02*
X3758777Y-9728960D01*
X3758777Y-9728960D02*
X3749253Y-9738484D01*
X3749253Y-9738484D02*
X3739729Y-9728960D01*
X3739729Y-9728960D02*
X3749253Y-9719436D01*
X3749253Y-9719436D02*
X3749253Y-9738484D01*
X3939729Y-9538484D02*
X3844491Y-9538484D01*
X3844491Y-9538484D02*
X3834967Y-9633722D01*
X3834967Y-9633722D02*
X3844491Y-9624198D01*
X3844491Y-9624198D02*
X3863539Y-9614674D01*
X3863539Y-9614674D02*
X3911158Y-9614674D01*
X3911158Y-9614674D02*
X3930205Y-9624198D01*
X3930205Y-9624198D02*
X3939729Y-9633722D01*
X3939729Y-9633722D02*
X3949253Y-9652770D01*
X3949253Y-9652770D02*
X3949253Y-9700389D01*
X3949253Y-9700389D02*
X3939729Y-9719436D01*
X3939729Y-9719436D02*
X3930205Y-9728960D01*
X3930205Y-9728960D02*
X3911158Y-9738484D01*
X3911158Y-9738484D02*
X3863539Y-9738484D01*
X3863539Y-9738484D02*
X3844491Y-9728960D01*
X3844491Y-9728960D02*
X3834967Y-9719436D01*
X4130205Y-9538484D02*
X4034967Y-9538484D01*
X4034967Y-9538484D02*
X4025443Y-9633722D01*
X4025443Y-9633722D02*
X4034967Y-9624198D01*
X4034967Y-9624198D02*
X4054015Y-9614674D01*
X4054015Y-9614674D02*
X4101634Y-9614674D01*
X4101634Y-9614674D02*
X4120682Y-9624198D01*
X4120682Y-9624198D02*
X4130205Y-9633722D01*
X4130205Y-9633722D02*
X4139729Y-9652770D01*
X4139729Y-9652770D02*
X4139729Y-9700389D01*
X4139729Y-9700389D02*
X4130205Y-9719436D01*
X4130205Y-9719436D02*
X4120682Y-9728960D01*
X4120682Y-9728960D02*
X4101634Y-9738484D01*
X4101634Y-9738484D02*
X4054015Y-9738484D01*
X4054015Y-9738484D02*
X4034967Y-9728960D01*
X4034967Y-9728960D02*
X4025443Y-9719436D01*
X4263539Y-9538484D02*
X4282586Y-9538484D01*
X4282586Y-9538484D02*
X4301634Y-9548008D01*
X4301634Y-9548008D02*
X4311158Y-9557531D01*
X4311158Y-9557531D02*
X4320682Y-9576579D01*
X4320682Y-9576579D02*
X4330205Y-9614674D01*
X4330205Y-9614674D02*
X4330205Y-9662293D01*
X4330205Y-9662293D02*
X4320682Y-9700389D01*
X4320682Y-9700389D02*
X4311158Y-9719436D01*
X4311158Y-9719436D02*
X4301634Y-9728960D01*
X4301634Y-9728960D02*
X4282586Y-9738484D01*
X4282586Y-9738484D02*
X4263539Y-9738484D01*
X4263539Y-9738484D02*
X4244491Y-9728960D01*
X4244491Y-9728960D02*
X4234967Y-9719436D01*
X4234967Y-9719436D02*
X4225444Y-9700389D01*
X4225444Y-9700389D02*
X4215920Y-9662293D01*
X4215920Y-9662293D02*
X4215920Y-9614674D01*
X4215920Y-9614674D02*
X4225444Y-9576579D01*
X4225444Y-9576579D02*
X4234967Y-9557531D01*
X4234967Y-9557531D02*
X4244491Y-9548008D01*
X4244491Y-9548008D02*
X4263539Y-9538484D01*
X4415920Y-9738484D02*
X4415920Y-9605150D01*
X4415920Y-9624198D02*
X4425444Y-9614674D01*
X4425444Y-9614674D02*
X4444491Y-9605150D01*
X4444491Y-9605150D02*
X4473063Y-9605150D01*
X4473063Y-9605150D02*
X4492110Y-9614674D01*
X4492110Y-9614674D02*
X4501634Y-9633722D01*
X4501634Y-9633722D02*
X4501634Y-9738484D01*
X4501634Y-9633722D02*
X4511158Y-9614674D01*
X4511158Y-9614674D02*
X4530205Y-9605150D01*
X4530205Y-9605150D02*
X4558777Y-9605150D01*
X4558777Y-9605150D02*
X4577825Y-9614674D01*
X4577825Y-9614674D02*
X4587348Y-9633722D01*
X4587348Y-9633722D02*
X4587348Y-9738484D01*
X4682586Y-9738484D02*
X4682586Y-9605150D01*
X4682586Y-9624198D02*
X4692110Y-9614674D01*
X4692110Y-9614674D02*
X4711158Y-9605150D01*
X4711158Y-9605150D02*
X4739729Y-9605150D01*
X4739729Y-9605150D02*
X4758777Y-9614674D01*
X4758777Y-9614674D02*
X4768301Y-9633722D01*
X4768301Y-9633722D02*
X4768301Y-9738484D01*
X4768301Y-9633722D02*
X4777825Y-9614674D01*
X4777825Y-9614674D02*
X4796872Y-9605150D01*
X4796872Y-9605150D02*
X4825444Y-9605150D01*
X4825444Y-9605150D02*
X4844491Y-9614674D01*
X4844491Y-9614674D02*
X4854015Y-9633722D01*
X4854015Y-9633722D02*
X4854015Y-9738484D01*
X5244491Y-9528960D02*
X5073063Y-9786103D01*
X5501634Y-9538484D02*
X5520682Y-9538484D01*
X5520682Y-9538484D02*
X5539729Y-9548008D01*
X5539729Y-9548008D02*
X5549253Y-9557531D01*
X5549253Y-9557531D02*
X5558777Y-9576579D01*
X5558777Y-9576579D02*
X5568301Y-9614674D01*
X5568301Y-9614674D02*
X5568301Y-9662293D01*
X5568301Y-9662293D02*
X5558777Y-9700389D01*
X5558777Y-9700389D02*
X5549253Y-9719436D01*
X5549253Y-9719436D02*
X5539729Y-9728960D01*
X5539729Y-9728960D02*
X5520682Y-9738484D01*
X5520682Y-9738484D02*
X5501634Y-9738484D01*
X5501634Y-9738484D02*
X5482587Y-9728960D01*
X5482587Y-9728960D02*
X5473063Y-9719436D01*
X5473063Y-9719436D02*
X5463539Y-9700389D01*
X5463539Y-9700389D02*
X5454015Y-9662293D01*
X5454015Y-9662293D02*
X5454015Y-9614674D01*
X5454015Y-9614674D02*
X5463539Y-9576579D01*
X5463539Y-9576579D02*
X5473063Y-9557531D01*
X5473063Y-9557531D02*
X5482587Y-9548008D01*
X5482587Y-9548008D02*
X5501634Y-9538484D01*
X5654015Y-9719436D02*
X5663539Y-9728960D01*
X5663539Y-9728960D02*
X5654015Y-9738484D01*
X5654015Y-9738484D02*
X5644491Y-9728960D01*
X5644491Y-9728960D02*
X5654015Y-9719436D01*
X5654015Y-9719436D02*
X5654015Y-9738484D01*
X5787348Y-9538484D02*
X5806396Y-9538484D01*
X5806396Y-9538484D02*
X5825444Y-9548008D01*
X5825444Y-9548008D02*
X5834967Y-9557531D01*
X5834967Y-9557531D02*
X5844491Y-9576579D01*
X5844491Y-9576579D02*
X5854015Y-9614674D01*
X5854015Y-9614674D02*
X5854015Y-9662293D01*
X5854015Y-9662293D02*
X5844491Y-9700389D01*
X5844491Y-9700389D02*
X5834967Y-9719436D01*
X5834967Y-9719436D02*
X5825444Y-9728960D01*
X5825444Y-9728960D02*
X5806396Y-9738484D01*
X5806396Y-9738484D02*
X5787348Y-9738484D01*
X5787348Y-9738484D02*
X5768301Y-9728960D01*
X5768301Y-9728960D02*
X5758777Y-9719436D01*
X5758777Y-9719436D02*
X5749253Y-9700389D01*
X5749253Y-9700389D02*
X5739729Y-9662293D01*
X5739729Y-9662293D02*
X5739729Y-9614674D01*
X5739729Y-9614674D02*
X5749253Y-9576579D01*
X5749253Y-9576579D02*
X5758777Y-9557531D01*
X5758777Y-9557531D02*
X5768301Y-9548008D01*
X5768301Y-9548008D02*
X5787348Y-9538484D01*
X5930206Y-9557531D02*
X5939729Y-9548008D01*
X5939729Y-9548008D02*
X5958777Y-9538484D01*
X5958777Y-9538484D02*
X6006396Y-9538484D01*
X6006396Y-9538484D02*
X6025444Y-9548008D01*
X6025444Y-9548008D02*
X6034967Y-9557531D01*
X6034967Y-9557531D02*
X6044491Y-9576579D01*
X6044491Y-9576579D02*
X6044491Y-9595627D01*
X6044491Y-9595627D02*
X6034967Y-9624198D01*
X6034967Y-9624198D02*
X5920682Y-9738484D01*
X5920682Y-9738484D02*
X6044491Y-9738484D01*
X6234967Y-9738484D02*
X6120682Y-9738484D01*
X6177825Y-9738484D02*
X6177825Y-9538484D01*
X6177825Y-9538484D02*
X6158777Y-9567055D01*
X6158777Y-9567055D02*
X6139729Y-9586103D01*
X6139729Y-9586103D02*
X6120682Y-9595627D01*
X6301634Y-9538484D02*
X6434967Y-9538484D01*
X6434967Y-9538484D02*
X6349253Y-9738484D01*
X6501634Y-9538484D02*
X6501634Y-9576579D01*
X6577825Y-9538484D02*
X6577825Y-9576579D01*
X6873063Y-9814674D02*
X6863539Y-9805150D01*
X6863539Y-9805150D02*
X6844491Y-9776579D01*
X6844491Y-9776579D02*
X6834968Y-9757531D01*
X6834968Y-9757531D02*
X6825444Y-9728960D01*
X6825444Y-9728960D02*
X6815920Y-9681341D01*
X6815920Y-9681341D02*
X6815920Y-9643246D01*
X6815920Y-9643246D02*
X6825444Y-9595627D01*
X6825444Y-9595627D02*
X6834968Y-9567055D01*
X6834968Y-9567055D02*
X6844491Y-9548008D01*
X6844491Y-9548008D02*
X6863539Y-9519436D01*
X6863539Y-9519436D02*
X6873063Y-9509912D01*
X6987348Y-9538484D02*
X7006396Y-9538484D01*
X7006396Y-9538484D02*
X7025444Y-9548008D01*
X7025444Y-9548008D02*
X7034968Y-9557531D01*
X7034968Y-9557531D02*
X7044491Y-9576579D01*
X7044491Y-9576579D02*
X7054015Y-9614674D01*
X7054015Y-9614674D02*
X7054015Y-9662293D01*
X7054015Y-9662293D02*
X7044491Y-9700389D01*
X7044491Y-9700389D02*
X7034968Y-9719436D01*
X7034968Y-9719436D02*
X7025444Y-9728960D01*
X7025444Y-9728960D02*
X7006396Y-9738484D01*
X7006396Y-9738484D02*
X6987348Y-9738484D01*
X6987348Y-9738484D02*
X6968301Y-9728960D01*
X6968301Y-9728960D02*
X6958777Y-9719436D01*
X6958777Y-9719436D02*
X6949253Y-9700389D01*
X6949253Y-9700389D02*
X6939729Y-9662293D01*
X6939729Y-9662293D02*
X6939729Y-9614674D01*
X6939729Y-9614674D02*
X6949253Y-9576579D01*
X6949253Y-9576579D02*
X6958777Y-9557531D01*
X6958777Y-9557531D02*
X6968301Y-9548008D01*
X6968301Y-9548008D02*
X6987348Y-9538484D01*
X7292110Y-9738484D02*
X7292110Y-9538484D01*
X7377825Y-9738484D02*
X7377825Y-9633722D01*
X7377825Y-9633722D02*
X7368301Y-9614674D01*
X7368301Y-9614674D02*
X7349253Y-9605150D01*
X7349253Y-9605150D02*
X7320682Y-9605150D01*
X7320682Y-9605150D02*
X7301634Y-9614674D01*
X7301634Y-9614674D02*
X7292110Y-9624198D01*
X7501634Y-9738484D02*
X7482587Y-9728960D01*
X7482587Y-9728960D02*
X7473063Y-9719436D01*
X7473063Y-9719436D02*
X7463539Y-9700389D01*
X7463539Y-9700389D02*
X7463539Y-9643246D01*
X7463539Y-9643246D02*
X7473063Y-9624198D01*
X7473063Y-9624198D02*
X7482587Y-9614674D01*
X7482587Y-9614674D02*
X7501634Y-9605150D01*
X7501634Y-9605150D02*
X7530206Y-9605150D01*
X7530206Y-9605150D02*
X7549253Y-9614674D01*
X7549253Y-9614674D02*
X7558777Y-9624198D01*
X7558777Y-9624198D02*
X7568301Y-9643246D01*
X7568301Y-9643246D02*
X7568301Y-9700389D01*
X7568301Y-9700389D02*
X7558777Y-9719436D01*
X7558777Y-9719436D02*
X7549253Y-9728960D01*
X7549253Y-9728960D02*
X7530206Y-9738484D01*
X7530206Y-9738484D02*
X7501634Y-9738484D01*
X7682587Y-9738484D02*
X7663539Y-9728960D01*
X7663539Y-9728960D02*
X7654015Y-9709912D01*
X7654015Y-9709912D02*
X7654015Y-9538484D01*
X7834968Y-9728960D02*
X7815920Y-9738484D01*
X7815920Y-9738484D02*
X7777825Y-9738484D01*
X7777825Y-9738484D02*
X7758777Y-9728960D01*
X7758777Y-9728960D02*
X7749253Y-9709912D01*
X7749253Y-9709912D02*
X7749253Y-9633722D01*
X7749253Y-9633722D02*
X7758777Y-9614674D01*
X7758777Y-9614674D02*
X7777825Y-9605150D01*
X7777825Y-9605150D02*
X7815920Y-9605150D01*
X7815920Y-9605150D02*
X7834968Y-9614674D01*
X7834968Y-9614674D02*
X7844491Y-9633722D01*
X7844491Y-9633722D02*
X7844491Y-9652770D01*
X7844491Y-9652770D02*
X7749253Y-9671817D01*
X7920682Y-9728960D02*
X7939730Y-9738484D01*
X7939730Y-9738484D02*
X7977825Y-9738484D01*
X7977825Y-9738484D02*
X7996872Y-9728960D01*
X7996872Y-9728960D02*
X8006396Y-9709912D01*
X8006396Y-9709912D02*
X8006396Y-9700389D01*
X8006396Y-9700389D02*
X7996872Y-9681341D01*
X7996872Y-9681341D02*
X7977825Y-9671817D01*
X7977825Y-9671817D02*
X7949253Y-9671817D01*
X7949253Y-9671817D02*
X7930206Y-9662293D01*
X7930206Y-9662293D02*
X7920682Y-9643246D01*
X7920682Y-9643246D02*
X7920682Y-9633722D01*
X7920682Y-9633722D02*
X7930206Y-9614674D01*
X7930206Y-9614674D02*
X7949253Y-9605150D01*
X7949253Y-9605150D02*
X7977825Y-9605150D01*
X7977825Y-9605150D02*
X7996872Y-9614674D01*
X8244492Y-9662293D02*
X8396873Y-9662293D01*
X8320682Y-9738484D02*
X8320682Y-9586103D01*
X8730206Y-9605150D02*
X8730206Y-9738484D01*
X8682587Y-9528960D02*
X8634968Y-9671817D01*
X8634968Y-9671817D02*
X8758777Y-9671817D01*
X8977825Y-9728960D02*
X8996873Y-9738484D01*
X8996873Y-9738484D02*
X9034968Y-9738484D01*
X9034968Y-9738484D02*
X9054016Y-9728960D01*
X9054016Y-9728960D02*
X9063539Y-9709912D01*
X9063539Y-9709912D02*
X9063539Y-9700389D01*
X9063539Y-9700389D02*
X9054016Y-9681341D01*
X9054016Y-9681341D02*
X9034968Y-9671817D01*
X9034968Y-9671817D02*
X9006396Y-9671817D01*
X9006396Y-9671817D02*
X8987349Y-9662293D01*
X8987349Y-9662293D02*
X8977825Y-9643246D01*
X8977825Y-9643246D02*
X8977825Y-9633722D01*
X8977825Y-9633722D02*
X8987349Y-9614674D01*
X8987349Y-9614674D02*
X9006396Y-9605150D01*
X9006396Y-9605150D02*
X9034968Y-9605150D01*
X9034968Y-9605150D02*
X9054016Y-9614674D01*
X9177825Y-9738484D02*
X9158777Y-9728960D01*
X9158777Y-9728960D02*
X9149254Y-9709912D01*
X9149254Y-9709912D02*
X9149254Y-9538484D01*
X9282587Y-9738484D02*
X9263539Y-9728960D01*
X9263539Y-9728960D02*
X9254016Y-9719436D01*
X9254016Y-9719436D02*
X9244492Y-9700389D01*
X9244492Y-9700389D02*
X9244492Y-9643246D01*
X9244492Y-9643246D02*
X9254016Y-9624198D01*
X9254016Y-9624198D02*
X9263539Y-9614674D01*
X9263539Y-9614674D02*
X9282587Y-9605150D01*
X9282587Y-9605150D02*
X9311158Y-9605150D01*
X9311158Y-9605150D02*
X9330206Y-9614674D01*
X9330206Y-9614674D02*
X9339730Y-9624198D01*
X9339730Y-9624198D02*
X9349254Y-9643246D01*
X9349254Y-9643246D02*
X9349254Y-9700389D01*
X9349254Y-9700389D02*
X9339730Y-9719436D01*
X9339730Y-9719436D02*
X9330206Y-9728960D01*
X9330206Y-9728960D02*
X9311158Y-9738484D01*
X9311158Y-9738484D02*
X9282587Y-9738484D01*
X9406397Y-9605150D02*
X9482587Y-9605150D01*
X9434968Y-9538484D02*
X9434968Y-9709912D01*
X9434968Y-9709912D02*
X9444492Y-9728960D01*
X9444492Y-9728960D02*
X9463539Y-9738484D01*
X9463539Y-9738484D02*
X9482587Y-9738484D01*
X9539730Y-9728960D02*
X9558777Y-9738484D01*
X9558777Y-9738484D02*
X9596873Y-9738484D01*
X9596873Y-9738484D02*
X9615920Y-9728960D01*
X9615920Y-9728960D02*
X9625444Y-9709912D01*
X9625444Y-9709912D02*
X9625444Y-9700389D01*
X9625444Y-9700389D02*
X9615920Y-9681341D01*
X9615920Y-9681341D02*
X9596873Y-9671817D01*
X9596873Y-9671817D02*
X9568301Y-9671817D01*
X9568301Y-9671817D02*
X9549254Y-9662293D01*
X9549254Y-9662293D02*
X9539730Y-9643246D01*
X9539730Y-9643246D02*
X9539730Y-9633722D01*
X9539730Y-9633722D02*
X9549254Y-9614674D01*
X9549254Y-9614674D02*
X9568301Y-9605150D01*
X9568301Y-9605150D02*
X9596873Y-9605150D01*
X9596873Y-9605150D02*
X9615920Y-9614674D01*
X9692111Y-9814674D02*
X9701635Y-9805150D01*
X9701635Y-9805150D02*
X9720682Y-9776579D01*
X9720682Y-9776579D02*
X9730206Y-9757531D01*
X9730206Y-9757531D02*
X9739730Y-9728960D01*
X9739730Y-9728960D02*
X9749254Y-9681341D01*
X9749254Y-9681341D02*
X9749254Y-9643246D01*
X9749254Y-9643246D02*
X9739730Y-9595627D01*
X9739730Y-9595627D02*
X9730206Y-9567055D01*
X9730206Y-9567055D02*
X9720682Y-9548008D01*
X9720682Y-9548008D02*
X9701635Y-9519436D01*
X9701635Y-9519436D02*
X9692111Y-9509912D01*
D10*
X3251500Y-9957500D02*
X3298000Y-9911000D01*
X3251500Y-9864500D01*
X3205000Y-9911000D01*
X3251500Y-9957500D01*
D11*
X3596872Y-9802484D02*
X3615920Y-9802484D01*
X3615920Y-9802484D02*
X3634967Y-9812008D01*
X3634967Y-9812008D02*
X3644491Y-9821531D01*
X3644491Y-9821531D02*
X3654015Y-9840579D01*
X3654015Y-9840579D02*
X3663539Y-9878674D01*
X3663539Y-9878674D02*
X3663539Y-9926293D01*
X3663539Y-9926293D02*
X3654015Y-9964389D01*
X3654015Y-9964389D02*
X3644491Y-9983436D01*
X3644491Y-9983436D02*
X3634967Y-9992960D01*
X3634967Y-9992960D02*
X3615920Y-10002484D01*
X3615920Y-10002484D02*
X3596872Y-10002484D01*
X3596872Y-10002484D02*
X3577824Y-9992960D01*
X3577824Y-9992960D02*
X3568301Y-9983436D01*
X3568301Y-9983436D02*
X3558777Y-9964389D01*
X3558777Y-9964389D02*
X3549253Y-9926293D01*
X3549253Y-9926293D02*
X3549253Y-9878674D01*
X3549253Y-9878674D02*
X3558777Y-9840579D01*
X3558777Y-9840579D02*
X3568301Y-9821531D01*
X3568301Y-9821531D02*
X3577824Y-9812008D01*
X3577824Y-9812008D02*
X3596872Y-9802484D01*
X3749253Y-9983436D02*
X3758777Y-9992960D01*
X3758777Y-9992960D02*
X3749253Y-10002484D01*
X3749253Y-10002484D02*
X3739729Y-9992960D01*
X3739729Y-9992960D02*
X3749253Y-9983436D01*
X3749253Y-9983436D02*
X3749253Y-10002484D01*
X3854015Y-10002484D02*
X3892110Y-10002484D01*
X3892110Y-10002484D02*
X3911158Y-9992960D01*
X3911158Y-9992960D02*
X3920682Y-9983436D01*
X3920682Y-9983436D02*
X3939729Y-9954865D01*
X3939729Y-9954865D02*
X3949253Y-9916770D01*
X3949253Y-9916770D02*
X3949253Y-9840579D01*
X3949253Y-9840579D02*
X3939729Y-9821531D01*
X3939729Y-9821531D02*
X3930205Y-9812008D01*
X3930205Y-9812008D02*
X3911158Y-9802484D01*
X3911158Y-9802484D02*
X3873062Y-9802484D01*
X3873062Y-9802484D02*
X3854015Y-9812008D01*
X3854015Y-9812008D02*
X3844491Y-9821531D01*
X3844491Y-9821531D02*
X3834967Y-9840579D01*
X3834967Y-9840579D02*
X3834967Y-9888198D01*
X3834967Y-9888198D02*
X3844491Y-9907246D01*
X3844491Y-9907246D02*
X3854015Y-9916770D01*
X3854015Y-9916770D02*
X3873062Y-9926293D01*
X3873062Y-9926293D02*
X3911158Y-9926293D01*
X3911158Y-9926293D02*
X3930205Y-9916770D01*
X3930205Y-9916770D02*
X3939729Y-9907246D01*
X3939729Y-9907246D02*
X3949253Y-9888198D01*
X4015920Y-9802484D02*
X4139729Y-9802484D01*
X4139729Y-9802484D02*
X4073062Y-9878674D01*
X4073062Y-9878674D02*
X4101634Y-9878674D01*
X4101634Y-9878674D02*
X4120682Y-9888198D01*
X4120682Y-9888198D02*
X4130205Y-9897722D01*
X4130205Y-9897722D02*
X4139729Y-9916770D01*
X4139729Y-9916770D02*
X4139729Y-9964389D01*
X4139729Y-9964389D02*
X4130205Y-9983436D01*
X4130205Y-9983436D02*
X4120682Y-9992960D01*
X4120682Y-9992960D02*
X4101634Y-10002484D01*
X4101634Y-10002484D02*
X4044491Y-10002484D01*
X4044491Y-10002484D02*
X4025443Y-9992960D01*
X4025443Y-9992960D02*
X4015920Y-9983436D01*
X4263539Y-9802484D02*
X4282586Y-9802484D01*
X4282586Y-9802484D02*
X4301634Y-9812008D01*
X4301634Y-9812008D02*
X4311158Y-9821531D01*
X4311158Y-9821531D02*
X4320682Y-9840579D01*
X4320682Y-9840579D02*
X4330205Y-9878674D01*
X4330205Y-9878674D02*
X4330205Y-9926293D01*
X4330205Y-9926293D02*
X4320682Y-9964389D01*
X4320682Y-9964389D02*
X4311158Y-9983436D01*
X4311158Y-9983436D02*
X4301634Y-9992960D01*
X4301634Y-9992960D02*
X4282586Y-10002484D01*
X4282586Y-10002484D02*
X4263539Y-10002484D01*
X4263539Y-10002484D02*
X4244491Y-9992960D01*
X4244491Y-9992960D02*
X4234967Y-9983436D01*
X4234967Y-9983436D02*
X4225444Y-9964389D01*
X4225444Y-9964389D02*
X4215920Y-9926293D01*
X4215920Y-9926293D02*
X4215920Y-9878674D01*
X4215920Y-9878674D02*
X4225444Y-9840579D01*
X4225444Y-9840579D02*
X4234967Y-9821531D01*
X4234967Y-9821531D02*
X4244491Y-9812008D01*
X4244491Y-9812008D02*
X4263539Y-9802484D01*
X4415920Y-10002484D02*
X4415920Y-9869150D01*
X4415920Y-9888198D02*
X4425444Y-9878674D01*
X4425444Y-9878674D02*
X4444491Y-9869150D01*
X4444491Y-9869150D02*
X4473063Y-9869150D01*
X4473063Y-9869150D02*
X4492110Y-9878674D01*
X4492110Y-9878674D02*
X4501634Y-9897722D01*
X4501634Y-9897722D02*
X4501634Y-10002484D01*
X4501634Y-9897722D02*
X4511158Y-9878674D01*
X4511158Y-9878674D02*
X4530205Y-9869150D01*
X4530205Y-9869150D02*
X4558777Y-9869150D01*
X4558777Y-9869150D02*
X4577825Y-9878674D01*
X4577825Y-9878674D02*
X4587348Y-9897722D01*
X4587348Y-9897722D02*
X4587348Y-10002484D01*
X4682586Y-10002484D02*
X4682586Y-9869150D01*
X4682586Y-9888198D02*
X4692110Y-9878674D01*
X4692110Y-9878674D02*
X4711158Y-9869150D01*
X4711158Y-9869150D02*
X4739729Y-9869150D01*
X4739729Y-9869150D02*
X4758777Y-9878674D01*
X4758777Y-9878674D02*
X4768301Y-9897722D01*
X4768301Y-9897722D02*
X4768301Y-10002484D01*
X4768301Y-9897722D02*
X4777825Y-9878674D01*
X4777825Y-9878674D02*
X4796872Y-9869150D01*
X4796872Y-9869150D02*
X4825444Y-9869150D01*
X4825444Y-9869150D02*
X4844491Y-9878674D01*
X4844491Y-9878674D02*
X4854015Y-9897722D01*
X4854015Y-9897722D02*
X4854015Y-10002484D01*
X5244491Y-9792960D02*
X5073063Y-10050103D01*
X5501634Y-9802484D02*
X5520682Y-9802484D01*
X5520682Y-9802484D02*
X5539729Y-9812008D01*
X5539729Y-9812008D02*
X5549253Y-9821531D01*
X5549253Y-9821531D02*
X5558777Y-9840579D01*
X5558777Y-9840579D02*
X5568301Y-9878674D01*
X5568301Y-9878674D02*
X5568301Y-9926293D01*
X5568301Y-9926293D02*
X5558777Y-9964389D01*
X5558777Y-9964389D02*
X5549253Y-9983436D01*
X5549253Y-9983436D02*
X5539729Y-9992960D01*
X5539729Y-9992960D02*
X5520682Y-10002484D01*
X5520682Y-10002484D02*
X5501634Y-10002484D01*
X5501634Y-10002484D02*
X5482587Y-9992960D01*
X5482587Y-9992960D02*
X5473063Y-9983436D01*
X5473063Y-9983436D02*
X5463539Y-9964389D01*
X5463539Y-9964389D02*
X5454015Y-9926293D01*
X5454015Y-9926293D02*
X5454015Y-9878674D01*
X5454015Y-9878674D02*
X5463539Y-9840579D01*
X5463539Y-9840579D02*
X5473063Y-9821531D01*
X5473063Y-9821531D02*
X5482587Y-9812008D01*
X5482587Y-9812008D02*
X5501634Y-9802484D01*
X5654015Y-9983436D02*
X5663539Y-9992960D01*
X5663539Y-9992960D02*
X5654015Y-10002484D01*
X5654015Y-10002484D02*
X5644491Y-9992960D01*
X5644491Y-9992960D02*
X5654015Y-9983436D01*
X5654015Y-9983436D02*
X5654015Y-10002484D01*
X5787348Y-9802484D02*
X5806396Y-9802484D01*
X5806396Y-9802484D02*
X5825444Y-9812008D01*
X5825444Y-9812008D02*
X5834967Y-9821531D01*
X5834967Y-9821531D02*
X5844491Y-9840579D01*
X5844491Y-9840579D02*
X5854015Y-9878674D01*
X5854015Y-9878674D02*
X5854015Y-9926293D01*
X5854015Y-9926293D02*
X5844491Y-9964389D01*
X5844491Y-9964389D02*
X5834967Y-9983436D01*
X5834967Y-9983436D02*
X5825444Y-9992960D01*
X5825444Y-9992960D02*
X5806396Y-10002484D01*
X5806396Y-10002484D02*
X5787348Y-10002484D01*
X5787348Y-10002484D02*
X5768301Y-9992960D01*
X5768301Y-9992960D02*
X5758777Y-9983436D01*
X5758777Y-9983436D02*
X5749253Y-9964389D01*
X5749253Y-9964389D02*
X5739729Y-9926293D01*
X5739729Y-9926293D02*
X5739729Y-9878674D01*
X5739729Y-9878674D02*
X5749253Y-9840579D01*
X5749253Y-9840579D02*
X5758777Y-9821531D01*
X5758777Y-9821531D02*
X5768301Y-9812008D01*
X5768301Y-9812008D02*
X5787348Y-9802484D01*
X5920682Y-9802484D02*
X6044491Y-9802484D01*
X6044491Y-9802484D02*
X5977825Y-9878674D01*
X5977825Y-9878674D02*
X6006396Y-9878674D01*
X6006396Y-9878674D02*
X6025444Y-9888198D01*
X6025444Y-9888198D02*
X6034967Y-9897722D01*
X6034967Y-9897722D02*
X6044491Y-9916770D01*
X6044491Y-9916770D02*
X6044491Y-9964389D01*
X6044491Y-9964389D02*
X6034967Y-9983436D01*
X6034967Y-9983436D02*
X6025444Y-9992960D01*
X6025444Y-9992960D02*
X6006396Y-10002484D01*
X6006396Y-10002484D02*
X5949253Y-10002484D01*
X5949253Y-10002484D02*
X5930206Y-9992960D01*
X5930206Y-9992960D02*
X5920682Y-9983436D01*
X6215920Y-9802484D02*
X6177825Y-9802484D01*
X6177825Y-9802484D02*
X6158777Y-9812008D01*
X6158777Y-9812008D02*
X6149253Y-9821531D01*
X6149253Y-9821531D02*
X6130206Y-9850103D01*
X6130206Y-9850103D02*
X6120682Y-9888198D01*
X6120682Y-9888198D02*
X6120682Y-9964389D01*
X6120682Y-9964389D02*
X6130206Y-9983436D01*
X6130206Y-9983436D02*
X6139729Y-9992960D01*
X6139729Y-9992960D02*
X6158777Y-10002484D01*
X6158777Y-10002484D02*
X6196872Y-10002484D01*
X6196872Y-10002484D02*
X6215920Y-9992960D01*
X6215920Y-9992960D02*
X6225444Y-9983436D01*
X6225444Y-9983436D02*
X6234967Y-9964389D01*
X6234967Y-9964389D02*
X6234967Y-9916770D01*
X6234967Y-9916770D02*
X6225444Y-9897722D01*
X6225444Y-9897722D02*
X6215920Y-9888198D01*
X6215920Y-9888198D02*
X6196872Y-9878674D01*
X6196872Y-9878674D02*
X6158777Y-9878674D01*
X6158777Y-9878674D02*
X6139729Y-9888198D01*
X6139729Y-9888198D02*
X6130206Y-9897722D01*
X6130206Y-9897722D02*
X6120682Y-9916770D01*
X6406396Y-9802484D02*
X6368301Y-9802484D01*
X6368301Y-9802484D02*
X6349253Y-9812008D01*
X6349253Y-9812008D02*
X6339729Y-9821531D01*
X6339729Y-9821531D02*
X6320682Y-9850103D01*
X6320682Y-9850103D02*
X6311158Y-9888198D01*
X6311158Y-9888198D02*
X6311158Y-9964389D01*
X6311158Y-9964389D02*
X6320682Y-9983436D01*
X6320682Y-9983436D02*
X6330206Y-9992960D01*
X6330206Y-9992960D02*
X6349253Y-10002484D01*
X6349253Y-10002484D02*
X6387348Y-10002484D01*
X6387348Y-10002484D02*
X6406396Y-9992960D01*
X6406396Y-9992960D02*
X6415920Y-9983436D01*
X6415920Y-9983436D02*
X6425444Y-9964389D01*
X6425444Y-9964389D02*
X6425444Y-9916770D01*
X6425444Y-9916770D02*
X6415920Y-9897722D01*
X6415920Y-9897722D02*
X6406396Y-9888198D01*
X6406396Y-9888198D02*
X6387348Y-9878674D01*
X6387348Y-9878674D02*
X6349253Y-9878674D01*
X6349253Y-9878674D02*
X6330206Y-9888198D01*
X6330206Y-9888198D02*
X6320682Y-9897722D01*
X6320682Y-9897722D02*
X6311158Y-9916770D01*
X6501634Y-9802484D02*
X6501634Y-9840579D01*
X6577825Y-9802484D02*
X6577825Y-9840579D01*
X6873063Y-10078674D02*
X6863539Y-10069150D01*
X6863539Y-10069150D02*
X6844491Y-10040579D01*
X6844491Y-10040579D02*
X6834968Y-10021531D01*
X6834968Y-10021531D02*
X6825444Y-9992960D01*
X6825444Y-9992960D02*
X6815920Y-9945341D01*
X6815920Y-9945341D02*
X6815920Y-9907246D01*
X6815920Y-9907246D02*
X6825444Y-9859627D01*
X6825444Y-9859627D02*
X6834968Y-9831055D01*
X6834968Y-9831055D02*
X6844491Y-9812008D01*
X6844491Y-9812008D02*
X6863539Y-9783436D01*
X6863539Y-9783436D02*
X6873063Y-9773912D01*
X6987348Y-9802484D02*
X7006396Y-9802484D01*
X7006396Y-9802484D02*
X7025444Y-9812008D01*
X7025444Y-9812008D02*
X7034968Y-9821531D01*
X7034968Y-9821531D02*
X7044491Y-9840579D01*
X7044491Y-9840579D02*
X7054015Y-9878674D01*
X7054015Y-9878674D02*
X7054015Y-9926293D01*
X7054015Y-9926293D02*
X7044491Y-9964389D01*
X7044491Y-9964389D02*
X7034968Y-9983436D01*
X7034968Y-9983436D02*
X7025444Y-9992960D01*
X7025444Y-9992960D02*
X7006396Y-10002484D01*
X7006396Y-10002484D02*
X6987348Y-10002484D01*
X6987348Y-10002484D02*
X6968301Y-9992960D01*
X6968301Y-9992960D02*
X6958777Y-9983436D01*
X6958777Y-9983436D02*
X6949253Y-9964389D01*
X6949253Y-9964389D02*
X6939729Y-9926293D01*
X6939729Y-9926293D02*
X6939729Y-9878674D01*
X6939729Y-9878674D02*
X6949253Y-9840579D01*
X6949253Y-9840579D02*
X6958777Y-9821531D01*
X6958777Y-9821531D02*
X6968301Y-9812008D01*
X6968301Y-9812008D02*
X6987348Y-9802484D01*
X7292110Y-10002484D02*
X7292110Y-9802484D01*
X7377825Y-10002484D02*
X7377825Y-9897722D01*
X7377825Y-9897722D02*
X7368301Y-9878674D01*
X7368301Y-9878674D02*
X7349253Y-9869150D01*
X7349253Y-9869150D02*
X7320682Y-9869150D01*
X7320682Y-9869150D02*
X7301634Y-9878674D01*
X7301634Y-9878674D02*
X7292110Y-9888198D01*
X7501634Y-10002484D02*
X7482587Y-9992960D01*
X7482587Y-9992960D02*
X7473063Y-9983436D01*
X7473063Y-9983436D02*
X7463539Y-9964389D01*
X7463539Y-9964389D02*
X7463539Y-9907246D01*
X7463539Y-9907246D02*
X7473063Y-9888198D01*
X7473063Y-9888198D02*
X7482587Y-9878674D01*
X7482587Y-9878674D02*
X7501634Y-9869150D01*
X7501634Y-9869150D02*
X7530206Y-9869150D01*
X7530206Y-9869150D02*
X7549253Y-9878674D01*
X7549253Y-9878674D02*
X7558777Y-9888198D01*
X7558777Y-9888198D02*
X7568301Y-9907246D01*
X7568301Y-9907246D02*
X7568301Y-9964389D01*
X7568301Y-9964389D02*
X7558777Y-9983436D01*
X7558777Y-9983436D02*
X7549253Y-9992960D01*
X7549253Y-9992960D02*
X7530206Y-10002484D01*
X7530206Y-10002484D02*
X7501634Y-10002484D01*
X7682587Y-10002484D02*
X7663539Y-9992960D01*
X7663539Y-9992960D02*
X7654015Y-9973912D01*
X7654015Y-9973912D02*
X7654015Y-9802484D01*
X7834968Y-9992960D02*
X7815920Y-10002484D01*
X7815920Y-10002484D02*
X7777825Y-10002484D01*
X7777825Y-10002484D02*
X7758777Y-9992960D01*
X7758777Y-9992960D02*
X7749253Y-9973912D01*
X7749253Y-9973912D02*
X7749253Y-9897722D01*
X7749253Y-9897722D02*
X7758777Y-9878674D01*
X7758777Y-9878674D02*
X7777825Y-9869150D01*
X7777825Y-9869150D02*
X7815920Y-9869150D01*
X7815920Y-9869150D02*
X7834968Y-9878674D01*
X7834968Y-9878674D02*
X7844491Y-9897722D01*
X7844491Y-9897722D02*
X7844491Y-9916770D01*
X7844491Y-9916770D02*
X7749253Y-9935817D01*
X7920682Y-9992960D02*
X7939730Y-10002484D01*
X7939730Y-10002484D02*
X7977825Y-10002484D01*
X7977825Y-10002484D02*
X7996872Y-9992960D01*
X7996872Y-9992960D02*
X8006396Y-9973912D01*
X8006396Y-9973912D02*
X8006396Y-9964389D01*
X8006396Y-9964389D02*
X7996872Y-9945341D01*
X7996872Y-9945341D02*
X7977825Y-9935817D01*
X7977825Y-9935817D02*
X7949253Y-9935817D01*
X7949253Y-9935817D02*
X7930206Y-9926293D01*
X7930206Y-9926293D02*
X7920682Y-9907246D01*
X7920682Y-9907246D02*
X7920682Y-9897722D01*
X7920682Y-9897722D02*
X7930206Y-9878674D01*
X7930206Y-9878674D02*
X7949253Y-9869150D01*
X7949253Y-9869150D02*
X7977825Y-9869150D01*
X7977825Y-9869150D02*
X7996872Y-9878674D01*
X8244492Y-9926293D02*
X8396873Y-9926293D01*
X8320682Y-10002484D02*
X8320682Y-9850103D01*
X8634968Y-9821531D02*
X8644492Y-9812008D01*
X8644492Y-9812008D02*
X8663539Y-9802484D01*
X8663539Y-9802484D02*
X8711158Y-9802484D01*
X8711158Y-9802484D02*
X8730206Y-9812008D01*
X8730206Y-9812008D02*
X8739730Y-9821531D01*
X8739730Y-9821531D02*
X8749254Y-9840579D01*
X8749254Y-9840579D02*
X8749254Y-9859627D01*
X8749254Y-9859627D02*
X8739730Y-9888198D01*
X8739730Y-9888198D02*
X8625444Y-10002484D01*
X8625444Y-10002484D02*
X8749254Y-10002484D01*
X8977825Y-9992960D02*
X8996873Y-10002484D01*
X8996873Y-10002484D02*
X9034968Y-10002484D01*
X9034968Y-10002484D02*
X9054016Y-9992960D01*
X9054016Y-9992960D02*
X9063539Y-9973912D01*
X9063539Y-9973912D02*
X9063539Y-9964389D01*
X9063539Y-9964389D02*
X9054016Y-9945341D01*
X9054016Y-9945341D02*
X9034968Y-9935817D01*
X9034968Y-9935817D02*
X9006396Y-9935817D01*
X9006396Y-9935817D02*
X8987349Y-9926293D01*
X8987349Y-9926293D02*
X8977825Y-9907246D01*
X8977825Y-9907246D02*
X8977825Y-9897722D01*
X8977825Y-9897722D02*
X8987349Y-9878674D01*
X8987349Y-9878674D02*
X9006396Y-9869150D01*
X9006396Y-9869150D02*
X9034968Y-9869150D01*
X9034968Y-9869150D02*
X9054016Y-9878674D01*
X9177825Y-10002484D02*
X9158777Y-9992960D01*
X9158777Y-9992960D02*
X9149254Y-9973912D01*
X9149254Y-9973912D02*
X9149254Y-9802484D01*
X9282587Y-10002484D02*
X9263539Y-9992960D01*
X9263539Y-9992960D02*
X9254016Y-9983436D01*
X9254016Y-9983436D02*
X9244492Y-9964389D01*
X9244492Y-9964389D02*
X9244492Y-9907246D01*
X9244492Y-9907246D02*
X9254016Y-9888198D01*
X9254016Y-9888198D02*
X9263539Y-9878674D01*
X9263539Y-9878674D02*
X9282587Y-9869150D01*
X9282587Y-9869150D02*
X9311158Y-9869150D01*
X9311158Y-9869150D02*
X9330206Y-9878674D01*
X9330206Y-9878674D02*
X9339730Y-9888198D01*
X9339730Y-9888198D02*
X9349254Y-9907246D01*
X9349254Y-9907246D02*
X9349254Y-9964389D01*
X9349254Y-9964389D02*
X9339730Y-9983436D01*
X9339730Y-9983436D02*
X9330206Y-9992960D01*
X9330206Y-9992960D02*
X9311158Y-10002484D01*
X9311158Y-10002484D02*
X9282587Y-10002484D01*
X9406397Y-9869150D02*
X9482587Y-9869150D01*
X9434968Y-9802484D02*
X9434968Y-9973912D01*
X9434968Y-9973912D02*
X9444492Y-9992960D01*
X9444492Y-9992960D02*
X9463539Y-10002484D01*
X9463539Y-10002484D02*
X9482587Y-10002484D01*
X9539730Y-9992960D02*
X9558777Y-10002484D01*
X9558777Y-10002484D02*
X9596873Y-10002484D01*
X9596873Y-10002484D02*
X9615920Y-9992960D01*
X9615920Y-9992960D02*
X9625444Y-9973912D01*
X9625444Y-9973912D02*
X9625444Y-9964389D01*
X9625444Y-9964389D02*
X9615920Y-9945341D01*
X9615920Y-9945341D02*
X9596873Y-9935817D01*
X9596873Y-9935817D02*
X9568301Y-9935817D01*
X9568301Y-9935817D02*
X9549254Y-9926293D01*
X9549254Y-9926293D02*
X9539730Y-9907246D01*
X9539730Y-9907246D02*
X9539730Y-9897722D01*
X9539730Y-9897722D02*
X9549254Y-9878674D01*
X9549254Y-9878674D02*
X9568301Y-9869150D01*
X9568301Y-9869150D02*
X9596873Y-9869150D01*
X9596873Y-9869150D02*
X9615920Y-9878674D01*
X9692111Y-10078674D02*
X9701635Y-10069150D01*
X9701635Y-10069150D02*
X9720682Y-10040579D01*
X9720682Y-10040579D02*
X9730206Y-10021531D01*
X9730206Y-10021531D02*
X9739730Y-9992960D01*
X9739730Y-9992960D02*
X9749254Y-9945341D01*
X9749254Y-9945341D02*
X9749254Y-9907246D01*
X9749254Y-9907246D02*
X9739730Y-9859627D01*
X9739730Y-9859627D02*
X9730206Y-9831055D01*
X9730206Y-9831055D02*
X9720682Y-9812008D01*
X9720682Y-9812008D02*
X9701635Y-9783436D01*
X9701635Y-9783436D02*
X9692111Y-9773912D01*
D10*
X3198000Y-10125000D02*
X3298000Y-10225000D01*
X3298000Y-10125000D02*
X3198000Y-10225000D01*
X3298000Y-10175000D02*
G75*
G02*
X3198000Y-10175000I-50000J0D01*
G01*
X3198000Y-10175000D02*
G75*
G02*
X3298000Y-10175000I50000J0D01*
G01*
D11*
X3663539Y-10266484D02*
X3549253Y-10266484D01*
X3606396Y-10266484D02*
X3606396Y-10066484D01*
X3606396Y-10066484D02*
X3587348Y-10095055D01*
X3587348Y-10095055D02*
X3568301Y-10114103D01*
X3568301Y-10114103D02*
X3549253Y-10123627D01*
X3749253Y-10247436D02*
X3758777Y-10256960D01*
X3758777Y-10256960D02*
X3749253Y-10266484D01*
X3749253Y-10266484D02*
X3739729Y-10256960D01*
X3739729Y-10256960D02*
X3749253Y-10247436D01*
X3749253Y-10247436D02*
X3749253Y-10266484D01*
X3882586Y-10066484D02*
X3901634Y-10066484D01*
X3901634Y-10066484D02*
X3920682Y-10076008D01*
X3920682Y-10076008D02*
X3930205Y-10085531D01*
X3930205Y-10085531D02*
X3939729Y-10104579D01*
X3939729Y-10104579D02*
X3949253Y-10142674D01*
X3949253Y-10142674D02*
X3949253Y-10190293D01*
X3949253Y-10190293D02*
X3939729Y-10228389D01*
X3939729Y-10228389D02*
X3930205Y-10247436D01*
X3930205Y-10247436D02*
X3920682Y-10256960D01*
X3920682Y-10256960D02*
X3901634Y-10266484D01*
X3901634Y-10266484D02*
X3882586Y-10266484D01*
X3882586Y-10266484D02*
X3863539Y-10256960D01*
X3863539Y-10256960D02*
X3854015Y-10247436D01*
X3854015Y-10247436D02*
X3844491Y-10228389D01*
X3844491Y-10228389D02*
X3834967Y-10190293D01*
X3834967Y-10190293D02*
X3834967Y-10142674D01*
X3834967Y-10142674D02*
X3844491Y-10104579D01*
X3844491Y-10104579D02*
X3854015Y-10085531D01*
X3854015Y-10085531D02*
X3863539Y-10076008D01*
X3863539Y-10076008D02*
X3882586Y-10066484D01*
X4073062Y-10066484D02*
X4092110Y-10066484D01*
X4092110Y-10066484D02*
X4111158Y-10076008D01*
X4111158Y-10076008D02*
X4120682Y-10085531D01*
X4120682Y-10085531D02*
X4130205Y-10104579D01*
X4130205Y-10104579D02*
X4139729Y-10142674D01*
X4139729Y-10142674D02*
X4139729Y-10190293D01*
X4139729Y-10190293D02*
X4130205Y-10228389D01*
X4130205Y-10228389D02*
X4120682Y-10247436D01*
X4120682Y-10247436D02*
X4111158Y-10256960D01*
X4111158Y-10256960D02*
X4092110Y-10266484D01*
X4092110Y-10266484D02*
X4073062Y-10266484D01*
X4073062Y-10266484D02*
X4054015Y-10256960D01*
X4054015Y-10256960D02*
X4044491Y-10247436D01*
X4044491Y-10247436D02*
X4034967Y-10228389D01*
X4034967Y-10228389D02*
X4025443Y-10190293D01*
X4025443Y-10190293D02*
X4025443Y-10142674D01*
X4025443Y-10142674D02*
X4034967Y-10104579D01*
X4034967Y-10104579D02*
X4044491Y-10085531D01*
X4044491Y-10085531D02*
X4054015Y-10076008D01*
X4054015Y-10076008D02*
X4073062Y-10066484D01*
X4263539Y-10066484D02*
X4282586Y-10066484D01*
X4282586Y-10066484D02*
X4301634Y-10076008D01*
X4301634Y-10076008D02*
X4311158Y-10085531D01*
X4311158Y-10085531D02*
X4320682Y-10104579D01*
X4320682Y-10104579D02*
X4330205Y-10142674D01*
X4330205Y-10142674D02*
X4330205Y-10190293D01*
X4330205Y-10190293D02*
X4320682Y-10228389D01*
X4320682Y-10228389D02*
X4311158Y-10247436D01*
X4311158Y-10247436D02*
X4301634Y-10256960D01*
X4301634Y-10256960D02*
X4282586Y-10266484D01*
X4282586Y-10266484D02*
X4263539Y-10266484D01*
X4263539Y-10266484D02*
X4244491Y-10256960D01*
X4244491Y-10256960D02*
X4234967Y-10247436D01*
X4234967Y-10247436D02*
X4225444Y-10228389D01*
X4225444Y-10228389D02*
X4215920Y-10190293D01*
X4215920Y-10190293D02*
X4215920Y-10142674D01*
X4215920Y-10142674D02*
X4225444Y-10104579D01*
X4225444Y-10104579D02*
X4234967Y-10085531D01*
X4234967Y-10085531D02*
X4244491Y-10076008D01*
X4244491Y-10076008D02*
X4263539Y-10066484D01*
X4415920Y-10266484D02*
X4415920Y-10133150D01*
X4415920Y-10152198D02*
X4425444Y-10142674D01*
X4425444Y-10142674D02*
X4444491Y-10133150D01*
X4444491Y-10133150D02*
X4473063Y-10133150D01*
X4473063Y-10133150D02*
X4492110Y-10142674D01*
X4492110Y-10142674D02*
X4501634Y-10161722D01*
X4501634Y-10161722D02*
X4501634Y-10266484D01*
X4501634Y-10161722D02*
X4511158Y-10142674D01*
X4511158Y-10142674D02*
X4530205Y-10133150D01*
X4530205Y-10133150D02*
X4558777Y-10133150D01*
X4558777Y-10133150D02*
X4577825Y-10142674D01*
X4577825Y-10142674D02*
X4587348Y-10161722D01*
X4587348Y-10161722D02*
X4587348Y-10266484D01*
X4682586Y-10266484D02*
X4682586Y-10133150D01*
X4682586Y-10152198D02*
X4692110Y-10142674D01*
X4692110Y-10142674D02*
X4711158Y-10133150D01*
X4711158Y-10133150D02*
X4739729Y-10133150D01*
X4739729Y-10133150D02*
X4758777Y-10142674D01*
X4758777Y-10142674D02*
X4768301Y-10161722D01*
X4768301Y-10161722D02*
X4768301Y-10266484D01*
X4768301Y-10161722D02*
X4777825Y-10142674D01*
X4777825Y-10142674D02*
X4796872Y-10133150D01*
X4796872Y-10133150D02*
X4825444Y-10133150D01*
X4825444Y-10133150D02*
X4844491Y-10142674D01*
X4844491Y-10142674D02*
X4854015Y-10161722D01*
X4854015Y-10161722D02*
X4854015Y-10266484D01*
X5244491Y-10056960D02*
X5073063Y-10314103D01*
X5501634Y-10066484D02*
X5520682Y-10066484D01*
X5520682Y-10066484D02*
X5539729Y-10076008D01*
X5539729Y-10076008D02*
X5549253Y-10085531D01*
X5549253Y-10085531D02*
X5558777Y-10104579D01*
X5558777Y-10104579D02*
X5568301Y-10142674D01*
X5568301Y-10142674D02*
X5568301Y-10190293D01*
X5568301Y-10190293D02*
X5558777Y-10228389D01*
X5558777Y-10228389D02*
X5549253Y-10247436D01*
X5549253Y-10247436D02*
X5539729Y-10256960D01*
X5539729Y-10256960D02*
X5520682Y-10266484D01*
X5520682Y-10266484D02*
X5501634Y-10266484D01*
X5501634Y-10266484D02*
X5482587Y-10256960D01*
X5482587Y-10256960D02*
X5473063Y-10247436D01*
X5473063Y-10247436D02*
X5463539Y-10228389D01*
X5463539Y-10228389D02*
X5454015Y-10190293D01*
X5454015Y-10190293D02*
X5454015Y-10142674D01*
X5454015Y-10142674D02*
X5463539Y-10104579D01*
X5463539Y-10104579D02*
X5473063Y-10085531D01*
X5473063Y-10085531D02*
X5482587Y-10076008D01*
X5482587Y-10076008D02*
X5501634Y-10066484D01*
X5654015Y-10247436D02*
X5663539Y-10256960D01*
X5663539Y-10256960D02*
X5654015Y-10266484D01*
X5654015Y-10266484D02*
X5644491Y-10256960D01*
X5644491Y-10256960D02*
X5654015Y-10247436D01*
X5654015Y-10247436D02*
X5654015Y-10266484D01*
X5787348Y-10066484D02*
X5806396Y-10066484D01*
X5806396Y-10066484D02*
X5825444Y-10076008D01*
X5825444Y-10076008D02*
X5834967Y-10085531D01*
X5834967Y-10085531D02*
X5844491Y-10104579D01*
X5844491Y-10104579D02*
X5854015Y-10142674D01*
X5854015Y-10142674D02*
X5854015Y-10190293D01*
X5854015Y-10190293D02*
X5844491Y-10228389D01*
X5844491Y-10228389D02*
X5834967Y-10247436D01*
X5834967Y-10247436D02*
X5825444Y-10256960D01*
X5825444Y-10256960D02*
X5806396Y-10266484D01*
X5806396Y-10266484D02*
X5787348Y-10266484D01*
X5787348Y-10266484D02*
X5768301Y-10256960D01*
X5768301Y-10256960D02*
X5758777Y-10247436D01*
X5758777Y-10247436D02*
X5749253Y-10228389D01*
X5749253Y-10228389D02*
X5739729Y-10190293D01*
X5739729Y-10190293D02*
X5739729Y-10142674D01*
X5739729Y-10142674D02*
X5749253Y-10104579D01*
X5749253Y-10104579D02*
X5758777Y-10085531D01*
X5758777Y-10085531D02*
X5768301Y-10076008D01*
X5768301Y-10076008D02*
X5787348Y-10066484D01*
X5920682Y-10066484D02*
X6044491Y-10066484D01*
X6044491Y-10066484D02*
X5977825Y-10142674D01*
X5977825Y-10142674D02*
X6006396Y-10142674D01*
X6006396Y-10142674D02*
X6025444Y-10152198D01*
X6025444Y-10152198D02*
X6034967Y-10161722D01*
X6034967Y-10161722D02*
X6044491Y-10180770D01*
X6044491Y-10180770D02*
X6044491Y-10228389D01*
X6044491Y-10228389D02*
X6034967Y-10247436D01*
X6034967Y-10247436D02*
X6025444Y-10256960D01*
X6025444Y-10256960D02*
X6006396Y-10266484D01*
X6006396Y-10266484D02*
X5949253Y-10266484D01*
X5949253Y-10266484D02*
X5930206Y-10256960D01*
X5930206Y-10256960D02*
X5920682Y-10247436D01*
X6139729Y-10266484D02*
X6177825Y-10266484D01*
X6177825Y-10266484D02*
X6196872Y-10256960D01*
X6196872Y-10256960D02*
X6206396Y-10247436D01*
X6206396Y-10247436D02*
X6225444Y-10218865D01*
X6225444Y-10218865D02*
X6234967Y-10180770D01*
X6234967Y-10180770D02*
X6234967Y-10104579D01*
X6234967Y-10104579D02*
X6225444Y-10085531D01*
X6225444Y-10085531D02*
X6215920Y-10076008D01*
X6215920Y-10076008D02*
X6196872Y-10066484D01*
X6196872Y-10066484D02*
X6158777Y-10066484D01*
X6158777Y-10066484D02*
X6139729Y-10076008D01*
X6139729Y-10076008D02*
X6130206Y-10085531D01*
X6130206Y-10085531D02*
X6120682Y-10104579D01*
X6120682Y-10104579D02*
X6120682Y-10152198D01*
X6120682Y-10152198D02*
X6130206Y-10171246D01*
X6130206Y-10171246D02*
X6139729Y-10180770D01*
X6139729Y-10180770D02*
X6158777Y-10190293D01*
X6158777Y-10190293D02*
X6196872Y-10190293D01*
X6196872Y-10190293D02*
X6215920Y-10180770D01*
X6215920Y-10180770D02*
X6225444Y-10171246D01*
X6225444Y-10171246D02*
X6234967Y-10152198D01*
X6406396Y-10133150D02*
X6406396Y-10266484D01*
X6358777Y-10056960D02*
X6311158Y-10199817D01*
X6311158Y-10199817D02*
X6434967Y-10199817D01*
X6501634Y-10066484D02*
X6501634Y-10104579D01*
X6577825Y-10066484D02*
X6577825Y-10104579D01*
X6873063Y-10342674D02*
X6863539Y-10333150D01*
X6863539Y-10333150D02*
X6844491Y-10304579D01*
X6844491Y-10304579D02*
X6834968Y-10285531D01*
X6834968Y-10285531D02*
X6825444Y-10256960D01*
X6825444Y-10256960D02*
X6815920Y-10209341D01*
X6815920Y-10209341D02*
X6815920Y-10171246D01*
X6815920Y-10171246D02*
X6825444Y-10123627D01*
X6825444Y-10123627D02*
X6834968Y-10095055D01*
X6834968Y-10095055D02*
X6844491Y-10076008D01*
X6844491Y-10076008D02*
X6863539Y-10047436D01*
X6863539Y-10047436D02*
X6873063Y-10037912D01*
X7054015Y-10266484D02*
X6939729Y-10266484D01*
X6996872Y-10266484D02*
X6996872Y-10066484D01*
X6996872Y-10066484D02*
X6977825Y-10095055D01*
X6977825Y-10095055D02*
X6958777Y-10114103D01*
X6958777Y-10114103D02*
X6939729Y-10123627D01*
X7149253Y-10266484D02*
X7187348Y-10266484D01*
X7187348Y-10266484D02*
X7206396Y-10256960D01*
X7206396Y-10256960D02*
X7215920Y-10247436D01*
X7215920Y-10247436D02*
X7234968Y-10218865D01*
X7234968Y-10218865D02*
X7244491Y-10180770D01*
X7244491Y-10180770D02*
X7244491Y-10104579D01*
X7244491Y-10104579D02*
X7234968Y-10085531D01*
X7234968Y-10085531D02*
X7225444Y-10076008D01*
X7225444Y-10076008D02*
X7206396Y-10066484D01*
X7206396Y-10066484D02*
X7168301Y-10066484D01*
X7168301Y-10066484D02*
X7149253Y-10076008D01*
X7149253Y-10076008D02*
X7139729Y-10085531D01*
X7139729Y-10085531D02*
X7130206Y-10104579D01*
X7130206Y-10104579D02*
X7130206Y-10152198D01*
X7130206Y-10152198D02*
X7139729Y-10171246D01*
X7139729Y-10171246D02*
X7149253Y-10180770D01*
X7149253Y-10180770D02*
X7168301Y-10190293D01*
X7168301Y-10190293D02*
X7206396Y-10190293D01*
X7206396Y-10190293D02*
X7225444Y-10180770D01*
X7225444Y-10180770D02*
X7234968Y-10171246D01*
X7234968Y-10171246D02*
X7244491Y-10152198D01*
X7482587Y-10266484D02*
X7482587Y-10066484D01*
X7568301Y-10266484D02*
X7568301Y-10161722D01*
X7568301Y-10161722D02*
X7558777Y-10142674D01*
X7558777Y-10142674D02*
X7539730Y-10133150D01*
X7539730Y-10133150D02*
X7511158Y-10133150D01*
X7511158Y-10133150D02*
X7492110Y-10142674D01*
X7492110Y-10142674D02*
X7482587Y-10152198D01*
X7692110Y-10266484D02*
X7673063Y-10256960D01*
X7673063Y-10256960D02*
X7663539Y-10247436D01*
X7663539Y-10247436D02*
X7654015Y-10228389D01*
X7654015Y-10228389D02*
X7654015Y-10171246D01*
X7654015Y-10171246D02*
X7663539Y-10152198D01*
X7663539Y-10152198D02*
X7673063Y-10142674D01*
X7673063Y-10142674D02*
X7692110Y-10133150D01*
X7692110Y-10133150D02*
X7720682Y-10133150D01*
X7720682Y-10133150D02*
X7739730Y-10142674D01*
X7739730Y-10142674D02*
X7749253Y-10152198D01*
X7749253Y-10152198D02*
X7758777Y-10171246D01*
X7758777Y-10171246D02*
X7758777Y-10228389D01*
X7758777Y-10228389D02*
X7749253Y-10247436D01*
X7749253Y-10247436D02*
X7739730Y-10256960D01*
X7739730Y-10256960D02*
X7720682Y-10266484D01*
X7720682Y-10266484D02*
X7692110Y-10266484D01*
X7873063Y-10266484D02*
X7854015Y-10256960D01*
X7854015Y-10256960D02*
X7844491Y-10237912D01*
X7844491Y-10237912D02*
X7844491Y-10066484D01*
X8025444Y-10256960D02*
X8006396Y-10266484D01*
X8006396Y-10266484D02*
X7968301Y-10266484D01*
X7968301Y-10266484D02*
X7949253Y-10256960D01*
X7949253Y-10256960D02*
X7939730Y-10237912D01*
X7939730Y-10237912D02*
X7939730Y-10161722D01*
X7939730Y-10161722D02*
X7949253Y-10142674D01*
X7949253Y-10142674D02*
X7968301Y-10133150D01*
X7968301Y-10133150D02*
X8006396Y-10133150D01*
X8006396Y-10133150D02*
X8025444Y-10142674D01*
X8025444Y-10142674D02*
X8034968Y-10161722D01*
X8034968Y-10161722D02*
X8034968Y-10180770D01*
X8034968Y-10180770D02*
X7939730Y-10199817D01*
X8111158Y-10256960D02*
X8130206Y-10266484D01*
X8130206Y-10266484D02*
X8168301Y-10266484D01*
X8168301Y-10266484D02*
X8187349Y-10256960D01*
X8187349Y-10256960D02*
X8196872Y-10237912D01*
X8196872Y-10237912D02*
X8196872Y-10228389D01*
X8196872Y-10228389D02*
X8187349Y-10209341D01*
X8187349Y-10209341D02*
X8168301Y-10199817D01*
X8168301Y-10199817D02*
X8139730Y-10199817D01*
X8139730Y-10199817D02*
X8120682Y-10190293D01*
X8120682Y-10190293D02*
X8111158Y-10171246D01*
X8111158Y-10171246D02*
X8111158Y-10161722D01*
X8111158Y-10161722D02*
X8120682Y-10142674D01*
X8120682Y-10142674D02*
X8139730Y-10133150D01*
X8139730Y-10133150D02*
X8168301Y-10133150D01*
X8168301Y-10133150D02*
X8187349Y-10142674D01*
X8263539Y-10342674D02*
X8273063Y-10333150D01*
X8273063Y-10333150D02*
X8292111Y-10304579D01*
X8292111Y-10304579D02*
X8301634Y-10285531D01*
X8301634Y-10285531D02*
X8311158Y-10256960D01*
X8311158Y-10256960D02*
X8320682Y-10209341D01*
X8320682Y-10209341D02*
X8320682Y-10171246D01*
X8320682Y-10171246D02*
X8311158Y-10123627D01*
X8311158Y-10123627D02*
X8301634Y-10095055D01*
X8301634Y-10095055D02*
X8292111Y-10076008D01*
X8292111Y-10076008D02*
X8273063Y-10047436D01*
X8273063Y-10047436D02*
X8263539Y-10037912D01*
M02*
