M48
; DRILL file {KiCad 8.0.1} date 2024-03-30T16:51:31-0400
; FORMAT={-:-/ absolute / inch / decimal}
; #@! TF.CreationDate,2024-03-30T16:51:31-04:00
; #@! TF.GenerationSoftware,Kicad,Pcbnew,8.0.1
; #@! TF.FileFunction,Plated,1,2,PTH
FMAT,2
INCH
; #@! TA.AperFunction,Plated,PTH,ViaDrill
T1C0.0039
; #@! TA.AperFunction,Plated,PTH,ViaDrill
T2C0.0157
; #@! TA.AperFunction,Plated,PTH,ComponentDrill
T3C0.0157
; #@! TA.AperFunction,Plated,PTH,ComponentDrill
T4C0.0217
; #@! TA.AperFunction,Plated,PTH,ComponentDrill
T5C0.0366
; #@! TA.AperFunction,Plated,PTH,ComponentDrill
T6C0.0394
%
G90
G05
T1
X1.6378Y-3.1654
X1.6457Y-2.9921
X2.1457Y-1.8504
X2.4264Y-2.5807
X2.4461Y-2.5512
X2.6724Y-2.5709
X2.6969Y-2.8445
X2.7559Y-2.7362
X2.7854Y-2.9823
X2.815Y-2.8346
X3.1646Y-2.5807
X3.3516Y-2.689
X3.5484Y-2.4429
X3.5484Y-2.4626
X3.5878Y-2.502
X3.6074Y-2.692
X3.6179Y-2.5128
X3.6567Y-2.7776
X3.6811Y-2.6772
X3.7067Y-2.7303
X3.7795Y-2.5925
X3.7894Y-1.9488
X3.8051Y-1.8307
X3.8071Y-2.6594
X3.8287Y-2.5709
X3.8437Y-2.4134
X3.8634Y-2.5906
X3.872Y-1.8976
X3.8732Y-2.4134
X3.9126Y-2.3937
X4.0551Y-2.4016
X4.2224Y-2.4803
X4.2571Y-2.374
X4.3268Y-2.4073
T2
X1.5669Y-2.9764
X1.5996Y-1.9016
X1.6193Y-2.9252
X1.7717Y-2.0669
X1.7717Y-2.5591
X1.7717Y-2.6575
X1.8701Y-2.0669
X1.8701Y-2.7559
X1.9685Y-2.0669
X1.9685Y-2.7559
X2.0669Y-2.1654
X2.0669Y-2.7559
X2.1654Y-2.1654
X2.1654Y-2.7559
X2.2638Y-2.1654
X2.2638Y-2.7559
X2.3622Y-2.1654
X2.3622Y-2.7559
X2.4606Y-2.1654
X2.5118Y-3.0945
X2.5591Y-2.2638
X2.5591Y-2.3622
X2.5709Y-2.7933
X2.6319Y-2.6142
X2.6772Y-3.0472
X2.7795Y-2.4409
X2.7874Y-3.1181
X2.8791Y-2.6102
X2.9626Y-2.7343
X2.9646Y-2.3169
X3.0531Y-2.9311
X3.1449Y-2.9055
X3.1555Y-2.1437
X3.1909Y-2.7736
X3.2992Y-3.1594
X3.3445Y-2.5846
X3.3516Y-2.2953
X3.3713Y-2.8858
X3.4113Y-2.3438
X3.4205Y-2.9941
X3.435Y-2.4331
X3.4469Y-2.7795
X3.5278Y-2.2298
X3.5433Y-2.5866
X3.5484Y-3.0925
X3.5513Y-2.1823
X3.6254Y-2.6323
X3.6516Y-2.9252
X3.6804Y-2.1523
X3.6893Y-2.1921
X3.7254Y-2.5073
X3.7441Y-2.2381
X3.752Y-2.1995
X3.7717Y-2.0768
X3.7756Y-2.2897
X3.8406Y-2.6929
X3.8524Y-3.1083
X3.8622Y-2.3073
X3.872Y-1.9646
X3.8995Y-2.158
X3.9252Y-2.7047
X3.9704Y-2.3023
X3.9724Y-2.7894
X4.0012Y-2.8858
X4.0748Y-2.1181
X4.1102Y-2.6299
X4.2795Y-2.5413
X4.4331Y-2.3465
X4.5591Y-2.4882
T3
X2.6772Y-2.9469
X2.6929Y-2.9823
X2.7244Y-2.9823
X2.7402Y-2.9469
X2.7559Y-2.9823
X2.7717Y-2.9469
X2.8031Y-2.9469
X2.8189Y-2.9823
X2.8346Y-2.9469
X2.8504Y-2.9823
X2.8819Y-2.9823
X2.8976Y-2.9469
T6
X1.4715Y-1.8285
X1.4715Y-1.9285
X1.4715Y-2.0285
X1.4726Y-2.9309
X1.4726Y-3.0309
X1.4726Y-3.1309
X2.9246Y-1.8073
X3.0246Y-1.8073
X3.1246Y-1.8073
X3.2246Y-1.8073
X3.3246Y-1.8073
X3.4246Y-1.8073
X3.5246Y-1.8073
X3.6246Y-1.8073
X3.7246Y-1.8073
X4.1734Y-2.2202
X4.1737Y-2.7323
X4.2441Y-2.2909
X4.2444Y-2.6616
T4
G00X2.6073Y-3.0915
M15
G01X2.6073Y-3.1329
M16
G05
G00X2.6183Y-2.8974
M15
G01X2.6183Y-2.9309
M16
G05
G00X2.9565Y-2.8974
M15
G01X2.9565Y-2.9309
M16
G05
G00X2.9675Y-3.0915
M15
G01X2.9675Y-3.1329
M16
G05
T5
G00X2.6146Y-2.9793
M15
G01X2.6146Y-3.0049
M16
G05
G00X2.9602Y-2.9793
M15
G01X2.9602Y-3.0049
M16
G05
M30
