%TF.GenerationSoftware,KiCad,Pcbnew,8.0.1*%
%TF.CreationDate,2024-03-30T16:51:40-04:00*%
%TF.ProjectId,pulp,70756c70-2e6b-4696-9361-645f70636258,rev?*%
%TF.SameCoordinates,Original*%
%TF.FileFunction,Copper,L1,Top*%
%TF.FilePolarity,Positive*%
%FSLAX46Y46*%
G04 Gerber Fmt 4.6, Leading zero omitted, Abs format (unit mm)*
G04 Created by KiCad (PCBNEW 8.0.1) date 2024-03-30 16:51:40*
%MOMM*%
%LPD*%
G01*
G04 APERTURE LIST*
G04 Aperture macros list*
%AMRoundRect*
0 Rectangle with rounded corners*
0 $1 Rounding radius*
0 $2 $3 $4 $5 $6 $7 $8 $9 X,Y pos of 4 corners*
0 Add a 4 corners polygon primitive as box body*
4,1,4,$2,$3,$4,$5,$6,$7,$8,$9,$2,$3,0*
0 Add four circle primitives for the rounded corners*
1,1,$1+$1,$2,$3*
1,1,$1+$1,$4,$5*
1,1,$1+$1,$6,$7*
1,1,$1+$1,$8,$9*
0 Add four rect primitives between the rounded corners*
20,1,$1+$1,$2,$3,$4,$5,0*
20,1,$1+$1,$4,$5,$6,$7,0*
20,1,$1+$1,$6,$7,$8,$9,0*
20,1,$1+$1,$8,$9,$2,$3,0*%
%AMHorizOval*
0 Thick line with rounded ends*
0 $1 width*
0 $2 $3 position (X,Y) of the first rounded end (center of the circle)*
0 $4 $5 position (X,Y) of the second rounded end (center of the circle)*
0 Add line between two ends*
20,1,$1,$2,$3,$4,$5,0*
0 Add two circle primitives to create the rounded ends*
1,1,$1,$2,$3*
1,1,$1,$4,$5*%
%AMRotRect*
0 Rectangle, with rotation*
0 The origin of the aperture is its center*
0 $1 length*
0 $2 width*
0 $3 Rotation angle, in degrees counterclockwise*
0 Add horizontal line*
21,1,$1,$2,0,0,$3*%
G04 Aperture macros list end*
%TA.AperFunction,SMDPad,CuDef*%
%ADD10RoundRect,0.100000X-0.100000X0.130000X-0.100000X-0.130000X0.100000X-0.130000X0.100000X0.130000X0*%
%TD*%
%TA.AperFunction,SMDPad,CuDef*%
%ADD11RoundRect,0.250000X0.312500X1.450000X-0.312500X1.450000X-0.312500X-1.450000X0.312500X-1.450000X0*%
%TD*%
%TA.AperFunction,SMDPad,CuDef*%
%ADD12RoundRect,0.100000X0.130000X0.100000X-0.130000X0.100000X-0.130000X-0.100000X0.130000X-0.100000X0*%
%TD*%
%TA.AperFunction,ComponentPad*%
%ADD13O,1.700000X1.700000*%
%TD*%
%TA.AperFunction,ComponentPad*%
%ADD14R,1.700000X1.700000*%
%TD*%
%TA.AperFunction,SMDPad,CuDef*%
%ADD15RoundRect,0.100000X0.100000X-0.130000X0.100000X0.130000X-0.100000X0.130000X-0.100000X-0.130000X0*%
%TD*%
%TA.AperFunction,SMDPad,CuDef*%
%ADD16RoundRect,0.062500X0.062500X-0.117500X0.062500X0.117500X-0.062500X0.117500X-0.062500X-0.117500X0*%
%TD*%
%TA.AperFunction,SMDPad,CuDef*%
%ADD17R,3.200000X3.200000*%
%TD*%
%TA.AperFunction,SMDPad,CuDef*%
%ADD18RoundRect,0.050000X-0.050000X-0.387500X0.050000X-0.387500X0.050000X0.387500X-0.050000X0.387500X0*%
%TD*%
%TA.AperFunction,SMDPad,CuDef*%
%ADD19RoundRect,0.050000X-0.387500X-0.050000X0.387500X-0.050000X0.387500X0.050000X-0.387500X0.050000X0*%
%TD*%
%TA.AperFunction,SMDPad,CuDef*%
%ADD20R,1.300000X1.100000*%
%TD*%
%TA.AperFunction,SMDPad,CuDef*%
%ADD21R,1.500000X1.000000*%
%TD*%
%TA.AperFunction,SMDPad,CuDef*%
%ADD22RoundRect,0.100000X-0.130000X-0.100000X0.130000X-0.100000X0.130000X0.100000X-0.130000X0.100000X0*%
%TD*%
%TA.AperFunction,SMDPad,CuDef*%
%ADD23R,2.200000X1.050000*%
%TD*%
%TA.AperFunction,SMDPad,CuDef*%
%ADD24R,1.000000X1.000000*%
%TD*%
%TA.AperFunction,SMDPad,CuDef*%
%ADD25RoundRect,0.200000X-0.200000X-0.800000X0.200000X-0.800000X0.200000X0.800000X-0.200000X0.800000X0*%
%TD*%
%TA.AperFunction,SMDPad,CuDef*%
%ADD26RoundRect,0.150000X-0.587500X-0.150000X0.587500X-0.150000X0.587500X0.150000X-0.587500X0.150000X0*%
%TD*%
%TA.AperFunction,SMDPad,CuDef*%
%ADD27RoundRect,0.150000X-0.650000X-0.150000X0.650000X-0.150000X0.650000X0.150000X-0.650000X0.150000X0*%
%TD*%
%TA.AperFunction,SMDPad,CuDef*%
%ADD28R,1.500000X2.000000*%
%TD*%
%TA.AperFunction,SMDPad,CuDef*%
%ADD29R,3.800000X2.000000*%
%TD*%
%TA.AperFunction,ComponentPad*%
%ADD30HorizOval,1.700000X0.000000X0.000000X0.000000X0.000000X0*%
%TD*%
%TA.AperFunction,ComponentPad*%
%ADD31RotRect,1.700000X1.700000X45.000000*%
%TD*%
%TA.AperFunction,SMDPad,CuDef*%
%ADD32RoundRect,0.175000X0.725000X0.175000X-0.725000X0.175000X-0.725000X-0.175000X0.725000X-0.175000X0*%
%TD*%
%TA.AperFunction,SMDPad,CuDef*%
%ADD33RoundRect,0.200000X0.700000X0.200000X-0.700000X0.200000X-0.700000X-0.200000X0.700000X-0.200000X0*%
%TD*%
%TA.AperFunction,ComponentPad*%
%ADD34O,0.950000X2.280000*%
%TD*%
%TA.AperFunction,ComponentPad*%
%ADD35O,1.330000X1.980000*%
%TD*%
%TA.AperFunction,ComponentPad*%
%ADD36O,0.950000X1.800000*%
%TD*%
%TA.AperFunction,SMDPad,CuDef*%
%ADD37R,0.700000X0.350000*%
%TD*%
%TA.AperFunction,ComponentPad*%
%ADD38C,0.650000*%
%TD*%
%TA.AperFunction,SMDPad,CuDef*%
%ADD39R,0.300000X0.700000*%
%TD*%
%TA.AperFunction,ComponentPad*%
%ADD40RotRect,1.700000X1.700000X315.000000*%
%TD*%
%TA.AperFunction,ComponentPad*%
%ADD41HorizOval,1.700000X0.000000X0.000000X0.000000X0.000000X0*%
%TD*%
%TA.AperFunction,SMDPad,CuDef*%
%ADD42R,0.300000X0.550000*%
%TD*%
%TA.AperFunction,SMDPad,CuDef*%
%ADD43R,0.550000X0.300000*%
%TD*%
%TA.AperFunction,ViaPad*%
%ADD44C,0.300000*%
%TD*%
%TA.AperFunction,ViaPad*%
%ADD45C,0.800000*%
%TD*%
%TA.AperFunction,Conductor*%
%ADD46C,0.180000*%
%TD*%
%TA.AperFunction,Conductor*%
%ADD47C,0.150000*%
%TD*%
%TA.AperFunction,Conductor*%
%ADD48C,0.250000*%
%TD*%
G04 APERTURE END LIST*
D10*
%TO.P,C7,2*%
%TO.N,GND*%
X82560000Y-68135000D03*
%TO.P,C7,1*%
%TO.N,3V3*%
X82560000Y-67495000D03*
%TD*%
D11*
%TO.P,D4,2,A*%
%TO.N,Net-(D4-A)*%
X68492500Y-69550000D03*
%TO.P,D4,1,K*%
%TO.N,5V*%
X72767500Y-69550000D03*
%TD*%
D12*
%TO.P,R21,2*%
%TO.N,Net-(Q1-G)*%
X89405000Y-74050000D03*
%TO.P,R21,1*%
%TO.N,/LED_R*%
X90045000Y-74050000D03*
%TD*%
D10*
%TO.P,C15,2*%
%TO.N,GND*%
X86130000Y-69620000D03*
%TO.P,C15,1*%
%TO.N,/~{RST}*%
X86130000Y-68980000D03*
%TD*%
D12*
%TO.P,R13,2*%
%TO.N,Net-(U2-QSPI_SD1)*%
X91384000Y-50858000D03*
%TO.P,R13,1*%
%TO.N,/Q1*%
X92024000Y-50858000D03*
%TD*%
D13*
%TO.P,J5,3,Pin_3*%
%TO.N,5V*%
X37375000Y-46445000D03*
%TO.P,J5,2,Pin_2*%
%TO.N,PWM_LEFT*%
X37375000Y-48985000D03*
D14*
%TO.P,J5,1,Pin_1*%
%TO.N,GND*%
X37375000Y-51525000D03*
%TD*%
D10*
%TO.P,C21,2*%
%TO.N,GND*%
X89392600Y-67586400D03*
%TO.P,C21,1*%
%TO.N,3V3*%
X89392600Y-66946400D03*
%TD*%
D12*
%TO.P,R2,2*%
%TO.N,3V3*%
X108310000Y-61145000D03*
%TO.P,R2,1*%
%TO.N,I2C_SDA 0*%
X108950000Y-61145000D03*
%TD*%
D10*
%TO.P,C28,2*%
%TO.N,GND*%
X90281600Y-67586400D03*
%TO.P,C28,1*%
%TO.N,3V3*%
X90281600Y-66946400D03*
%TD*%
%TO.P,R20,2*%
%TO.N,Net-(D3-RK)*%
X92880000Y-77620000D03*
%TO.P,R20,1*%
%TO.N,Net-(Q1-D)*%
X92880000Y-76980000D03*
%TD*%
%TO.P,C20,2*%
%TO.N,GND*%
X84287200Y-67586000D03*
%TO.P,C20,1*%
%TO.N,3V3*%
X84287200Y-66946000D03*
%TD*%
D13*
%TO.P,J6,9,Pin_9*%
%TO.N,/GP5*%
X74285000Y-45905000D03*
%TO.P,J6,8,Pin_8*%
%TO.N,/GP4*%
X76825000Y-45905000D03*
%TO.P,J6,7,Pin_7*%
%TO.N,/GP3*%
X79365000Y-45905000D03*
%TO.P,J6,6,Pin_6*%
%TO.N,/GP2*%
X81905000Y-45905000D03*
%TO.P,J6,5,Pin_5*%
%TO.N,/GP1*%
X84445000Y-45905000D03*
%TO.P,J6,4,Pin_4*%
%TO.N,/GP0*%
X86985000Y-45905000D03*
%TO.P,J6,3,Pin_3*%
%TO.N,3V3*%
X89525000Y-45905000D03*
%TO.P,J6,2,Pin_2*%
%TO.N,5V*%
X92065000Y-45905000D03*
D14*
%TO.P,J6,1,Pin_1*%
%TO.N,GND*%
X94605000Y-45905000D03*
%TD*%
D15*
%TO.P,C19,2*%
%TO.N,GND*%
X100880000Y-56730000D03*
%TO.P,C19,1*%
%TO.N,/RP2040/1V1*%
X100880000Y-57370000D03*
%TD*%
D10*
%TO.P,C3,2*%
%TO.N,GND*%
X62380000Y-61490000D03*
%TO.P,C3,1*%
%TO.N,3V3*%
X62380000Y-60850000D03*
%TD*%
D15*
%TO.P,R10,2*%
%TO.N,Net-(X2-EN)*%
X99705000Y-70350000D03*
%TO.P,R10,1*%
%TO.N,3V3*%
X99705000Y-70990000D03*
%TD*%
D10*
%TO.P,C25,2*%
%TO.N,GND*%
X86801800Y-67586000D03*
%TO.P,C25,1*%
%TO.N,3V3*%
X86801800Y-66946000D03*
%TD*%
D15*
%TO.P,R5,2*%
%TO.N,GND*%
X68130000Y-66480000D03*
%TO.P,R5,1*%
%TO.N,Net-(J7-CC1)*%
X68130000Y-67120000D03*
%TD*%
D13*
%TO.P,J4,3,Pin_3*%
%TO.N,5V*%
X37405000Y-74445000D03*
%TO.P,J4,2,Pin_2*%
%TO.N,PWM_RIGHT*%
X37405000Y-76985000D03*
D14*
%TO.P,J4,1,Pin_1*%
%TO.N,GND*%
X37405000Y-79525000D03*
%TD*%
D12*
%TO.P,R1,2*%
%TO.N,3V3*%
X108310000Y-62415000D03*
%TO.P,R1,1*%
%TO.N,I2C_SCL 0*%
X108950000Y-62415000D03*
%TD*%
D10*
%TO.P,C24,2*%
%TO.N,GND*%
X85963600Y-67586400D03*
%TO.P,C24,1*%
%TO.N,3V3*%
X85963600Y-66946400D03*
%TD*%
D16*
%TO.P,D1,2,A2*%
%TO.N,/USB_D+*%
X70130000Y-67220000D03*
%TO.P,D1,1,A1*%
%TO.N,GND*%
X70130000Y-66380000D03*
%TD*%
D15*
%TO.P,C8,2*%
%TO.N,3V3*%
X97380000Y-46980000D03*
%TO.P,C8,1*%
%TO.N,GND*%
X97380000Y-47620000D03*
%TD*%
D12*
%TO.P,R16,2*%
%TO.N,Net-(U2-QSPI_SCLK)*%
X95956000Y-54668000D03*
%TO.P,R16,1*%
%TO.N,/Q_SCLK*%
X96596000Y-54668000D03*
%TD*%
D17*
%TO.P,U2,57,GND*%
%TO.N,GND*%
X97000000Y-63250000D03*
D18*
%TO.P,U2,56,QSPI_SS*%
%TO.N,/Q_SS*%
X94400000Y-59812500D03*
%TO.P,U2,55,QSPI_SD1*%
%TO.N,Net-(U2-QSPI_SD1)*%
X94800000Y-59812500D03*
%TO.P,U2,54,QSPI_SD2*%
%TO.N,Net-(U2-QSPI_SD2)*%
X95200000Y-59812500D03*
%TO.P,U2,53,QSPI_SD0*%
%TO.N,Net-(U2-QSPI_SD0)*%
X95600000Y-59812500D03*
%TO.P,U2,52,QSPI_SCLK*%
%TO.N,Net-(U2-QSPI_SCLK)*%
X96000000Y-59812500D03*
%TO.P,U2,51,QSPI_SD3*%
%TO.N,Net-(U2-QSPI_SD3)*%
X96400000Y-59812500D03*
%TO.P,U2,50,DVDD*%
%TO.N,/RP2040/1V1*%
X96800000Y-59812500D03*
%TO.P,U2,49,IOVDD*%
%TO.N,3V3*%
X97200000Y-59812500D03*
%TO.P,U2,48,USB_VDD*%
X97600000Y-59812500D03*
%TO.P,U2,47,USB_DP*%
%TO.N,Net-(U2-USB_DP)*%
X98000000Y-59812500D03*
%TO.P,U2,46,USB_DM*%
%TO.N,Net-(U2-USB_DM)*%
X98400000Y-59812500D03*
%TO.P,U2,45,VREG_VOUT*%
%TO.N,/RP2040/1V1*%
X98800000Y-59812500D03*
%TO.P,U2,44,VREG_IN*%
%TO.N,3V3*%
X99200000Y-59812500D03*
%TO.P,U2,43,ADC_AVDD*%
X99600000Y-59812500D03*
D19*
%TO.P,U2,42,IOVDD*%
X100437500Y-60650000D03*
%TO.P,U2,41,GPIO29_ADC3*%
%TO.N,unconnected-(U2-GPIO29_ADC3-Pad41)*%
X100437500Y-61050000D03*
%TO.P,U2,40,GPIO28_ADC2*%
%TO.N,unconnected-(U2-GPIO28_ADC2-Pad40)*%
X100437500Y-61450000D03*
%TO.P,U2,39,GPIO27_ADC1*%
%TO.N,unconnected-(U2-GPIO27_ADC1-Pad39)*%
X100437500Y-61850000D03*
%TO.P,U2,38,GPIO26_ADC0*%
%TO.N,unconnected-(U2-GPIO26_ADC0-Pad38)*%
X100437500Y-62250000D03*
%TO.P,U2,37,GPIO25*%
%TO.N,unconnected-(U2-GPIO25-Pad37)*%
X100437500Y-62650000D03*
%TO.P,U2,36,GPIO24*%
%TO.N,unconnected-(U2-GPIO24-Pad36)*%
X100437500Y-63050000D03*
%TO.P,U2,35,GPIO23*%
%TO.N,unconnected-(U2-GPIO23-Pad35)*%
X100437500Y-63450000D03*
%TO.P,U2,34,GPIO22*%
%TO.N,I2C_SCL 0*%
X100437500Y-63850000D03*
%TO.P,U2,33,IOVDD*%
%TO.N,3V3*%
X100437500Y-64250000D03*
%TO.P,U2,32,GPIO21*%
%TO.N,I2C_SDA 0*%
X100437500Y-64650000D03*
%TO.P,U2,31,GPIO20*%
%TO.N,unconnected-(U2-GPIO20-Pad31)*%
X100437500Y-65050000D03*
%TO.P,U2,30,GPIO19*%
%TO.N,I2C_SCL 1*%
X100437500Y-65450000D03*
%TO.P,U2,29,GPIO18*%
%TO.N,I2C_SDA 1*%
X100437500Y-65850000D03*
D18*
%TO.P,U2,28,GPIO17*%
%TO.N,/LED_B*%
X99600000Y-66687500D03*
%TO.P,U2,27,GPIO16*%
%TO.N,/LED_G*%
X99200000Y-66687500D03*
%TO.P,U2,26,RUN*%
%TO.N,/~{RST}*%
X98800000Y-66687500D03*
%TO.P,U2,25,SWD*%
%TO.N,unconnected-(U2-SWD-Pad25)*%
X98400000Y-66687500D03*
%TO.P,U2,24,SWCLK*%
%TO.N,unconnected-(U2-SWCLK-Pad24)*%
X98000000Y-66687500D03*
%TO.P,U2,23,DVDD*%
%TO.N,/RP2040/1V1*%
X97600000Y-66687500D03*
%TO.P,U2,22,IOVDD*%
%TO.N,3V3*%
X97200000Y-66687500D03*
%TO.P,U2,21,XOUT*%
%TO.N,unconnected-(U2-XOUT-Pad21)*%
X96800000Y-66687500D03*
%TO.P,U2,20,XIN*%
%TO.N,Net-(U2-XIN)*%
X96400000Y-66687500D03*
%TO.P,U2,19,TESTEN*%
%TO.N,GND*%
X96000000Y-66687500D03*
%TO.P,U2,18,GPIO15*%
%TO.N,/LED_R*%
X95600000Y-66687500D03*
%TO.P,U2,17,GPIO14*%
%TO.N,PWM_RIGHT*%
X95200000Y-66687500D03*
%TO.P,U2,16,GPIO13*%
%TO.N,unconnected-(U2-GPIO13-Pad16)*%
X94800000Y-66687500D03*
%TO.P,U2,15,GPIO12*%
%TO.N,PWM_LEFT*%
X94400000Y-66687500D03*
D19*
%TO.P,U2,14,GPIO11*%
%TO.N,unconnected-(U2-GPIO11-Pad14)*%
X93562500Y-65850000D03*
%TO.P,U2,13,GPIO10*%
%TO.N,unconnected-(U2-GPIO10-Pad13)*%
X93562500Y-65450000D03*
%TO.P,U2,12,GPIO9*%
%TO.N,unconnected-(U2-GPIO9-Pad12)*%
X93562500Y-65050000D03*
%TO.P,U2,11,GPIO8*%
%TO.N,unconnected-(U2-GPIO8-Pad11)*%
X93562500Y-64650000D03*
%TO.P,U2,10,IOVDD*%
%TO.N,3V3*%
X93562500Y-64250000D03*
%TO.P,U2,9,GPIO7*%
%TO.N,/MAX_8C GNSS/RXD*%
X93562500Y-63850000D03*
%TO.P,U2,8,GPIO6*%
%TO.N,/MAX_8C GNSS/TXD*%
X93562500Y-63450000D03*
%TO.P,U2,7,GPIO5*%
%TO.N,/GP5*%
X93562500Y-63050000D03*
%TO.P,U2,6,GPIO4*%
%TO.N,/GP4*%
X93562500Y-62650000D03*
%TO.P,U2,5,GPIO3*%
%TO.N,/GP3*%
X93562500Y-62250000D03*
%TO.P,U2,4,GPIO2*%
%TO.N,/GP2*%
X93562500Y-61850000D03*
%TO.P,U2,3,GPIO1*%
%TO.N,/GP1*%
X93562500Y-61450000D03*
%TO.P,U2,2,GPIO0*%
%TO.N,/GP0*%
X93562500Y-61050000D03*
%TO.P,U2,1,IOVDD*%
%TO.N,3V3*%
X93562500Y-60650000D03*
%TD*%
D16*
%TO.P,D2,2,A2*%
%TO.N,/USB_D-*%
X71130000Y-67220000D03*
%TO.P,D2,1,A1*%
%TO.N,GND*%
X71130000Y-66380000D03*
%TD*%
D12*
%TO.P,L1,2,2*%
%TO.N,Net-(J1-In)*%
X43880000Y-63800000D03*
%TO.P,L1,1,1*%
%TO.N,Net-(C4-Pad1)*%
X44520000Y-63800000D03*
%TD*%
D15*
%TO.P,R17,2*%
%TO.N,Net-(U2-USB_DP)*%
X69250000Y-64230000D03*
%TO.P,R17,1*%
%TO.N,/USB_D+*%
X69250000Y-64870000D03*
%TD*%
D20*
%TO.P,X2,4,Vdd*%
%TO.N,3V3*%
X97580000Y-71685000D03*
%TO.P,X2,3,OUT*%
%TO.N,Net-(U2-XIN)*%
X95480000Y-71685000D03*
%TO.P,X2,2,GND*%
%TO.N,GND*%
X95480000Y-70035000D03*
%TO.P,X2,1,EN*%
%TO.N,Net-(X2-EN)*%
X97580000Y-70035000D03*
%TD*%
D10*
%TO.P,C16,2*%
%TO.N,GND*%
X93130000Y-72870000D03*
%TO.P,C16,1*%
%TO.N,3V3*%
X93130000Y-72230000D03*
%TD*%
D21*
%TO.P,D3,4,BK*%
%TO.N,Net-(D3-BK)*%
X95380000Y-79100000D03*
%TO.P,D3,3,GK*%
%TO.N,Net-(D3-GK)*%
X95380000Y-80500000D03*
%TO.P,D3,2,RK*%
%TO.N,Net-(D3-RK)*%
X91880000Y-80500000D03*
%TO.P,D3,1,A*%
%TO.N,5V*%
X91880000Y-79100000D03*
%TD*%
D10*
%TO.P,C6,2*%
%TO.N,GND*%
X76130000Y-71275000D03*
%TO.P,C6,1*%
%TO.N,5V*%
X76130000Y-70635000D03*
%TD*%
%TO.P,C22,2*%
%TO.N,GND*%
X88503600Y-67586400D03*
%TO.P,C22,1*%
%TO.N,3V3*%
X88503600Y-66946400D03*
%TD*%
%TO.P,R19,2*%
%TO.N,Net-(D3-GK)*%
X94390000Y-77640000D03*
%TO.P,R19,1*%
%TO.N,Net-(Q2-D)*%
X94390000Y-77000000D03*
%TD*%
D12*
%TO.P,C1,2*%
%TO.N,GND*%
X110215000Y-59875000D03*
%TO.P,C1,1*%
%TO.N,3V3*%
X110855000Y-59875000D03*
%TD*%
D10*
%TO.P,C26,2*%
%TO.N,GND*%
X85125400Y-67586000D03*
%TO.P,C26,1*%
%TO.N,3V3*%
X85125400Y-66946000D03*
%TD*%
%TO.P,C4,2*%
%TO.N,GND*%
X45880000Y-64370000D03*
%TO.P,C4,1*%
%TO.N,Net-(C4-Pad1)*%
X45880000Y-63730000D03*
%TD*%
D22*
%TO.P,R22,2*%
%TO.N,Net-(Q2-G)*%
X94380000Y-75300000D03*
%TO.P,R22,1*%
%TO.N,/LED_G*%
X93740000Y-75300000D03*
%TD*%
D12*
%TO.P,R6,2*%
%TO.N,3V3*%
X91060000Y-49550000D03*
%TO.P,R6,1*%
%TO.N,/Q_SS*%
X91700000Y-49550000D03*
%TD*%
D23*
%TO.P,J1,2,Ext*%
%TO.N,GND*%
X45880000Y-55575000D03*
D24*
X44380000Y-57050000D03*
D23*
X45880000Y-58525000D03*
D24*
%TO.P,J1,1,In*%
%TO.N,Net-(J1-In)*%
X47380000Y-57050000D03*
%TD*%
D25*
%TO.P,SW1,2,2*%
%TO.N,Net-(R8-Pad1)*%
X49730000Y-47800000D03*
%TO.P,SW1,1,1*%
%TO.N,GND*%
X45530000Y-47800000D03*
%TD*%
D22*
%TO.P,R7,2*%
%TO.N,/~{RST}*%
X52605000Y-78800000D03*
%TO.P,R7,1*%
%TO.N,Net-(R7-Pad1)*%
X51965000Y-78800000D03*
%TD*%
D12*
%TO.P,R12,2*%
%TO.N,Net-(U2-QSPI_SD0)*%
X100020000Y-54668000D03*
%TO.P,R12,1*%
%TO.N,/Q0*%
X100660000Y-54668000D03*
%TD*%
D26*
%TO.P,Q2,3,D*%
%TO.N,Net-(Q2-D)*%
X97755000Y-76350000D03*
%TO.P,Q2,2,S*%
%TO.N,GND*%
X95880000Y-77300000D03*
%TO.P,Q2,1,G*%
%TO.N,Net-(Q2-G)*%
X95880000Y-75400000D03*
%TD*%
D12*
%TO.P,R23,2*%
%TO.N,Net-(Q3-G)*%
X87130000Y-77550000D03*
%TO.P,R23,1*%
%TO.N,/LED_B*%
X87770000Y-77550000D03*
%TD*%
D27*
%TO.P,U5,8,VCC*%
%TO.N,3V3*%
X100892000Y-49461000D03*
%TO.P,U5,7,IO3*%
%TO.N,/Q3*%
X100892000Y-50731000D03*
%TO.P,U5,6,CLK*%
%TO.N,/Q_SCLK*%
X100892000Y-52001000D03*
%TO.P,U5,5,DI(IO0)*%
%TO.N,/Q0*%
X100892000Y-53271000D03*
%TO.P,U5,4,GND*%
%TO.N,GND*%
X93692000Y-53271000D03*
%TO.P,U5,3,IO2*%
%TO.N,/Q2*%
X93692000Y-52001000D03*
%TO.P,U5,2,DO(IO1)*%
%TO.N,/Q1*%
X93692000Y-50731000D03*
%TO.P,U5,1,~{CS}*%
%TO.N,/Q_SS*%
X93692000Y-49461000D03*
%TD*%
D15*
%TO.P,C2,2*%
%TO.N,Net-(U1-C1)*%
X114345000Y-62730000D03*
%TO.P,C2,1*%
%TO.N,GND*%
X114345000Y-63370000D03*
%TD*%
D28*
%TO.P,U4,3,VO*%
%TO.N,3V3*%
X80415000Y-67470000D03*
D29*
%TO.P,U4,2,GND*%
%TO.N,GND*%
X78115000Y-61170000D03*
D28*
X78115000Y-67470000D03*
%TO.P,U4,1,VI*%
%TO.N,5V*%
X75815000Y-67470000D03*
%TD*%
D12*
%TO.P,R4,1*%
%TO.N,Net-(J7-CC2)*%
X64950000Y-80600000D03*
%TO.P,R4,2*%
%TO.N,GND*%
X64310000Y-80600000D03*
%TD*%
%TO.P,R3,2*%
%TO.N,Net-(C4-Pad1)*%
X47310000Y-63050000D03*
%TO.P,R3,1*%
%TO.N,Net-(U3-VCC_RF)*%
X47950000Y-63050000D03*
%TD*%
D26*
%TO.P,Q3,3,D*%
%TO.N,Net-(Q3-D)*%
X88630000Y-79800000D03*
%TO.P,Q3,2,S*%
%TO.N,GND*%
X86755000Y-80750000D03*
%TO.P,Q3,1,G*%
%TO.N,Net-(Q3-G)*%
X86755000Y-78850000D03*
%TD*%
D15*
%TO.P,C17,2*%
%TO.N,GND*%
X98880000Y-56730000D03*
%TO.P,C17,1*%
%TO.N,/RP2040/1V1*%
X98880000Y-57370000D03*
%TD*%
D22*
%TO.P,R8,2*%
%TO.N,/Q_SS*%
X51880000Y-47800000D03*
%TO.P,R8,1*%
%TO.N,Net-(R8-Pad1)*%
X51240000Y-47800000D03*
%TD*%
D10*
%TO.P,C5,2*%
%TO.N,GND*%
X74860000Y-71245000D03*
%TO.P,C5,1*%
%TO.N,5V*%
X74860000Y-70605000D03*
%TD*%
D26*
%TO.P,Q1,3,D*%
%TO.N,Net-(Q1-D)*%
X91130000Y-76300000D03*
%TO.P,Q1,2,S*%
%TO.N,GND*%
X89255000Y-77250000D03*
%TO.P,Q1,1,G*%
%TO.N,Net-(Q1-G)*%
X89255000Y-75350000D03*
%TD*%
D10*
%TO.P,R15,2*%
%TO.N,Net-(U2-QSPI_SD3)*%
X101864000Y-55496000D03*
%TO.P,R15,1*%
%TO.N,/Q3*%
X101864000Y-54856000D03*
%TD*%
%TO.P,R18,2*%
%TO.N,/USB_D-*%
X72000000Y-64820000D03*
%TO.P,R18,1*%
%TO.N,Net-(U2-USB_DM)*%
X72000000Y-64180000D03*
%TD*%
D15*
%TO.P,C18,2*%
%TO.N,GND*%
X99880000Y-56730000D03*
%TO.P,C18,1*%
%TO.N,/RP2040/1V1*%
X99880000Y-57370000D03*
%TD*%
D25*
%TO.P,SW2,2,2*%
%TO.N,Net-(R7-Pad1)*%
X49730000Y-78750000D03*
%TO.P,SW2,1,1*%
%TO.N,GND*%
X45530000Y-78750000D03*
%TD*%
D10*
%TO.P,C23,2*%
%TO.N,GND*%
X87614600Y-67586400D03*
%TO.P,C23,1*%
%TO.N,3V3*%
X87614600Y-66946400D03*
%TD*%
D30*
%TO.P,J3,2,Pin_2*%
%TO.N,I2C_SDA 0*%
X107800898Y-58188082D03*
D31*
%TO.P,J3,1,Pin_1*%
%TO.N,I2C_SCL 0*%
X106004847Y-56392031D03*
%TD*%
D32*
%TO.P,U3,18,~{SAFEBOOT}*%
%TO.N,unconnected-(U3-~{SAFEBOOT}-Pad18)*%
X49870000Y-67450000D03*
D33*
%TO.P,U3,17,SCL*%
%TO.N,unconnected-(U3-SCL-Pad17)*%
X49870000Y-66350000D03*
%TO.P,U3,16,SDA*%
%TO.N,unconnected-(U3-SDA-Pad16)*%
X49870000Y-65250000D03*
%TO.P,U3,15,Reserved*%
%TO.N,unconnected-(U3-Reserved-Pad15)*%
X49870000Y-64150000D03*
%TO.P,U3,14,VCC_RF*%
%TO.N,Net-(U3-VCC_RF)*%
X49870000Y-63050000D03*
%TO.P,U3,13,LNA_EN*%
%TO.N,unconnected-(U3-LNA_EN-Pad13)*%
X49870000Y-61950000D03*
%TO.P,U3,12,GND*%
%TO.N,GND*%
X49870000Y-60850000D03*
%TO.P,U3,11,RF_IN*%
%TO.N,Net-(J1-In)*%
X49870000Y-59750000D03*
D32*
%TO.P,U3,10,GND*%
%TO.N,GND*%
X49870000Y-58650000D03*
%TO.P,U3,9,~{RESET}*%
%TO.N,unconnected-(U3-~{RESET}-Pad9)*%
X59370000Y-58650000D03*
D33*
%TO.P,U3,8,VCC*%
%TO.N,3V3*%
X59370000Y-59750000D03*
%TO.P,U3,7,VCC_IO*%
X59370000Y-60850000D03*
%TO.P,U3,6,V_BCKP*%
X59370000Y-61950000D03*
%TO.P,U3,5,EXTINT*%
%TO.N,unconnected-(U3-EXTINT-Pad5)*%
X59370000Y-63050000D03*
%TO.P,U3,4,TIMEPULSE*%
%TO.N,unconnected-(U3-TIMEPULSE-Pad4)*%
X59370000Y-64150000D03*
%TO.P,U3,3,RXD*%
%TO.N,/MAX_8C GNSS/RXD*%
X59370000Y-65250000D03*
%TO.P,U3,2,TXD*%
%TO.N,/MAX_8C GNSS/TXD*%
X59370000Y-66350000D03*
D32*
%TO.P,U3,1,GND*%
%TO.N,GND*%
X59370000Y-67450000D03*
%TD*%
D12*
%TO.P,R14,2*%
%TO.N,Net-(U2-QSPI_SD2)*%
X91384000Y-52128000D03*
%TO.P,R14,1*%
%TO.N,/Q2*%
X92024000Y-52128000D03*
%TD*%
D34*
%TO.P,J7,S1,SHIELD*%
%TO.N,unconnected-(J7-SHIELD-PadS1)_5*%
X75375000Y-78910000D03*
D35*
%TO.N,unconnected-(J7-SHIELD-PadS1)_0*%
X75190000Y-76000000D03*
D36*
%TO.N,unconnected-(J7-SHIELD-PadS1)_2*%
X75095000Y-74020000D03*
D37*
%TO.N,unconnected-(J7-SHIELD-PadS1)_6*%
X74175000Y-72955000D03*
%TO.N,unconnected-(J7-SHIELD-PadS1)_3*%
X67425000Y-72955000D03*
D36*
%TO.N,unconnected-(J7-SHIELD-PadS1)*%
X66505000Y-74020000D03*
D35*
%TO.N,unconnected-(J7-SHIELD-PadS1)_4*%
X66410000Y-76000000D03*
D34*
%TO.N,unconnected-(J7-SHIELD-PadS1)_1*%
X66225000Y-78910000D03*
D38*
%TO.P,J7,B12,GND*%
%TO.N,GND*%
X68000000Y-74850000D03*
%TO.P,J7,B11,RX1+*%
%TO.N,unconnected-(J7-RX1+-PadB11)*%
X68400000Y-75750000D03*
%TO.P,J7,B10,RX1-*%
%TO.N,unconnected-(J7-RX1--PadB10)*%
X69200000Y-75750000D03*
%TO.P,J7,B9,VBUS*%
%TO.N,Net-(D4-A)*%
X69600000Y-74850000D03*
%TO.P,J7,B8,SBU2*%
%TO.N,unconnected-(J7-SBU2-PadB8)*%
X70000000Y-75750000D03*
%TO.P,J7,B7,D-*%
%TO.N,/USB_D-*%
X70400000Y-74850000D03*
%TO.P,J7,B6,D+*%
%TO.N,/USB_D+*%
X71200000Y-74850000D03*
%TO.P,J7,B5,CC2*%
%TO.N,Net-(J7-CC2)*%
X71600000Y-75750000D03*
%TO.P,J7,B4,VBUS*%
%TO.N,Net-(D4-A)*%
X72000000Y-74850000D03*
%TO.P,J7,B3,TX2-*%
%TO.N,unconnected-(J7-TX2--PadB3)*%
X72400000Y-75750000D03*
%TO.P,J7,B2,TX2+*%
%TO.N,unconnected-(J7-TX2+-PadB2)*%
X73200000Y-75750000D03*
%TO.P,J7,B1,GND*%
%TO.N,GND*%
X73600000Y-74850000D03*
D39*
%TO.P,J7,A12,GND*%
X73550000Y-73740000D03*
%TO.P,J7,A11,RX2+*%
%TO.N,unconnected-(J7-RX2+-PadA11)*%
X73050000Y-73740000D03*
%TO.P,J7,A10,RX2-*%
%TO.N,unconnected-(J7-RX2--PadA10)*%
X72550000Y-73740000D03*
%TO.P,J7,A9,VBUS*%
%TO.N,Net-(D4-A)*%
X72050000Y-73740000D03*
%TO.P,J7,A8,SBU1*%
%TO.N,unconnected-(J7-SBU1-PadA8)*%
X71550000Y-73740000D03*
%TO.P,J7,A7,D-*%
%TO.N,/USB_D-*%
X71050000Y-73740000D03*
%TO.P,J7,A6,D+*%
%TO.N,/USB_D+*%
X70550000Y-73740000D03*
%TO.P,J7,A5,CC1*%
%TO.N,Net-(J7-CC1)*%
X70050000Y-73740000D03*
%TO.P,J7,A4,VBUS*%
%TO.N,Net-(D4-A)*%
X69550000Y-73740000D03*
%TO.P,J7,A3,TX1-*%
%TO.N,unconnected-(J7-TX1--PadA3)*%
X69050000Y-73740000D03*
%TO.P,J7,A2,TX1+*%
%TO.N,unconnected-(J7-TX1+-PadA2)*%
X68550000Y-73740000D03*
%TO.P,J7,A1,GND*%
%TO.N,GND*%
X68050000Y-73740000D03*
%TD*%
D22*
%TO.P,R11,2*%
%TO.N,/~{RST}*%
X84950000Y-69050000D03*
%TO.P,R11,1*%
%TO.N,3V3*%
X84310000Y-69050000D03*
%TD*%
D10*
%TO.P,C27,2*%
%TO.N,GND*%
X91170600Y-67586400D03*
%TO.P,C27,1*%
%TO.N,3V3*%
X91170600Y-66946400D03*
%TD*%
D40*
%TO.P,J2,1,Pin_1*%
%TO.N,I2C_SCL 1*%
X107807969Y-67604847D03*
D41*
%TO.P,J2,2,Pin_2*%
%TO.N,I2C_SDA 1*%
X106011918Y-69400898D03*
%TD*%
D42*
%TO.P,U1,16,SDA*%
%TO.N,I2C_SDA 0*%
X111055000Y-61725000D03*
%TO.P,U1,15,DRDY*%
%TO.N,unconnected-(U1-DRDY-Pad15)*%
X111555000Y-61725000D03*
%TO.P,U1,14,NC@5*%
%TO.N,unconnected-(U1-NC@5-Pad14)*%
X112055000Y-61725000D03*
%TO.P,U1,13,VDDIO*%
%TO.N,3V3*%
X112555000Y-61725000D03*
D43*
%TO.P,U1,12,SETC*%
%TO.N,unconnected-(U1-SETC-Pad12)*%
X113130000Y-62300000D03*
%TO.P,U1,11,GND@2*%
%TO.N,GND*%
X113130000Y-62800000D03*
%TO.P,U1,10,C1*%
%TO.N,Net-(U1-C1)*%
X113130000Y-63300000D03*
%TO.P,U1,9,GND@1*%
%TO.N,GND*%
X113130000Y-63800000D03*
D42*
%TO.P,U1,8,SETP*%
%TO.N,unconnected-(U1-SETP-Pad8)*%
X112555000Y-64375000D03*
%TO.P,U1,7,NC@4*%
%TO.N,unconnected-(U1-NC@4-Pad7)*%
X112055000Y-64375000D03*
%TO.P,U1,6,NC@3*%
%TO.N,unconnected-(U1-NC@3-Pad6)*%
X111555000Y-64375000D03*
%TO.P,U1,5,NC@2*%
%TO.N,unconnected-(U1-NC@2-Pad5)*%
X111055000Y-64375000D03*
D43*
%TO.P,U1,4,S1*%
%TO.N,3V3*%
X110480000Y-63800000D03*
%TO.P,U1,3,NC@1*%
%TO.N,unconnected-(U1-NC@1-Pad3)*%
X110480000Y-63300000D03*
%TO.P,U1,2,VDD*%
%TO.N,3V3*%
X110480000Y-62800000D03*
%TO.P,U1,1,SCL*%
%TO.N,I2C_SCL 0*%
X110480000Y-62300000D03*
%TD*%
D15*
%TO.P,R9,2*%
%TO.N,Net-(D3-BK)*%
X90130000Y-79550000D03*
%TO.P,R9,1*%
%TO.N,Net-(Q3-D)*%
X90130000Y-80190000D03*
%TD*%
D44*
%TO.N,PWM_LEFT*%
X41800000Y-76000000D03*
X41600000Y-80400000D03*
D45*
%TO.N,GND*%
X115800000Y-63200000D03*
X104400000Y-66800000D03*
X63800000Y-78600000D03*
X68000000Y-77400000D03*
X45000000Y-52500000D03*
X47500000Y-52500000D03*
X50000000Y-52500000D03*
X52500000Y-55000000D03*
X55000000Y-55000000D03*
X57500000Y-55000000D03*
X60000000Y-55000000D03*
X62500000Y-55000000D03*
X65000000Y-57500000D03*
X65000000Y-60000000D03*
X60000000Y-70000000D03*
X57500000Y-70000000D03*
X55000000Y-70000000D03*
X52500000Y-70000000D03*
X50000000Y-70000000D03*
X47500000Y-70000000D03*
X45000000Y-67500000D03*
X45000000Y-65000000D03*
X81050000Y-70450000D03*
X65300000Y-70950000D03*
D44*
%TO.N,Net-(U2-XIN)*%
X94150000Y-69350000D03*
X96700000Y-67550000D03*
%TO.N,GND*%
X96000000Y-65850000D03*
X97250000Y-65300000D03*
D45*
X97550000Y-68400000D03*
X112600000Y-59600000D03*
X95800000Y-52750000D03*
X103500000Y-53800000D03*
X39800000Y-75600000D03*
X70800000Y-79200000D03*
X90000000Y-65700000D03*
X84950000Y-65650000D03*
X87250000Y-61800000D03*
X92750000Y-74300000D03*
X70600000Y-62000000D03*
X87550000Y-70600000D03*
X75250000Y-69450000D03*
X75300000Y-58850000D03*
X80150000Y-54450000D03*
X98350000Y-49900000D03*
X108700000Y-64550000D03*
X83800000Y-80250000D03*
X97850000Y-78950000D03*
X100900000Y-70850000D03*
X77550000Y-74450000D03*
X66850000Y-66400000D03*
D44*
X96650000Y-46500000D03*
X98350000Y-48200000D03*
%TO.N,PWM_RIGHT*%
X93500000Y-68000000D03*
X91626740Y-68376741D03*
%TO.N,/USB_D+*%
X70000000Y-69500000D03*
X70750000Y-75750000D03*
%TO.N,I2C_SCL 0*%
X103000000Y-61000000D03*
X107250000Y-63000000D03*
%TO.N,Net-(D4-A)*%
X68500000Y-72250000D03*
X71500000Y-72000000D03*
%TO.N,Net-(U2-USB_DM)*%
X90130000Y-62550000D03*
%TO.N,3V3*%
X80380000Y-65550000D03*
X67880000Y-65300000D03*
X92880000Y-70550000D03*
D45*
X100848000Y-58478000D03*
X89607134Y-56637866D03*
X92085000Y-66860000D03*
X94625000Y-63685000D03*
X98100000Y-58605000D03*
D44*
X85130000Y-68300000D03*
D45*
X86647562Y-59532437D03*
%TO.N,5V*%
X90130000Y-78550000D03*
X41130000Y-74300000D03*
X85130000Y-58300000D03*
X90202250Y-55430000D03*
X40630000Y-48300000D03*
X79880000Y-73800000D03*
X73130000Y-66300000D03*
%TO.N,/~{RST}*%
X85630000Y-73300000D03*
X99699988Y-68700000D03*
D44*
%TO.N,/RP2040/1V1*%
X99380000Y-60800000D03*
X98130000Y-65800000D03*
%TO.N,Net-(U2-USB_DM)*%
X98380000Y-61300000D03*
%TO.N,Net-(U2-USB_DP)*%
X90130000Y-62050000D03*
X97630000Y-61300000D03*
%TO.N,I2C_SDA 0*%
X108130000Y-60300000D03*
X109900000Y-61145000D03*
%TO.N,/Q_SS*%
X96250000Y-49500000D03*
X54500000Y-47000000D03*
D45*
%TO.N,Net-(U2-QSPI_SD0)*%
X99046252Y-54812349D03*
X95899500Y-58158258D03*
%TO.N,Net-(U2-QSPI_SD1)*%
X93707995Y-55679867D03*
X95099134Y-56847276D03*
%TO.N,Net-(U2-QSPI_SD2)*%
X93482000Y-54668000D03*
X95301673Y-55868510D03*
%TO.N,/LED_B*%
X86880000Y-76050000D03*
X101630000Y-73300000D03*
D44*
%TO.N,/MAX_8C GNSS/TXD*%
X91130000Y-63550000D03*
X61630000Y-65550000D03*
%TO.N,/MAX_8C GNSS/RXD*%
X91895166Y-63825000D03*
X62130000Y-64800000D03*
%TD*%
D46*
%TO.N,5V*%
X40985000Y-74445000D02*
X41130000Y-74300000D01*
X37405000Y-74445000D02*
X40985000Y-74445000D01*
%TO.N,PWM_LEFT*%
X41590000Y-53200000D02*
X37375000Y-48985000D01*
X41600000Y-53200000D02*
X41590000Y-53200000D01*
X41800000Y-53400000D02*
X41600000Y-53200000D01*
X41800000Y-76000000D02*
X41800000Y-53400000D01*
X41600000Y-81200000D02*
X41600000Y-80400000D01*
X42200000Y-81800000D02*
X41600000Y-81200000D01*
%TO.N,PWM_RIGHT*%
X39015000Y-76985000D02*
X41770000Y-79740000D01*
X37405000Y-76985000D02*
X39015000Y-76985000D01*
%TO.N,5V*%
X38775000Y-46445000D02*
X37375000Y-46445000D01*
X40630000Y-48300000D02*
X38775000Y-46445000D01*
%TO.N,GND*%
X110215000Y-59801396D02*
X110215000Y-59875000D01*
X110581396Y-59435000D02*
X110215000Y-59801396D01*
X112600000Y-59600000D02*
X112435000Y-59435000D01*
X113450000Y-62800000D02*
X113130000Y-62800000D01*
X112600000Y-60778310D02*
X113800000Y-61978310D01*
X112600000Y-59600000D02*
X112600000Y-60778310D01*
X113800000Y-61978310D02*
X113800000Y-62450000D01*
X113800000Y-62450000D02*
X113450000Y-62800000D01*
X112435000Y-59435000D02*
X110581396Y-59435000D01*
D47*
%TO.N,3V3*%
X109000000Y-60299315D02*
X108819315Y-60480000D01*
X109000000Y-57866904D02*
X109000000Y-60299315D01*
X106098045Y-54964949D02*
X109000000Y-57866904D01*
X104361051Y-54964949D02*
X106098045Y-54964949D01*
X100848000Y-58478000D02*
X104361051Y-54964949D01*
%TO.N,I2C_SDA 0*%
X107800898Y-59605266D02*
X107618082Y-59788082D01*
X107800898Y-58188082D02*
X107800898Y-59605266D01*
%TO.N,I2C_SCL 0*%
X104404847Y-57992031D02*
X104384847Y-57992031D01*
X106004847Y-56392031D02*
X104404847Y-57992031D01*
%TO.N,I2C_SDA 1*%
X104961918Y-68350898D02*
X104333949Y-68350898D01*
X106011918Y-69400898D02*
X104961918Y-68350898D01*
%TO.N,I2C_SCL 1*%
X106757969Y-66554847D02*
X106130000Y-66554847D01*
X107807969Y-67604847D02*
X106757969Y-66554847D01*
D48*
%TO.N,GND*%
X64310000Y-79110000D02*
X63800000Y-78600000D01*
X64310000Y-80600000D02*
X64310000Y-79110000D01*
X67675000Y-75175000D02*
X68000000Y-74850000D01*
X67675000Y-77075000D02*
X67675000Y-75175000D01*
X68000000Y-77400000D02*
X67675000Y-77075000D01*
%TO.N,Net-(J7-CC2)*%
X66750000Y-80600000D02*
X64950000Y-80600000D01*
X71600000Y-75750000D02*
X66750000Y-80600000D01*
D47*
%TO.N,GND*%
X97000000Y-62200000D02*
X97000000Y-63250000D01*
D46*
X97000000Y-65050000D02*
X97250000Y-65300000D01*
X97000000Y-63250000D02*
X97000000Y-65050000D01*
X66425000Y-70950000D02*
X65300000Y-70950000D01*
X68015000Y-72540000D02*
X66425000Y-70950000D01*
X68015000Y-74835000D02*
X68015000Y-72540000D01*
X68000000Y-74850000D02*
X68015000Y-74835000D01*
X97530000Y-78950000D02*
X97850000Y-78950000D01*
X95880000Y-77300000D02*
X97530000Y-78950000D01*
X97115000Y-68400000D02*
X97550000Y-68400000D01*
X95480000Y-70035000D02*
X97115000Y-68400000D01*
X97380000Y-47620000D02*
X97380000Y-48930000D01*
X97380000Y-48930000D02*
X98350000Y-49900000D01*
X78115000Y-67515000D02*
X78115000Y-67470000D01*
X81050000Y-70450000D02*
X78115000Y-67515000D01*
X76130000Y-73030000D02*
X77550000Y-74450000D01*
X76130000Y-71275000D02*
X76130000Y-73030000D01*
X76100000Y-71245000D02*
X76130000Y-71275000D01*
X74860000Y-71245000D02*
X76100000Y-71245000D01*
X97770000Y-47620000D02*
X97380000Y-47620000D01*
X98350000Y-48200000D02*
X97770000Y-47620000D01*
X86801800Y-69851800D02*
X87550000Y-70600000D01*
X86801800Y-67586000D02*
X86801800Y-69851800D01*
X86570000Y-68192800D02*
X86570000Y-69620000D01*
X85963600Y-67586400D02*
X86570000Y-68192800D01*
X82560000Y-68940000D02*
X81050000Y-70450000D01*
X82560000Y-68135000D02*
X82560000Y-68940000D01*
X68050000Y-72575000D02*
X66425000Y-70950000D01*
X68050000Y-73740000D02*
X68050000Y-72575000D01*
X96000000Y-67401544D02*
X96000000Y-66687500D01*
X97550000Y-68400000D02*
X96998456Y-68400000D01*
X96998456Y-68400000D02*
X96000000Y-67401544D01*
%TO.N,Net-(U2-XIN)*%
X95385000Y-71685000D02*
X95480000Y-71685000D01*
X94150000Y-70450000D02*
X95385000Y-71685000D01*
X94150000Y-70450000D02*
X94150000Y-69350000D01*
X96400000Y-67250000D02*
X96400000Y-66687500D01*
X96700000Y-67550000D02*
X96400000Y-67250000D01*
%TO.N,GND*%
X96000000Y-65850000D02*
X96000000Y-66687500D01*
D47*
%TO.N,3V3*%
X94750000Y-65200000D02*
X94750000Y-63810000D01*
X94850000Y-65300000D02*
X94750000Y-65200000D01*
X94750000Y-63810000D02*
X94625000Y-63685000D01*
X97242500Y-65912500D02*
X96630000Y-65300000D01*
X96630000Y-65300000D02*
X94850000Y-65300000D01*
D46*
%TO.N,GND*%
X113130000Y-64230000D02*
X113575000Y-64675000D01*
X113130000Y-63800000D02*
X113130000Y-64230000D01*
X113575000Y-64675000D02*
X112850000Y-65400000D01*
X114345000Y-63905000D02*
X113575000Y-64675000D01*
X112850000Y-65400000D02*
X109550000Y-65400000D01*
X114345000Y-63370000D02*
X114345000Y-63905000D01*
X109550000Y-65400000D02*
X108700000Y-64550000D01*
X86801400Y-67586400D02*
X86801800Y-67586000D01*
X85963200Y-67586000D02*
X85963600Y-67586400D01*
X85125400Y-67586000D02*
X85963200Y-67586000D01*
X84287200Y-67586000D02*
X85125400Y-67586000D01*
X95279000Y-53271000D02*
X95800000Y-52750000D01*
X93692000Y-53271000D02*
X95279000Y-53271000D01*
%TO.N,/Q_SS*%
X96750000Y-53160396D02*
X94400000Y-55510396D01*
X96750000Y-52352604D02*
X96750000Y-53160396D01*
X94792000Y-50394604D02*
X96750000Y-52352604D01*
X94400000Y-55510396D02*
X94400000Y-59812500D01*
%TO.N,GND*%
X101343604Y-56730000D02*
X103500000Y-54573604D01*
X103500000Y-54573604D02*
X103500000Y-53800000D01*
X100880000Y-56730000D02*
X101343604Y-56730000D01*
X99880000Y-56730000D02*
X100880000Y-56730000D01*
X98880000Y-56730000D02*
X99880000Y-56730000D01*
X86570000Y-69620000D02*
X86801800Y-69851800D01*
X86130000Y-69620000D02*
X86570000Y-69620000D01*
X91170600Y-67586400D02*
X90281600Y-67586400D01*
X90281600Y-67868400D02*
X89392600Y-68757400D01*
X90281600Y-67586400D02*
X90281600Y-67868400D01*
X89392600Y-68757400D02*
X88503600Y-69646400D01*
X89392600Y-67586400D02*
X89392600Y-68757400D01*
X88503600Y-69646400D02*
X87550000Y-70600000D01*
X88503600Y-67586400D02*
X88503600Y-69646400D01*
X87614600Y-70535400D02*
X87550000Y-70600000D01*
X87614600Y-67586400D02*
X87614600Y-70535400D01*
X66930000Y-66480000D02*
X66850000Y-66400000D01*
X68130000Y-66480000D02*
X66930000Y-66480000D01*
X96055000Y-45905000D02*
X96650000Y-46500000D01*
X94605000Y-45905000D02*
X96055000Y-45905000D01*
X68050000Y-74800000D02*
X68000000Y-74850000D01*
X68050000Y-73740000D02*
X68050000Y-74800000D01*
X73550000Y-74800000D02*
X73600000Y-74850000D01*
X73550000Y-73740000D02*
X73550000Y-74800000D01*
%TO.N,/~{RST}*%
X85630000Y-73906791D02*
X85630000Y-73300000D01*
X78396791Y-81140000D02*
X85630000Y-73906791D01*
X54945000Y-81140000D02*
X78396791Y-81140000D01*
X52605000Y-78800000D02*
X54945000Y-81140000D01*
%TO.N,PWM_RIGHT*%
X94336508Y-68000000D02*
X95200000Y-67136508D01*
X93500000Y-68000000D02*
X94336508Y-68000000D01*
X95200000Y-67136508D02*
X95200000Y-66687500D01*
X78533481Y-81470000D02*
X91626740Y-68376741D01*
X53000000Y-81470000D02*
X78533481Y-81470000D01*
X52970000Y-81470000D02*
X53000000Y-81470000D01*
X44000000Y-81470000D02*
X52970000Y-81470000D01*
X43500000Y-81470000D02*
X44000000Y-81470000D01*
X41770000Y-79740000D02*
X43500000Y-81470000D01*
%TO.N,/USB_D+*%
X70500000Y-69000000D02*
X70550000Y-69000000D01*
X70000000Y-69500000D02*
X70500000Y-69000000D01*
X70550000Y-69000000D02*
X70550000Y-73740000D01*
X70550000Y-68050000D02*
X70550000Y-69000000D01*
X71200000Y-75300000D02*
X70750000Y-75750000D01*
X71200000Y-74850000D02*
X71200000Y-75300000D01*
%TO.N,/USB_D-*%
X71050000Y-74200000D02*
X71050000Y-73740000D01*
X70400000Y-74850000D02*
X71050000Y-74200000D01*
%TO.N,I2C_SCL 0*%
X102243254Y-61756746D02*
X102243254Y-62493254D01*
X103000000Y-61000000D02*
X102243254Y-61756746D01*
X102243254Y-62493254D02*
X100886508Y-63850000D01*
X104384847Y-60351661D02*
X102243254Y-62493254D01*
X108564999Y-63000000D02*
X107250000Y-63000000D01*
X108950000Y-62415000D02*
X108950000Y-62614999D01*
X108950000Y-62614999D02*
X108564999Y-63000000D01*
%TO.N,I2C_SDA 0*%
X101318980Y-64650000D02*
X100437500Y-64650000D01*
X106180898Y-59788082D02*
X101318980Y-64650000D01*
%TO.N,I2C_SCL 0*%
X100886508Y-63850000D02*
X100437500Y-63850000D01*
X104384847Y-57992031D02*
X104384847Y-60351661D01*
%TO.N,Net-(D4-A)*%
X68800000Y-72250000D02*
X69550000Y-73000000D01*
X69550000Y-73000000D02*
X69550000Y-70607500D01*
X69550000Y-73740000D02*
X69550000Y-73000000D01*
X68500000Y-72250000D02*
X68800000Y-72250000D01*
X72050000Y-72550000D02*
X71500000Y-72000000D01*
X72050000Y-73740000D02*
X72050000Y-72550000D01*
X69600000Y-73790000D02*
X69550000Y-73740000D01*
X69600000Y-74850000D02*
X69600000Y-73790000D01*
X72000000Y-73790000D02*
X72050000Y-73740000D01*
X72000000Y-74850000D02*
X72000000Y-73790000D01*
%TO.N,Net-(U2-USB_DM)*%
X72000000Y-59495686D02*
X72000000Y-64180000D01*
X74545686Y-56950000D02*
X72000000Y-59495686D01*
X84970223Y-56950000D02*
X74545686Y-56950000D01*
X89993603Y-62550000D02*
X89600112Y-62156509D01*
X90130000Y-62550000D02*
X89993603Y-62550000D01*
X89600112Y-62156509D02*
X89600112Y-61579889D01*
X89600112Y-61579889D02*
X84970223Y-56950000D01*
%TO.N,Net-(U2-USB_DP)*%
X90130000Y-61544091D02*
X90130000Y-62050000D01*
X69250000Y-61680000D02*
X74380000Y-56550000D01*
X69250000Y-64230000D02*
X69250000Y-61680000D01*
X74380000Y-56550000D02*
X85135909Y-56550000D01*
X85135909Y-56550000D02*
X90130000Y-61544091D01*
D47*
%TO.N,/USB_D-*%
X72000000Y-67100000D02*
X71680000Y-67420000D01*
X72000000Y-64820000D02*
X72000000Y-67100000D01*
%TO.N,/USB_D+*%
X69250000Y-67170000D02*
X69665000Y-67585000D01*
X69250000Y-64870000D02*
X69250000Y-67170000D01*
D46*
X69665000Y-67585000D02*
X70130000Y-68050000D01*
%TO.N,3V3*%
X97600000Y-59105000D02*
X97600000Y-59812500D01*
X89607134Y-56637866D02*
X89512250Y-56542982D01*
X83380000Y-66606000D02*
X83380000Y-68120000D01*
X108310000Y-60989315D02*
X108819315Y-60480000D01*
X59370000Y-60850000D02*
X62380000Y-60850000D01*
D47*
X100437500Y-60650000D02*
X100121250Y-60333750D01*
X100121250Y-60333750D02*
X100121250Y-59291250D01*
D46*
X82560000Y-66155000D02*
X82560000Y-66606000D01*
X97200000Y-46980000D02*
X95380000Y-48800000D01*
X90281600Y-66946400D02*
X91170600Y-66946400D01*
X84465000Y-61714999D02*
X84465000Y-64250000D01*
X112555000Y-62250000D02*
X112555000Y-61725000D01*
D47*
X93562500Y-64250000D02*
X94060000Y-64250000D01*
X63430000Y-60850000D02*
X67880000Y-65300000D01*
D46*
X83380000Y-66606000D02*
X83947200Y-66606000D01*
X59370000Y-61950000D02*
X59370000Y-60850000D01*
X97835000Y-71940000D02*
X97580000Y-71685000D01*
X98411000Y-46980000D02*
X97380000Y-46980000D01*
X97380000Y-46980000D02*
X97200000Y-46980000D01*
D47*
X93560000Y-72230000D02*
X93130000Y-72230000D01*
D46*
X82560000Y-67495000D02*
X82535000Y-67470000D01*
X90675000Y-44755000D02*
X89525000Y-45905000D01*
X100848000Y-58478000D02*
X100848000Y-58564500D01*
D47*
X62380000Y-60850000D02*
X63430000Y-60850000D01*
D46*
X112555000Y-61200000D02*
X111835000Y-60480000D01*
X83845000Y-68585000D02*
X84310000Y-69050000D01*
X84465000Y-64250000D02*
X82560000Y-66155000D01*
D47*
X96805000Y-72460000D02*
X93790000Y-72460000D01*
D46*
X82560000Y-67495000D02*
X82560000Y-66606000D01*
X111230000Y-59875000D02*
X110855000Y-59875000D01*
X86801800Y-66946000D02*
X87614200Y-66946000D01*
X97600000Y-59812500D02*
X97600000Y-60650000D01*
D47*
X97242500Y-66687500D02*
X97242500Y-65912500D01*
D46*
X86801400Y-66946400D02*
X86801800Y-66946000D01*
D47*
X80415000Y-66085000D02*
X80415000Y-67470000D01*
D46*
X59370000Y-59750000D02*
X59370000Y-60850000D01*
X110480000Y-62800000D02*
X112005000Y-62800000D01*
D47*
X97200000Y-66687500D02*
X97242500Y-66687500D01*
X99679999Y-64250000D02*
X98504999Y-65425000D01*
D46*
X89392600Y-66946400D02*
X90281600Y-66946400D01*
X83380000Y-68120000D02*
X83845000Y-68585000D01*
X100892000Y-49461000D02*
X98411000Y-46980000D01*
X85963600Y-66946400D02*
X86801400Y-66946400D01*
X97380000Y-46980000D02*
X97380000Y-45949000D01*
D47*
X80380000Y-65550000D02*
X80380000Y-66050000D01*
D46*
X96186000Y-44755000D02*
X90675000Y-44755000D01*
X83947200Y-66606000D02*
X84287200Y-66946000D01*
X94625000Y-60650000D02*
X93562500Y-60650000D01*
X82560000Y-66606000D02*
X83380000Y-66606000D01*
X88503600Y-66946400D02*
X89392600Y-66946400D01*
X112555000Y-61725000D02*
X112555000Y-61200000D01*
D47*
X93790000Y-72460000D02*
X93560000Y-72230000D01*
D46*
X85963200Y-66946000D02*
X85963600Y-66946400D01*
X100121250Y-59291250D02*
X99600000Y-59812500D01*
X112005000Y-62800000D02*
X112555000Y-62250000D01*
X110480000Y-63800000D02*
X111005000Y-63800000D01*
X92085000Y-66860000D02*
X91257000Y-66860000D01*
X87614600Y-66946400D02*
X88503600Y-66946400D01*
X91610001Y-48800000D02*
X91060000Y-49350001D01*
D47*
X97730000Y-65425000D02*
X97242500Y-65912500D01*
D46*
X98100000Y-58605000D02*
X97600000Y-59105000D01*
X84287200Y-66946000D02*
X85125400Y-66946000D01*
X62380000Y-60850000D02*
X62579999Y-60850000D01*
X97580000Y-71685000D02*
X99010000Y-71685000D01*
X91257000Y-66860000D02*
X91170600Y-66946400D01*
X86647562Y-59532437D02*
X84465000Y-61714999D01*
D47*
X93130000Y-72230000D02*
X93130000Y-70800000D01*
D46*
X94625000Y-60650000D02*
X94625000Y-63685000D01*
X82535000Y-67470000D02*
X80415000Y-67470000D01*
D47*
X100437500Y-64250000D02*
X99679999Y-64250000D01*
X98504999Y-65425000D02*
X97730000Y-65425000D01*
D46*
X97200000Y-59812500D02*
X97600000Y-59812500D01*
X97380000Y-45949000D02*
X96186000Y-44755000D01*
X91060000Y-49350001D02*
X91060000Y-49550000D01*
X95380000Y-48800000D02*
X91610001Y-48800000D01*
D47*
X93130000Y-70800000D02*
X92880000Y-70550000D01*
D46*
X111005000Y-63800000D02*
X112005000Y-62800000D01*
D47*
X97580000Y-71685000D02*
X96805000Y-72460000D01*
D46*
X99010000Y-71685000D02*
X99705000Y-70990000D01*
X89525000Y-56612500D02*
X89550366Y-56637866D01*
X108310000Y-61145000D02*
X108310000Y-60989315D01*
X89512250Y-45917750D02*
X89525000Y-45905000D01*
X100848000Y-58564500D02*
X100121250Y-59291250D01*
D47*
X85130000Y-68300000D02*
X84130000Y-68300000D01*
D46*
X99200000Y-59812500D02*
X99600000Y-59812500D01*
D47*
X94060000Y-64250000D02*
X94625000Y-63685000D01*
D46*
X111835000Y-60480000D02*
X111230000Y-59875000D01*
X87614200Y-66946000D02*
X87614600Y-66946400D01*
X85125400Y-66946000D02*
X85963200Y-66946000D01*
X108310000Y-62415000D02*
X108310000Y-61145000D01*
D47*
X84130000Y-68300000D02*
X83845000Y-68585000D01*
D46*
X108819315Y-60480000D02*
X111835000Y-60480000D01*
X89550366Y-56637866D02*
X89607134Y-56637866D01*
X97600000Y-60650000D02*
X94625000Y-60650000D01*
X89512250Y-56542982D02*
X89512250Y-45917750D01*
D47*
X80380000Y-66050000D02*
X80415000Y-66085000D01*
D46*
%TO.N,GND*%
X47385000Y-55575000D02*
X49870000Y-58060000D01*
X45880000Y-55575000D02*
X47385000Y-55575000D01*
X49870000Y-58060000D02*
X49870000Y-58650000D01*
%TO.N,Net-(U1-C1)*%
X114030000Y-62730000D02*
X114345000Y-62730000D01*
X113710000Y-63050000D02*
X114030000Y-62730000D01*
X113655000Y-63300000D02*
X113710000Y-63245000D01*
X113130000Y-63300000D02*
X113655000Y-63300000D01*
X113710000Y-63245000D02*
X113710000Y-63050000D01*
%TO.N,Net-(C4-Pad1)*%
X45880000Y-63730000D02*
X44590000Y-63730000D01*
X47310000Y-63050000D02*
X46560000Y-63050000D01*
X46560000Y-63050000D02*
X45880000Y-63730000D01*
X44590000Y-63730000D02*
X44520000Y-63800000D01*
%TO.N,5V*%
X74860000Y-70446544D02*
X74860000Y-70605000D01*
X72767500Y-69550000D02*
X73963456Y-69550000D01*
X90180000Y-47790000D02*
X92065000Y-45905000D01*
X75220000Y-67470000D02*
X75815000Y-67470000D01*
D47*
X75815000Y-67470000D02*
X75960000Y-67470000D01*
D46*
X76380000Y-70300000D02*
X76130000Y-70300000D01*
X90202250Y-55430000D02*
X90157750Y-55385500D01*
D47*
X75960000Y-67470000D02*
X85130000Y-58300000D01*
D46*
X91880000Y-79100000D02*
X90680000Y-79100000D01*
X90157750Y-55385500D02*
X90157750Y-47790000D01*
X76130000Y-70635000D02*
X76130000Y-70300000D01*
X76130000Y-67785000D02*
X75815000Y-67470000D01*
X73130000Y-66300000D02*
X72767500Y-66662500D01*
X76100000Y-70605000D02*
X76130000Y-70635000D01*
X76130000Y-70300000D02*
X76130000Y-67785000D01*
X41130000Y-74300000D02*
X40965000Y-74465000D01*
X73963456Y-69550000D02*
X74860000Y-70446544D01*
X74860000Y-70605000D02*
X76100000Y-70605000D01*
X72767500Y-66662500D02*
X72767500Y-69550000D01*
X90680000Y-79100000D02*
X90130000Y-78550000D01*
X79880000Y-73800000D02*
X76380000Y-70300000D01*
%TO.N,/~{RST}*%
X84950000Y-72620000D02*
X85630000Y-73300000D01*
X84950000Y-69050000D02*
X86060000Y-69050000D01*
X99699988Y-68700000D02*
X98800000Y-67800012D01*
X86060000Y-69050000D02*
X86130000Y-68980000D01*
X84950000Y-69050000D02*
X84950000Y-72620000D01*
X98800000Y-67800012D02*
X98800000Y-66687500D01*
%TO.N,/RP2040/1V1*%
X99253640Y-60800000D02*
X99380000Y-60800000D01*
X100880000Y-57370000D02*
X99880000Y-57370000D01*
D47*
X96800000Y-59812500D02*
X96800000Y-59325503D01*
D46*
X97980000Y-65950000D02*
X97803640Y-65950000D01*
D47*
X97380000Y-58745503D02*
X97380000Y-58441116D01*
X96800000Y-59325503D02*
X97380000Y-58745503D01*
D46*
X99880000Y-57370000D02*
X98880000Y-57370000D01*
D47*
X98451116Y-57370000D02*
X98880000Y-57370000D01*
D46*
X97803640Y-65950000D02*
X97600000Y-66153640D01*
D47*
X97380000Y-58441116D02*
X98451116Y-57370000D01*
D46*
X97600000Y-66153640D02*
X97600000Y-66687500D01*
X99253640Y-60800000D02*
X98800000Y-60346360D01*
X98800000Y-57450000D02*
X98800000Y-59812500D01*
X98880000Y-57370000D02*
X98800000Y-57450000D01*
X98130000Y-65800000D02*
X97980000Y-65950000D01*
X98800000Y-60346360D02*
X98800000Y-59812500D01*
%TO.N,/USB_D+*%
X70550000Y-67640000D02*
X70550000Y-68050000D01*
%TO.N,Net-(U2-USB_DM)*%
X98400000Y-61280000D02*
X98400000Y-59812500D01*
X98380000Y-61300000D02*
X98400000Y-61280000D01*
%TO.N,/USB_D+*%
X70130000Y-67220000D02*
X70550000Y-67640000D01*
X70130000Y-68050000D02*
X70550000Y-68050000D01*
%TO.N,/USB_D-*%
X71680000Y-67420000D02*
X71050000Y-68050000D01*
X71050000Y-67300000D02*
X71050000Y-68050000D01*
X71050000Y-68050000D02*
X71050000Y-73740000D01*
%TO.N,Net-(U2-USB_DP)*%
X98000000Y-60930000D02*
X98000000Y-59812500D01*
%TO.N,/USB_D-*%
X71130000Y-67220000D02*
X71050000Y-67300000D01*
%TO.N,Net-(U2-USB_DP)*%
X97630000Y-61300000D02*
X98000000Y-60930000D01*
%TO.N,Net-(D3-RK)*%
X92930000Y-80400000D02*
X92930000Y-77670000D01*
X91880000Y-80500000D02*
X92830000Y-80500000D01*
X92930000Y-77670000D02*
X92880000Y-77620000D01*
X92830000Y-80500000D02*
X92930000Y-80400000D01*
%TO.N,Net-(D3-GK)*%
X94330000Y-80400000D02*
X94330000Y-77700000D01*
X94330000Y-77700000D02*
X94390000Y-77640000D01*
X95380000Y-80500000D02*
X94430000Y-80500000D01*
X94430000Y-80500000D02*
X94330000Y-80400000D01*
%TO.N,Net-(D3-BK)*%
X96430000Y-79700000D02*
X96430000Y-81300000D01*
X95380000Y-79100000D02*
X95830000Y-79100000D01*
X90630000Y-81050000D02*
X90630000Y-79850001D01*
X90630000Y-79850001D02*
X90329999Y-79550000D01*
X95830000Y-79100000D02*
X96430000Y-79700000D01*
X90329999Y-79550000D02*
X90130000Y-79550000D01*
X90880000Y-81300000D02*
X90630000Y-81050000D01*
X96430000Y-81300000D02*
X90880000Y-81300000D01*
%TO.N,Net-(J1-In)*%
X49870000Y-59750000D02*
X48380000Y-59750000D01*
X47193398Y-59750000D02*
X43893398Y-63050000D01*
X43880000Y-63800000D02*
X43880000Y-63063398D01*
X48380000Y-59750000D02*
X47193398Y-59750000D01*
X47380000Y-57050000D02*
X47380000Y-58750000D01*
X43880000Y-63063398D02*
X43893398Y-63050000D01*
X47380000Y-58750000D02*
X48380000Y-59750000D01*
D47*
%TO.N,I2C_SDA 1*%
X101833051Y-65850000D02*
X100437500Y-65850000D01*
X104333949Y-68350898D02*
X101833051Y-65850000D01*
%TO.N,I2C_SCL 1*%
X106130000Y-66554847D02*
X105025153Y-65450000D01*
X105025153Y-65450000D02*
X100437500Y-65450000D01*
%TO.N,I2C_SDA 0*%
X107618082Y-59788082D02*
X108130000Y-60300000D01*
D46*
X108950000Y-61145000D02*
X109900000Y-61145000D01*
X109530000Y-61725000D02*
X108950000Y-61145000D01*
X111055000Y-61725000D02*
X109530000Y-61725000D01*
D47*
X106180898Y-59788082D02*
X107618082Y-59788082D01*
D46*
%TO.N,I2C_SCL 0*%
X109065000Y-62300000D02*
X108950000Y-62415000D01*
X110480000Y-62300000D02*
X109065000Y-62300000D01*
D47*
X100880000Y-63850000D02*
X100437500Y-63850000D01*
D46*
%TO.N,PWM_LEFT*%
X78755025Y-81800000D02*
X93867525Y-66687500D01*
X93867525Y-66687500D02*
X94400000Y-66687500D01*
X42200000Y-81800000D02*
X78755025Y-81800000D01*
%TO.N,/GP0*%
X86985000Y-55004975D02*
X86985000Y-45905000D01*
X93030025Y-61050000D02*
X86985000Y-55004975D01*
X93562500Y-61050000D02*
X93030025Y-61050000D01*
%TO.N,/GP1*%
X84445000Y-53030661D02*
X84445000Y-45905000D01*
X93562500Y-61450000D02*
X92864339Y-61450000D01*
X92864339Y-61450000D02*
X84445000Y-53030661D01*
%TO.N,/GP2*%
X93562500Y-61850000D02*
X92698653Y-61850000D01*
X92698653Y-61850000D02*
X81905000Y-51056347D01*
X81905000Y-51056347D02*
X81905000Y-45905000D01*
%TO.N,/GP3*%
X79365000Y-49082033D02*
X79365000Y-45905000D01*
X93562500Y-62250000D02*
X92532967Y-62250000D01*
X92532967Y-62250000D02*
X79365000Y-49082033D01*
%TO.N,/GP4*%
X76825000Y-47107719D02*
X76825000Y-45905000D01*
X92367281Y-62650000D02*
X76825000Y-47107719D01*
X93562500Y-62650000D02*
X92367281Y-62650000D01*
%TO.N,/GP5*%
X76130000Y-47800000D02*
X76130000Y-47750000D01*
X92201595Y-63050000D02*
X76951595Y-47800000D01*
X93562500Y-63050000D02*
X92201595Y-63050000D01*
X76951595Y-47800000D02*
X76130000Y-47800000D01*
X76130000Y-47750000D02*
X74285000Y-45905000D01*
%TO.N,Net-(J7-CC1)*%
X70050000Y-70220000D02*
X70050000Y-73740000D01*
X68130000Y-67120000D02*
X68609744Y-67120000D01*
X69355000Y-67865256D02*
X69355000Y-69525000D01*
X68609744Y-67120000D02*
X69355000Y-67865256D01*
X69355000Y-69525000D02*
X70050000Y-70220000D01*
%TO.N,Net-(Q1-G)*%
X89255000Y-74200000D02*
X89405000Y-74050000D01*
X89255000Y-75350000D02*
X89255000Y-74200000D01*
%TO.N,Net-(Q1-D)*%
X91810000Y-76980000D02*
X91130000Y-76300000D01*
X92880000Y-76980000D02*
X91810000Y-76980000D01*
%TO.N,Net-(Q2-G)*%
X95880000Y-75400000D02*
X94480000Y-75400000D01*
X94480000Y-75400000D02*
X94380000Y-75300000D01*
%TO.N,Net-(Q2-D)*%
X95040000Y-76350000D02*
X97755000Y-76350000D01*
X94390000Y-77000000D02*
X95040000Y-76350000D01*
%TO.N,Net-(Q3-G)*%
X86755000Y-77925000D02*
X87130000Y-77550000D01*
X86755000Y-78850000D02*
X86755000Y-77925000D01*
%TO.N,Net-(Q3-D)*%
X90130000Y-80190000D02*
X89020000Y-80190000D01*
X89020000Y-80190000D02*
X88630000Y-79800000D01*
%TO.N,Net-(U3-VCC_RF)*%
X49870000Y-63050000D02*
X47950000Y-63050000D01*
%TO.N,/Q_SS*%
X93692000Y-49461000D02*
X91789000Y-49461000D01*
D47*
X95355396Y-50394604D02*
X94792000Y-50394604D01*
X53700000Y-47800000D02*
X54500000Y-47000000D01*
D46*
X91789000Y-49461000D02*
X91700000Y-49550000D01*
X93858396Y-49461000D02*
X94792000Y-50394604D01*
X93603000Y-49550000D02*
X93692000Y-49461000D01*
X93692000Y-49461000D02*
X93858396Y-49461000D01*
D47*
X96250000Y-49500000D02*
X95355396Y-50394604D01*
X51880000Y-47800000D02*
X53700000Y-47800000D01*
D46*
%TO.N,Net-(R7-Pad1)*%
X51915000Y-78750000D02*
X51965000Y-78800000D01*
X49730000Y-78750000D02*
X51915000Y-78750000D01*
D47*
%TO.N,Net-(R8-Pad1)*%
X51240000Y-47800000D02*
X49730000Y-47800000D01*
D46*
%TO.N,Net-(X2-EN)*%
X99390000Y-70035000D02*
X97580000Y-70035000D01*
X99705000Y-70350000D02*
X99390000Y-70035000D01*
%TO.N,/Q0*%
X100660000Y-54668000D02*
X100660000Y-53503000D01*
X100660000Y-53503000D02*
X100892000Y-53271000D01*
%TO.N,Net-(U2-QSPI_SD0)*%
X100020000Y-54668000D02*
X99190601Y-54668000D01*
X95899500Y-58158258D02*
X95600000Y-58457758D01*
X95600000Y-58457758D02*
X95600000Y-59812500D01*
X99190601Y-54668000D02*
X99046252Y-54812349D01*
%TO.N,/Q1*%
X92151000Y-50731000D02*
X92024000Y-50858000D01*
X93692000Y-50731000D02*
X92151000Y-50731000D01*
%TO.N,Net-(U2-QSPI_SD1)*%
X90854000Y-51388000D02*
X90854000Y-53039503D01*
X93695631Y-55667503D02*
X93707995Y-55679867D01*
X93482000Y-55667503D02*
X93695631Y-55667503D01*
X90854000Y-53039503D02*
X93482000Y-55667503D01*
X91384000Y-50858000D02*
X90854000Y-51388000D01*
X95099134Y-56847276D02*
X94800000Y-57146410D01*
X94800000Y-57146410D02*
X94800000Y-59812500D01*
%TO.N,/Q2*%
X93692000Y-52001000D02*
X92151000Y-52001000D01*
X92151000Y-52001000D02*
X92024000Y-52128000D01*
%TO.N,Net-(U2-QSPI_SD2)*%
X95799134Y-57268674D02*
X95200000Y-57867808D01*
X91384000Y-52128000D02*
X91384000Y-52570000D01*
X95301673Y-56147276D02*
X95389084Y-56147276D01*
X95799134Y-56557326D02*
X95799134Y-57268674D01*
X95200000Y-57867808D02*
X95200000Y-59812500D01*
X91384000Y-52570000D02*
X93482000Y-54668000D01*
X95301673Y-55868510D02*
X95301673Y-56147276D01*
X95389084Y-56147276D02*
X95799134Y-56557326D01*
%TO.N,/Q3*%
X101982000Y-51652000D02*
X101061000Y-50731000D01*
X101061000Y-50731000D02*
X100892000Y-50731000D01*
X101982000Y-54738000D02*
X101982000Y-51652000D01*
X100892000Y-50731000D02*
X101058396Y-50731000D01*
X101864000Y-54856000D02*
X101982000Y-54738000D01*
%TO.N,Net-(U2-QSPI_SD3)*%
X99194315Y-55496000D02*
X101864000Y-55496000D01*
X96979500Y-57710815D02*
X99194315Y-55496000D01*
X96979500Y-58700525D02*
X96979500Y-57710815D01*
X96400000Y-59812500D02*
X96400000Y-59280025D01*
X96400000Y-59280025D02*
X96979500Y-58700525D01*
%TO.N,/Q_SCLK*%
X99263000Y-52001000D02*
X96596000Y-54668000D01*
X100892000Y-52001000D02*
X99263000Y-52001000D01*
%TO.N,Net-(U2-QSPI_SCLK)*%
X96599500Y-56515500D02*
X96599500Y-58528982D01*
X95956000Y-54668000D02*
X96001673Y-54713673D01*
X96000000Y-59128482D02*
X96000000Y-59114339D01*
X96000000Y-59114339D02*
X96000000Y-59812500D01*
X96001673Y-54713673D02*
X96001673Y-55917673D01*
X95956000Y-54668000D02*
X95956000Y-54823685D01*
X96599500Y-58528982D02*
X96000000Y-59128482D01*
X96001673Y-55917673D02*
X96599500Y-56515500D01*
%TO.N,/LED_R*%
X90045000Y-74050000D02*
X90045000Y-72776360D01*
X95600000Y-67221360D02*
X95600000Y-66687500D01*
X90045000Y-72776360D02*
X95600000Y-67221360D01*
%TO.N,/LED_G*%
X99528640Y-67550000D02*
X99200000Y-67221360D01*
X93740000Y-75300000D02*
X93740000Y-75100001D01*
X101875000Y-69795000D02*
X99630000Y-67550000D01*
X100895000Y-72535000D02*
X101645000Y-72535000D01*
X93740000Y-75100001D02*
X94790001Y-74050000D01*
X99200000Y-67221360D02*
X99200000Y-66687500D01*
X99380000Y-74050000D02*
X100895000Y-72535000D01*
X94790001Y-74050000D02*
X99380000Y-74050000D01*
X99630000Y-67550000D02*
X99528640Y-67550000D01*
X101645000Y-72535000D02*
X101875000Y-72305000D01*
X101875000Y-72305000D02*
X101875000Y-69795000D01*
%TO.N,/LED_B*%
X102275000Y-72655000D02*
X102275000Y-69362500D01*
X101630000Y-73300000D02*
X102275000Y-72655000D01*
X102275000Y-69362500D02*
X99600000Y-66687500D01*
X87770000Y-77550000D02*
X87770000Y-76940000D01*
X87770000Y-76940000D02*
X86880000Y-76050000D01*
D47*
%TO.N,/MAX_8C GNSS/TXD*%
X60830000Y-66350000D02*
X61630000Y-65550000D01*
X91130000Y-63550000D02*
X91630000Y-63550000D01*
X59370000Y-66350000D02*
X60830000Y-66350000D01*
X91630000Y-63550000D02*
X91730000Y-63450000D01*
X91730000Y-63450000D02*
X93562500Y-63450000D01*
%TO.N,/MAX_8C GNSS/RXD*%
X61399669Y-65250000D02*
X59370000Y-65250000D01*
X91920166Y-63850000D02*
X93562500Y-63850000D01*
X62130000Y-64800000D02*
X61849669Y-64800000D01*
X61849669Y-64800000D02*
X61399669Y-65250000D01*
X91895166Y-63825000D02*
X91920166Y-63850000D01*
D46*
%TO.N,Net-(D4-A)*%
X69550000Y-70607500D02*
X68492500Y-69550000D01*
%TD*%
%TA.AperFunction,Conductor*%
%TO.N,GND*%
G36*
X90405964Y-44019685D02*
G01*
X90451719Y-44072489D01*
X90461663Y-44141647D01*
X90432638Y-44205203D01*
X90400925Y-44231386D01*
X90372424Y-44247841D01*
X90312427Y-44282480D01*
X90019684Y-44575222D01*
X89958361Y-44608706D01*
X89899911Y-44607315D01*
X89760408Y-44569937D01*
X89525001Y-44549341D01*
X89524999Y-44549341D01*
X89289596Y-44569936D01*
X89289586Y-44569938D01*
X89061344Y-44631094D01*
X89061335Y-44631098D01*
X88847171Y-44730964D01*
X88847169Y-44730965D01*
X88653597Y-44866505D01*
X88486505Y-45033597D01*
X88356575Y-45219158D01*
X88301998Y-45262783D01*
X88232500Y-45269977D01*
X88170145Y-45238454D01*
X88153425Y-45219158D01*
X88023494Y-45033597D01*
X87856402Y-44866506D01*
X87856395Y-44866501D01*
X87662834Y-44730967D01*
X87662830Y-44730965D01*
X87662828Y-44730964D01*
X87448663Y-44631097D01*
X87448659Y-44631096D01*
X87448655Y-44631094D01*
X87220413Y-44569938D01*
X87220403Y-44569936D01*
X86985001Y-44549341D01*
X86984999Y-44549341D01*
X86749596Y-44569936D01*
X86749586Y-44569938D01*
X86521344Y-44631094D01*
X86521335Y-44631098D01*
X86307171Y-44730964D01*
X86307169Y-44730965D01*
X86113597Y-44866505D01*
X85946505Y-45033597D01*
X85816575Y-45219158D01*
X85761998Y-45262783D01*
X85692500Y-45269977D01*
X85630145Y-45238454D01*
X85613425Y-45219158D01*
X85483494Y-45033597D01*
X85316402Y-44866506D01*
X85316395Y-44866501D01*
X85122834Y-44730967D01*
X85122830Y-44730965D01*
X85122828Y-44730964D01*
X84908663Y-44631097D01*
X84908659Y-44631096D01*
X84908655Y-44631094D01*
X84680413Y-44569938D01*
X84680403Y-44569936D01*
X84445001Y-44549341D01*
X84444999Y-44549341D01*
X84209596Y-44569936D01*
X84209586Y-44569938D01*
X83981344Y-44631094D01*
X83981335Y-44631098D01*
X83767171Y-44730964D01*
X83767169Y-44730965D01*
X83573597Y-44866505D01*
X83406505Y-45033597D01*
X83276575Y-45219158D01*
X83221998Y-45262783D01*
X83152500Y-45269977D01*
X83090145Y-45238454D01*
X83073425Y-45219158D01*
X82943494Y-45033597D01*
X82776402Y-44866506D01*
X82776395Y-44866501D01*
X82582834Y-44730967D01*
X82582830Y-44730965D01*
X82582828Y-44730964D01*
X82368663Y-44631097D01*
X82368659Y-44631096D01*
X82368655Y-44631094D01*
X82140413Y-44569938D01*
X82140403Y-44569936D01*
X81905001Y-44549341D01*
X81904999Y-44549341D01*
X81669596Y-44569936D01*
X81669586Y-44569938D01*
X81441344Y-44631094D01*
X81441335Y-44631098D01*
X81227171Y-44730964D01*
X81227169Y-44730965D01*
X81033597Y-44866505D01*
X80866505Y-45033597D01*
X80736575Y-45219158D01*
X80681998Y-45262783D01*
X80612500Y-45269977D01*
X80550145Y-45238454D01*
X80533425Y-45219158D01*
X80403494Y-45033597D01*
X80236402Y-44866506D01*
X80236395Y-44866501D01*
X80042834Y-44730967D01*
X80042830Y-44730965D01*
X80042828Y-44730964D01*
X79828663Y-44631097D01*
X79828659Y-44631096D01*
X79828655Y-44631094D01*
X79600413Y-44569938D01*
X79600403Y-44569936D01*
X79365001Y-44549341D01*
X79364999Y-44549341D01*
X79129596Y-44569936D01*
X79129586Y-44569938D01*
X78901344Y-44631094D01*
X78901335Y-44631098D01*
X78687171Y-44730964D01*
X78687169Y-44730965D01*
X78493597Y-44866505D01*
X78326505Y-45033597D01*
X78196575Y-45219158D01*
X78141998Y-45262783D01*
X78072500Y-45269977D01*
X78010145Y-45238454D01*
X77993425Y-45219158D01*
X77863494Y-45033597D01*
X77696402Y-44866506D01*
X77696395Y-44866501D01*
X77502834Y-44730967D01*
X77502830Y-44730965D01*
X77502828Y-44730964D01*
X77288663Y-44631097D01*
X77288659Y-44631096D01*
X77288655Y-44631094D01*
X77060413Y-44569938D01*
X77060403Y-44569936D01*
X76825001Y-44549341D01*
X76824999Y-44549341D01*
X76589596Y-44569936D01*
X76589586Y-44569938D01*
X76361344Y-44631094D01*
X76361335Y-44631098D01*
X76147171Y-44730964D01*
X76147169Y-44730965D01*
X75953597Y-44866505D01*
X75786505Y-45033597D01*
X75656575Y-45219158D01*
X75601998Y-45262783D01*
X75532500Y-45269977D01*
X75470145Y-45238454D01*
X75453425Y-45219158D01*
X75323494Y-45033597D01*
X75156402Y-44866506D01*
X75156395Y-44866501D01*
X74962834Y-44730967D01*
X74962830Y-44730965D01*
X74962828Y-44730964D01*
X74748663Y-44631097D01*
X74748659Y-44631096D01*
X74748655Y-44631094D01*
X74520413Y-44569938D01*
X74520403Y-44569936D01*
X74285001Y-44549341D01*
X74284999Y-44549341D01*
X74049596Y-44569936D01*
X74049586Y-44569938D01*
X73821344Y-44631094D01*
X73821335Y-44631098D01*
X73607171Y-44730964D01*
X73607169Y-44730965D01*
X73413597Y-44866505D01*
X73246505Y-45033597D01*
X73110965Y-45227169D01*
X73110964Y-45227171D01*
X73011098Y-45441335D01*
X73011094Y-45441344D01*
X72949938Y-45669586D01*
X72949936Y-45669596D01*
X72929341Y-45904999D01*
X72929341Y-45905000D01*
X72949936Y-46140403D01*
X72949938Y-46140413D01*
X73011094Y-46368655D01*
X73011096Y-46368659D01*
X73011097Y-46368663D01*
X73094331Y-46547159D01*
X73110965Y-46582830D01*
X73110967Y-46582834D01*
X73189841Y-46695477D01*
X73246505Y-46776401D01*
X73413599Y-46943495D01*
X73510384Y-47011265D01*
X73607165Y-47079032D01*
X73607167Y-47079033D01*
X73607170Y-47079035D01*
X73821337Y-47178903D01*
X73821343Y-47178904D01*
X73821344Y-47178905D01*
X73851242Y-47186916D01*
X74049592Y-47240063D01*
X74220319Y-47255000D01*
X74284999Y-47260659D01*
X74285000Y-47260659D01*
X74285001Y-47260659D01*
X74349681Y-47255000D01*
X74520408Y-47240063D01*
X74659913Y-47202683D01*
X74729759Y-47204346D01*
X74779684Y-47234777D01*
X75577638Y-48032731D01*
X75597344Y-48058412D01*
X75657483Y-48162575D01*
X75767425Y-48272517D01*
X75767426Y-48272518D01*
X75767428Y-48272519D01*
X75902072Y-48350256D01*
X75902073Y-48350256D01*
X75902076Y-48350258D01*
X76052259Y-48390500D01*
X76655640Y-48390500D01*
X76722679Y-48410185D01*
X76743321Y-48426819D01*
X84064321Y-55747819D01*
X84097806Y-55809142D01*
X84092822Y-55878834D01*
X84050950Y-55934767D01*
X83985486Y-55959184D01*
X83976640Y-55959500D01*
X74302259Y-55959500D01*
X74178266Y-55992724D01*
X74178265Y-55992723D01*
X74152078Y-55999741D01*
X74152075Y-55999742D01*
X74017426Y-56077481D01*
X74017423Y-56077483D01*
X68777483Y-61317423D01*
X68777479Y-61317428D01*
X68699743Y-61452072D01*
X68699741Y-61452076D01*
X68695916Y-61466353D01*
X68659500Y-61602259D01*
X68659500Y-63710709D01*
X68639815Y-63777748D01*
X68633878Y-63786193D01*
X68625464Y-63797158D01*
X68564956Y-63943237D01*
X68564955Y-63943239D01*
X68549500Y-64060638D01*
X68549500Y-64399363D01*
X68564955Y-64516763D01*
X68565263Y-64517912D01*
X68565263Y-64519101D01*
X68566016Y-64524821D01*
X68565263Y-64524920D01*
X68565265Y-64575081D01*
X68566017Y-64575180D01*
X68565265Y-64580884D01*
X68565266Y-64582079D01*
X68564956Y-64583234D01*
X68549500Y-64700638D01*
X68549500Y-64748548D01*
X68529815Y-64815587D01*
X68477011Y-64861342D01*
X68407853Y-64871286D01*
X68344297Y-64842261D01*
X68343274Y-64841364D01*
X68252240Y-64760717D01*
X68252238Y-64760715D01*
X68112368Y-64687305D01*
X68112369Y-64687305D01*
X68112365Y-64687304D01*
X68104541Y-64685375D01*
X68046541Y-64652661D01*
X63783367Y-60389487D01*
X63783365Y-60389485D01*
X63714109Y-60349500D01*
X63652136Y-60313719D01*
X63578950Y-60294109D01*
X63505766Y-60274500D01*
X63505765Y-60274500D01*
X62927935Y-60274500D01*
X62860896Y-60254815D01*
X62852460Y-60248884D01*
X62782841Y-60195464D01*
X62636762Y-60134956D01*
X62636760Y-60134955D01*
X62519361Y-60119500D01*
X62240636Y-60119500D01*
X62123246Y-60134953D01*
X62123237Y-60134956D01*
X61977157Y-60195464D01*
X61927099Y-60233876D01*
X61861930Y-60259070D01*
X61851613Y-60259500D01*
X60875798Y-60259500D01*
X60808759Y-60239815D01*
X60763004Y-60187011D01*
X60753060Y-60117853D01*
X60757411Y-60098615D01*
X60764086Y-60077196D01*
X60770500Y-60006616D01*
X60770500Y-59493384D01*
X60764086Y-59422804D01*
X60713478Y-59260394D01*
X60706084Y-59248164D01*
X60688248Y-59180611D01*
X60706087Y-59119860D01*
X60710491Y-59112575D01*
X60715512Y-59104270D01*
X60715515Y-59104263D01*
X60732401Y-59050071D01*
X60764315Y-58947657D01*
X60770500Y-58879594D01*
X60770500Y-58420406D01*
X60764315Y-58352343D01*
X60715512Y-58195730D01*
X60715511Y-58195727D01*
X60630651Y-58055351D01*
X60630648Y-58055347D01*
X60514652Y-57939351D01*
X60514648Y-57939348D01*
X60374272Y-57854488D01*
X60374263Y-57854485D01*
X60217664Y-57805687D01*
X60217662Y-57805686D01*
X60217657Y-57805685D01*
X60149594Y-57799500D01*
X58590406Y-57799500D01*
X58522343Y-57805685D01*
X58522339Y-57805686D01*
X58522335Y-57805687D01*
X58365736Y-57854485D01*
X58365727Y-57854488D01*
X58225351Y-57939348D01*
X58225347Y-57939351D01*
X58109351Y-58055347D01*
X58109348Y-58055351D01*
X58024488Y-58195727D01*
X58024485Y-58195736D01*
X57975687Y-58352335D01*
X57975685Y-58352343D01*
X57969500Y-58420406D01*
X57969500Y-58879594D01*
X57975685Y-58947657D01*
X57975686Y-58947662D01*
X57975687Y-58947664D01*
X58024485Y-59104263D01*
X58024486Y-59104265D01*
X58024488Y-59104270D01*
X58033916Y-59119865D01*
X58051751Y-59187420D01*
X58033917Y-59248161D01*
X58026522Y-59260393D01*
X57975913Y-59422807D01*
X57969500Y-59493386D01*
X57969500Y-60006613D01*
X57975913Y-60077192D01*
X57975913Y-60077194D01*
X57975914Y-60077196D01*
X58024736Y-60233876D01*
X58026524Y-60239611D01*
X58029601Y-60246448D01*
X58027322Y-60247473D01*
X58042087Y-60303420D01*
X58027627Y-60352663D01*
X58029601Y-60353552D01*
X58026524Y-60360388D01*
X58026522Y-60360393D01*
X58026522Y-60360394D01*
X58016181Y-60393579D01*
X57975913Y-60522807D01*
X57969500Y-60593386D01*
X57969500Y-61106613D01*
X57975913Y-61177192D01*
X57975913Y-61177194D01*
X57975914Y-61177196D01*
X58026457Y-61339398D01*
X58026524Y-61339611D01*
X58029601Y-61346448D01*
X58027322Y-61347473D01*
X58042087Y-61403420D01*
X58027627Y-61452663D01*
X58029601Y-61453552D01*
X58026524Y-61460388D01*
X58026523Y-61460392D01*
X58026522Y-61460394D01*
X58018209Y-61487073D01*
X57975913Y-61622807D01*
X57972255Y-61663068D01*
X57969808Y-61690001D01*
X57969500Y-61693386D01*
X57969500Y-62206613D01*
X57975913Y-62277192D01*
X57975913Y-62277194D01*
X57975914Y-62277196D01*
X58025154Y-62435217D01*
X58026524Y-62439611D01*
X58029601Y-62446448D01*
X58027322Y-62447473D01*
X58042087Y-62503420D01*
X58027627Y-62552663D01*
X58029601Y-62553552D01*
X58026524Y-62560388D01*
X57975913Y-62722807D01*
X57969500Y-62793386D01*
X57969500Y-63306613D01*
X57975913Y-63377192D01*
X57975913Y-63377194D01*
X57975914Y-63377196D01*
X58026421Y-63539283D01*
X58026524Y-63539611D01*
X58029601Y-63546448D01*
X58027322Y-63547473D01*
X58042087Y-63603420D01*
X58027627Y-63652663D01*
X58029601Y-63653552D01*
X58026524Y-63660388D01*
X58026522Y-63660393D01*
X58026522Y-63660394D01*
X58005534Y-63727748D01*
X57975913Y-63822807D01*
X57972116Y-63864593D01*
X57969500Y-63893384D01*
X57969500Y-64406616D01*
X57971216Y-64425500D01*
X57975913Y-64477192D01*
X57975913Y-64477194D01*
X57975914Y-64477196D01*
X58018099Y-64612576D01*
X58026524Y-64639611D01*
X58029601Y-64646448D01*
X58027322Y-64647473D01*
X58042087Y-64703420D01*
X58027627Y-64752663D01*
X58029601Y-64753552D01*
X58026524Y-64760388D01*
X57975913Y-64922807D01*
X57972815Y-64956903D01*
X57969866Y-64989363D01*
X57969500Y-64993386D01*
X57969500Y-65506613D01*
X57975913Y-65577192D01*
X57975913Y-65577194D01*
X57975914Y-65577196D01*
X58024940Y-65734530D01*
X58026524Y-65739611D01*
X58029601Y-65746448D01*
X58027322Y-65747473D01*
X58042087Y-65803420D01*
X58027627Y-65852663D01*
X58029601Y-65853552D01*
X58026524Y-65860388D01*
X57975913Y-66022807D01*
X57969500Y-66093386D01*
X57969500Y-66606613D01*
X57975913Y-66677192D01*
X57975913Y-66677194D01*
X57975914Y-66677196D01*
X58026522Y-66839606D01*
X58030808Y-66846696D01*
X58034207Y-66852319D01*
X58052042Y-66919874D01*
X58034209Y-66980612D01*
X58024947Y-66995933D01*
X57976178Y-67152441D01*
X57971857Y-67199999D01*
X57971857Y-67200000D01*
X58382451Y-67200000D01*
X58419340Y-67205614D01*
X58433950Y-67210166D01*
X58542804Y-67244086D01*
X58613384Y-67250500D01*
X58613387Y-67250500D01*
X60126613Y-67250500D01*
X60126616Y-67250500D01*
X60197196Y-67244086D01*
X60308579Y-67209378D01*
X60320660Y-67205614D01*
X60357549Y-67200000D01*
X60768143Y-67200000D01*
X60768142Y-67199999D01*
X60763821Y-67152440D01*
X60763819Y-67152433D01*
X60743240Y-67086390D01*
X60742088Y-67016530D01*
X60778889Y-66957138D01*
X60841958Y-66927070D01*
X60861625Y-66925500D01*
X60905764Y-66925500D01*
X60905766Y-66925500D01*
X61052135Y-66886281D01*
X61183365Y-66810515D01*
X61796542Y-66197336D01*
X61854550Y-66164622D01*
X61862365Y-66162696D01*
X62002240Y-66089283D01*
X62120483Y-65984530D01*
X62210220Y-65854523D01*
X62266237Y-65706818D01*
X62285278Y-65550000D01*
X62284444Y-65543131D01*
X62295902Y-65474208D01*
X62342804Y-65422420D01*
X62358496Y-65414726D01*
X62362362Y-65412696D01*
X62362365Y-65412696D01*
X62502240Y-65339283D01*
X62620483Y-65234530D01*
X62710220Y-65104523D01*
X62766237Y-64956818D01*
X62785278Y-64800000D01*
X62780469Y-64760389D01*
X62766237Y-64643181D01*
X62742619Y-64580906D01*
X62710220Y-64495477D01*
X62620483Y-64365470D01*
X62502240Y-64260717D01*
X62502238Y-64260716D01*
X62502237Y-64260715D01*
X62362365Y-64187303D01*
X62208986Y-64149500D01*
X62208985Y-64149500D01*
X62051015Y-64149500D01*
X62051014Y-64149500D01*
X61897636Y-64187303D01*
X61888049Y-64192335D01*
X61853827Y-64210296D01*
X61796202Y-64224500D01*
X61773902Y-64224500D01*
X61627532Y-64263719D01*
X61496304Y-64339485D01*
X61496301Y-64339487D01*
X61197608Y-64638181D01*
X61136285Y-64671666D01*
X61109927Y-64674500D01*
X60871124Y-64674500D01*
X60804085Y-64654815D01*
X60758330Y-64602011D01*
X60748386Y-64532853D01*
X60752739Y-64513610D01*
X60756824Y-64500500D01*
X60764086Y-64477196D01*
X60770500Y-64406616D01*
X60770500Y-63893384D01*
X60764086Y-63822804D01*
X60713478Y-63660394D01*
X60713475Y-63660389D01*
X60710400Y-63653555D01*
X60712680Y-63652528D01*
X60697912Y-63596601D01*
X60712377Y-63547334D01*
X60710400Y-63546445D01*
X60713475Y-63539611D01*
X60713478Y-63539606D01*
X60764086Y-63377196D01*
X60770500Y-63306616D01*
X60770500Y-62793384D01*
X60764086Y-62722804D01*
X60713478Y-62560394D01*
X60713475Y-62560389D01*
X60710400Y-62553555D01*
X60712680Y-62552528D01*
X60697912Y-62496601D01*
X60712377Y-62447334D01*
X60710400Y-62446445D01*
X60713475Y-62439611D01*
X60713478Y-62439606D01*
X60764086Y-62277196D01*
X60770500Y-62206616D01*
X60770500Y-61693384D01*
X60764086Y-61622804D01*
X60757412Y-61601389D01*
X60756261Y-61531531D01*
X60793062Y-61472138D01*
X60856130Y-61442070D01*
X60875798Y-61440500D01*
X61851613Y-61440500D01*
X61918652Y-61460185D01*
X61927095Y-61466121D01*
X61929050Y-61467621D01*
X61970256Y-61524047D01*
X61974413Y-61593793D01*
X61940203Y-61654715D01*
X61878487Y-61687470D01*
X61853568Y-61690000D01*
X61684041Y-61690000D01*
X61684039Y-61690001D01*
X61695442Y-61776627D01*
X61695444Y-61776633D01*
X61755899Y-61922585D01*
X61852075Y-62047924D01*
X61977414Y-62144100D01*
X62123366Y-62204555D01*
X62123372Y-62204557D01*
X62179998Y-62212011D01*
X62180000Y-62212010D01*
X62180000Y-61704499D01*
X62199685Y-61637460D01*
X62252489Y-61591705D01*
X62303996Y-61580499D01*
X62456000Y-61580499D01*
X62523039Y-61600184D01*
X62568794Y-61652988D01*
X62580000Y-61704499D01*
X62580000Y-62212010D01*
X62580001Y-62212011D01*
X62636627Y-62204557D01*
X62636633Y-62204555D01*
X62782585Y-62144100D01*
X62907924Y-62047924D01*
X63004100Y-61922586D01*
X63064554Y-61776634D01*
X63064555Y-61776630D01*
X63079999Y-61659330D01*
X63079999Y-61613243D01*
X63099682Y-61546204D01*
X63152485Y-61500448D01*
X63221644Y-61490503D01*
X63285200Y-61519526D01*
X63291680Y-61525560D01*
X67237663Y-65471543D01*
X67265924Y-65515252D01*
X67299780Y-65604523D01*
X67389517Y-65734530D01*
X67507760Y-65839283D01*
X67507761Y-65839283D01*
X67513374Y-65844256D01*
X67511595Y-65846263D01*
X67547616Y-65890709D01*
X67555278Y-65960157D01*
X67531564Y-66013965D01*
X67505901Y-66047410D01*
X67505900Y-66047412D01*
X67445445Y-66193365D01*
X67445444Y-66193369D01*
X67434038Y-66280000D01*
X67603568Y-66280000D01*
X67670607Y-66299685D01*
X67716362Y-66352489D01*
X67726306Y-66421647D01*
X67697281Y-66485203D01*
X67679058Y-66502372D01*
X67630673Y-66539500D01*
X67601718Y-66561718D01*
X67548183Y-66631487D01*
X67491755Y-66672689D01*
X67449807Y-66680000D01*
X67434041Y-66680000D01*
X67434039Y-66680001D01*
X67445442Y-66766628D01*
X67445525Y-66766935D01*
X67445525Y-66767251D01*
X67446504Y-66774689D01*
X67445525Y-66774817D01*
X67445526Y-66825116D01*
X67446017Y-66825181D01*
X67445526Y-66828903D01*
X67445527Y-66831106D01*
X67444956Y-66833235D01*
X67429500Y-66950638D01*
X67429500Y-67289363D01*
X67444953Y-67406753D01*
X67444957Y-67406765D01*
X67505461Y-67552836D01*
X67505464Y-67552841D01*
X67525626Y-67579117D01*
X67550820Y-67644286D01*
X67536781Y-67712731D01*
X67532790Y-67719697D01*
X67495187Y-67780663D01*
X67495186Y-67780665D01*
X67495186Y-67780666D01*
X67440001Y-67947203D01*
X67440001Y-67947204D01*
X67440000Y-67947204D01*
X67429500Y-68049983D01*
X67429500Y-71050001D01*
X67429501Y-71050018D01*
X67440000Y-71152796D01*
X67440001Y-71152799D01*
X67495185Y-71319331D01*
X67495187Y-71319336D01*
X67505157Y-71335500D01*
X67587288Y-71468656D01*
X67711344Y-71592712D01*
X67860666Y-71684814D01*
X67898204Y-71697253D01*
X67955648Y-71737024D01*
X67982471Y-71801540D01*
X67970156Y-71870316D01*
X67961249Y-71885398D01*
X67919781Y-71945475D01*
X67919780Y-71945476D01*
X67863763Y-72093180D01*
X67854381Y-72170447D01*
X67826759Y-72234625D01*
X67768825Y-72273681D01*
X67731285Y-72279500D01*
X67027129Y-72279500D01*
X67027123Y-72279501D01*
X66967516Y-72285908D01*
X66832671Y-72336202D01*
X66832664Y-72336206D01*
X66717455Y-72422452D01*
X66717452Y-72422455D01*
X66631206Y-72537664D01*
X66631200Y-72537674D01*
X66630767Y-72538838D01*
X66630023Y-72539831D01*
X66626953Y-72545454D01*
X66626144Y-72545012D01*
X66588894Y-72594770D01*
X66523429Y-72619184D01*
X66514587Y-72619500D01*
X66408919Y-72619500D01*
X66220464Y-72656986D01*
X66220452Y-72656989D01*
X66042931Y-72730520D01*
X66042929Y-72730521D01*
X65883155Y-72837279D01*
X65883151Y-72837282D01*
X65747282Y-72973151D01*
X65747279Y-72973155D01*
X65640521Y-73132929D01*
X65640520Y-73132931D01*
X65566989Y-73310452D01*
X65566986Y-73310464D01*
X65529500Y-73498917D01*
X65529500Y-74541082D01*
X65566985Y-74729535D01*
X65566988Y-74729543D01*
X65576346Y-74752136D01*
X65583813Y-74821605D01*
X65552537Y-74884084D01*
X65549467Y-74887266D01*
X65521002Y-74915731D01*
X65413177Y-75064141D01*
X65329890Y-75227600D01*
X65329889Y-75227602D01*
X65329889Y-75227603D01*
X65323853Y-75246180D01*
X65273197Y-75402081D01*
X65244500Y-75583267D01*
X65244500Y-76416732D01*
X65273197Y-76597918D01*
X65273198Y-76597922D01*
X65329889Y-76772397D01*
X65400584Y-76911144D01*
X65413177Y-76935858D01*
X65521000Y-77084265D01*
X65521004Y-77084270D01*
X65650733Y-77213999D01*
X65679942Y-77235220D01*
X65722608Y-77290549D01*
X65728587Y-77360163D01*
X65695982Y-77421958D01*
X65675949Y-77438640D01*
X65603151Y-77487282D01*
X65467282Y-77623151D01*
X65467279Y-77623155D01*
X65360521Y-77782929D01*
X65360520Y-77782931D01*
X65286989Y-77960452D01*
X65286986Y-77960464D01*
X65249500Y-78148917D01*
X65249500Y-79671082D01*
X65265898Y-79753519D01*
X65259671Y-79823110D01*
X65216808Y-79878288D01*
X65150918Y-79901532D01*
X65128104Y-79900650D01*
X65119364Y-79899500D01*
X64780637Y-79899500D01*
X64663236Y-79914955D01*
X64661111Y-79915525D01*
X64658910Y-79915525D01*
X64655181Y-79916016D01*
X64655116Y-79915525D01*
X64604815Y-79915525D01*
X64604687Y-79916505D01*
X64597251Y-79915525D01*
X64596937Y-79915526D01*
X64596633Y-79915444D01*
X64510000Y-79904038D01*
X64510000Y-79919807D01*
X64490315Y-79986846D01*
X64461488Y-80018181D01*
X64391718Y-80071718D01*
X64332374Y-80149056D01*
X64275948Y-80190257D01*
X64206202Y-80194412D01*
X64145281Y-80160199D01*
X64112529Y-80098482D01*
X64110000Y-80073568D01*
X64110000Y-79904038D01*
X64023369Y-79915444D01*
X64023365Y-79915445D01*
X63877413Y-79975899D01*
X63752075Y-80072075D01*
X63655899Y-80197413D01*
X63595445Y-80343365D01*
X63595444Y-80343369D01*
X63582500Y-80441686D01*
X63554233Y-80505582D01*
X63495909Y-80544053D01*
X63459561Y-80549500D01*
X55240955Y-80549500D01*
X55173916Y-80529815D01*
X55153274Y-80513181D01*
X53370534Y-78730441D01*
X53337049Y-78669118D01*
X53335276Y-78658943D01*
X53320046Y-78543246D01*
X53320044Y-78543241D01*
X53320044Y-78543238D01*
X53259536Y-78397159D01*
X53163282Y-78271718D01*
X53037841Y-78175464D01*
X52991343Y-78156204D01*
X52891762Y-78114956D01*
X52891760Y-78114955D01*
X52774361Y-78099500D01*
X52435636Y-78099500D01*
X52318234Y-78114955D01*
X52317083Y-78115264D01*
X52315891Y-78115264D01*
X52310179Y-78116016D01*
X52310080Y-78115264D01*
X52259919Y-78115264D01*
X52259820Y-78116017D01*
X52254107Y-78115264D01*
X52252917Y-78115265D01*
X52251765Y-78114956D01*
X52134361Y-78099500D01*
X51795636Y-78099500D01*
X51678246Y-78114953D01*
X51678234Y-78114957D01*
X51593486Y-78150061D01*
X51546034Y-78159500D01*
X50754500Y-78159500D01*
X50687461Y-78139815D01*
X50641706Y-78087011D01*
X50630500Y-78035500D01*
X50630500Y-77893386D01*
X50627139Y-77856401D01*
X50624086Y-77822804D01*
X50573478Y-77660394D01*
X50485472Y-77514815D01*
X50485470Y-77514813D01*
X50485469Y-77514811D01*
X50365188Y-77394530D01*
X50308338Y-77360163D01*
X50219606Y-77306522D01*
X50057196Y-77255914D01*
X50057194Y-77255913D01*
X50057192Y-77255913D01*
X50007778Y-77251423D01*
X49986616Y-77249500D01*
X49473384Y-77249500D01*
X49454145Y-77251248D01*
X49402807Y-77255913D01*
X49240393Y-77306522D01*
X49094811Y-77394530D01*
X48974530Y-77514811D01*
X48886522Y-77660393D01*
X48835913Y-77822807D01*
X48829500Y-77893386D01*
X48829500Y-79606613D01*
X48835913Y-79677192D01*
X48835913Y-79677194D01*
X48835914Y-79677196D01*
X48886522Y-79839606D01*
X48968914Y-79975899D01*
X48974530Y-79985188D01*
X49094811Y-80105469D01*
X49094813Y-80105470D01*
X49094815Y-80105472D01*
X49240394Y-80193478D01*
X49402804Y-80244086D01*
X49473384Y-80250500D01*
X49473387Y-80250500D01*
X49986613Y-80250500D01*
X49986616Y-80250500D01*
X50057196Y-80244086D01*
X50219606Y-80193478D01*
X50365185Y-80105472D01*
X50485472Y-79985185D01*
X50573478Y-79839606D01*
X50624086Y-79677196D01*
X50630500Y-79606616D01*
X50630500Y-79464500D01*
X50650185Y-79397461D01*
X50702989Y-79351706D01*
X50754500Y-79340500D01*
X51380549Y-79340500D01*
X51447588Y-79360185D01*
X51456033Y-79366123D01*
X51532159Y-79424536D01*
X51532162Y-79424537D01*
X51532163Y-79424538D01*
X51605198Y-79454790D01*
X51678238Y-79485044D01*
X51795639Y-79500500D01*
X52134360Y-79500499D01*
X52134363Y-79500499D01*
X52251755Y-79485045D01*
X52251755Y-79485044D01*
X52251762Y-79485044D01*
X52251767Y-79485041D01*
X52252900Y-79484739D01*
X52254085Y-79484738D01*
X52259821Y-79483984D01*
X52259920Y-79484738D01*
X52310080Y-79484737D01*
X52310180Y-79483983D01*
X52315907Y-79484737D01*
X52317091Y-79484737D01*
X52318234Y-79485043D01*
X52318236Y-79485043D01*
X52318238Y-79485044D01*
X52433946Y-79500277D01*
X52497843Y-79528543D01*
X52505442Y-79535535D01*
X53637726Y-80667819D01*
X53671211Y-80729142D01*
X53666227Y-80798834D01*
X53624355Y-80854767D01*
X53558891Y-80879184D01*
X53550045Y-80879500D01*
X43795955Y-80879500D01*
X43728916Y-80859815D01*
X43708274Y-80843181D01*
X41865093Y-79000000D01*
X44630001Y-79000000D01*
X44630001Y-79606582D01*
X44636408Y-79677102D01*
X44636409Y-79677107D01*
X44686981Y-79839396D01*
X44774927Y-79984877D01*
X44895122Y-80105072D01*
X45040604Y-80193019D01*
X45040603Y-80193019D01*
X45202894Y-80243590D01*
X45202893Y-80243590D01*
X45273408Y-80249998D01*
X45273426Y-80249999D01*
X45279999Y-80249998D01*
X45280000Y-80249998D01*
X45280000Y-79000000D01*
X45780000Y-79000000D01*
X45780000Y-80249999D01*
X45786581Y-80249999D01*
X45857102Y-80243591D01*
X45857107Y-80243590D01*
X46019396Y-80193018D01*
X46164877Y-80105072D01*
X46285072Y-79984877D01*
X46373019Y-79839395D01*
X46423590Y-79677106D01*
X46430000Y-79606572D01*
X46430000Y-79000000D01*
X45780000Y-79000000D01*
X45280000Y-79000000D01*
X44630001Y-79000000D01*
X41865093Y-79000000D01*
X41365093Y-78500000D01*
X44630000Y-78500000D01*
X45280000Y-78500000D01*
X45280000Y-77250000D01*
X45780000Y-77250000D01*
X45780000Y-78500000D01*
X46429999Y-78500000D01*
X46429999Y-77893417D01*
X46423591Y-77822897D01*
X46423590Y-77822892D01*
X46373018Y-77660603D01*
X46285072Y-77515122D01*
X46164877Y-77394927D01*
X46019395Y-77306980D01*
X46019396Y-77306980D01*
X45857105Y-77256409D01*
X45857106Y-77256409D01*
X45786572Y-77250000D01*
X45780000Y-77250000D01*
X45280000Y-77250000D01*
X45279999Y-77249999D01*
X45273436Y-77250000D01*
X45273417Y-77250001D01*
X45202897Y-77256408D01*
X45202892Y-77256409D01*
X45040603Y-77306981D01*
X44895122Y-77394927D01*
X44774927Y-77515122D01*
X44686980Y-77660604D01*
X44636409Y-77822893D01*
X44630000Y-77893427D01*
X44630000Y-78500000D01*
X41365093Y-78500000D01*
X39377576Y-76512483D01*
X39377571Y-76512479D01*
X39242927Y-76434743D01*
X39242926Y-76434742D01*
X39218621Y-76428230D01*
X39194318Y-76421718D01*
X39194316Y-76421717D01*
X39147175Y-76409085D01*
X39092741Y-76394500D01*
X39092739Y-76394500D01*
X38698754Y-76394500D01*
X38631715Y-76374815D01*
X38586373Y-76322906D01*
X38579038Y-76307178D01*
X38579035Y-76307171D01*
X38473757Y-76156818D01*
X38443494Y-76113597D01*
X38276402Y-75946506D01*
X38276396Y-75946501D01*
X38090842Y-75816575D01*
X38047217Y-75761998D01*
X38040023Y-75692500D01*
X38071546Y-75630145D01*
X38090842Y-75613425D01*
X38133912Y-75583267D01*
X38276401Y-75483495D01*
X38443495Y-75316401D01*
X38579035Y-75122830D01*
X38579036Y-75122828D01*
X38586374Y-75107093D01*
X38632547Y-75054655D01*
X38698755Y-75035500D01*
X40570017Y-75035500D01*
X40637056Y-75055185D01*
X40642902Y-75059182D01*
X40677265Y-75084148D01*
X40677270Y-75084151D01*
X40850192Y-75161142D01*
X40850197Y-75161144D01*
X41035354Y-75200500D01*
X41085500Y-75200500D01*
X41152539Y-75220185D01*
X41198294Y-75272989D01*
X41209500Y-75324500D01*
X41209500Y-75699859D01*
X41201442Y-75743830D01*
X41163763Y-75843181D01*
X41144722Y-75999999D01*
X41144722Y-76000000D01*
X41163762Y-76156818D01*
X41209807Y-76278226D01*
X41219780Y-76304523D01*
X41309517Y-76434530D01*
X41427760Y-76539283D01*
X41427762Y-76539284D01*
X41567634Y-76612696D01*
X41721014Y-76650500D01*
X41721015Y-76650500D01*
X41878985Y-76650500D01*
X42032365Y-76612696D01*
X42049690Y-76603603D01*
X42172240Y-76539283D01*
X42290483Y-76434530D01*
X42380220Y-76304523D01*
X42436237Y-76156818D01*
X42455278Y-76000000D01*
X42436237Y-75843182D01*
X42398558Y-75743830D01*
X42390500Y-75699859D01*
X42390500Y-63939363D01*
X43149500Y-63939363D01*
X43164953Y-64056753D01*
X43164956Y-64056762D01*
X43221110Y-64192331D01*
X43225464Y-64202841D01*
X43321718Y-64328282D01*
X43447159Y-64424536D01*
X43593238Y-64485044D01*
X43710639Y-64500500D01*
X44049360Y-64500499D01*
X44049363Y-64500499D01*
X44166755Y-64485045D01*
X44166755Y-64485044D01*
X44166762Y-64485044D01*
X44166767Y-64485041D01*
X44167900Y-64484739D01*
X44169085Y-64484738D01*
X44174821Y-64483984D01*
X44174920Y-64484738D01*
X44225080Y-64484737D01*
X44225180Y-64483983D01*
X44230907Y-64484737D01*
X44232091Y-64484737D01*
X44233234Y-64485043D01*
X44233236Y-64485043D01*
X44233238Y-64485044D01*
X44350639Y-64500500D01*
X44689360Y-64500499D01*
X44689363Y-64500499D01*
X44806753Y-64485046D01*
X44806757Y-64485044D01*
X44806762Y-64485044D01*
X44952841Y-64424536D01*
X44980512Y-64403302D01*
X45045680Y-64378107D01*
X45114126Y-64392144D01*
X45164116Y-64440957D01*
X45180000Y-64501674D01*
X45180000Y-64539323D01*
X45195442Y-64656628D01*
X45195444Y-64656633D01*
X45255899Y-64802585D01*
X45352075Y-64927924D01*
X45477414Y-65024100D01*
X45623366Y-65084555D01*
X45623372Y-65084557D01*
X45679998Y-65092011D01*
X45680000Y-65092010D01*
X45680000Y-64584499D01*
X45699685Y-64517460D01*
X45752489Y-64471705D01*
X45803996Y-64460499D01*
X45956000Y-64460499D01*
X46023039Y-64480184D01*
X46068794Y-64532988D01*
X46080000Y-64584499D01*
X46080000Y-65092010D01*
X46080001Y-65092011D01*
X46136627Y-65084557D01*
X46136633Y-65084555D01*
X46282585Y-65024100D01*
X46407924Y-64927924D01*
X46504100Y-64802586D01*
X46564554Y-64656634D01*
X46564555Y-64656630D01*
X46575961Y-64570000D01*
X46406432Y-64570000D01*
X46339393Y-64550315D01*
X46293638Y-64497511D01*
X46283694Y-64428353D01*
X46312719Y-64364797D01*
X46330941Y-64347627D01*
X46408282Y-64288282D01*
X46461818Y-64218512D01*
X46518245Y-64177311D01*
X46560193Y-64170000D01*
X46575959Y-64170000D01*
X46575960Y-64169998D01*
X46564557Y-64083375D01*
X46564478Y-64083078D01*
X46564477Y-64082769D01*
X46563496Y-64075310D01*
X46564477Y-64075180D01*
X46564477Y-64024885D01*
X46563983Y-64024820D01*
X46564477Y-64021067D01*
X46564477Y-64018875D01*
X46565040Y-64016771D01*
X46565044Y-64016762D01*
X46580277Y-63901053D01*
X46608543Y-63837157D01*
X46615535Y-63829557D01*
X46622288Y-63822804D01*
X46743194Y-63701898D01*
X46804517Y-63668415D01*
X46874209Y-63673399D01*
X46878317Y-63675015D01*
X47023238Y-63735044D01*
X47140639Y-63750500D01*
X47479360Y-63750499D01*
X47479363Y-63750499D01*
X47596755Y-63735045D01*
X47596755Y-63735044D01*
X47596762Y-63735044D01*
X47596767Y-63735041D01*
X47597900Y-63734739D01*
X47599085Y-63734738D01*
X47604821Y-63733984D01*
X47604920Y-63734738D01*
X47655080Y-63734737D01*
X47655180Y-63733983D01*
X47660907Y-63734737D01*
X47662091Y-63734737D01*
X47663234Y-63735043D01*
X47663236Y-63735043D01*
X47663238Y-63735044D01*
X47780639Y-63750500D01*
X48119360Y-63750499D01*
X48119363Y-63750499D01*
X48236753Y-63735046D01*
X48236756Y-63735044D01*
X48236762Y-63735044D01*
X48304048Y-63707172D01*
X48373516Y-63699704D01*
X48435996Y-63730979D01*
X48471648Y-63791068D01*
X48474991Y-63832955D01*
X48472116Y-63864593D01*
X48469500Y-63893384D01*
X48469500Y-64406616D01*
X48471216Y-64425500D01*
X48475913Y-64477192D01*
X48475913Y-64477194D01*
X48475914Y-64477196D01*
X48518099Y-64612576D01*
X48526524Y-64639611D01*
X48529601Y-64646448D01*
X48527322Y-64647473D01*
X48542087Y-64703420D01*
X48527627Y-64752663D01*
X48529601Y-64753552D01*
X48526524Y-64760388D01*
X48475913Y-64922807D01*
X48472815Y-64956903D01*
X48469866Y-64989363D01*
X48469500Y-64993386D01*
X48469500Y-65506613D01*
X48475913Y-65577192D01*
X48475913Y-65577194D01*
X48475914Y-65577196D01*
X48524940Y-65734530D01*
X48526524Y-65739611D01*
X48529601Y-65746448D01*
X48527322Y-65747473D01*
X48542087Y-65803420D01*
X48527627Y-65852663D01*
X48529601Y-65853552D01*
X48526524Y-65860388D01*
X48475913Y-66022807D01*
X48469500Y-66093386D01*
X48469500Y-66606613D01*
X48475913Y-66677192D01*
X48475913Y-66677194D01*
X48475914Y-66677196D01*
X48524219Y-66832216D01*
X48526523Y-66839608D01*
X48533915Y-66851836D01*
X48551751Y-66919390D01*
X48533917Y-66980132D01*
X48524487Y-66995731D01*
X48475686Y-67152338D01*
X48475685Y-67152341D01*
X48475685Y-67152343D01*
X48469500Y-67220406D01*
X48469500Y-67679594D01*
X48475685Y-67747657D01*
X48475686Y-67747662D01*
X48475687Y-67747664D01*
X48524485Y-67904263D01*
X48524488Y-67904272D01*
X48609348Y-68044648D01*
X48609351Y-68044652D01*
X48725347Y-68160648D01*
X48725351Y-68160651D01*
X48865727Y-68245511D01*
X48865730Y-68245512D01*
X49022343Y-68294315D01*
X49090406Y-68300500D01*
X49090409Y-68300500D01*
X50649591Y-68300500D01*
X50649594Y-68300500D01*
X50717657Y-68294315D01*
X50874270Y-68245512D01*
X50875030Y-68245053D01*
X51014648Y-68160651D01*
X51014647Y-68160651D01*
X51014653Y-68160648D01*
X51130648Y-68044653D01*
X51166995Y-67984528D01*
X51215511Y-67904272D01*
X51215514Y-67904263D01*
X51219839Y-67890383D01*
X51264315Y-67747657D01*
X51268646Y-67700000D01*
X57971857Y-67700000D01*
X57976178Y-67747558D01*
X58024947Y-67904065D01*
X58109743Y-68044337D01*
X58109747Y-68044342D01*
X58225657Y-68160252D01*
X58225662Y-68160256D01*
X58365934Y-68245052D01*
X58522437Y-68293820D01*
X58590443Y-68299999D01*
X59119999Y-68299999D01*
X59120000Y-68299998D01*
X59120000Y-67700000D01*
X59620000Y-67700000D01*
X59620000Y-68299999D01*
X60149565Y-68299999D01*
X60217561Y-68293821D01*
X60217572Y-68293818D01*
X60374060Y-68245055D01*
X60374064Y-68245053D01*
X60514337Y-68160256D01*
X60514342Y-68160252D01*
X60630252Y-68044342D01*
X60630256Y-68044337D01*
X60715052Y-67904065D01*
X60763821Y-67747558D01*
X60768142Y-67700000D01*
X59620000Y-67700000D01*
X59120000Y-67700000D01*
X57971857Y-67700000D01*
X51268646Y-67700000D01*
X51270500Y-67679594D01*
X51270500Y-67220406D01*
X51264315Y-67152343D01*
X51215512Y-66995730D01*
X51206083Y-66980132D01*
X51188248Y-66912581D01*
X51206087Y-66851831D01*
X51213478Y-66839606D01*
X51264086Y-66677196D01*
X51270500Y-66606616D01*
X51270500Y-66093384D01*
X51264086Y-66022804D01*
X51213478Y-65860394D01*
X51213475Y-65860389D01*
X51210400Y-65853555D01*
X51212680Y-65852528D01*
X51197912Y-65796601D01*
X51212377Y-65747334D01*
X51210400Y-65746445D01*
X51213475Y-65739611D01*
X51213478Y-65739606D01*
X51264086Y-65577196D01*
X51270500Y-65506616D01*
X51270500Y-64993384D01*
X51264086Y-64922804D01*
X51213478Y-64760394D01*
X51213475Y-64760389D01*
X51210400Y-64753555D01*
X51212680Y-64752528D01*
X51197912Y-64696601D01*
X51212377Y-64647334D01*
X51210400Y-64646445D01*
X51213475Y-64639611D01*
X51213478Y-64639606D01*
X51264086Y-64477196D01*
X51270500Y-64406616D01*
X51270500Y-63893384D01*
X51264086Y-63822804D01*
X51213478Y-63660394D01*
X51213475Y-63660389D01*
X51210400Y-63653555D01*
X51212680Y-63652528D01*
X51197912Y-63596601D01*
X51212377Y-63547334D01*
X51210400Y-63546445D01*
X51213475Y-63539611D01*
X51213478Y-63539606D01*
X51264086Y-63377196D01*
X51270500Y-63306616D01*
X51270500Y-62793384D01*
X51264086Y-62722804D01*
X51213478Y-62560394D01*
X51213475Y-62560389D01*
X51210400Y-62553555D01*
X51212680Y-62552528D01*
X51197912Y-62496601D01*
X51212377Y-62447334D01*
X51210400Y-62446445D01*
X51213475Y-62439611D01*
X51213478Y-62439606D01*
X51264086Y-62277196D01*
X51270500Y-62206616D01*
X51270500Y-61693384D01*
X51264086Y-61622804D01*
X51213478Y-61460394D01*
X51213473Y-61460386D01*
X51210398Y-61453551D01*
X51212533Y-61452590D01*
X51197620Y-61396116D01*
X51211993Y-61347163D01*
X51209940Y-61346239D01*
X51213019Y-61339397D01*
X51263590Y-61177106D01*
X51270000Y-61106572D01*
X51270000Y-61100000D01*
X50857549Y-61100000D01*
X50820660Y-61094386D01*
X50793464Y-61085912D01*
X50697196Y-61055914D01*
X50626616Y-61049500D01*
X49113384Y-61049500D01*
X49042804Y-61055914D01*
X48995995Y-61070500D01*
X48919340Y-61094386D01*
X48882451Y-61100000D01*
X48470001Y-61100000D01*
X48470001Y-61106582D01*
X48476408Y-61177102D01*
X48476409Y-61177107D01*
X48526981Y-61339398D01*
X48530060Y-61346238D01*
X48527698Y-61347300D01*
X48542380Y-61402936D01*
X48527759Y-61452726D01*
X48529600Y-61453555D01*
X48526524Y-61460389D01*
X48526522Y-61460392D01*
X48526522Y-61460394D01*
X48491901Y-61571498D01*
X48475913Y-61622807D01*
X48472255Y-61663068D01*
X48469808Y-61690001D01*
X48469500Y-61693386D01*
X48469500Y-62206614D01*
X48474991Y-62267044D01*
X48461454Y-62335590D01*
X48413007Y-62385935D01*
X48345032Y-62402096D01*
X48304048Y-62392826D01*
X48236765Y-62364957D01*
X48236760Y-62364955D01*
X48119361Y-62349500D01*
X47780636Y-62349500D01*
X47663234Y-62364955D01*
X47662083Y-62365264D01*
X47660891Y-62365264D01*
X47655179Y-62366016D01*
X47655080Y-62365264D01*
X47604919Y-62365264D01*
X47604820Y-62366017D01*
X47599107Y-62365264D01*
X47597917Y-62365265D01*
X47596765Y-62364956D01*
X47479361Y-62349500D01*
X47140636Y-62349500D01*
X47023246Y-62364953D01*
X47023237Y-62364956D01*
X46877160Y-62425463D01*
X46877159Y-62425464D01*
X46866195Y-62433876D01*
X46801028Y-62459070D01*
X46790710Y-62459500D01*
X46482259Y-62459500D01*
X46363813Y-62491236D01*
X46363812Y-62491237D01*
X46343796Y-62496601D01*
X46332071Y-62499743D01*
X46197427Y-62577479D01*
X46197422Y-62577483D01*
X45810438Y-62964466D01*
X45749115Y-62997951D01*
X45738941Y-62999724D01*
X45623246Y-63014954D01*
X45623237Y-63014956D01*
X45477157Y-63075464D01*
X45427099Y-63113876D01*
X45361930Y-63139070D01*
X45351613Y-63139500D01*
X44938352Y-63139500D01*
X44871313Y-63119815D01*
X44825558Y-63067011D01*
X44815614Y-62997853D01*
X44844639Y-62934297D01*
X44850671Y-62927819D01*
X46072285Y-61706206D01*
X47401672Y-60376819D01*
X47462995Y-60343334D01*
X47489353Y-60340500D01*
X48302259Y-60340500D01*
X48302260Y-60340500D01*
X48364725Y-60340500D01*
X48431764Y-60360185D01*
X48477519Y-60412989D01*
X48487463Y-60482147D01*
X48483111Y-60501390D01*
X48476408Y-60522898D01*
X48470000Y-60593427D01*
X48470000Y-60600000D01*
X48882451Y-60600000D01*
X48919340Y-60605614D01*
X48933950Y-60610166D01*
X49042804Y-60644086D01*
X49113384Y-60650500D01*
X49113387Y-60650500D01*
X50626613Y-60650500D01*
X50626616Y-60650500D01*
X50697196Y-60644086D01*
X50808579Y-60609378D01*
X50820660Y-60605614D01*
X50857549Y-60600000D01*
X51269999Y-60600000D01*
X51269999Y-60593417D01*
X51263591Y-60522897D01*
X51263590Y-60522892D01*
X51213019Y-60360604D01*
X51209941Y-60353765D01*
X51212308Y-60352699D01*
X51197618Y-60297103D01*
X51212249Y-60247282D01*
X51210398Y-60246449D01*
X51213471Y-60239616D01*
X51213478Y-60239606D01*
X51264086Y-60077196D01*
X51270500Y-60006616D01*
X51270500Y-59493384D01*
X51264086Y-59422804D01*
X51213478Y-59260394D01*
X51205792Y-59247680D01*
X51187956Y-59180132D01*
X51205794Y-59119379D01*
X51215053Y-59104063D01*
X51263821Y-58947558D01*
X51268142Y-58900000D01*
X50857549Y-58900000D01*
X50820660Y-58894386D01*
X50773189Y-58879594D01*
X50697196Y-58855914D01*
X50626616Y-58849500D01*
X49113384Y-58849500D01*
X49042804Y-58855914D01*
X48966820Y-58879591D01*
X48919340Y-58894386D01*
X48882451Y-58900000D01*
X48417173Y-58900000D01*
X48417173Y-58895404D01*
X48378712Y-58894371D01*
X48329149Y-58864056D01*
X48006819Y-58541726D01*
X47973334Y-58480403D01*
X47970500Y-58454045D01*
X47970500Y-58400000D01*
X48471857Y-58400000D01*
X49620000Y-58400000D01*
X49620000Y-57800000D01*
X50120000Y-57800000D01*
X50120000Y-58400000D01*
X51268143Y-58400000D01*
X51268142Y-58399999D01*
X51263821Y-58352441D01*
X51215052Y-58195934D01*
X51130256Y-58055662D01*
X51130252Y-58055657D01*
X51014342Y-57939747D01*
X51014337Y-57939743D01*
X50874065Y-57854947D01*
X50717562Y-57806179D01*
X50649556Y-57800000D01*
X50120000Y-57800000D01*
X49620000Y-57800000D01*
X49090433Y-57800000D01*
X49022438Y-57806178D01*
X49022427Y-57806181D01*
X48865939Y-57854944D01*
X48865935Y-57854946D01*
X48725662Y-57939743D01*
X48725657Y-57939747D01*
X48609747Y-58055657D01*
X48609743Y-58055662D01*
X48524947Y-58195934D01*
X48476178Y-58352441D01*
X48471857Y-58399999D01*
X48471857Y-58400000D01*
X47970500Y-58400000D01*
X47970500Y-58136520D01*
X47990185Y-58069481D01*
X48042989Y-58023726D01*
X48051168Y-58020338D01*
X48122326Y-57993798D01*
X48122326Y-57993797D01*
X48122331Y-57993796D01*
X48237546Y-57907546D01*
X48323796Y-57792331D01*
X48374091Y-57657483D01*
X48380500Y-57597873D01*
X48380499Y-56502128D01*
X48375101Y-56451914D01*
X48374091Y-56442516D01*
X48323797Y-56307671D01*
X48323793Y-56307664D01*
X48237547Y-56192455D01*
X48237544Y-56192452D01*
X48122335Y-56106206D01*
X48122328Y-56106202D01*
X47987482Y-56055908D01*
X47987483Y-56055908D01*
X47927883Y-56049501D01*
X47927881Y-56049500D01*
X47927873Y-56049500D01*
X47927865Y-56049500D01*
X47604000Y-56049500D01*
X47536961Y-56029815D01*
X47491206Y-55977011D01*
X47480000Y-55925500D01*
X47480000Y-55825000D01*
X46130000Y-55825000D01*
X46130000Y-56600000D01*
X46255500Y-56600000D01*
X46322539Y-56619685D01*
X46368294Y-56672489D01*
X46379500Y-56724000D01*
X46379501Y-57376000D01*
X46359817Y-57443039D01*
X46307013Y-57488794D01*
X46255501Y-57500000D01*
X46130000Y-57500000D01*
X46130000Y-59550000D01*
X46258943Y-59550000D01*
X46325982Y-59569685D01*
X46371737Y-59622489D01*
X46381681Y-59691647D01*
X46352656Y-59755203D01*
X46346624Y-59761681D01*
X43407483Y-62700821D01*
X43407479Y-62700826D01*
X43329742Y-62835472D01*
X43327677Y-62843182D01*
X43325716Y-62850500D01*
X43300993Y-62942768D01*
X43289500Y-62985658D01*
X43289500Y-63271612D01*
X43269815Y-63338651D01*
X43263877Y-63347097D01*
X43225464Y-63397158D01*
X43164956Y-63543237D01*
X43164955Y-63543239D01*
X43149500Y-63660638D01*
X43149500Y-63939363D01*
X42390500Y-63939363D01*
X42390500Y-58775000D01*
X44280000Y-58775000D01*
X44280000Y-59097844D01*
X44286401Y-59157372D01*
X44286403Y-59157379D01*
X44336645Y-59292086D01*
X44336649Y-59292093D01*
X44422809Y-59407187D01*
X44422812Y-59407190D01*
X44537906Y-59493350D01*
X44537913Y-59493354D01*
X44672620Y-59543596D01*
X44672627Y-59543598D01*
X44732155Y-59549999D01*
X44732172Y-59550000D01*
X45630000Y-59550000D01*
X45630000Y-58775000D01*
X44280000Y-58775000D01*
X42390500Y-58775000D01*
X42390500Y-57300000D01*
X43380000Y-57300000D01*
X43380000Y-57597844D01*
X43386401Y-57657372D01*
X43386403Y-57657379D01*
X43436645Y-57792086D01*
X43436649Y-57792093D01*
X43522809Y-57907187D01*
X43522812Y-57907190D01*
X43637906Y-57993350D01*
X43637913Y-57993354D01*
X43772620Y-58043596D01*
X43772627Y-58043598D01*
X43832155Y-58049999D01*
X43832172Y-58050000D01*
X44156000Y-58050000D01*
X44223039Y-58069685D01*
X44268794Y-58122489D01*
X44280000Y-58174000D01*
X44280000Y-58275000D01*
X45630000Y-58275000D01*
X45630000Y-57500000D01*
X45504000Y-57500000D01*
X45436961Y-57480315D01*
X45391206Y-57427511D01*
X45380000Y-57376000D01*
X45380000Y-57300000D01*
X43380000Y-57300000D01*
X42390500Y-57300000D01*
X42390500Y-56800000D01*
X43380000Y-56800000D01*
X45380000Y-56800000D01*
X45380000Y-56724000D01*
X45399685Y-56656961D01*
X45452489Y-56611206D01*
X45504000Y-56600000D01*
X45630000Y-56600000D01*
X45630000Y-55825000D01*
X44280000Y-55825000D01*
X44280000Y-55926000D01*
X44260315Y-55993039D01*
X44207511Y-56038794D01*
X44156000Y-56050000D01*
X43832155Y-56050000D01*
X43772627Y-56056401D01*
X43772620Y-56056403D01*
X43637913Y-56106645D01*
X43637906Y-56106649D01*
X43522812Y-56192809D01*
X43522809Y-56192812D01*
X43436649Y-56307906D01*
X43436645Y-56307913D01*
X43386403Y-56442620D01*
X43386401Y-56442627D01*
X43380000Y-56502155D01*
X43380000Y-56800000D01*
X42390500Y-56800000D01*
X42390500Y-55325000D01*
X44280000Y-55325000D01*
X45630000Y-55325000D01*
X45630000Y-54550000D01*
X46130000Y-54550000D01*
X46130000Y-55325000D01*
X47480000Y-55325000D01*
X47480000Y-55002172D01*
X47479999Y-55002155D01*
X47473598Y-54942627D01*
X47473596Y-54942620D01*
X47423354Y-54807913D01*
X47423350Y-54807906D01*
X47337190Y-54692812D01*
X47337187Y-54692809D01*
X47222093Y-54606649D01*
X47222086Y-54606645D01*
X47087379Y-54556403D01*
X47087372Y-54556401D01*
X47027844Y-54550000D01*
X46130000Y-54550000D01*
X45630000Y-54550000D01*
X44732155Y-54550000D01*
X44672627Y-54556401D01*
X44672620Y-54556403D01*
X44537913Y-54606645D01*
X44537906Y-54606649D01*
X44422812Y-54692809D01*
X44422809Y-54692812D01*
X44336649Y-54807906D01*
X44336645Y-54807913D01*
X44286403Y-54942620D01*
X44286401Y-54942627D01*
X44280000Y-55002155D01*
X44280000Y-55325000D01*
X42390500Y-55325000D01*
X42390500Y-53322261D01*
X42390500Y-53322259D01*
X42350258Y-53172076D01*
X42282841Y-53055306D01*
X42281143Y-53052365D01*
X42272518Y-53037424D01*
X41962577Y-52727483D01*
X41953046Y-52721980D01*
X41927369Y-52702276D01*
X38704777Y-49479684D01*
X38671292Y-49418361D01*
X38672682Y-49359914D01*
X38710063Y-49220408D01*
X38730659Y-48985000D01*
X38728534Y-48960717D01*
X38724022Y-48909137D01*
X38710063Y-48749592D01*
X38648903Y-48521337D01*
X38549035Y-48307171D01*
X38540611Y-48295139D01*
X38413494Y-48113597D01*
X38246402Y-47946506D01*
X38246396Y-47946501D01*
X38060842Y-47816575D01*
X38017217Y-47761998D01*
X38010023Y-47692500D01*
X38041546Y-47630145D01*
X38060842Y-47613425D01*
X38166726Y-47539284D01*
X38246401Y-47483495D01*
X38413495Y-47316401D01*
X38492567Y-47203473D01*
X38547144Y-47159849D01*
X38616642Y-47152655D01*
X38678997Y-47184178D01*
X38681823Y-47186916D01*
X39689410Y-48194503D01*
X39722895Y-48255826D01*
X39725050Y-48295139D01*
X39724540Y-48299993D01*
X39724540Y-48299997D01*
X39724540Y-48300000D01*
X39744326Y-48488256D01*
X39744327Y-48488259D01*
X39802818Y-48668277D01*
X39802821Y-48668284D01*
X39897467Y-48832216D01*
X40013168Y-48960715D01*
X40024129Y-48972888D01*
X40177265Y-49084148D01*
X40177270Y-49084151D01*
X40350192Y-49161142D01*
X40350197Y-49161144D01*
X40535354Y-49200500D01*
X40535355Y-49200500D01*
X40724644Y-49200500D01*
X40724646Y-49200500D01*
X40909803Y-49161144D01*
X41082730Y-49084151D01*
X41235871Y-48972888D01*
X41362533Y-48832216D01*
X41457179Y-48668284D01*
X41515674Y-48488256D01*
X41535460Y-48300000D01*
X41515674Y-48111744D01*
X41495612Y-48050000D01*
X44630001Y-48050000D01*
X44630001Y-48656582D01*
X44636408Y-48727102D01*
X44636409Y-48727107D01*
X44686981Y-48889396D01*
X44774927Y-49034877D01*
X44895122Y-49155072D01*
X45040604Y-49243019D01*
X45040603Y-49243019D01*
X45202894Y-49293590D01*
X45202893Y-49293590D01*
X45273408Y-49299998D01*
X45273426Y-49299999D01*
X45279999Y-49299998D01*
X45280000Y-49299998D01*
X45280000Y-48050000D01*
X45780000Y-48050000D01*
X45780000Y-49299999D01*
X45786581Y-49299999D01*
X45857102Y-49293591D01*
X45857107Y-49293590D01*
X46019396Y-49243018D01*
X46164877Y-49155072D01*
X46285072Y-49034877D01*
X46373019Y-48889395D01*
X46423590Y-48727106D01*
X46429996Y-48656616D01*
X48829500Y-48656616D01*
X48830117Y-48663401D01*
X48835913Y-48727192D01*
X48886522Y-48889606D01*
X48974530Y-49035188D01*
X49094811Y-49155469D01*
X49094813Y-49155470D01*
X49094815Y-49155472D01*
X49240394Y-49243478D01*
X49402804Y-49294086D01*
X49473384Y-49300500D01*
X49473387Y-49300500D01*
X49986613Y-49300500D01*
X49986616Y-49300500D01*
X50057196Y-49294086D01*
X50219606Y-49243478D01*
X50365185Y-49155472D01*
X50485472Y-49035185D01*
X50573478Y-48889606D01*
X50624086Y-48727196D01*
X50630500Y-48656616D01*
X50630500Y-48536940D01*
X50650185Y-48469901D01*
X50702989Y-48424146D01*
X50772147Y-48414202D01*
X50801953Y-48422379D01*
X50807157Y-48424534D01*
X50807159Y-48424536D01*
X50953238Y-48485044D01*
X51070639Y-48500500D01*
X51409360Y-48500499D01*
X51409363Y-48500499D01*
X51526755Y-48485045D01*
X51526755Y-48485044D01*
X51526762Y-48485044D01*
X51526767Y-48485041D01*
X51527900Y-48484739D01*
X51529085Y-48484738D01*
X51534821Y-48483984D01*
X51534920Y-48484738D01*
X51585080Y-48484737D01*
X51585180Y-48483983D01*
X51590907Y-48484737D01*
X51592091Y-48484737D01*
X51593234Y-48485043D01*
X51593236Y-48485043D01*
X51593238Y-48485044D01*
X51710639Y-48500500D01*
X52049360Y-48500499D01*
X52049363Y-48500499D01*
X52166753Y-48485046D01*
X52166757Y-48485044D01*
X52166762Y-48485044D01*
X52312836Y-48424538D01*
X52312837Y-48424538D01*
X52312837Y-48424537D01*
X52312841Y-48424536D01*
X52343353Y-48401123D01*
X52408520Y-48375930D01*
X52418838Y-48375500D01*
X53775764Y-48375500D01*
X53775766Y-48375500D01*
X53922135Y-48336281D01*
X54053365Y-48260515D01*
X54666542Y-47647336D01*
X54724550Y-47614622D01*
X54732365Y-47612696D01*
X54872240Y-47539283D01*
X54990483Y-47434530D01*
X55080220Y-47304523D01*
X55136237Y-47156818D01*
X55155278Y-47000000D01*
X55154925Y-46997088D01*
X55136237Y-46843181D01*
X55110908Y-46776395D01*
X55080220Y-46695477D01*
X54990483Y-46565470D01*
X54872240Y-46460717D01*
X54872238Y-46460716D01*
X54872237Y-46460715D01*
X54732365Y-46387303D01*
X54578986Y-46349500D01*
X54578985Y-46349500D01*
X54421015Y-46349500D01*
X54421014Y-46349500D01*
X54267634Y-46387303D01*
X54127762Y-46460715D01*
X54009516Y-46565471D01*
X53919781Y-46695475D01*
X53919779Y-46695478D01*
X53885923Y-46784747D01*
X53857663Y-46828455D01*
X53497939Y-47188181D01*
X53436616Y-47221666D01*
X53410258Y-47224500D01*
X52418838Y-47224500D01*
X52351799Y-47204815D01*
X52343364Y-47198885D01*
X52312841Y-47175464D01*
X52312838Y-47175463D01*
X52312836Y-47175461D01*
X52166765Y-47114957D01*
X52166760Y-47114955D01*
X52049361Y-47099500D01*
X51710636Y-47099500D01*
X51593234Y-47114955D01*
X51592083Y-47115264D01*
X51590891Y-47115264D01*
X51585179Y-47116016D01*
X51585080Y-47115264D01*
X51534919Y-47115264D01*
X51534820Y-47116017D01*
X51529107Y-47115264D01*
X51527917Y-47115265D01*
X51526765Y-47114956D01*
X51409361Y-47099500D01*
X51070636Y-47099500D01*
X50953246Y-47114953D01*
X50953234Y-47114957D01*
X50801952Y-47177620D01*
X50732483Y-47185089D01*
X50670004Y-47153814D01*
X50634352Y-47093725D01*
X50630500Y-47063059D01*
X50630500Y-46943386D01*
X50627345Y-46908664D01*
X50624086Y-46872804D01*
X50573478Y-46710394D01*
X50485472Y-46564815D01*
X50485470Y-46564813D01*
X50485469Y-46564811D01*
X50365188Y-46444530D01*
X50340727Y-46429743D01*
X50219606Y-46356522D01*
X50057196Y-46305914D01*
X50057194Y-46305913D01*
X50057192Y-46305913D01*
X50007778Y-46301423D01*
X49986616Y-46299500D01*
X49473384Y-46299500D01*
X49454145Y-46301248D01*
X49402807Y-46305913D01*
X49240393Y-46356522D01*
X49094811Y-46444530D01*
X48974530Y-46564811D01*
X48886522Y-46710393D01*
X48835913Y-46872807D01*
X48832656Y-46908655D01*
X48829500Y-46943384D01*
X48829500Y-48656616D01*
X46429996Y-48656616D01*
X46430000Y-48656572D01*
X46430000Y-48050000D01*
X45780000Y-48050000D01*
X45280000Y-48050000D01*
X44630001Y-48050000D01*
X41495612Y-48050000D01*
X41457179Y-47931716D01*
X41362533Y-47767784D01*
X41235871Y-47627112D01*
X41224754Y-47619035D01*
X41129736Y-47550000D01*
X44630000Y-47550000D01*
X45280000Y-47550000D01*
X45280000Y-46300000D01*
X45780000Y-46300000D01*
X45780000Y-47550000D01*
X46429999Y-47550000D01*
X46429999Y-46943417D01*
X46423591Y-46872897D01*
X46423590Y-46872892D01*
X46373018Y-46710603D01*
X46285072Y-46565122D01*
X46164877Y-46444927D01*
X46019395Y-46356980D01*
X46019396Y-46356980D01*
X45857105Y-46306409D01*
X45857106Y-46306409D01*
X45786572Y-46300000D01*
X45780000Y-46300000D01*
X45280000Y-46300000D01*
X45279999Y-46299999D01*
X45273436Y-46300000D01*
X45273417Y-46300001D01*
X45202897Y-46306408D01*
X45202892Y-46306409D01*
X45040603Y-46356981D01*
X44895122Y-46444927D01*
X44774927Y-46565122D01*
X44686980Y-46710604D01*
X44636409Y-46872893D01*
X44630000Y-46943427D01*
X44630000Y-47550000D01*
X41129736Y-47550000D01*
X41082734Y-47515851D01*
X41082729Y-47515848D01*
X40909807Y-47438857D01*
X40909802Y-47438855D01*
X40764001Y-47407865D01*
X40724646Y-47399500D01*
X40724645Y-47399500D01*
X40615955Y-47399500D01*
X40548916Y-47379815D01*
X40528274Y-47363181D01*
X39137576Y-45972483D01*
X39137571Y-45972479D01*
X39002928Y-45894743D01*
X39002925Y-45894742D01*
X38971188Y-45886237D01*
X38911964Y-45870368D01*
X38852741Y-45854500D01*
X38852740Y-45854500D01*
X38668754Y-45854500D01*
X38601715Y-45834815D01*
X38556373Y-45782906D01*
X38549038Y-45767178D01*
X38549035Y-45767171D01*
X38422476Y-45586425D01*
X38413494Y-45573597D01*
X38246402Y-45406506D01*
X38246395Y-45406501D01*
X38244251Y-45405000D01*
X38159277Y-45345500D01*
X38052834Y-45270967D01*
X38052830Y-45270965D01*
X37983110Y-45238454D01*
X37838663Y-45171097D01*
X37838659Y-45171096D01*
X37838655Y-45171094D01*
X37610413Y-45109938D01*
X37610403Y-45109936D01*
X37375001Y-45089341D01*
X37374999Y-45089341D01*
X37139596Y-45109936D01*
X37139586Y-45109938D01*
X36911344Y-45171094D01*
X36911335Y-45171098D01*
X36697171Y-45270964D01*
X36697169Y-45270965D01*
X36503597Y-45406505D01*
X36336505Y-45573597D01*
X36200965Y-45767169D01*
X36200964Y-45767171D01*
X36101098Y-45981335D01*
X36101094Y-45981344D01*
X36039938Y-46209586D01*
X36039936Y-46209596D01*
X36019341Y-46444999D01*
X36019341Y-46445000D01*
X36039936Y-46680403D01*
X36039938Y-46680413D01*
X36101094Y-46908655D01*
X36101096Y-46908659D01*
X36101097Y-46908663D01*
X36196002Y-47112187D01*
X36200965Y-47122830D01*
X36200967Y-47122834D01*
X36297474Y-47260659D01*
X36336501Y-47316396D01*
X36336506Y-47316402D01*
X36503597Y-47483493D01*
X36503603Y-47483498D01*
X36689158Y-47613425D01*
X36732783Y-47668002D01*
X36739977Y-47737500D01*
X36708454Y-47799855D01*
X36689158Y-47816575D01*
X36503597Y-47946505D01*
X36336505Y-48113597D01*
X36200965Y-48307169D01*
X36200964Y-48307171D01*
X36101098Y-48521335D01*
X36101094Y-48521344D01*
X36039938Y-48749586D01*
X36039936Y-48749596D01*
X36019341Y-48984999D01*
X36019341Y-48985000D01*
X36039936Y-49220403D01*
X36039938Y-49220413D01*
X36101094Y-49448655D01*
X36101096Y-49448659D01*
X36101097Y-49448663D01*
X36125036Y-49500000D01*
X36200965Y-49662830D01*
X36200967Y-49662834D01*
X36336501Y-49856395D01*
X36336506Y-49856402D01*
X36458818Y-49978714D01*
X36492303Y-50040037D01*
X36487319Y-50109729D01*
X36445447Y-50165662D01*
X36414471Y-50182577D01*
X36282912Y-50231646D01*
X36282906Y-50231649D01*
X36167812Y-50317809D01*
X36167809Y-50317812D01*
X36081649Y-50432906D01*
X36081645Y-50432913D01*
X36031403Y-50567620D01*
X36031401Y-50567627D01*
X36025000Y-50627155D01*
X36025000Y-51275000D01*
X36941988Y-51275000D01*
X36909075Y-51332007D01*
X36875000Y-51459174D01*
X36875000Y-51590826D01*
X36909075Y-51717993D01*
X36941988Y-51775000D01*
X36025000Y-51775000D01*
X36025000Y-52422844D01*
X36031401Y-52482372D01*
X36031403Y-52482379D01*
X36081645Y-52617086D01*
X36081649Y-52617093D01*
X36167809Y-52732187D01*
X36167812Y-52732190D01*
X36282906Y-52818350D01*
X36282913Y-52818354D01*
X36417620Y-52868596D01*
X36417627Y-52868598D01*
X36477155Y-52874999D01*
X36477172Y-52875000D01*
X37125000Y-52875000D01*
X37125000Y-51958012D01*
X37182007Y-51990925D01*
X37309174Y-52025000D01*
X37440826Y-52025000D01*
X37567993Y-51990925D01*
X37625000Y-51958012D01*
X37625000Y-52875000D01*
X38272828Y-52875000D01*
X38272844Y-52874999D01*
X38332372Y-52868598D01*
X38332379Y-52868596D01*
X38467086Y-52818354D01*
X38467093Y-52818350D01*
X38582187Y-52732190D01*
X38582190Y-52732187D01*
X38668350Y-52617093D01*
X38668354Y-52617086D01*
X38718596Y-52482379D01*
X38718598Y-52482372D01*
X38724999Y-52422844D01*
X38725000Y-52422827D01*
X38725000Y-51775000D01*
X37808012Y-51775000D01*
X37840925Y-51717993D01*
X37875000Y-51590826D01*
X37875000Y-51459174D01*
X37840925Y-51332007D01*
X37808012Y-51275000D01*
X38776362Y-51275000D01*
X38776362Y-51278553D01*
X38820733Y-51281706D01*
X38865134Y-51310227D01*
X41173181Y-53618274D01*
X41206666Y-53679597D01*
X41209500Y-53705955D01*
X41209500Y-73275500D01*
X41189815Y-73342539D01*
X41137011Y-73388294D01*
X41085500Y-73399500D01*
X41035354Y-73399500D01*
X41002897Y-73406398D01*
X40850197Y-73438855D01*
X40850192Y-73438857D01*
X40677270Y-73515848D01*
X40677265Y-73515851D01*
X40524129Y-73627111D01*
X40397466Y-73767785D01*
X40383197Y-73792500D01*
X40332630Y-73840715D01*
X40275810Y-73854500D01*
X38698754Y-73854500D01*
X38631715Y-73834815D01*
X38586373Y-73782906D01*
X38579038Y-73767178D01*
X38579035Y-73767171D01*
X38495001Y-73647158D01*
X38443494Y-73573597D01*
X38276402Y-73406506D01*
X38276395Y-73406501D01*
X38082834Y-73270967D01*
X38082830Y-73270965D01*
X37985330Y-73225500D01*
X37868663Y-73171097D01*
X37868659Y-73171096D01*
X37868655Y-73171094D01*
X37640413Y-73109938D01*
X37640403Y-73109936D01*
X37405001Y-73089341D01*
X37404999Y-73089341D01*
X37169596Y-73109936D01*
X37169586Y-73109938D01*
X36941344Y-73171094D01*
X36941335Y-73171098D01*
X36727171Y-73270964D01*
X36727169Y-73270965D01*
X36533597Y-73406505D01*
X36366505Y-73573597D01*
X36230965Y-73767169D01*
X36230964Y-73767171D01*
X36131098Y-73981335D01*
X36131094Y-73981344D01*
X36069938Y-74209586D01*
X36069936Y-74209596D01*
X36049341Y-74444999D01*
X36049341Y-74445000D01*
X36069936Y-74680403D01*
X36069938Y-74680413D01*
X36131094Y-74908655D01*
X36131096Y-74908659D01*
X36131097Y-74908663D01*
X36203598Y-75064141D01*
X36230965Y-75122830D01*
X36230967Y-75122834D01*
X36366501Y-75316395D01*
X36366506Y-75316402D01*
X36533597Y-75483493D01*
X36533603Y-75483498D01*
X36719158Y-75613425D01*
X36762783Y-75668002D01*
X36769977Y-75737500D01*
X36738454Y-75799855D01*
X36719158Y-75816575D01*
X36533597Y-75946505D01*
X36366505Y-76113597D01*
X36230965Y-76307169D01*
X36230964Y-76307171D01*
X36131098Y-76521335D01*
X36131094Y-76521344D01*
X36069938Y-76749586D01*
X36069936Y-76749596D01*
X36049341Y-76984999D01*
X36049341Y-76985000D01*
X36069936Y-77220403D01*
X36069938Y-77220413D01*
X36131094Y-77448655D01*
X36131096Y-77448659D01*
X36131097Y-77448663D01*
X36199379Y-77595093D01*
X36230965Y-77662830D01*
X36230967Y-77662834D01*
X36333567Y-77809361D01*
X36366501Y-77856396D01*
X36366506Y-77856402D01*
X36488818Y-77978714D01*
X36522303Y-78040037D01*
X36517319Y-78109729D01*
X36475447Y-78165662D01*
X36444471Y-78182577D01*
X36312912Y-78231646D01*
X36312906Y-78231649D01*
X36197812Y-78317809D01*
X36197809Y-78317812D01*
X36111649Y-78432906D01*
X36111645Y-78432913D01*
X36061403Y-78567620D01*
X36061401Y-78567627D01*
X36055000Y-78627155D01*
X36055000Y-79275000D01*
X36971988Y-79275000D01*
X36939075Y-79332007D01*
X36905000Y-79459174D01*
X36905000Y-79590826D01*
X36939075Y-79717993D01*
X36971988Y-79775000D01*
X36055000Y-79775000D01*
X36055000Y-80422844D01*
X36061401Y-80482372D01*
X36061403Y-80482379D01*
X36111645Y-80617086D01*
X36111649Y-80617093D01*
X36197809Y-80732187D01*
X36197812Y-80732190D01*
X36312906Y-80818350D01*
X36312913Y-80818354D01*
X36447620Y-80868596D01*
X36447627Y-80868598D01*
X36507155Y-80874999D01*
X36507172Y-80875000D01*
X37155000Y-80875000D01*
X37155000Y-79958012D01*
X37212007Y-79990925D01*
X37339174Y-80025000D01*
X37470826Y-80025000D01*
X37597993Y-79990925D01*
X37655000Y-79958012D01*
X37655000Y-80875000D01*
X38302828Y-80875000D01*
X38302844Y-80874999D01*
X38362372Y-80868598D01*
X38362379Y-80868596D01*
X38497086Y-80818354D01*
X38497093Y-80818350D01*
X38612187Y-80732190D01*
X38612190Y-80732187D01*
X38698350Y-80617093D01*
X38698354Y-80617086D01*
X38748596Y-80482379D01*
X38748598Y-80482372D01*
X38754999Y-80422844D01*
X38755000Y-80422827D01*
X38755000Y-79775000D01*
X37838012Y-79775000D01*
X37870925Y-79717993D01*
X37905000Y-79590826D01*
X37905000Y-79459174D01*
X37870925Y-79332007D01*
X37838012Y-79275000D01*
X38755000Y-79275000D01*
X38755000Y-78627172D01*
X38754999Y-78627155D01*
X38748598Y-78567627D01*
X38748596Y-78567620D01*
X38698354Y-78432913D01*
X38698350Y-78432906D01*
X38612190Y-78317812D01*
X38612187Y-78317809D01*
X38497093Y-78231649D01*
X38497088Y-78231646D01*
X38365528Y-78182577D01*
X38309595Y-78140705D01*
X38285178Y-78075241D01*
X38300030Y-78006968D01*
X38321175Y-77978720D01*
X38443495Y-77856401D01*
X38579035Y-77662830D01*
X38580073Y-77660604D01*
X38586374Y-77647093D01*
X38632547Y-77594655D01*
X38698755Y-77575500D01*
X38719045Y-77575500D01*
X38786084Y-77595185D01*
X38806726Y-77611819D01*
X41057213Y-79862306D01*
X41090698Y-79923629D01*
X41085714Y-79993321D01*
X41071583Y-80020426D01*
X41019780Y-80095476D01*
X40963762Y-80243181D01*
X40944722Y-80399999D01*
X40944722Y-80400000D01*
X40963762Y-80556818D01*
X41001442Y-80656169D01*
X41009500Y-80700140D01*
X41009500Y-81277743D01*
X41022828Y-81327480D01*
X41022828Y-81327482D01*
X41022829Y-81327482D01*
X41022829Y-81327483D01*
X41049742Y-81427925D01*
X41049743Y-81427926D01*
X41049743Y-81427927D01*
X41127479Y-81562571D01*
X41127483Y-81562576D01*
X41453226Y-81888319D01*
X41486711Y-81949642D01*
X41481727Y-82019334D01*
X41439855Y-82075267D01*
X41374391Y-82099684D01*
X41365545Y-82100000D01*
X33154000Y-82100000D01*
X33086961Y-82080315D01*
X33041206Y-82027511D01*
X33030000Y-81976000D01*
X33030000Y-44124000D01*
X33049685Y-44056961D01*
X33102489Y-44011206D01*
X33154000Y-44000000D01*
X90338925Y-44000000D01*
X90405964Y-44019685D01*
G37*
%TD.AperFunction*%
%TA.AperFunction,Conductor*%
G36*
X85988318Y-75504312D02*
G01*
X86044251Y-75546184D01*
X86068668Y-75611648D01*
X86054781Y-75675482D01*
X86055462Y-75675786D01*
X86054002Y-75679063D01*
X86053816Y-75679921D01*
X86052872Y-75681602D01*
X86052818Y-75681722D01*
X86000357Y-75843182D01*
X85994326Y-75861744D01*
X85974540Y-76050000D01*
X85994326Y-76238256D01*
X85994327Y-76238259D01*
X86052818Y-76418277D01*
X86052821Y-76418284D01*
X86147467Y-76582216D01*
X86212768Y-76654740D01*
X86274129Y-76722888D01*
X86427265Y-76834148D01*
X86427270Y-76834151D01*
X86498517Y-76865873D01*
X86551754Y-76911124D01*
X86572075Y-76977973D01*
X86553029Y-77045196D01*
X86546457Y-77054638D01*
X86475464Y-77147157D01*
X86414956Y-77293237D01*
X86414956Y-77293239D01*
X86399722Y-77408945D01*
X86371455Y-77472842D01*
X86364466Y-77480439D01*
X86282480Y-77562427D01*
X86282479Y-77562428D01*
X86204741Y-77697074D01*
X86204742Y-77697074D01*
X86204742Y-77697075D01*
X86204742Y-77697076D01*
X86164500Y-77847259D01*
X86164500Y-77847261D01*
X86164500Y-77930812D01*
X86144815Y-77997851D01*
X86092011Y-78043606D01*
X86070901Y-78050243D01*
X86071015Y-78050634D01*
X85907106Y-78098254D01*
X85907103Y-78098255D01*
X85765637Y-78181917D01*
X85765629Y-78181923D01*
X85649423Y-78298129D01*
X85649417Y-78298137D01*
X85565755Y-78439603D01*
X85565754Y-78439606D01*
X85519902Y-78597426D01*
X85519901Y-78597432D01*
X85517000Y-78634298D01*
X85517000Y-79065701D01*
X85519901Y-79102567D01*
X85519902Y-79102573D01*
X85565754Y-79260393D01*
X85565755Y-79260396D01*
X85565756Y-79260398D01*
X85574392Y-79275000D01*
X85649417Y-79401862D01*
X85649423Y-79401870D01*
X85765629Y-79518076D01*
X85765633Y-79518079D01*
X85765635Y-79518081D01*
X85907102Y-79601744D01*
X85948724Y-79613836D01*
X86064926Y-79647597D01*
X86064929Y-79647597D01*
X86064931Y-79647598D01*
X86101806Y-79650500D01*
X87268000Y-79650500D01*
X87335039Y-79670185D01*
X87380794Y-79722989D01*
X87392000Y-79774500D01*
X87392000Y-79826000D01*
X87372315Y-79893039D01*
X87319511Y-79938794D01*
X87268000Y-79950000D01*
X87005000Y-79950000D01*
X87005000Y-80500000D01*
X87660685Y-80500000D01*
X87723806Y-80517268D01*
X87782102Y-80551744D01*
X87799567Y-80556818D01*
X87939926Y-80597597D01*
X87939929Y-80597597D01*
X87939931Y-80597598D01*
X87976806Y-80600500D01*
X88544044Y-80600500D01*
X88611083Y-80620185D01*
X88631725Y-80636819D01*
X88657424Y-80662518D01*
X88792075Y-80740258D01*
X88807943Y-80744510D01*
X88823810Y-80748762D01*
X88823811Y-80748762D01*
X88848842Y-80755468D01*
X88942259Y-80780500D01*
X89601613Y-80780500D01*
X89668652Y-80800185D01*
X89677099Y-80806124D01*
X89727157Y-80844535D01*
X89727158Y-80844535D01*
X89727159Y-80844536D01*
X89873238Y-80905044D01*
X89931685Y-80912738D01*
X89995581Y-80941004D01*
X90034053Y-80999328D01*
X90039500Y-81035677D01*
X90039500Y-81127741D01*
X90048197Y-81160198D01*
X90065437Y-81224537D01*
X90065437Y-81224538D01*
X90079740Y-81277922D01*
X90079741Y-81277923D01*
X90157479Y-81412571D01*
X90157481Y-81412574D01*
X90157482Y-81412575D01*
X90517424Y-81772517D01*
X90517426Y-81772518D01*
X90517430Y-81772521D01*
X90548564Y-81790496D01*
X90548567Y-81790497D01*
X90548572Y-81790500D01*
X90652076Y-81850258D01*
X90674348Y-81856226D01*
X90734007Y-81892590D01*
X90764536Y-81955437D01*
X90756241Y-82024813D01*
X90711756Y-82078691D01*
X90645204Y-82099965D01*
X90642253Y-82100000D01*
X79589480Y-82100000D01*
X79522441Y-82080315D01*
X79476686Y-82027511D01*
X79466742Y-81958353D01*
X79495767Y-81894797D01*
X79501799Y-81888319D01*
X80390117Y-81000001D01*
X85520204Y-81000001D01*
X85520399Y-81002486D01*
X85566218Y-81160198D01*
X85649814Y-81301552D01*
X85649821Y-81301561D01*
X85765938Y-81417678D01*
X85765947Y-81417685D01*
X85907303Y-81501282D01*
X85907306Y-81501283D01*
X86065004Y-81547099D01*
X86065010Y-81547100D01*
X86101850Y-81549999D01*
X86101866Y-81550000D01*
X86505000Y-81550000D01*
X86505000Y-81000000D01*
X87005000Y-81000000D01*
X87005000Y-81550000D01*
X87408134Y-81550000D01*
X87408149Y-81549999D01*
X87444989Y-81547100D01*
X87444995Y-81547099D01*
X87602693Y-81501283D01*
X87602696Y-81501282D01*
X87744052Y-81417685D01*
X87744061Y-81417678D01*
X87860178Y-81301561D01*
X87860185Y-81301552D01*
X87943781Y-81160198D01*
X87989600Y-81002486D01*
X87989795Y-81000001D01*
X87989795Y-81000000D01*
X87005000Y-81000000D01*
X86505000Y-81000000D01*
X85520205Y-81000000D01*
X85520204Y-81000001D01*
X80390117Y-81000001D01*
X80890120Y-80499998D01*
X85520204Y-80499998D01*
X85520205Y-80500000D01*
X86505000Y-80500000D01*
X86505000Y-79950000D01*
X86101850Y-79950000D01*
X86065010Y-79952899D01*
X86065004Y-79952900D01*
X85907306Y-79998716D01*
X85907303Y-79998717D01*
X85765947Y-80082314D01*
X85765938Y-80082321D01*
X85649821Y-80198438D01*
X85649814Y-80198447D01*
X85566218Y-80339801D01*
X85520399Y-80497513D01*
X85520204Y-80499998D01*
X80890120Y-80499998D01*
X81057398Y-80332720D01*
X85857306Y-75532811D01*
X85918626Y-75499328D01*
X85988318Y-75504312D01*
G37*
%TD.AperFunction*%
%TA.AperFunction,Conductor*%
G36*
X98015581Y-44019685D02*
G01*
X98036338Y-44036434D01*
X116912663Y-62962434D01*
X116946068Y-63023801D01*
X116940992Y-63093486D01*
X116912663Y-63137566D01*
X98036338Y-82063566D01*
X97975059Y-82097131D01*
X97948542Y-82100000D01*
X96667747Y-82100000D01*
X96600708Y-82080315D01*
X96554953Y-82027511D01*
X96545009Y-81958353D01*
X96574034Y-81894797D01*
X96632812Y-81857023D01*
X96635607Y-81856237D01*
X96657924Y-81850258D01*
X96792575Y-81772517D01*
X96902517Y-81662575D01*
X96980258Y-81527924D01*
X97020500Y-81377741D01*
X97020500Y-79622259D01*
X96980258Y-79472076D01*
X96980258Y-79472075D01*
X96980258Y-79472074D01*
X96902520Y-79337428D01*
X96902516Y-79337423D01*
X96666818Y-79101725D01*
X96633333Y-79040402D01*
X96630499Y-79014044D01*
X96630499Y-78552129D01*
X96630498Y-78552123D01*
X96624091Y-78492516D01*
X96573797Y-78357671D01*
X96573793Y-78357664D01*
X96520256Y-78286148D01*
X96495838Y-78220684D01*
X96510689Y-78152411D01*
X96560094Y-78103005D01*
X96584927Y-78092760D01*
X96727698Y-78051281D01*
X96869052Y-77967685D01*
X96869061Y-77967678D01*
X96985178Y-77851561D01*
X96985185Y-77851552D01*
X97068781Y-77710198D01*
X97114600Y-77552486D01*
X97114795Y-77550001D01*
X97114795Y-77550000D01*
X95754000Y-77550000D01*
X95686961Y-77530315D01*
X95641206Y-77477511D01*
X95630000Y-77426000D01*
X95630000Y-77174000D01*
X95649685Y-77106961D01*
X95702489Y-77061206D01*
X95754000Y-77050000D01*
X96785685Y-77050000D01*
X96848806Y-77067268D01*
X96907102Y-77101744D01*
X96925059Y-77106961D01*
X97064926Y-77147597D01*
X97064929Y-77147597D01*
X97064931Y-77147598D01*
X97101806Y-77150500D01*
X97101814Y-77150500D01*
X98408186Y-77150500D01*
X98408194Y-77150500D01*
X98445069Y-77147598D01*
X98445071Y-77147597D01*
X98445073Y-77147597D01*
X98539424Y-77120185D01*
X98602898Y-77101744D01*
X98744365Y-77018081D01*
X98860581Y-76901865D01*
X98944244Y-76760398D01*
X98987156Y-76612696D01*
X98990097Y-76602573D01*
X98990098Y-76602567D01*
X98990650Y-76595552D01*
X98993000Y-76565694D01*
X98993000Y-76134306D01*
X98990098Y-76097431D01*
X98989151Y-76094173D01*
X98946250Y-75946506D01*
X98944244Y-75939602D01*
X98860581Y-75798135D01*
X98860579Y-75798133D01*
X98860576Y-75798129D01*
X98744370Y-75681923D01*
X98744362Y-75681917D01*
X98656820Y-75630145D01*
X98602898Y-75598256D01*
X98602897Y-75598255D01*
X98602896Y-75598255D01*
X98602893Y-75598254D01*
X98445073Y-75552402D01*
X98445067Y-75552401D01*
X98408201Y-75549500D01*
X98408194Y-75549500D01*
X97242000Y-75549500D01*
X97174961Y-75529815D01*
X97129206Y-75477011D01*
X97118000Y-75425500D01*
X97118000Y-75184313D01*
X97117999Y-75184298D01*
X97115098Y-75147432D01*
X97115097Y-75147426D01*
X97069245Y-74989606D01*
X97069244Y-74989603D01*
X97069244Y-74989602D01*
X96985581Y-74848135D01*
X96985578Y-74848132D01*
X96980798Y-74841969D01*
X96983083Y-74840196D01*
X96956143Y-74790858D01*
X96961127Y-74721166D01*
X97002999Y-74665233D01*
X97068463Y-74640816D01*
X97077309Y-74640500D01*
X99457739Y-74640500D01*
X99457741Y-74640500D01*
X99575118Y-74609048D01*
X99599924Y-74602402D01*
X99599925Y-74602401D01*
X99607925Y-74600258D01*
X99742575Y-74522518D01*
X100613148Y-73651943D01*
X100674469Y-73618460D01*
X100744160Y-73623444D01*
X100800094Y-73665315D01*
X100808214Y-73677626D01*
X100897465Y-73832214D01*
X101024129Y-73972888D01*
X101177265Y-74084148D01*
X101177270Y-74084151D01*
X101350192Y-74161142D01*
X101350197Y-74161144D01*
X101535354Y-74200500D01*
X101535355Y-74200500D01*
X101724644Y-74200500D01*
X101724646Y-74200500D01*
X101909803Y-74161144D01*
X102082730Y-74084151D01*
X102235871Y-73972888D01*
X102362533Y-73832216D01*
X102457179Y-73668284D01*
X102515674Y-73488256D01*
X102535460Y-73300000D01*
X102534950Y-73295148D01*
X102547516Y-73226419D01*
X102570583Y-73194508D01*
X102747518Y-73017575D01*
X102825258Y-72882924D01*
X102834636Y-72847924D01*
X102865500Y-72732741D01*
X102865500Y-69284759D01*
X102829220Y-69149361D01*
X102825258Y-69134575D01*
X102747518Y-68999924D01*
X100409775Y-66662181D01*
X100376290Y-66600858D01*
X100381274Y-66531166D01*
X100423146Y-66475233D01*
X100488610Y-66450816D01*
X100497456Y-66450500D01*
X100868097Y-66450500D01*
X100868102Y-66450500D01*
X100956564Y-66439877D01*
X100971100Y-66434144D01*
X101016588Y-66425500D01*
X101543309Y-66425500D01*
X101610348Y-66445185D01*
X101630990Y-66461819D01*
X103980584Y-68811413D01*
X104111814Y-68887179D01*
X104258183Y-68926398D01*
X104409716Y-68926398D01*
X104579319Y-68926398D01*
X104646358Y-68946083D01*
X104692113Y-68998887D01*
X104702057Y-69068045D01*
X104699094Y-69082490D01*
X104676855Y-69165489D01*
X104656259Y-69400897D01*
X104656259Y-69400898D01*
X104676854Y-69636301D01*
X104676856Y-69636311D01*
X104738012Y-69864553D01*
X104738014Y-69864557D01*
X104738015Y-69864561D01*
X104807933Y-70014500D01*
X104837883Y-70078728D01*
X104837885Y-70078732D01*
X104926585Y-70205407D01*
X104973423Y-70272299D01*
X105140517Y-70439393D01*
X105204878Y-70484459D01*
X105334083Y-70574930D01*
X105334085Y-70574931D01*
X105334088Y-70574933D01*
X105548255Y-70674801D01*
X105776510Y-70735961D01*
X105964836Y-70752437D01*
X106011917Y-70756557D01*
X106011918Y-70756557D01*
X106011919Y-70756557D01*
X106051152Y-70753124D01*
X106247326Y-70735961D01*
X106475581Y-70674801D01*
X106689748Y-70574933D01*
X106883319Y-70439393D01*
X107050413Y-70272299D01*
X107185953Y-70078728D01*
X107285821Y-69864561D01*
X107346981Y-69636306D01*
X107367577Y-69400898D01*
X107363810Y-69357849D01*
X107377576Y-69289352D01*
X107426190Y-69239169D01*
X107494218Y-69223234D01*
X107538850Y-69234249D01*
X107665509Y-69292093D01*
X107665510Y-69292093D01*
X107665512Y-69292094D01*
X107807969Y-69312575D01*
X107950426Y-69292094D01*
X108081342Y-69232306D01*
X108128025Y-69194687D01*
X109397807Y-67924903D01*
X109435428Y-67878220D01*
X109495216Y-67747304D01*
X109515697Y-67604847D01*
X109495216Y-67462390D01*
X109473658Y-67415186D01*
X109435429Y-67331476D01*
X109435428Y-67331475D01*
X109435428Y-67331474D01*
X109397809Y-67284791D01*
X109397804Y-67284786D01*
X109397800Y-67284781D01*
X108128028Y-66015012D01*
X108128022Y-66015007D01*
X108126730Y-66013965D01*
X108081342Y-65977387D01*
X107950428Y-65917600D01*
X107950424Y-65917599D01*
X107807969Y-65897119D01*
X107665513Y-65917599D01*
X107665509Y-65917600D01*
X107534598Y-65977386D01*
X107487908Y-66015011D01*
X107347641Y-66155278D01*
X107286318Y-66188762D01*
X107216626Y-66183778D01*
X107172279Y-66155277D01*
X107111336Y-66094334D01*
X107111334Y-66094332D01*
X107029765Y-66047238D01*
X106980105Y-66018566D01*
X106895195Y-65995815D01*
X106833735Y-65979347D01*
X106833734Y-65979347D01*
X106419742Y-65979347D01*
X106352703Y-65959662D01*
X106332061Y-65943028D01*
X105378520Y-64989487D01*
X105378518Y-64989485D01*
X105312903Y-64951602D01*
X105247289Y-64913719D01*
X105167455Y-64892328D01*
X105100919Y-64874500D01*
X105100918Y-64874500D01*
X102228935Y-64874500D01*
X102161896Y-64854815D01*
X102116141Y-64802011D01*
X102106197Y-64732853D01*
X102135222Y-64669297D01*
X102141254Y-64662819D01*
X106404172Y-60399901D01*
X106465495Y-60366416D01*
X106491853Y-60363582D01*
X107328340Y-60363582D01*
X107395379Y-60383267D01*
X107416021Y-60399901D01*
X107487663Y-60471543D01*
X107515924Y-60515252D01*
X107545556Y-60593386D01*
X107549781Y-60604525D01*
X107613120Y-60696288D01*
X107635003Y-60762643D01*
X107625631Y-60814180D01*
X107594957Y-60888234D01*
X107594955Y-60888239D01*
X107579500Y-61005638D01*
X107579500Y-61284363D01*
X107594953Y-61401753D01*
X107594957Y-61401765D01*
X107655461Y-61547836D01*
X107655464Y-61547842D01*
X107693875Y-61597899D01*
X107719070Y-61663068D01*
X107719500Y-61673386D01*
X107719500Y-61886612D01*
X107699815Y-61953651D01*
X107693877Y-61962097D01*
X107655464Y-62012158D01*
X107594956Y-62158237D01*
X107594956Y-62158238D01*
X107580293Y-62269614D01*
X107552026Y-62333510D01*
X107493702Y-62371981D01*
X107427680Y-62373825D01*
X107328986Y-62349500D01*
X107328985Y-62349500D01*
X107171015Y-62349500D01*
X107171014Y-62349500D01*
X107017634Y-62387303D01*
X106877762Y-62460715D01*
X106877760Y-62460717D01*
X106765254Y-62560388D01*
X106759516Y-62565471D01*
X106669781Y-62695475D01*
X106669780Y-62695476D01*
X106613762Y-62843181D01*
X106594722Y-62999999D01*
X106594722Y-63000000D01*
X106613762Y-63156818D01*
X106662600Y-63285592D01*
X106669780Y-63304523D01*
X106759517Y-63434530D01*
X106877760Y-63539283D01*
X106878383Y-63539610D01*
X107017634Y-63612696D01*
X107171014Y-63650500D01*
X107171015Y-63650500D01*
X107328985Y-63650500D01*
X107482365Y-63612696D01*
X107497592Y-63604703D01*
X107555219Y-63590500D01*
X108642738Y-63590500D01*
X108642740Y-63590500D01*
X108774293Y-63555250D01*
X108792924Y-63550258D01*
X108927574Y-63472518D01*
X109327358Y-63072732D01*
X109367586Y-63045854D01*
X109382841Y-63039536D01*
X109508282Y-62943282D01*
X109508284Y-62943278D01*
X109508950Y-62942768D01*
X109574119Y-62917573D01*
X109642564Y-62931611D01*
X109692554Y-62980424D01*
X109707726Y-63027887D01*
X109708678Y-63036741D01*
X109708679Y-63063250D01*
X109704500Y-63102122D01*
X109704500Y-63497869D01*
X109704501Y-63497878D01*
X109708679Y-63536745D01*
X109708679Y-63563250D01*
X109704500Y-63602122D01*
X109704500Y-63997870D01*
X109704501Y-63997876D01*
X109710908Y-64057483D01*
X109761202Y-64192328D01*
X109761206Y-64192335D01*
X109847452Y-64307544D01*
X109847455Y-64307547D01*
X109962664Y-64393793D01*
X109962671Y-64393797D01*
X109997033Y-64406613D01*
X110097517Y-64444091D01*
X110157127Y-64450500D01*
X110280500Y-64450499D01*
X110347539Y-64470183D01*
X110393294Y-64522987D01*
X110404500Y-64574498D01*
X110404500Y-64697869D01*
X110404501Y-64697876D01*
X110410908Y-64757483D01*
X110461202Y-64892328D01*
X110461206Y-64892335D01*
X110547452Y-65007544D01*
X110547455Y-65007547D01*
X110662664Y-65093793D01*
X110662671Y-65093797D01*
X110697427Y-65106760D01*
X110797517Y-65144091D01*
X110857127Y-65150500D01*
X111252872Y-65150499D01*
X111252873Y-65150498D01*
X111252885Y-65150498D01*
X111291744Y-65146320D01*
X111318252Y-65146320D01*
X111357127Y-65150500D01*
X111752872Y-65150499D01*
X111752873Y-65150498D01*
X111752885Y-65150498D01*
X111791744Y-65146320D01*
X111818252Y-65146320D01*
X111857127Y-65150500D01*
X112252872Y-65150499D01*
X112252873Y-65150498D01*
X112252885Y-65150498D01*
X112291744Y-65146320D01*
X112318252Y-65146320D01*
X112357127Y-65150500D01*
X112752872Y-65150499D01*
X112812483Y-65144091D01*
X112947331Y-65093796D01*
X113062546Y-65007546D01*
X113148796Y-64892331D01*
X113199091Y-64757483D01*
X113205500Y-64697873D01*
X113205500Y-64574000D01*
X113225185Y-64506961D01*
X113277989Y-64461206D01*
X113329500Y-64450000D01*
X113452828Y-64450000D01*
X113452844Y-64449999D01*
X113512372Y-64443598D01*
X113512379Y-64443596D01*
X113647086Y-64393354D01*
X113647093Y-64393350D01*
X113762187Y-64307190D01*
X113762190Y-64307187D01*
X113848350Y-64192093D01*
X113848355Y-64192084D01*
X113870303Y-64133239D01*
X113912174Y-64077305D01*
X113977638Y-64052887D01*
X114033938Y-64062010D01*
X114088369Y-64084556D01*
X114088372Y-64084557D01*
X114144998Y-64092011D01*
X114145000Y-64092010D01*
X114145000Y-63696455D01*
X114164685Y-63629416D01*
X114181319Y-63608774D01*
X114182518Y-63607575D01*
X114231636Y-63522498D01*
X114282202Y-63474284D01*
X114339023Y-63460499D01*
X114421000Y-63460499D01*
X114488039Y-63480184D01*
X114533794Y-63532988D01*
X114545000Y-63584499D01*
X114545000Y-64092010D01*
X114545001Y-64092011D01*
X114601627Y-64084557D01*
X114601633Y-64084555D01*
X114747585Y-64024100D01*
X114872924Y-63927924D01*
X114969100Y-63802586D01*
X115029554Y-63656634D01*
X115029555Y-63656630D01*
X115040961Y-63570000D01*
X114871432Y-63570000D01*
X114804393Y-63550315D01*
X114758638Y-63497511D01*
X114748694Y-63428353D01*
X114777719Y-63364797D01*
X114795941Y-63347627D01*
X114873282Y-63288282D01*
X114926818Y-63218512D01*
X114983245Y-63177311D01*
X115025193Y-63170000D01*
X115040959Y-63170000D01*
X115040960Y-63169998D01*
X115029557Y-63083375D01*
X115029478Y-63083078D01*
X115029477Y-63082769D01*
X115028496Y-63075310D01*
X115029477Y-63075180D01*
X115029477Y-63024885D01*
X115028983Y-63024820D01*
X115029477Y-63021067D01*
X115029477Y-63018875D01*
X115030040Y-63016771D01*
X115030044Y-63016762D01*
X115045500Y-62899361D01*
X115045499Y-62560640D01*
X115045499Y-62560636D01*
X115030046Y-62443246D01*
X115030044Y-62443241D01*
X115030044Y-62443238D01*
X114969536Y-62297159D01*
X114873282Y-62171718D01*
X114747841Y-62075464D01*
X114650671Y-62035215D01*
X114601762Y-62014956D01*
X114601760Y-62014955D01*
X114484361Y-61999500D01*
X114205636Y-61999500D01*
X114088246Y-62014953D01*
X114088234Y-62014957D01*
X114034224Y-62037329D01*
X113964755Y-62044798D01*
X113902276Y-62013523D01*
X113870590Y-61966101D01*
X113848797Y-61907671D01*
X113848793Y-61907664D01*
X113762547Y-61792455D01*
X113762544Y-61792452D01*
X113647335Y-61706206D01*
X113647328Y-61706202D01*
X113512482Y-61655908D01*
X113512483Y-61655908D01*
X113452883Y-61649501D01*
X113452881Y-61649500D01*
X113452873Y-61649500D01*
X113452865Y-61649500D01*
X113329499Y-61649500D01*
X113262460Y-61629815D01*
X113216705Y-61577011D01*
X113205499Y-61525500D01*
X113205499Y-61402129D01*
X113205498Y-61402123D01*
X113205459Y-61401762D01*
X113199091Y-61342517D01*
X113199091Y-61342516D01*
X113153318Y-61219792D01*
X113145500Y-61176459D01*
X113145500Y-61122261D01*
X113145500Y-61122259D01*
X113105258Y-60972076D01*
X113076497Y-60922260D01*
X113027518Y-60837425D01*
X112314588Y-60124495D01*
X112314586Y-60124492D01*
X111951774Y-59761681D01*
X111592575Y-59402482D01*
X111592574Y-59402481D01*
X111592571Y-59402479D01*
X111457923Y-59324741D01*
X111457923Y-59324740D01*
X111423676Y-59315565D01*
X111423676Y-59315564D01*
X111423671Y-59315564D01*
X111423667Y-59315563D01*
X111417920Y-59314022D01*
X111369143Y-59300952D01*
X111325753Y-59279554D01*
X111287842Y-59250464D01*
X111141762Y-59189956D01*
X111141760Y-59189955D01*
X111024361Y-59174500D01*
X110685637Y-59174500D01*
X110568236Y-59189955D01*
X110566111Y-59190525D01*
X110563910Y-59190525D01*
X110560181Y-59191016D01*
X110560116Y-59190525D01*
X110509815Y-59190525D01*
X110509687Y-59191505D01*
X110502251Y-59190525D01*
X110501937Y-59190526D01*
X110501633Y-59190444D01*
X110415000Y-59179038D01*
X110415000Y-59194807D01*
X110395315Y-59261846D01*
X110366488Y-59293181D01*
X110296718Y-59346718D01*
X110237374Y-59424056D01*
X110180948Y-59465257D01*
X110111202Y-59469412D01*
X110050281Y-59435199D01*
X110017529Y-59373482D01*
X110015000Y-59348568D01*
X110015000Y-59179038D01*
X109928369Y-59190444D01*
X109928365Y-59190445D01*
X109782412Y-59250900D01*
X109782411Y-59250900D01*
X109774985Y-59256599D01*
X109709815Y-59281792D01*
X109641371Y-59267753D01*
X109591382Y-59218938D01*
X109575500Y-59158222D01*
X109575500Y-57791139D01*
X109575500Y-57791138D01*
X109569808Y-57769896D01*
X109536281Y-57644769D01*
X109460515Y-57513539D01*
X106451410Y-54504434D01*
X106346859Y-54444071D01*
X106320181Y-54428668D01*
X106246995Y-54409058D01*
X106173811Y-54389449D01*
X104436817Y-54389449D01*
X104285284Y-54389449D01*
X104203966Y-54411237D01*
X104203966Y-54411238D01*
X104138916Y-54428668D01*
X104138914Y-54428668D01*
X104138914Y-54428669D01*
X104007686Y-54504434D01*
X104007683Y-54504436D01*
X102776180Y-55735938D01*
X102714857Y-55769423D01*
X102645165Y-55764439D01*
X102589232Y-55722567D01*
X102564815Y-55657103D01*
X102564499Y-55648283D01*
X102564499Y-55326640D01*
X102564499Y-55326636D01*
X102549045Y-55209244D01*
X102549044Y-55209242D01*
X102549044Y-55209238D01*
X102549042Y-55209233D01*
X102548738Y-55208096D01*
X102548737Y-55206906D01*
X102547984Y-55201179D01*
X102548737Y-55201079D01*
X102548737Y-55150919D01*
X102547983Y-55150820D01*
X102548737Y-55145092D01*
X102548737Y-55143905D01*
X102549040Y-55142771D01*
X102549044Y-55142762D01*
X102564500Y-55025361D01*
X102564499Y-54861924D01*
X102568726Y-54829825D01*
X102572500Y-54815742D01*
X102572500Y-51574261D01*
X102572500Y-51574259D01*
X102532258Y-51424076D01*
X102529288Y-51418933D01*
X102529285Y-51418920D01*
X102529282Y-51418922D01*
X102454518Y-51289425D01*
X102227033Y-51061940D01*
X102193548Y-51000617D01*
X102191096Y-50964529D01*
X102192499Y-50946701D01*
X102192500Y-50946694D01*
X102192500Y-50515306D01*
X102189598Y-50478431D01*
X102143744Y-50320602D01*
X102060081Y-50179135D01*
X102060078Y-50179132D01*
X102055298Y-50172969D01*
X102057750Y-50171066D01*
X102031155Y-50122421D01*
X102036104Y-50052726D01*
X102056940Y-50020304D01*
X102055298Y-50019031D01*
X102060075Y-50012870D01*
X102060081Y-50012865D01*
X102143744Y-49871398D01*
X102189598Y-49713569D01*
X102192500Y-49676694D01*
X102192500Y-49245306D01*
X102189598Y-49208431D01*
X102185834Y-49195477D01*
X102148064Y-49065471D01*
X102143744Y-49050602D01*
X102060081Y-48909135D01*
X102060079Y-48909133D01*
X102060076Y-48909129D01*
X101943870Y-48792923D01*
X101943862Y-48792917D01*
X101832726Y-48727192D01*
X101802398Y-48709256D01*
X101802397Y-48709255D01*
X101802396Y-48709255D01*
X101802393Y-48709254D01*
X101644573Y-48663402D01*
X101644567Y-48663401D01*
X101607701Y-48660500D01*
X101607694Y-48660500D01*
X100977955Y-48660500D01*
X100910916Y-48640815D01*
X100890274Y-48624181D01*
X98773576Y-46507483D01*
X98773571Y-46507479D01*
X98638928Y-46429743D01*
X98638925Y-46429742D01*
X98607188Y-46421237D01*
X98546589Y-46405000D01*
X98488741Y-46389500D01*
X98488740Y-46389500D01*
X98094500Y-46389500D01*
X98027461Y-46369815D01*
X97981706Y-46317011D01*
X97970500Y-46265500D01*
X97970500Y-45871261D01*
X97970500Y-45871259D01*
X97930258Y-45721076D01*
X97930258Y-45721075D01*
X97930258Y-45721074D01*
X97852520Y-45586428D01*
X97852516Y-45586423D01*
X96548576Y-44282483D01*
X96548571Y-44282479D01*
X96460077Y-44231387D01*
X96411861Y-44180820D01*
X96398639Y-44112213D01*
X96424607Y-44047348D01*
X96481521Y-44006820D01*
X96522077Y-44000000D01*
X97948542Y-44000000D01*
X98015581Y-44019685D01*
G37*
%TD.AperFunction*%
%TA.AperFunction,Conductor*%
G36*
X73937693Y-76272729D02*
G01*
X73995741Y-76311615D01*
X74023551Y-76375712D01*
X74024500Y-76391020D01*
X74024500Y-76416732D01*
X74053197Y-76597918D01*
X74053198Y-76597922D01*
X74109889Y-76772397D01*
X74180584Y-76911144D01*
X74193177Y-76935858D01*
X74301000Y-77084265D01*
X74301004Y-77084270D01*
X74430729Y-77213995D01*
X74430734Y-77213999D01*
X74579143Y-77321824D01*
X74579145Y-77321825D01*
X74640796Y-77353238D01*
X74651956Y-77358924D01*
X74702753Y-77406898D01*
X74719548Y-77474719D01*
X74697011Y-77540854D01*
X74683344Y-77557090D01*
X74617279Y-77623155D01*
X74510521Y-77782929D01*
X74510520Y-77782931D01*
X74436989Y-77960452D01*
X74436986Y-77960464D01*
X74399500Y-78148917D01*
X74399500Y-79671082D01*
X74436986Y-79859535D01*
X74436989Y-79859547D01*
X74510520Y-80037068D01*
X74510521Y-80037070D01*
X74617279Y-80196844D01*
X74617282Y-80196848D01*
X74757462Y-80337028D01*
X74755661Y-80338828D01*
X74788741Y-80387383D01*
X74790617Y-80457227D01*
X74754435Y-80516998D01*
X74691682Y-80547720D01*
X74670745Y-80549500D01*
X67984452Y-80549500D01*
X67917413Y-80529815D01*
X67871658Y-80477011D01*
X67861714Y-80407853D01*
X67890739Y-80344297D01*
X67896771Y-80337819D01*
X69742074Y-78492516D01*
X71625649Y-76608940D01*
X71686970Y-76575457D01*
X71687367Y-76575371D01*
X71856499Y-76539422D01*
X71897103Y-76521344D01*
X71949564Y-76497987D01*
X72018814Y-76488702D01*
X72050436Y-76497987D01*
X72143496Y-76539420D01*
X72143501Y-76539422D01*
X72313236Y-76575500D01*
X72313237Y-76575500D01*
X72486762Y-76575500D01*
X72486764Y-76575500D01*
X72656499Y-76539422D01*
X72697103Y-76521344D01*
X72749564Y-76497987D01*
X72818814Y-76488702D01*
X72850436Y-76497987D01*
X72943496Y-76539420D01*
X72943501Y-76539422D01*
X73113236Y-76575500D01*
X73113237Y-76575500D01*
X73286762Y-76575500D01*
X73286764Y-76575500D01*
X73456499Y-76539422D01*
X73456501Y-76539420D01*
X73456504Y-76539420D01*
X73549563Y-76497987D01*
X73615024Y-76468842D01*
X73755410Y-76366845D01*
X73808351Y-76308047D01*
X73867836Y-76271400D01*
X73937693Y-76272729D01*
G37*
%TD.AperFunction*%
%TA.AperFunction,Conductor*%
G36*
X78308039Y-67239685D02*
G01*
X78353794Y-67292489D01*
X78365000Y-67344000D01*
X78365000Y-68970000D01*
X78912828Y-68970000D01*
X78912844Y-68969999D01*
X78972372Y-68963598D01*
X78972379Y-68963596D01*
X79107086Y-68913354D01*
X79107089Y-68913352D01*
X79190271Y-68851082D01*
X79255735Y-68826664D01*
X79324008Y-68841515D01*
X79338887Y-68851077D01*
X79422668Y-68913795D01*
X79422671Y-68913797D01*
X79557517Y-68964091D01*
X79557516Y-68964091D01*
X79564444Y-68964835D01*
X79617127Y-68970500D01*
X81212872Y-68970499D01*
X81272483Y-68964091D01*
X81407331Y-68913796D01*
X81522546Y-68827546D01*
X81608796Y-68712331D01*
X81659091Y-68577483D01*
X81665045Y-68522099D01*
X81691782Y-68457552D01*
X81749174Y-68417704D01*
X81819000Y-68415210D01*
X81879089Y-68450862D01*
X81902895Y-68487905D01*
X81935900Y-68567587D01*
X82032075Y-68692924D01*
X82157414Y-68789100D01*
X82303366Y-68849555D01*
X82303372Y-68849557D01*
X82359998Y-68857011D01*
X82360000Y-68857010D01*
X82360000Y-68349499D01*
X82379685Y-68282460D01*
X82432489Y-68236705D01*
X82483996Y-68225499D01*
X82636000Y-68225499D01*
X82703039Y-68245184D01*
X82748794Y-68297988D01*
X82760000Y-68349499D01*
X82760000Y-68857010D01*
X82760001Y-68857011D01*
X82816627Y-68849557D01*
X82816633Y-68849555D01*
X82962586Y-68789100D01*
X83018573Y-68746140D01*
X83083742Y-68720946D01*
X83152187Y-68734984D01*
X83181741Y-68756835D01*
X83544465Y-69119559D01*
X83577950Y-69180882D01*
X83579723Y-69191056D01*
X83594954Y-69306753D01*
X83594956Y-69306762D01*
X83655464Y-69452841D01*
X83751718Y-69578282D01*
X83877159Y-69674536D01*
X84023238Y-69735044D01*
X84140639Y-69750500D01*
X84235500Y-69750499D01*
X84302538Y-69770183D01*
X84348294Y-69822986D01*
X84359500Y-69874499D01*
X84359500Y-72697741D01*
X84383238Y-72786330D01*
X84399661Y-72847624D01*
X84399743Y-72847927D01*
X84477479Y-72982571D01*
X84477483Y-72982576D01*
X84689410Y-73194503D01*
X84722895Y-73255826D01*
X84725050Y-73295139D01*
X84724540Y-73299993D01*
X84724540Y-73299997D01*
X84724540Y-73300000D01*
X84744326Y-73488256D01*
X84744327Y-73488259D01*
X84802818Y-73668277D01*
X84802821Y-73668284D01*
X84839649Y-73732073D01*
X84856122Y-73799971D01*
X84833270Y-73865998D01*
X84819943Y-73881752D01*
X78188517Y-80513181D01*
X78127194Y-80546666D01*
X78100836Y-80549500D01*
X76079255Y-80549500D01*
X76012216Y-80529815D01*
X75966461Y-80477011D01*
X75956517Y-80407853D01*
X75985542Y-80344297D01*
X75992770Y-80337260D01*
X75992538Y-80337028D01*
X76132717Y-80196848D01*
X76132720Y-80196845D01*
X76239477Y-80037073D01*
X76313012Y-79859543D01*
X76350500Y-79671078D01*
X76350500Y-78148922D01*
X76350500Y-78148919D01*
X76350499Y-78148917D01*
X76348866Y-78140705D01*
X76313012Y-77960457D01*
X76290767Y-77906753D01*
X76239479Y-77782931D01*
X76239478Y-77782929D01*
X76228065Y-77765849D01*
X76132720Y-77623155D01*
X76132717Y-77623151D01*
X75996848Y-77487282D01*
X75996844Y-77487279D01*
X75924051Y-77438640D01*
X75879246Y-77385028D01*
X75870539Y-77315703D01*
X75900694Y-77252675D01*
X75920056Y-77235220D01*
X75949272Y-77213994D01*
X76078994Y-77084272D01*
X76186825Y-76935855D01*
X76270111Y-76772397D01*
X76326802Y-76597922D01*
X76340335Y-76512479D01*
X76355500Y-76416732D01*
X76355500Y-75583267D01*
X76330751Y-75427011D01*
X76326802Y-75402078D01*
X76270111Y-75227603D01*
X76186825Y-75064145D01*
X76154025Y-75018999D01*
X76078999Y-74915734D01*
X76078995Y-74915729D01*
X76050534Y-74887268D01*
X76017049Y-74825945D01*
X76022033Y-74756253D01*
X76023639Y-74752169D01*
X76033012Y-74729543D01*
X76070500Y-74541078D01*
X76070500Y-73498922D01*
X76070500Y-73498919D01*
X76070499Y-73498917D01*
X76057132Y-73431715D01*
X76033012Y-73310457D01*
X76025590Y-73292539D01*
X75959479Y-73132931D01*
X75959478Y-73132929D01*
X75955591Y-73127112D01*
X75852720Y-72973155D01*
X75852717Y-72973151D01*
X75716848Y-72837282D01*
X75716844Y-72837279D01*
X75557070Y-72730521D01*
X75557068Y-72730520D01*
X75379547Y-72656989D01*
X75379535Y-72656986D01*
X75191081Y-72619500D01*
X75191078Y-72619500D01*
X75085413Y-72619500D01*
X75018374Y-72599815D01*
X74972619Y-72547011D01*
X74969233Y-72538838D01*
X74968799Y-72537674D01*
X74968793Y-72537664D01*
X74882547Y-72422455D01*
X74882544Y-72422452D01*
X74767335Y-72336206D01*
X74767328Y-72336202D01*
X74632482Y-72285908D01*
X74632483Y-72285908D01*
X74572883Y-72279501D01*
X74572881Y-72279500D01*
X74572873Y-72279500D01*
X74572864Y-72279500D01*
X73777129Y-72279500D01*
X73777123Y-72279501D01*
X73717516Y-72285908D01*
X73582671Y-72336202D01*
X73582664Y-72336206D01*
X73467455Y-72422452D01*
X73467452Y-72422455D01*
X73381206Y-72537664D01*
X73381202Y-72537671D01*
X73330908Y-72672517D01*
X73324501Y-72732116D01*
X73324500Y-72732135D01*
X73324500Y-72765500D01*
X73304815Y-72832539D01*
X73252011Y-72878294D01*
X73200500Y-72889500D01*
X72852131Y-72889500D01*
X72852119Y-72889501D01*
X72813253Y-72893679D01*
X72786747Y-72893678D01*
X72751245Y-72889861D01*
X72686693Y-72863123D01*
X72646845Y-72805731D01*
X72640500Y-72766572D01*
X72640500Y-72472261D01*
X72640500Y-72472259D01*
X72600258Y-72322076D01*
X72551639Y-72237865D01*
X72522517Y-72187424D01*
X72295713Y-71960620D01*
X72262228Y-71899297D01*
X72267212Y-71829605D01*
X72309084Y-71773672D01*
X72374548Y-71749255D01*
X72395994Y-71749580D01*
X72404991Y-71750500D01*
X73130008Y-71750499D01*
X73130016Y-71750498D01*
X73130019Y-71750498D01*
X73186302Y-71744748D01*
X73232797Y-71739999D01*
X73399334Y-71684814D01*
X73548656Y-71592712D01*
X73672712Y-71468656D01*
X73764814Y-71319334D01*
X73819999Y-71152797D01*
X73830500Y-71050009D01*
X73830499Y-70551496D01*
X73850183Y-70484459D01*
X73902987Y-70438704D01*
X73972146Y-70428760D01*
X74035702Y-70457785D01*
X74042180Y-70463817D01*
X74123181Y-70544818D01*
X74156666Y-70606141D01*
X74159500Y-70632498D01*
X74159500Y-70774362D01*
X74174954Y-70891756D01*
X74175525Y-70893886D01*
X74175525Y-70896091D01*
X74176016Y-70899821D01*
X74175525Y-70899885D01*
X74175526Y-70950184D01*
X74176505Y-70950313D01*
X74175526Y-70957741D01*
X74175527Y-70958060D01*
X74175444Y-70958367D01*
X74164038Y-71045000D01*
X74179807Y-71045000D01*
X74246846Y-71064685D01*
X74278181Y-71093511D01*
X74331718Y-71163282D01*
X74409056Y-71222625D01*
X74450257Y-71279052D01*
X74454412Y-71348798D01*
X74420199Y-71409719D01*
X74358482Y-71442471D01*
X74333568Y-71445000D01*
X74164041Y-71445000D01*
X74164039Y-71445001D01*
X74175442Y-71531627D01*
X74175444Y-71531633D01*
X74235899Y-71677585D01*
X74332075Y-71802924D01*
X74457414Y-71899100D01*
X74603366Y-71959555D01*
X74603372Y-71959557D01*
X74659998Y-71967011D01*
X74660000Y-71967010D01*
X74660000Y-71459499D01*
X74679685Y-71392460D01*
X74732489Y-71346705D01*
X74783996Y-71335499D01*
X74936000Y-71335499D01*
X75003039Y-71355184D01*
X75048794Y-71407988D01*
X75060000Y-71459499D01*
X75060000Y-71967010D01*
X75060001Y-71967011D01*
X75116627Y-71959557D01*
X75116633Y-71959555D01*
X75262585Y-71899100D01*
X75387929Y-71802920D01*
X75393672Y-71797178D01*
X75395501Y-71799007D01*
X75441522Y-71765391D01*
X75511267Y-71761224D01*
X75572193Y-71795426D01*
X75581867Y-71806588D01*
X75602074Y-71832923D01*
X75727414Y-71929100D01*
X75873366Y-71989555D01*
X75873372Y-71989557D01*
X75929998Y-71997011D01*
X75930000Y-71997010D01*
X75930000Y-71489499D01*
X75949685Y-71422460D01*
X76002489Y-71376705D01*
X76053996Y-71365499D01*
X76206000Y-71365499D01*
X76273039Y-71385184D01*
X76318794Y-71437988D01*
X76330000Y-71489499D01*
X76330000Y-71997010D01*
X76330001Y-71997011D01*
X76386627Y-71989557D01*
X76386633Y-71989555D01*
X76532585Y-71929100D01*
X76657924Y-71832924D01*
X76754162Y-71707506D01*
X76810590Y-71666304D01*
X76880336Y-71662149D01*
X76940219Y-71695312D01*
X78939410Y-73694503D01*
X78972895Y-73755826D01*
X78975050Y-73795139D01*
X78974540Y-73799993D01*
X78974540Y-73799997D01*
X78974540Y-73800000D01*
X78994326Y-73988256D01*
X78994327Y-73988259D01*
X79052818Y-74168277D01*
X79052821Y-74168284D01*
X79147467Y-74332216D01*
X79251311Y-74447546D01*
X79274129Y-74472888D01*
X79427265Y-74584148D01*
X79427270Y-74584151D01*
X79600192Y-74661142D01*
X79600197Y-74661144D01*
X79785354Y-74700500D01*
X79785355Y-74700500D01*
X79974644Y-74700500D01*
X79974646Y-74700500D01*
X80159803Y-74661144D01*
X80332730Y-74584151D01*
X80485871Y-74472888D01*
X80612533Y-74332216D01*
X80707179Y-74168284D01*
X80765674Y-73988256D01*
X80785460Y-73800000D01*
X80765674Y-73611744D01*
X80707179Y-73431716D01*
X80612533Y-73267784D01*
X80485871Y-73127112D01*
X80462232Y-73109937D01*
X80332734Y-73015851D01*
X80332729Y-73015848D01*
X80159807Y-72938857D01*
X80159802Y-72938855D01*
X80014001Y-72907865D01*
X79974646Y-72899500D01*
X79974645Y-72899500D01*
X79865955Y-72899500D01*
X79798916Y-72879815D01*
X79778274Y-72863181D01*
X76756819Y-69841726D01*
X76723334Y-69780403D01*
X76720500Y-69754045D01*
X76720500Y-69032276D01*
X76740185Y-68965237D01*
X76792989Y-68919482D01*
X76801151Y-68916100D01*
X76807331Y-68913796D01*
X76891105Y-68851082D01*
X76956569Y-68826665D01*
X77024842Y-68841516D01*
X77039727Y-68851082D01*
X77122910Y-68913352D01*
X77122913Y-68913354D01*
X77257620Y-68963596D01*
X77257627Y-68963598D01*
X77317155Y-68969999D01*
X77317172Y-68970000D01*
X77865000Y-68970000D01*
X77865000Y-67344000D01*
X77884685Y-67276961D01*
X77937489Y-67231206D01*
X77989000Y-67220000D01*
X78241000Y-67220000D01*
X78308039Y-67239685D01*
G37*
%TD.AperFunction*%
%TA.AperFunction,Conductor*%
G36*
X67780703Y-76297307D02*
G01*
X67791643Y-76308041D01*
X67844590Y-76366845D01*
X67963034Y-76452900D01*
X67984976Y-76468842D01*
X68143495Y-76539420D01*
X68143501Y-76539422D01*
X68313236Y-76575500D01*
X68313237Y-76575500D01*
X68486762Y-76575500D01*
X68486764Y-76575500D01*
X68656499Y-76539422D01*
X68697103Y-76521344D01*
X68749564Y-76497987D01*
X68818814Y-76488702D01*
X68850436Y-76497987D01*
X68943496Y-76539420D01*
X68943501Y-76539422D01*
X69113236Y-76575500D01*
X69113237Y-76575500D01*
X69286762Y-76575500D01*
X69286764Y-76575500D01*
X69456499Y-76539422D01*
X69497103Y-76521344D01*
X69549564Y-76497987D01*
X69618814Y-76488702D01*
X69650436Y-76497987D01*
X69704946Y-76522257D01*
X69758183Y-76567507D01*
X69778504Y-76634357D01*
X69759458Y-76701580D01*
X69742191Y-76723217D01*
X67412181Y-79053228D01*
X67350858Y-79086713D01*
X67281166Y-79081729D01*
X67225233Y-79039857D01*
X67200816Y-78974393D01*
X67200500Y-78965547D01*
X67200500Y-78148919D01*
X67200499Y-78148917D01*
X67198866Y-78140705D01*
X67163012Y-77960457D01*
X67140767Y-77906753D01*
X67089479Y-77782931D01*
X67089478Y-77782929D01*
X67078065Y-77765849D01*
X66982720Y-77623155D01*
X66982717Y-77623151D01*
X66916656Y-77557090D01*
X66883171Y-77495767D01*
X66888155Y-77426075D01*
X66930027Y-77370142D01*
X66948038Y-77358927D01*
X67020855Y-77321825D01*
X67169272Y-77213994D01*
X67298994Y-77084272D01*
X67406825Y-76935855D01*
X67490111Y-76772397D01*
X67546802Y-76597922D01*
X67560335Y-76512479D01*
X67575500Y-76416732D01*
X67575500Y-76391020D01*
X67595185Y-76323981D01*
X67647989Y-76278226D01*
X67717147Y-76268282D01*
X67780703Y-76297307D01*
G37*
%TD.AperFunction*%
%TA.AperFunction,Conductor*%
G36*
X93029398Y-68463232D02*
G01*
X93068288Y-68486596D01*
X93127760Y-68539283D01*
X93187892Y-68570843D01*
X93238103Y-68619425D01*
X93254078Y-68687444D01*
X93230744Y-68753302D01*
X93217946Y-68768319D01*
X89572483Y-72413783D01*
X89572479Y-72413788D01*
X89494741Y-72548434D01*
X89494742Y-72548434D01*
X89494742Y-72548435D01*
X89494742Y-72548436D01*
X89454500Y-72698619D01*
X89454500Y-72698621D01*
X89454500Y-73225500D01*
X89434815Y-73292539D01*
X89382011Y-73338294D01*
X89330501Y-73349500D01*
X89235637Y-73349500D01*
X89118246Y-73364953D01*
X89118237Y-73364956D01*
X88972160Y-73425463D01*
X88846718Y-73521718D01*
X88750463Y-73647160D01*
X88689956Y-73793237D01*
X88689955Y-73793239D01*
X88680377Y-73865998D01*
X88674501Y-73910636D01*
X88674500Y-73910645D01*
X88674500Y-74068612D01*
X88670275Y-74100705D01*
X88664500Y-74122256D01*
X88664500Y-74430812D01*
X88644815Y-74497851D01*
X88592011Y-74543606D01*
X88570901Y-74550243D01*
X88571015Y-74550634D01*
X88407106Y-74598254D01*
X88407103Y-74598255D01*
X88265637Y-74681917D01*
X88265629Y-74681923D01*
X88149423Y-74798129D01*
X88149417Y-74798137D01*
X88065755Y-74939603D01*
X88065754Y-74939606D01*
X88019902Y-75097426D01*
X88019901Y-75097432D01*
X88017000Y-75134298D01*
X88017000Y-75565701D01*
X88019901Y-75602567D01*
X88019902Y-75602573D01*
X88065754Y-75760393D01*
X88065755Y-75760396D01*
X88149417Y-75901862D01*
X88149423Y-75901870D01*
X88265629Y-76018076D01*
X88265633Y-76018079D01*
X88265635Y-76018081D01*
X88407102Y-76101744D01*
X88447900Y-76113597D01*
X88564926Y-76147597D01*
X88564929Y-76147597D01*
X88564931Y-76147598D01*
X88601806Y-76150500D01*
X89768000Y-76150500D01*
X89835039Y-76170185D01*
X89880794Y-76222989D01*
X89892000Y-76274500D01*
X89892000Y-76326000D01*
X89872315Y-76393039D01*
X89819511Y-76438794D01*
X89768000Y-76450000D01*
X89505000Y-76450000D01*
X89505000Y-77000000D01*
X90160685Y-77000000D01*
X90223806Y-77017268D01*
X90282102Y-77051744D01*
X90314670Y-77061206D01*
X90439926Y-77097597D01*
X90439929Y-77097597D01*
X90439931Y-77097598D01*
X90476806Y-77100500D01*
X91044044Y-77100500D01*
X91111083Y-77120185D01*
X91131725Y-77136819D01*
X91447424Y-77452518D01*
X91582075Y-77530258D01*
X91597943Y-77534510D01*
X91613810Y-77538762D01*
X91613811Y-77538762D01*
X91621619Y-77540854D01*
X91732259Y-77570500D01*
X92055501Y-77570500D01*
X92122540Y-77590185D01*
X92168295Y-77642989D01*
X92179501Y-77694500D01*
X92179501Y-77789363D01*
X92194953Y-77906753D01*
X92194957Y-77906765D01*
X92203773Y-77928050D01*
X92211240Y-77997520D01*
X92179964Y-78059998D01*
X92119874Y-78095649D01*
X92089211Y-78099500D01*
X91082129Y-78099500D01*
X91082123Y-78099501D01*
X91022513Y-78105909D01*
X91016285Y-78107381D01*
X90946516Y-78103640D01*
X90889845Y-78062772D01*
X90880383Y-78048702D01*
X90879458Y-78047100D01*
X90865830Y-78023495D01*
X90862534Y-78017785D01*
X90735870Y-77877111D01*
X90582734Y-77765851D01*
X90582729Y-77765848D01*
X90531337Y-77742967D01*
X90478100Y-77697717D01*
X90457779Y-77630868D01*
X90462697Y-77595093D01*
X90489599Y-77502494D01*
X90489600Y-77502488D01*
X90489795Y-77500001D01*
X90489795Y-77500000D01*
X89505000Y-77500000D01*
X89505000Y-77850757D01*
X89485315Y-77917796D01*
X89473150Y-77933729D01*
X89397466Y-78017785D01*
X89302821Y-78181715D01*
X89302818Y-78181722D01*
X89245650Y-78357669D01*
X89244326Y-78361744D01*
X89224540Y-78550000D01*
X89244326Y-78738256D01*
X89244327Y-78738259D01*
X89276469Y-78837182D01*
X89278464Y-78907023D01*
X89242384Y-78966856D01*
X89179683Y-78997684D01*
X89158538Y-78999500D01*
X88117000Y-78999500D01*
X88049961Y-78979815D01*
X88004206Y-78927011D01*
X87993000Y-78875500D01*
X87993000Y-78634313D01*
X87992999Y-78634298D01*
X87992438Y-78627172D01*
X87990098Y-78597431D01*
X87976936Y-78552129D01*
X87944245Y-78439606D01*
X87944244Y-78439603D01*
X87944244Y-78439602D01*
X87935680Y-78425122D01*
X87918498Y-78357399D01*
X87940658Y-78291136D01*
X87995124Y-78247373D01*
X88026226Y-78239063D01*
X88056762Y-78235044D01*
X88202841Y-78174536D01*
X88328282Y-78078282D01*
X88339409Y-78063779D01*
X88395834Y-78022577D01*
X88465579Y-78018420D01*
X88472381Y-78020189D01*
X88565004Y-78047099D01*
X88565010Y-78047100D01*
X88601850Y-78049999D01*
X88601866Y-78050000D01*
X89005000Y-78050000D01*
X89005000Y-76450000D01*
X88601850Y-76450000D01*
X88565010Y-76452899D01*
X88565004Y-76452900D01*
X88407306Y-76498716D01*
X88407305Y-76498716D01*
X88337086Y-76540243D01*
X88269362Y-76557424D01*
X88203099Y-76535264D01*
X88186285Y-76521191D01*
X87820589Y-76155496D01*
X87787104Y-76094173D01*
X87784950Y-76054849D01*
X87785460Y-76050000D01*
X87765674Y-75861744D01*
X87707179Y-75681716D01*
X87612533Y-75517784D01*
X87485871Y-75377112D01*
X87485870Y-75377111D01*
X87332734Y-75265851D01*
X87332729Y-75265848D01*
X87159807Y-75188857D01*
X87159802Y-75188855D01*
X87011893Y-75157417D01*
X86974646Y-75149500D01*
X86785354Y-75149500D01*
X86752897Y-75156398D01*
X86600197Y-75188855D01*
X86492297Y-75236896D01*
X86423047Y-75246180D01*
X86359771Y-75216552D01*
X86322558Y-75157417D01*
X86323223Y-75087550D01*
X86354178Y-75035938D01*
X92898385Y-68491731D01*
X92959706Y-68458248D01*
X93029398Y-68463232D01*
G37*
%TD.AperFunction*%
%TA.AperFunction,Conductor*%
G36*
X100495560Y-69270532D02*
G01*
X100546049Y-69301142D01*
X101248181Y-70003274D01*
X101281666Y-70064597D01*
X101284500Y-70090955D01*
X101284500Y-71820500D01*
X101264815Y-71887539D01*
X101212011Y-71933294D01*
X101160500Y-71944500D01*
X100817259Y-71944500D01*
X100713230Y-71972375D01*
X100713229Y-71972374D01*
X100667080Y-71984740D01*
X100667075Y-71984742D01*
X100532426Y-72062481D01*
X100532423Y-72062483D01*
X99171726Y-73423181D01*
X99110403Y-73456666D01*
X99084045Y-73459500D01*
X94712260Y-73459500D01*
X94565137Y-73498922D01*
X94565130Y-73498923D01*
X94565129Y-73498924D01*
X94562079Y-73499740D01*
X94562073Y-73499743D01*
X94427429Y-73577479D01*
X94427424Y-73577483D01*
X93362641Y-74642265D01*
X93322418Y-74669143D01*
X93307157Y-74675464D01*
X93181719Y-74771716D01*
X93085463Y-74897160D01*
X93024956Y-75043237D01*
X93024955Y-75043239D01*
X93009500Y-75160638D01*
X93009500Y-75439363D01*
X93024953Y-75556753D01*
X93024956Y-75556762D01*
X93081180Y-75692500D01*
X93085464Y-75702841D01*
X93181718Y-75828282D01*
X93307159Y-75924536D01*
X93453238Y-75985044D01*
X93570639Y-76000500D01*
X93909360Y-76000499D01*
X93909363Y-76000499D01*
X94026755Y-75985045D01*
X94026755Y-75985044D01*
X94026762Y-75985044D01*
X94026767Y-75985041D01*
X94027900Y-75984739D01*
X94029085Y-75984738D01*
X94034821Y-75983984D01*
X94034920Y-75984738D01*
X94085080Y-75984737D01*
X94085180Y-75983983D01*
X94090907Y-75984737D01*
X94092091Y-75984737D01*
X94093234Y-75985043D01*
X94093236Y-75985043D01*
X94093238Y-75985044D01*
X94210639Y-76000500D01*
X94255043Y-76000499D01*
X94322081Y-76020182D01*
X94367837Y-76072985D01*
X94377782Y-76142144D01*
X94348759Y-76205700D01*
X94342725Y-76212180D01*
X94320440Y-76234465D01*
X94259117Y-76267950D01*
X94248944Y-76269723D01*
X94133245Y-76284954D01*
X94133237Y-76284956D01*
X93987160Y-76345463D01*
X93861718Y-76441718D01*
X93765464Y-76567159D01*
X93753703Y-76595553D01*
X93709861Y-76649956D01*
X93643567Y-76672020D01*
X93575868Y-76654740D01*
X93528258Y-76603603D01*
X93524581Y-76595552D01*
X93519056Y-76582214D01*
X93504536Y-76547159D01*
X93408282Y-76421718D01*
X93282841Y-76325464D01*
X93276665Y-76322906D01*
X93136762Y-76264956D01*
X93136760Y-76264955D01*
X93019361Y-76249500D01*
X92740636Y-76249500D01*
X92623246Y-76264953D01*
X92623237Y-76264956D01*
X92539453Y-76299661D01*
X92469983Y-76307130D01*
X92407504Y-76275855D01*
X92371852Y-76215766D01*
X92368000Y-76185100D01*
X92368000Y-76084313D01*
X92367999Y-76084298D01*
X92365098Y-76047432D01*
X92365097Y-76047426D01*
X92319245Y-75889606D01*
X92319244Y-75889603D01*
X92319244Y-75889602D01*
X92235581Y-75748135D01*
X92235579Y-75748133D01*
X92235576Y-75748129D01*
X92119370Y-75631923D01*
X92119362Y-75631917D01*
X91992281Y-75556762D01*
X91977898Y-75548256D01*
X91977897Y-75548255D01*
X91977896Y-75548255D01*
X91977893Y-75548254D01*
X91820073Y-75502402D01*
X91820067Y-75502401D01*
X91783201Y-75499500D01*
X91783194Y-75499500D01*
X90617000Y-75499500D01*
X90549961Y-75479815D01*
X90504206Y-75427011D01*
X90493000Y-75375500D01*
X90493000Y-75134313D01*
X90492999Y-75134298D01*
X90492096Y-75122828D01*
X90490098Y-75097431D01*
X90487227Y-75087550D01*
X90444245Y-74939606D01*
X90444244Y-74939603D01*
X90444244Y-74939602D01*
X90397679Y-74860865D01*
X90380497Y-74793143D01*
X90402657Y-74726881D01*
X90456958Y-74683185D01*
X90477841Y-74674536D01*
X90603282Y-74578282D01*
X90699536Y-74452841D01*
X90760044Y-74306762D01*
X90775500Y-74189361D01*
X90775499Y-73910640D01*
X90775499Y-73910639D01*
X90775499Y-73910636D01*
X90760046Y-73793246D01*
X90760044Y-73793239D01*
X90760044Y-73793238D01*
X90699536Y-73647159D01*
X90684153Y-73627111D01*
X90661123Y-73597097D01*
X90635930Y-73531928D01*
X90635500Y-73521612D01*
X90635500Y-73072314D01*
X90655185Y-73005275D01*
X90671814Y-72984638D01*
X92342819Y-71313632D01*
X92404142Y-71280148D01*
X92473834Y-71285132D01*
X92529767Y-71327004D01*
X92554184Y-71392468D01*
X92554500Y-71401314D01*
X92554500Y-71691161D01*
X92534815Y-71758200D01*
X92528876Y-71766647D01*
X92505464Y-71797157D01*
X92444956Y-71943237D01*
X92444955Y-71943239D01*
X92429500Y-72060638D01*
X92429500Y-72399363D01*
X92444954Y-72516756D01*
X92445525Y-72518886D01*
X92445525Y-72521091D01*
X92446016Y-72524821D01*
X92445525Y-72524885D01*
X92445526Y-72575184D01*
X92446505Y-72575313D01*
X92445526Y-72582741D01*
X92445527Y-72583060D01*
X92445444Y-72583367D01*
X92434038Y-72670000D01*
X92449807Y-72670000D01*
X92516846Y-72689685D01*
X92548181Y-72718511D01*
X92601718Y-72788282D01*
X92679056Y-72847625D01*
X92720257Y-72904052D01*
X92724412Y-72973798D01*
X92690199Y-73034719D01*
X92628482Y-73067471D01*
X92603568Y-73070000D01*
X92434041Y-73070000D01*
X92434039Y-73070001D01*
X92445442Y-73156627D01*
X92445444Y-73156633D01*
X92505899Y-73302585D01*
X92602075Y-73427924D01*
X92727414Y-73524100D01*
X92873366Y-73584555D01*
X92873372Y-73584557D01*
X92929998Y-73592011D01*
X92930000Y-73592010D01*
X92930000Y-73084499D01*
X92949685Y-73017460D01*
X93002489Y-72971705D01*
X93053996Y-72960499D01*
X93206000Y-72960499D01*
X93273039Y-72980184D01*
X93318794Y-73032988D01*
X93330000Y-73084499D01*
X93330000Y-73592010D01*
X93330001Y-73592011D01*
X93386627Y-73584557D01*
X93386633Y-73584555D01*
X93532585Y-73524100D01*
X93657924Y-73427924D01*
X93754100Y-73302586D01*
X93814554Y-73156634D01*
X93814555Y-73156630D01*
X93816309Y-73143314D01*
X93844576Y-73079418D01*
X93902900Y-73040947D01*
X93939248Y-73035500D01*
X96880764Y-73035500D01*
X96880766Y-73035500D01*
X97027135Y-72996281D01*
X97158365Y-72920515D01*
X97307062Y-72771816D01*
X97368383Y-72738333D01*
X97394742Y-72735499D01*
X98277871Y-72735499D01*
X98277872Y-72735499D01*
X98337483Y-72729091D01*
X98472331Y-72678796D01*
X98587546Y-72592546D01*
X98673796Y-72477331D01*
X98718987Y-72356166D01*
X98760858Y-72300234D01*
X98826322Y-72275816D01*
X98835169Y-72275500D01*
X99087739Y-72275500D01*
X99087741Y-72275500D01*
X99203692Y-72244430D01*
X99228196Y-72237865D01*
X99228198Y-72237864D01*
X99237925Y-72235258D01*
X99372575Y-72157518D01*
X99774559Y-71755532D01*
X99835880Y-71722049D01*
X99846055Y-71720276D01*
X99894414Y-71713909D01*
X99961762Y-71705044D01*
X100107841Y-71644536D01*
X100233282Y-71548282D01*
X100329536Y-71422841D01*
X100390044Y-71276762D01*
X100405500Y-71159361D01*
X100405499Y-70820640D01*
X100405499Y-70820639D01*
X100405499Y-70820636D01*
X100390045Y-70703244D01*
X100390044Y-70703242D01*
X100390044Y-70703238D01*
X100390042Y-70703233D01*
X100389738Y-70702096D01*
X100389737Y-70700906D01*
X100388984Y-70695179D01*
X100389737Y-70695079D01*
X100389737Y-70644919D01*
X100388983Y-70644820D01*
X100389737Y-70639092D01*
X100389737Y-70637905D01*
X100390040Y-70636771D01*
X100390044Y-70636762D01*
X100405500Y-70519361D01*
X100405499Y-70180640D01*
X100405499Y-70180636D01*
X100390046Y-70063246D01*
X100390044Y-70063241D01*
X100390044Y-70063238D01*
X100329536Y-69917159D01*
X100233282Y-69791718D01*
X100115401Y-69701265D01*
X100074200Y-69644838D01*
X100070045Y-69575092D01*
X100104258Y-69514171D01*
X100140452Y-69489611D01*
X100152718Y-69484151D01*
X100305859Y-69372888D01*
X100366220Y-69305849D01*
X100425703Y-69269203D01*
X100495560Y-69270532D01*
G37*
%TD.AperFunction*%
%TA.AperFunction,Conductor*%
G36*
X86944839Y-67696184D02*
G01*
X86990594Y-67748988D01*
X87001800Y-67800499D01*
X87001800Y-68308010D01*
X87001801Y-68308011D01*
X87058427Y-68300557D01*
X87058429Y-68300556D01*
X87160264Y-68258375D01*
X87229733Y-68250906D01*
X87255170Y-68258375D01*
X87357969Y-68300956D01*
X87357972Y-68300957D01*
X87414598Y-68308411D01*
X87414600Y-68308410D01*
X87414600Y-67800899D01*
X87434285Y-67733860D01*
X87487089Y-67688105D01*
X87538596Y-67676899D01*
X87690600Y-67676899D01*
X87757639Y-67696584D01*
X87803394Y-67749388D01*
X87814600Y-67800899D01*
X87814600Y-68308410D01*
X87814601Y-68308411D01*
X87871227Y-68300957D01*
X87871230Y-68300956D01*
X88011647Y-68242794D01*
X88081117Y-68235325D01*
X88106553Y-68242794D01*
X88246969Y-68300956D01*
X88246972Y-68300957D01*
X88303598Y-68308411D01*
X88303600Y-68308410D01*
X88303600Y-67800899D01*
X88323285Y-67733860D01*
X88376089Y-67688105D01*
X88427596Y-67676899D01*
X88579600Y-67676899D01*
X88646639Y-67696584D01*
X88692394Y-67749388D01*
X88703600Y-67800899D01*
X88703600Y-68308410D01*
X88703601Y-68308411D01*
X88760227Y-68300957D01*
X88760230Y-68300956D01*
X88900647Y-68242794D01*
X88970117Y-68235325D01*
X88995553Y-68242794D01*
X89135969Y-68300956D01*
X89135972Y-68300957D01*
X89192598Y-68308411D01*
X89192600Y-68308410D01*
X89192600Y-67800899D01*
X89212285Y-67733860D01*
X89265089Y-67688105D01*
X89316596Y-67676899D01*
X89468600Y-67676899D01*
X89535639Y-67696584D01*
X89581394Y-67749388D01*
X89592600Y-67800899D01*
X89592600Y-68308410D01*
X89592601Y-68308411D01*
X89649227Y-68300957D01*
X89649230Y-68300956D01*
X89789647Y-68242794D01*
X89859117Y-68235325D01*
X89884553Y-68242794D01*
X90024969Y-68300956D01*
X90024972Y-68300957D01*
X90081598Y-68308411D01*
X90081600Y-68308410D01*
X90081600Y-67800899D01*
X90101285Y-67733860D01*
X90154089Y-67688105D01*
X90205596Y-67676899D01*
X90357600Y-67676899D01*
X90424639Y-67696584D01*
X90470394Y-67749388D01*
X90481600Y-67800899D01*
X90481600Y-68308410D01*
X90481601Y-68308411D01*
X90538226Y-68300957D01*
X90540911Y-68300238D01*
X90543267Y-68300293D01*
X90546290Y-68299896D01*
X90546352Y-68300367D01*
X90610761Y-68301895D01*
X90668626Y-68341054D01*
X90696135Y-68405280D01*
X90684553Y-68474183D01*
X90660694Y-68507691D01*
X86472966Y-72695420D01*
X86411643Y-72728905D01*
X86341951Y-72723921D01*
X86293137Y-72690712D01*
X86235871Y-72627112D01*
X86198300Y-72599815D01*
X86082734Y-72515851D01*
X86082729Y-72515848D01*
X85909807Y-72438857D01*
X85909802Y-72438855D01*
X85764001Y-72407865D01*
X85724646Y-72399500D01*
X85724645Y-72399500D01*
X85664500Y-72399500D01*
X85597461Y-72379815D01*
X85551706Y-72327011D01*
X85540500Y-72275500D01*
X85540500Y-70380960D01*
X85560185Y-70313921D01*
X85612989Y-70268166D01*
X85682147Y-70258222D01*
X85719793Y-70271251D01*
X85719902Y-70270989D01*
X85724307Y-70272813D01*
X85726501Y-70273573D01*
X85727416Y-70274101D01*
X85873366Y-70334555D01*
X85873372Y-70334557D01*
X85929998Y-70342011D01*
X85930000Y-70342010D01*
X85930000Y-69834499D01*
X85949685Y-69767460D01*
X86002489Y-69721705D01*
X86053996Y-69710499D01*
X86206000Y-69710499D01*
X86273039Y-69730184D01*
X86318794Y-69782988D01*
X86330000Y-69834499D01*
X86330000Y-70342010D01*
X86330001Y-70342011D01*
X86386627Y-70334557D01*
X86386633Y-70334555D01*
X86532585Y-70274100D01*
X86657924Y-70177924D01*
X86754100Y-70052586D01*
X86814554Y-69906634D01*
X86814555Y-69906630D01*
X86825961Y-69820000D01*
X86656432Y-69820000D01*
X86589393Y-69800315D01*
X86543638Y-69747511D01*
X86533694Y-69678353D01*
X86562719Y-69614797D01*
X86580941Y-69597627D01*
X86658282Y-69538282D01*
X86711818Y-69468512D01*
X86768245Y-69427311D01*
X86810193Y-69420000D01*
X86825959Y-69420000D01*
X86825960Y-69419998D01*
X86814557Y-69333375D01*
X86814478Y-69333078D01*
X86814477Y-69332769D01*
X86813496Y-69325310D01*
X86814477Y-69325180D01*
X86814477Y-69274885D01*
X86813983Y-69274820D01*
X86814477Y-69271067D01*
X86814477Y-69268875D01*
X86815040Y-69266771D01*
X86815044Y-69266762D01*
X86830500Y-69149361D01*
X86830499Y-68810640D01*
X86830499Y-68810636D01*
X86815046Y-68693246D01*
X86815044Y-68693241D01*
X86815044Y-68693238D01*
X86754536Y-68547159D01*
X86658282Y-68421718D01*
X86658280Y-68421716D01*
X86658279Y-68421715D01*
X86650313Y-68415603D01*
X86609110Y-68359175D01*
X86601800Y-68317228D01*
X86601800Y-67800499D01*
X86621485Y-67733460D01*
X86674289Y-67687705D01*
X86725796Y-67676499D01*
X86877800Y-67676499D01*
X86944839Y-67696184D01*
G37*
%TD.AperFunction*%
%TA.AperFunction,Conductor*%
G36*
X97818434Y-67614876D02*
G01*
X97818436Y-67614877D01*
X97890821Y-67623569D01*
X97906897Y-67625500D01*
X98085500Y-67625500D01*
X98152539Y-67645185D01*
X98198294Y-67697989D01*
X98209500Y-67749500D01*
X98209500Y-67877753D01*
X98216606Y-67904272D01*
X98233553Y-67967518D01*
X98249741Y-68027936D01*
X98327479Y-68162583D01*
X98327483Y-68162588D01*
X98759398Y-68594503D01*
X98792883Y-68655826D01*
X98795038Y-68695139D01*
X98794528Y-68699993D01*
X98794528Y-68699997D01*
X98794528Y-68700000D01*
X98814314Y-68888256D01*
X98814315Y-68888259D01*
X98872806Y-69068277D01*
X98872809Y-69068284D01*
X98967455Y-69232216D01*
X98969286Y-69234249D01*
X98972238Y-69237528D01*
X99002468Y-69300519D01*
X98993843Y-69369855D01*
X98949101Y-69423520D01*
X98882449Y-69444478D01*
X98880088Y-69444500D01*
X98835169Y-69444500D01*
X98768130Y-69424815D01*
X98722375Y-69372011D01*
X98718987Y-69363833D01*
X98673797Y-69242671D01*
X98673793Y-69242664D01*
X98587547Y-69127455D01*
X98587544Y-69127452D01*
X98472335Y-69041206D01*
X98472328Y-69041202D01*
X98337482Y-68990908D01*
X98337483Y-68990908D01*
X98277883Y-68984501D01*
X98277881Y-68984500D01*
X98277873Y-68984500D01*
X98277864Y-68984500D01*
X96882129Y-68984500D01*
X96882123Y-68984501D01*
X96822516Y-68990908D01*
X96687671Y-69041202D01*
X96687669Y-69041204D01*
X96603894Y-69103918D01*
X96538430Y-69128335D01*
X96470157Y-69113484D01*
X96455272Y-69103918D01*
X96372088Y-69041646D01*
X96372086Y-69041645D01*
X96237379Y-68991403D01*
X96237372Y-68991401D01*
X96177844Y-68985000D01*
X95730000Y-68985000D01*
X95730000Y-70161000D01*
X95710315Y-70228039D01*
X95657511Y-70273794D01*
X95606000Y-70285000D01*
X95354000Y-70285000D01*
X95286961Y-70265315D01*
X95241206Y-70212511D01*
X95230000Y-70161000D01*
X95230000Y-68985000D01*
X94970815Y-68985000D01*
X94903776Y-68965315D01*
X94858021Y-68912511D01*
X94848077Y-68843353D01*
X94877102Y-68779797D01*
X94883134Y-68773319D01*
X95378528Y-68277925D01*
X95896769Y-67759683D01*
X95958090Y-67726200D01*
X96027782Y-67731184D01*
X96083715Y-67773056D01*
X96100388Y-67803393D01*
X96119780Y-67854523D01*
X96209517Y-67984530D01*
X96327760Y-68089283D01*
X96327762Y-68089284D01*
X96467634Y-68162696D01*
X96621014Y-68200500D01*
X96621015Y-68200500D01*
X96778985Y-68200500D01*
X96932365Y-68162696D01*
X96969545Y-68143182D01*
X97072240Y-68089283D01*
X97190483Y-67984530D01*
X97280220Y-67854523D01*
X97336237Y-67706818D01*
X97336237Y-67706817D01*
X97338765Y-67700152D01*
X97380943Y-67644449D01*
X97446540Y-67620392D01*
X97469491Y-67621007D01*
X97484808Y-67622847D01*
X97506897Y-67625500D01*
X97506898Y-67625500D01*
X97693103Y-67625500D01*
X97709178Y-67623569D01*
X97781564Y-67614877D01*
X97781565Y-67614876D01*
X97785215Y-67614438D01*
X97814785Y-67614438D01*
X97818434Y-67614876D01*
G37*
%TD.AperFunction*%
%TA.AperFunction,Conductor*%
G36*
X84390645Y-57560185D02*
G01*
X84436400Y-57612989D01*
X84446344Y-57682147D01*
X84417319Y-57745703D01*
X84415756Y-57747472D01*
X84397466Y-57767785D01*
X84302821Y-57931715D01*
X84302818Y-57931722D01*
X84247979Y-58100500D01*
X84244326Y-58111744D01*
X84225618Y-58289744D01*
X84224540Y-58300002D01*
X84227067Y-58324052D01*
X84214496Y-58392782D01*
X84191427Y-58424691D01*
X80726681Y-61889438D01*
X80665358Y-61922923D01*
X80595666Y-61917939D01*
X80539733Y-61876067D01*
X80515316Y-61810603D01*
X80515000Y-61801757D01*
X80515000Y-61420000D01*
X78365000Y-61420000D01*
X78365000Y-62670000D01*
X79646757Y-62670000D01*
X79713796Y-62689685D01*
X79759551Y-62742489D01*
X79769495Y-62811647D01*
X79740470Y-62875203D01*
X79734438Y-62881681D01*
X76682937Y-65933181D01*
X76621614Y-65966666D01*
X76595256Y-65969500D01*
X75017129Y-65969500D01*
X75017123Y-65969501D01*
X74957516Y-65975908D01*
X74822671Y-66026202D01*
X74822664Y-66026206D01*
X74707455Y-66112452D01*
X74707452Y-66112455D01*
X74621206Y-66227664D01*
X74621202Y-66227671D01*
X74570908Y-66362517D01*
X74564501Y-66422116D01*
X74564501Y-66422123D01*
X74564500Y-66422135D01*
X74564500Y-68517870D01*
X74564501Y-68517876D01*
X74570908Y-68577483D01*
X74621202Y-68712328D01*
X74621206Y-68712335D01*
X74707452Y-68827544D01*
X74707455Y-68827547D01*
X74822664Y-68913793D01*
X74822671Y-68913797D01*
X74828822Y-68916091D01*
X74957517Y-68964091D01*
X75017127Y-68970500D01*
X75415500Y-68970499D01*
X75482539Y-68990183D01*
X75528294Y-69042987D01*
X75539500Y-69094499D01*
X75539500Y-69890500D01*
X75519815Y-69957539D01*
X75467011Y-70003294D01*
X75415500Y-70014500D01*
X75388387Y-70014500D01*
X75321348Y-69994815D01*
X75312901Y-69988876D01*
X75262840Y-69950463D01*
X75176665Y-69914768D01*
X75136437Y-69887888D01*
X74326032Y-69077483D01*
X74326027Y-69077479D01*
X74191383Y-68999743D01*
X74191382Y-68999742D01*
X74160259Y-68991403D01*
X74145413Y-68987425D01*
X74145410Y-68987424D01*
X74080379Y-68969999D01*
X74041197Y-68959500D01*
X74041196Y-68959500D01*
X73954499Y-68959500D01*
X73887460Y-68939815D01*
X73841705Y-68887011D01*
X73830499Y-68835500D01*
X73830499Y-68049998D01*
X73830498Y-68049981D01*
X73819999Y-67947203D01*
X73819998Y-67947200D01*
X73801171Y-67890385D01*
X73764814Y-67780666D01*
X73672712Y-67631344D01*
X73548656Y-67507288D01*
X73416902Y-67426022D01*
X73370179Y-67374075D01*
X73358000Y-67320484D01*
X73358000Y-67264734D01*
X73377685Y-67197695D01*
X73430489Y-67151940D01*
X73431520Y-67151474D01*
X73582730Y-67084151D01*
X73735871Y-66972888D01*
X73862533Y-66832216D01*
X73957179Y-66668284D01*
X74015674Y-66488256D01*
X74035460Y-66300000D01*
X74015674Y-66111744D01*
X73957179Y-65931716D01*
X73862533Y-65767784D01*
X73735871Y-65627112D01*
X73684499Y-65589788D01*
X73582734Y-65515851D01*
X73582729Y-65515848D01*
X73409807Y-65438857D01*
X73409802Y-65438855D01*
X73245897Y-65404017D01*
X73224646Y-65399500D01*
X73035354Y-65399500D01*
X73014103Y-65404017D01*
X72850197Y-65438855D01*
X72850192Y-65438857D01*
X72749936Y-65483495D01*
X72680686Y-65492780D01*
X72617409Y-65463152D01*
X72580196Y-65404017D01*
X72575500Y-65370216D01*
X72575500Y-65358838D01*
X72595185Y-65291799D01*
X72601114Y-65283364D01*
X72624536Y-65252841D01*
X72685044Y-65106762D01*
X72700500Y-64989361D01*
X72700499Y-64650640D01*
X72700499Y-64650638D01*
X72700499Y-64650636D01*
X72685045Y-64533244D01*
X72685044Y-64533242D01*
X72685044Y-64533238D01*
X72685042Y-64533233D01*
X72684738Y-64532096D01*
X72684737Y-64530906D01*
X72683984Y-64525179D01*
X72684737Y-64525079D01*
X72684737Y-64474919D01*
X72683983Y-64474820D01*
X72684737Y-64469092D01*
X72684737Y-64467905D01*
X72685040Y-64466771D01*
X72685044Y-64466762D01*
X72700500Y-64349361D01*
X72700499Y-64010640D01*
X72700499Y-64010638D01*
X72700499Y-64010636D01*
X72685046Y-63893246D01*
X72685044Y-63893239D01*
X72685044Y-63893238D01*
X72624536Y-63747159D01*
X72616122Y-63736193D01*
X72590930Y-63671023D01*
X72590500Y-63660709D01*
X72590500Y-61420000D01*
X75715000Y-61420000D01*
X75715000Y-62217844D01*
X75721401Y-62277372D01*
X75721403Y-62277379D01*
X75771645Y-62412086D01*
X75771649Y-62412093D01*
X75857809Y-62527187D01*
X75857812Y-62527190D01*
X75972906Y-62613350D01*
X75972913Y-62613354D01*
X76107620Y-62663596D01*
X76107627Y-62663598D01*
X76167155Y-62669999D01*
X76167172Y-62670000D01*
X77865000Y-62670000D01*
X77865000Y-61420000D01*
X75715000Y-61420000D01*
X72590500Y-61420000D01*
X72590500Y-60920000D01*
X75715000Y-60920000D01*
X77865000Y-60920000D01*
X77865000Y-59670000D01*
X78365000Y-59670000D01*
X78365000Y-60920000D01*
X80515000Y-60920000D01*
X80515000Y-60122172D01*
X80514999Y-60122155D01*
X80508598Y-60062627D01*
X80508596Y-60062620D01*
X80458354Y-59927913D01*
X80458350Y-59927906D01*
X80372190Y-59812812D01*
X80372187Y-59812809D01*
X80257093Y-59726649D01*
X80257086Y-59726645D01*
X80122379Y-59676403D01*
X80122372Y-59676401D01*
X80062844Y-59670000D01*
X78365000Y-59670000D01*
X77865000Y-59670000D01*
X76167155Y-59670000D01*
X76107627Y-59676401D01*
X76107620Y-59676403D01*
X75972913Y-59726645D01*
X75972906Y-59726649D01*
X75857812Y-59812809D01*
X75857809Y-59812812D01*
X75771649Y-59927906D01*
X75771645Y-59927913D01*
X75721403Y-60062620D01*
X75721401Y-60062627D01*
X75715000Y-60122155D01*
X75715000Y-60920000D01*
X72590500Y-60920000D01*
X72590500Y-59791641D01*
X72610185Y-59724602D01*
X72626819Y-59703960D01*
X74753960Y-57576819D01*
X74815283Y-57543334D01*
X74841641Y-57540500D01*
X84323606Y-57540500D01*
X84390645Y-57560185D01*
G37*
%TD.AperFunction*%
%TA.AperFunction,Conductor*%
G36*
X104802450Y-66045185D02*
G01*
X104823092Y-66061819D01*
X105669485Y-66908212D01*
X105776635Y-67015362D01*
X105890281Y-67080976D01*
X105899658Y-67086390D01*
X105907865Y-67091128D01*
X106054234Y-67130347D01*
X106083411Y-67130347D01*
X106150450Y-67150032D01*
X106196205Y-67202836D01*
X106206149Y-67271994D01*
X106183438Y-67324163D01*
X106184587Y-67324873D01*
X106180510Y-67331472D01*
X106120722Y-67462387D01*
X106120721Y-67462391D01*
X106100241Y-67604847D01*
X106120721Y-67747302D01*
X106120722Y-67747307D01*
X106178566Y-67873965D01*
X106188510Y-67943124D01*
X106159485Y-68006680D01*
X106100707Y-68044454D01*
X106054965Y-68049005D01*
X106011920Y-68045239D01*
X106011917Y-68045239D01*
X105776509Y-68065835D01*
X105620275Y-68107696D01*
X105550425Y-68106033D01*
X105500502Y-68075602D01*
X105315285Y-67890385D01*
X105315283Y-67890383D01*
X105223615Y-67837458D01*
X105184054Y-67814617D01*
X105110868Y-67795007D01*
X105037684Y-67775398D01*
X105037683Y-67775398D01*
X104623691Y-67775398D01*
X104556652Y-67755713D01*
X104536010Y-67739079D01*
X103034112Y-66237181D01*
X103000627Y-66175858D01*
X103005611Y-66106166D01*
X103047483Y-66050233D01*
X103112947Y-66025816D01*
X103121793Y-66025500D01*
X104735411Y-66025500D01*
X104802450Y-66045185D01*
G37*
%TD.AperFunction*%
%TA.AperFunction,Conductor*%
G36*
X71328834Y-60538773D02*
G01*
X71384767Y-60580645D01*
X71409184Y-60646109D01*
X71409500Y-60654955D01*
X71409500Y-63660709D01*
X71389815Y-63727748D01*
X71383878Y-63736193D01*
X71375464Y-63747158D01*
X71314956Y-63893237D01*
X71314955Y-63893239D01*
X71299500Y-64010638D01*
X71299500Y-64349363D01*
X71314955Y-64466763D01*
X71315263Y-64467912D01*
X71315263Y-64469101D01*
X71316016Y-64474821D01*
X71315263Y-64474920D01*
X71315265Y-64525081D01*
X71316017Y-64525180D01*
X71315265Y-64530884D01*
X71315266Y-64532079D01*
X71314956Y-64533234D01*
X71299500Y-64650638D01*
X71299500Y-64989363D01*
X71314953Y-65106753D01*
X71314957Y-65106765D01*
X71375461Y-65252836D01*
X71375461Y-65252837D01*
X71375463Y-65252840D01*
X71375464Y-65252841D01*
X71398876Y-65283353D01*
X71424070Y-65348520D01*
X71424500Y-65358838D01*
X71424500Y-65584294D01*
X71404815Y-65651333D01*
X71352011Y-65697088D01*
X71284315Y-65707233D01*
X71255000Y-65703373D01*
X71255000Y-66381000D01*
X71235315Y-66448039D01*
X71182511Y-66493794D01*
X71131000Y-66505000D01*
X70129000Y-66505000D01*
X70061961Y-66485315D01*
X70016206Y-66432511D01*
X70005000Y-66381000D01*
X70005000Y-66255000D01*
X70255000Y-66255000D01*
X71005000Y-66255000D01*
X71005000Y-65703373D01*
X70920659Y-65714478D01*
X70920657Y-65714478D01*
X70783824Y-65771156D01*
X70705487Y-65831267D01*
X70640317Y-65856461D01*
X70571873Y-65842423D01*
X70554513Y-65831267D01*
X70476175Y-65771156D01*
X70339341Y-65714478D01*
X70255000Y-65703373D01*
X70255000Y-66255000D01*
X70005000Y-66255000D01*
X70005000Y-65703373D01*
X70004999Y-65703373D01*
X69965685Y-65708549D01*
X69896650Y-65697783D01*
X69844394Y-65651403D01*
X69825500Y-65585610D01*
X69825500Y-65408838D01*
X69845185Y-65341799D01*
X69851114Y-65333364D01*
X69874536Y-65302841D01*
X69935044Y-65156762D01*
X69950500Y-65039361D01*
X69950499Y-64700640D01*
X69950499Y-64700638D01*
X69950499Y-64700636D01*
X69935045Y-64583244D01*
X69935044Y-64583242D01*
X69935044Y-64583238D01*
X69935042Y-64583233D01*
X69934738Y-64582096D01*
X69934737Y-64580906D01*
X69933984Y-64575179D01*
X69934737Y-64575079D01*
X69934737Y-64524919D01*
X69933983Y-64524820D01*
X69934737Y-64519092D01*
X69934737Y-64517905D01*
X69935040Y-64516771D01*
X69935044Y-64516762D01*
X69950500Y-64399361D01*
X69950499Y-64060640D01*
X69950499Y-64060638D01*
X69950499Y-64060636D01*
X69935046Y-63943246D01*
X69935044Y-63943239D01*
X69935044Y-63943238D01*
X69874536Y-63797159D01*
X69869862Y-63791068D01*
X69866122Y-63786193D01*
X69840930Y-63721023D01*
X69840500Y-63710709D01*
X69840500Y-61975955D01*
X69860185Y-61908916D01*
X69876819Y-61888274D01*
X71197819Y-60567274D01*
X71259142Y-60533789D01*
X71328834Y-60538773D01*
G37*
%TD.AperFunction*%
%TA.AperFunction,Conductor*%
G36*
X87380974Y-60202259D02*
G01*
X87407681Y-60222551D01*
X88973293Y-61788163D01*
X89006778Y-61849486D01*
X89009612Y-61875844D01*
X89009612Y-62234250D01*
X89021119Y-62277192D01*
X89034594Y-62327482D01*
X89049854Y-62384435D01*
X89049855Y-62384436D01*
X89127591Y-62519080D01*
X89127593Y-62519083D01*
X89127594Y-62519084D01*
X89631027Y-63022518D01*
X89765678Y-63100258D01*
X89778902Y-63103801D01*
X89804434Y-63113780D01*
X89897635Y-63162696D01*
X90051015Y-63200500D01*
X90208985Y-63200500D01*
X90369649Y-63160901D01*
X90370097Y-63162721D01*
X90429964Y-63158100D01*
X90491476Y-63191238D01*
X90525306Y-63252371D01*
X90520716Y-63322090D01*
X90520233Y-63323383D01*
X90493763Y-63393178D01*
X90493763Y-63393180D01*
X90474722Y-63549999D01*
X90474722Y-63550000D01*
X90493762Y-63706818D01*
X90549780Y-63854523D01*
X90639517Y-63984530D01*
X90757760Y-64089283D01*
X90757762Y-64089284D01*
X90897634Y-64162696D01*
X91051014Y-64200500D01*
X91051015Y-64200500D01*
X91208986Y-64200500D01*
X91208986Y-64200499D01*
X91258303Y-64188344D01*
X91328104Y-64191412D01*
X91385167Y-64231731D01*
X91390027Y-64238297D01*
X91404683Y-64259530D01*
X91522926Y-64364283D01*
X91522928Y-64364284D01*
X91662800Y-64437696D01*
X91816180Y-64475500D01*
X91816181Y-64475500D01*
X91974151Y-64475500D01*
X92127531Y-64437696D01*
X92134543Y-64435037D01*
X92135235Y-64436862D01*
X92181332Y-64425500D01*
X92500721Y-64425500D01*
X92567760Y-64445185D01*
X92613515Y-64497989D01*
X92623806Y-64553192D01*
X92624500Y-64553192D01*
X92624500Y-64556898D01*
X92624500Y-64743102D01*
X92626976Y-64763719D01*
X92635561Y-64835217D01*
X92635561Y-64864783D01*
X92629718Y-64913440D01*
X92624500Y-64956898D01*
X92624500Y-65143102D01*
X92626141Y-65156765D01*
X92635561Y-65235217D01*
X92635561Y-65264783D01*
X92630992Y-65302836D01*
X92624500Y-65356898D01*
X92624500Y-65543102D01*
X92628594Y-65577192D01*
X92635561Y-65635217D01*
X92635561Y-65664783D01*
X92630514Y-65706818D01*
X92624500Y-65756898D01*
X92624500Y-65756903D01*
X92624500Y-65923537D01*
X92604815Y-65990576D01*
X92552011Y-66036331D01*
X92482853Y-66046275D01*
X92450065Y-66036817D01*
X92364802Y-65998855D01*
X92212673Y-65966520D01*
X92179646Y-65959500D01*
X91990354Y-65959500D01*
X91957897Y-65966398D01*
X91805197Y-65998855D01*
X91805192Y-65998857D01*
X91632270Y-66075848D01*
X91632265Y-66075851D01*
X91479131Y-66187110D01*
X91474300Y-66191460D01*
X91472776Y-66189768D01*
X91422171Y-66220932D01*
X91373347Y-66224244D01*
X91309963Y-66215900D01*
X91031236Y-66215900D01*
X90913846Y-66231353D01*
X90913837Y-66231356D01*
X90773553Y-66289464D01*
X90704083Y-66296933D01*
X90678647Y-66289464D01*
X90538362Y-66231356D01*
X90538360Y-66231355D01*
X90420961Y-66215900D01*
X90142236Y-66215900D01*
X90024846Y-66231353D01*
X90024837Y-66231356D01*
X89884553Y-66289464D01*
X89815083Y-66296933D01*
X89789647Y-66289464D01*
X89649362Y-66231356D01*
X89649360Y-66231355D01*
X89531961Y-66215900D01*
X89253236Y-66215900D01*
X89135846Y-66231353D01*
X89135837Y-66231356D01*
X88995553Y-66289464D01*
X88926083Y-66296933D01*
X88900647Y-66289464D01*
X88760362Y-66231356D01*
X88760360Y-66231355D01*
X88642961Y-66215900D01*
X88364236Y-66215900D01*
X88246846Y-66231353D01*
X88246837Y-66231356D01*
X88106553Y-66289464D01*
X88037083Y-66296933D01*
X88011647Y-66289464D01*
X87871362Y-66231356D01*
X87871360Y-66231355D01*
X87753961Y-66215900D01*
X87475236Y-66215900D01*
X87357846Y-66231353D01*
X87357834Y-66231357D01*
X87256135Y-66273482D01*
X87186666Y-66280951D01*
X87161231Y-66273482D01*
X87058565Y-66230957D01*
X87058560Y-66230955D01*
X86941161Y-66215500D01*
X86662436Y-66215500D01*
X86545046Y-66230953D01*
X86545034Y-66230957D01*
X86429669Y-66278743D01*
X86360200Y-66286212D01*
X86334764Y-66278743D01*
X86277443Y-66255000D01*
X86220362Y-66231356D01*
X86220360Y-66231355D01*
X86102961Y-66215900D01*
X85824236Y-66215900D01*
X85706846Y-66231353D01*
X85706838Y-66231356D01*
X85592433Y-66278743D01*
X85522964Y-66286211D01*
X85497530Y-66278742D01*
X85382165Y-66230957D01*
X85382160Y-66230955D01*
X85264761Y-66215500D01*
X84986036Y-66215500D01*
X84868646Y-66230953D01*
X84868637Y-66230956D01*
X84753753Y-66278543D01*
X84684283Y-66286012D01*
X84658847Y-66278543D01*
X84602009Y-66255000D01*
X84543962Y-66230956D01*
X84518957Y-66227664D01*
X84428252Y-66215722D01*
X84364356Y-66187455D01*
X84356757Y-66180464D01*
X84309776Y-66133483D01*
X84309771Y-66133479D01*
X84175128Y-66055743D01*
X84175125Y-66055742D01*
X84143388Y-66047237D01*
X84064897Y-66026206D01*
X84024941Y-66015500D01*
X84024940Y-66015500D01*
X83833955Y-66015500D01*
X83766916Y-65995815D01*
X83721161Y-65943011D01*
X83711217Y-65873853D01*
X83740242Y-65810297D01*
X83746274Y-65803819D01*
X84318529Y-65231564D01*
X84937518Y-64612575D01*
X85015258Y-64477924D01*
X85015454Y-64477192D01*
X85022606Y-64450502D01*
X85022606Y-64450500D01*
X85037801Y-64393793D01*
X85055500Y-64327741D01*
X85055500Y-62010954D01*
X85075185Y-61943915D01*
X85091819Y-61923273D01*
X86545836Y-60469256D01*
X86607159Y-60435771D01*
X86633517Y-60432937D01*
X86742206Y-60432937D01*
X86742208Y-60432937D01*
X86927365Y-60393581D01*
X87100292Y-60316588D01*
X87247119Y-60209912D01*
X87312920Y-60186434D01*
X87380974Y-60202259D01*
G37*
%TD.AperFunction*%
%TA.AperFunction,Conductor*%
G36*
X99249656Y-61437841D02*
G01*
X99301015Y-61450500D01*
X99301017Y-61450500D01*
X99378380Y-61450500D01*
X99445419Y-61470185D01*
X99491174Y-61522989D01*
X99501494Y-61559713D01*
X99502135Y-61565044D01*
X99510561Y-61635218D01*
X99510561Y-61664783D01*
X99507837Y-61687470D01*
X99499500Y-61756898D01*
X99499500Y-61943102D01*
X99501781Y-61962097D01*
X99510561Y-62035217D01*
X99510561Y-62064783D01*
X99509279Y-62075463D01*
X99499500Y-62156898D01*
X99499500Y-62343102D01*
X99504464Y-62384436D01*
X99510561Y-62435217D01*
X99510561Y-62464783D01*
X99505922Y-62503420D01*
X99499500Y-62556898D01*
X99499500Y-62743102D01*
X99505222Y-62790754D01*
X99510561Y-62835217D01*
X99510561Y-62864783D01*
X99506117Y-62901795D01*
X99499500Y-62956898D01*
X99499500Y-63143102D01*
X99502730Y-63169998D01*
X99510561Y-63235217D01*
X99510561Y-63264783D01*
X99505789Y-63304523D01*
X99499500Y-63356898D01*
X99499500Y-63543102D01*
X99502730Y-63570000D01*
X99506203Y-63598925D01*
X99494650Y-63667833D01*
X99447677Y-63719556D01*
X99445088Y-63721093D01*
X99326640Y-63789480D01*
X99326631Y-63789487D01*
X99311681Y-63804438D01*
X99250358Y-63837923D01*
X99180666Y-63832939D01*
X99124733Y-63791067D01*
X99100316Y-63725603D01*
X99100000Y-63716757D01*
X99100000Y-63500000D01*
X96874000Y-63500000D01*
X96806961Y-63480315D01*
X96761206Y-63427511D01*
X96750000Y-63376000D01*
X96750000Y-63124000D01*
X96769685Y-63056961D01*
X96822489Y-63011206D01*
X96874000Y-63000000D01*
X99100000Y-63000000D01*
X99100000Y-61602172D01*
X99099999Y-61602160D01*
X99096702Y-61571498D01*
X99109106Y-61502738D01*
X99156715Y-61451600D01*
X99224414Y-61434319D01*
X99249656Y-61437841D01*
G37*
%TD.AperFunction*%
%TA.AperFunction,Conductor*%
G36*
X101724639Y-56226500D02*
G01*
X101986257Y-56226499D01*
X102053296Y-56246183D01*
X102099051Y-56298987D01*
X102108995Y-56368146D01*
X102079970Y-56431701D01*
X102073938Y-56438180D01*
X101635093Y-56877024D01*
X101573770Y-56910509D01*
X101504078Y-56905525D01*
X101449037Y-56864830D01*
X101408284Y-56811720D01*
X101408282Y-56811719D01*
X101408282Y-56811718D01*
X101330943Y-56752374D01*
X101289743Y-56695948D01*
X101285588Y-56626202D01*
X101319801Y-56565281D01*
X101381518Y-56532529D01*
X101406432Y-56530000D01*
X101575959Y-56530000D01*
X101575960Y-56529998D01*
X101564557Y-56443372D01*
X101564556Y-56443369D01*
X101542502Y-56390126D01*
X101535033Y-56320657D01*
X101566308Y-56258178D01*
X101626397Y-56222525D01*
X101673246Y-56219734D01*
X101724639Y-56226500D01*
G37*
%TD.AperFunction*%
%TA.AperFunction,Conductor*%
G36*
X95174282Y-51617521D02*
G01*
X95198923Y-51636620D01*
X96123181Y-52560878D01*
X96156666Y-52622201D01*
X96159500Y-52648559D01*
X96159500Y-52864440D01*
X96139815Y-52931479D01*
X96123181Y-52952121D01*
X94566642Y-54508659D01*
X94505319Y-54542144D01*
X94435627Y-54537160D01*
X94379694Y-54495288D01*
X94361030Y-54459296D01*
X94309181Y-54299722D01*
X94309180Y-54299721D01*
X94309179Y-54299716D01*
X94284515Y-54256997D01*
X94268044Y-54189099D01*
X94290897Y-54123072D01*
X94345819Y-54079882D01*
X94391904Y-54071000D01*
X94407634Y-54071000D01*
X94407649Y-54070999D01*
X94444489Y-54068100D01*
X94444495Y-54068099D01*
X94602193Y-54022283D01*
X94602196Y-54022282D01*
X94743552Y-53938685D01*
X94743561Y-53938678D01*
X94859678Y-53822561D01*
X94859685Y-53822552D01*
X94943281Y-53681198D01*
X94989100Y-53523486D01*
X94989295Y-53521001D01*
X94989295Y-53521000D01*
X93566000Y-53521000D01*
X93498961Y-53501315D01*
X93453206Y-53448511D01*
X93442000Y-53397000D01*
X93442000Y-53145000D01*
X93461685Y-53077961D01*
X93514489Y-53032206D01*
X93566000Y-53021000D01*
X94989295Y-53021000D01*
X94989295Y-53020998D01*
X94989100Y-53018513D01*
X94943281Y-52860801D01*
X94859685Y-52719447D01*
X94854900Y-52713278D01*
X94857366Y-52711364D01*
X94830802Y-52662776D01*
X94835749Y-52593082D01*
X94856856Y-52560232D01*
X94855301Y-52559026D01*
X94860077Y-52552868D01*
X94860081Y-52552865D01*
X94943744Y-52411398D01*
X94983411Y-52274865D01*
X94989597Y-52253573D01*
X94989598Y-52253567D01*
X94992499Y-52216701D01*
X94992500Y-52216694D01*
X94992500Y-51785306D01*
X94989598Y-51748431D01*
X94989598Y-51748429D01*
X94989261Y-51746585D01*
X94989370Y-51745542D01*
X94989101Y-51742114D01*
X94989737Y-51742063D01*
X94996577Y-51677099D01*
X95040299Y-51622600D01*
X95106545Y-51600390D01*
X95174282Y-51617521D01*
G37*
%TD.AperFunction*%
%TA.AperFunction,Conductor*%
G36*
X98285192Y-47689733D02*
G01*
X98291680Y-47695773D01*
X99589808Y-48993901D01*
X99623293Y-49055224D01*
X99621204Y-49116176D01*
X99594401Y-49208432D01*
X99591500Y-49245298D01*
X99591500Y-49676701D01*
X99594401Y-49713567D01*
X99594402Y-49713573D01*
X99640254Y-49871393D01*
X99640255Y-49871396D01*
X99723917Y-50012862D01*
X99728702Y-50019031D01*
X99726256Y-50020927D01*
X99752857Y-50069642D01*
X99747873Y-50139334D01*
X99727069Y-50171703D01*
X99728702Y-50172969D01*
X99723917Y-50179137D01*
X99640255Y-50320603D01*
X99640254Y-50320606D01*
X99594402Y-50478426D01*
X99594401Y-50478432D01*
X99591500Y-50515298D01*
X99591500Y-50946701D01*
X99594401Y-50983567D01*
X99594402Y-50983573D01*
X99640254Y-51141393D01*
X99640255Y-51141396D01*
X99688739Y-51223379D01*
X99705922Y-51291103D01*
X99683762Y-51357366D01*
X99629295Y-51401129D01*
X99582007Y-51410500D01*
X99185259Y-51410500D01*
X99153780Y-51418935D01*
X99043450Y-51448497D01*
X99043451Y-51448498D01*
X99035075Y-51450742D01*
X98900426Y-51528481D01*
X98900423Y-51528483D01*
X97552181Y-52876726D01*
X97490858Y-52910211D01*
X97421166Y-52905227D01*
X97365233Y-52863355D01*
X97340816Y-52797891D01*
X97340500Y-52789045D01*
X97340500Y-52274865D01*
X97340500Y-52274863D01*
X97300258Y-52124680D01*
X97300258Y-52124679D01*
X97300258Y-52124678D01*
X97222520Y-51990032D01*
X97222516Y-51990027D01*
X95985865Y-50753376D01*
X95952380Y-50692053D01*
X95957364Y-50622361D01*
X95985865Y-50578014D01*
X96133203Y-50430676D01*
X96416542Y-50147336D01*
X96474550Y-50114622D01*
X96482365Y-50112696D01*
X96622240Y-50039283D01*
X96740483Y-49934530D01*
X96830220Y-49804523D01*
X96886237Y-49656818D01*
X96905278Y-49500000D01*
X96891983Y-49390500D01*
X96886237Y-49343181D01*
X96849120Y-49245313D01*
X96830220Y-49195477D01*
X96740483Y-49065470D01*
X96622240Y-48960717D01*
X96622238Y-48960716D01*
X96622237Y-48960715D01*
X96482366Y-48887304D01*
X96411370Y-48869805D01*
X96350989Y-48834648D01*
X96319201Y-48772429D01*
X96326097Y-48702900D01*
X96353362Y-48661729D01*
X96766748Y-48248343D01*
X96828067Y-48214861D01*
X96897758Y-48219845D01*
X96929911Y-48237651D01*
X96977410Y-48274098D01*
X96977412Y-48274100D01*
X97123366Y-48334555D01*
X97123372Y-48334557D01*
X97179998Y-48342011D01*
X97180000Y-48342010D01*
X97180000Y-47886454D01*
X97199685Y-47819415D01*
X97216319Y-47798773D01*
X97268274Y-47746818D01*
X97329597Y-47713333D01*
X97355955Y-47710499D01*
X97456000Y-47710499D01*
X97523039Y-47730184D01*
X97568794Y-47782988D01*
X97580000Y-47834499D01*
X97580000Y-48342010D01*
X97580001Y-48342011D01*
X97636627Y-48334557D01*
X97636633Y-48334555D01*
X97782585Y-48274100D01*
X97907924Y-48177924D01*
X98004100Y-48052586D01*
X98064554Y-47906634D01*
X98064555Y-47906630D01*
X98079999Y-47789330D01*
X98079999Y-47783466D01*
X98099677Y-47716425D01*
X98152476Y-47670665D01*
X98221634Y-47660714D01*
X98285192Y-47689733D01*
G37*
%TD.AperFunction*%
%TA.AperFunction,Conductor*%
G36*
X96160203Y-45564742D02*
G01*
X96166681Y-45570774D01*
X96753181Y-46157274D01*
X96786666Y-46218597D01*
X96789500Y-46244955D01*
X96789500Y-46460709D01*
X96769815Y-46527748D01*
X96763878Y-46536193D01*
X96755466Y-46547155D01*
X96755464Y-46547159D01*
X96735001Y-46596558D01*
X96708122Y-46636783D01*
X95171726Y-48173181D01*
X95110403Y-48206666D01*
X95084045Y-48209500D01*
X91532260Y-48209500D01*
X91427201Y-48237651D01*
X91382076Y-48249742D01*
X91247427Y-48327481D01*
X91247424Y-48327483D01*
X90959931Y-48614977D01*
X90898608Y-48648462D01*
X90828916Y-48643478D01*
X90772983Y-48601606D01*
X90748566Y-48536142D01*
X90748250Y-48527296D01*
X90748250Y-48108204D01*
X90767935Y-48041165D01*
X90784565Y-48020527D01*
X91570316Y-47234775D01*
X91631637Y-47201292D01*
X91690085Y-47202682D01*
X91829592Y-47240063D01*
X92000319Y-47255000D01*
X92064999Y-47260659D01*
X92065000Y-47260659D01*
X92065001Y-47260659D01*
X92129681Y-47255000D01*
X92300408Y-47240063D01*
X92528663Y-47178903D01*
X92742830Y-47079035D01*
X92936401Y-46943495D01*
X93058717Y-46821178D01*
X93120036Y-46787696D01*
X93189728Y-46792680D01*
X93245662Y-46834551D01*
X93262577Y-46865528D01*
X93311646Y-46997088D01*
X93311649Y-46997093D01*
X93397809Y-47112187D01*
X93397812Y-47112190D01*
X93512906Y-47198350D01*
X93512913Y-47198354D01*
X93647620Y-47248596D01*
X93647627Y-47248598D01*
X93707155Y-47254999D01*
X93707172Y-47255000D01*
X94355000Y-47255000D01*
X94355000Y-46338012D01*
X94412007Y-46370925D01*
X94539174Y-46405000D01*
X94670826Y-46405000D01*
X94797993Y-46370925D01*
X94855000Y-46338012D01*
X94855000Y-47255000D01*
X95502828Y-47255000D01*
X95502844Y-47254999D01*
X95562372Y-47248598D01*
X95562379Y-47248596D01*
X95697086Y-47198354D01*
X95697093Y-47198350D01*
X95812187Y-47112190D01*
X95812190Y-47112187D01*
X95898350Y-46997093D01*
X95898354Y-46997086D01*
X95948596Y-46862379D01*
X95948598Y-46862372D01*
X95954999Y-46802844D01*
X95955000Y-46802827D01*
X95955000Y-46155000D01*
X95038012Y-46155000D01*
X95070925Y-46097993D01*
X95105000Y-45970826D01*
X95105000Y-45839174D01*
X95070925Y-45712007D01*
X95038012Y-45655000D01*
X95955000Y-45655000D01*
X95956436Y-45653563D01*
X95974685Y-45591416D01*
X96027489Y-45545661D01*
X96096647Y-45535717D01*
X96160203Y-45564742D01*
G37*
%TD.AperFunction*%
%TD*%
M02*
