%TF.GenerationSoftware,KiCad,Pcbnew,8.0.1*%
%TF.CreationDate,2024-03-30T16:51:40-04:00*%
%TF.ProjectId,pulp,70756c70-2e6b-4696-9361-645f70636258,rev?*%
%TF.SameCoordinates,Original*%
%TF.FileFunction,Soldermask,Top*%
%TF.FilePolarity,Negative*%
%FSLAX46Y46*%
G04 Gerber Fmt 4.6, Leading zero omitted, Abs format (unit mm)*
G04 Created by KiCad (PCBNEW 8.0.1) date 2024-03-30 16:51:40*
%MOMM*%
%LPD*%
G01*
G04 APERTURE LIST*
G04 Aperture macros list*
%AMRoundRect*
0 Rectangle with rounded corners*
0 $1 Rounding radius*
0 $2 $3 $4 $5 $6 $7 $8 $9 X,Y pos of 4 corners*
0 Add a 4 corners polygon primitive as box body*
4,1,4,$2,$3,$4,$5,$6,$7,$8,$9,$2,$3,0*
0 Add four circle primitives for the rounded corners*
1,1,$1+$1,$2,$3*
1,1,$1+$1,$4,$5*
1,1,$1+$1,$6,$7*
1,1,$1+$1,$8,$9*
0 Add four rect primitives between the rounded corners*
20,1,$1+$1,$2,$3,$4,$5,0*
20,1,$1+$1,$4,$5,$6,$7,0*
20,1,$1+$1,$6,$7,$8,$9,0*
20,1,$1+$1,$8,$9,$2,$3,0*%
%AMHorizOval*
0 Thick line with rounded ends*
0 $1 width*
0 $2 $3 position (X,Y) of the first rounded end (center of the circle)*
0 $4 $5 position (X,Y) of the second rounded end (center of the circle)*
0 Add line between two ends*
20,1,$1,$2,$3,$4,$5,0*
0 Add two circle primitives to create the rounded ends*
1,1,$1,$2,$3*
1,1,$1,$4,$5*%
%AMRotRect*
0 Rectangle, with rotation*
0 The origin of the aperture is its center*
0 $1 length*
0 $2 width*
0 $3 Rotation angle, in degrees counterclockwise*
0 Add horizontal line*
21,1,$1,$2,0,0,$3*%
G04 Aperture macros list end*
%ADD10RoundRect,0.100000X-0.100000X0.130000X-0.100000X-0.130000X0.100000X-0.130000X0.100000X0.130000X0*%
%ADD11RoundRect,0.250000X0.312500X1.450000X-0.312500X1.450000X-0.312500X-1.450000X0.312500X-1.450000X0*%
%ADD12RoundRect,0.100000X0.130000X0.100000X-0.130000X0.100000X-0.130000X-0.100000X0.130000X-0.100000X0*%
%ADD13O,1.700000X1.700000*%
%ADD14R,1.700000X1.700000*%
%ADD15RoundRect,0.100000X0.100000X-0.130000X0.100000X0.130000X-0.100000X0.130000X-0.100000X-0.130000X0*%
%ADD16RoundRect,0.062500X0.062500X-0.117500X0.062500X0.117500X-0.062500X0.117500X-0.062500X-0.117500X0*%
%ADD17R,3.200000X3.200000*%
%ADD18RoundRect,0.050000X-0.050000X-0.387500X0.050000X-0.387500X0.050000X0.387500X-0.050000X0.387500X0*%
%ADD19RoundRect,0.050000X-0.387500X-0.050000X0.387500X-0.050000X0.387500X0.050000X-0.387500X0.050000X0*%
%ADD20R,1.300000X1.100000*%
%ADD21R,1.500000X1.000000*%
%ADD22RoundRect,0.100000X-0.130000X-0.100000X0.130000X-0.100000X0.130000X0.100000X-0.130000X0.100000X0*%
%ADD23R,2.200000X1.050000*%
%ADD24R,1.000000X1.000000*%
%ADD25RoundRect,0.200000X-0.200000X-0.800000X0.200000X-0.800000X0.200000X0.800000X-0.200000X0.800000X0*%
%ADD26RoundRect,0.150000X-0.587500X-0.150000X0.587500X-0.150000X0.587500X0.150000X-0.587500X0.150000X0*%
%ADD27RoundRect,0.150000X-0.650000X-0.150000X0.650000X-0.150000X0.650000X0.150000X-0.650000X0.150000X0*%
%ADD28R,1.500000X2.000000*%
%ADD29R,3.800000X2.000000*%
%ADD30HorizOval,1.700000X0.000000X0.000000X0.000000X0.000000X0*%
%ADD31RotRect,1.700000X1.700000X45.000000*%
%ADD32RoundRect,0.175000X0.725000X0.175000X-0.725000X0.175000X-0.725000X-0.175000X0.725000X-0.175000X0*%
%ADD33RoundRect,0.200000X0.700000X0.200000X-0.700000X0.200000X-0.700000X-0.200000X0.700000X-0.200000X0*%
%ADD34O,0.950000X2.280000*%
%ADD35O,1.330000X1.980000*%
%ADD36O,0.950000X1.800000*%
%ADD37R,0.700000X0.350000*%
%ADD38C,0.650000*%
%ADD39R,0.300000X0.700000*%
%ADD40RotRect,1.700000X1.700000X315.000000*%
%ADD41HorizOval,1.700000X0.000000X0.000000X0.000000X0.000000X0*%
%ADD42R,0.300000X0.550000*%
%ADD43R,0.550000X0.300000*%
G04 APERTURE END LIST*
D10*
%TO.C,C7*%
X82560000Y-68135000D03*
X82560000Y-67495000D03*
%TD*%
D11*
%TO.C,D4*%
X68492500Y-69550000D03*
X72767500Y-69550000D03*
%TD*%
D12*
%TO.C,R21*%
X89405000Y-74050000D03*
X90045000Y-74050000D03*
%TD*%
D10*
%TO.C,C15*%
X86130000Y-69620000D03*
X86130000Y-68980000D03*
%TD*%
D12*
%TO.C,R13*%
X91384000Y-50858000D03*
X92024000Y-50858000D03*
%TD*%
D13*
%TO.C,J5*%
X37375000Y-46445000D03*
X37375000Y-48985000D03*
D14*
X37375000Y-51525000D03*
%TD*%
D10*
%TO.C,C21*%
X89392600Y-67586400D03*
X89392600Y-66946400D03*
%TD*%
D12*
%TO.C,R2*%
X108310000Y-61145000D03*
X108950000Y-61145000D03*
%TD*%
D10*
%TO.C,C28*%
X90281600Y-67586400D03*
X90281600Y-66946400D03*
%TD*%
%TO.C,R20*%
X92880000Y-77620000D03*
X92880000Y-76980000D03*
%TD*%
%TO.C,C20*%
X84287200Y-67586000D03*
X84287200Y-66946000D03*
%TD*%
D13*
%TO.C,J6*%
X74285000Y-45905000D03*
X76825000Y-45905000D03*
X79365000Y-45905000D03*
X81905000Y-45905000D03*
X84445000Y-45905000D03*
X86985000Y-45905000D03*
X89525000Y-45905000D03*
X92065000Y-45905000D03*
D14*
X94605000Y-45905000D03*
%TD*%
D15*
%TO.C,C19*%
X100880000Y-56730000D03*
X100880000Y-57370000D03*
%TD*%
D10*
%TO.C,C3*%
X62380000Y-61490000D03*
X62380000Y-60850000D03*
%TD*%
D15*
%TO.C,R10*%
X99705000Y-70350000D03*
X99705000Y-70990000D03*
%TD*%
D10*
%TO.C,C25*%
X86801800Y-67586000D03*
X86801800Y-66946000D03*
%TD*%
D15*
%TO.C,R5*%
X68130000Y-66480000D03*
X68130000Y-67120000D03*
%TD*%
D13*
%TO.C,J4*%
X37405000Y-74445000D03*
X37405000Y-76985000D03*
D14*
X37405000Y-79525000D03*
%TD*%
D12*
%TO.C,R1*%
X108310000Y-62415000D03*
X108950000Y-62415000D03*
%TD*%
D10*
%TO.C,C24*%
X85963600Y-67586400D03*
X85963600Y-66946400D03*
%TD*%
D16*
%TO.C,D1*%
X70130000Y-67220000D03*
X70130000Y-66380000D03*
%TD*%
D15*
%TO.C,C8*%
X97380000Y-46980000D03*
X97380000Y-47620000D03*
%TD*%
D12*
%TO.C,R16*%
X95956000Y-54668000D03*
X96596000Y-54668000D03*
%TD*%
D17*
%TO.C,U2*%
X97000000Y-63250000D03*
D18*
X94400000Y-59812500D03*
X94800000Y-59812500D03*
X95200000Y-59812500D03*
X95600000Y-59812500D03*
X96000000Y-59812500D03*
X96400000Y-59812500D03*
X96800000Y-59812500D03*
X97200000Y-59812500D03*
X97600000Y-59812500D03*
X98000000Y-59812500D03*
X98400000Y-59812500D03*
X98800000Y-59812500D03*
X99200000Y-59812500D03*
X99600000Y-59812500D03*
D19*
X100437500Y-60650000D03*
X100437500Y-61050000D03*
X100437500Y-61450000D03*
X100437500Y-61850000D03*
X100437500Y-62250000D03*
X100437500Y-62650000D03*
X100437500Y-63050000D03*
X100437500Y-63450000D03*
X100437500Y-63850000D03*
X100437500Y-64250000D03*
X100437500Y-64650000D03*
X100437500Y-65050000D03*
X100437500Y-65450000D03*
X100437500Y-65850000D03*
D18*
X99600000Y-66687500D03*
X99200000Y-66687500D03*
X98800000Y-66687500D03*
X98400000Y-66687500D03*
X98000000Y-66687500D03*
X97600000Y-66687500D03*
X97200000Y-66687500D03*
X96800000Y-66687500D03*
X96400000Y-66687500D03*
X96000000Y-66687500D03*
X95600000Y-66687500D03*
X95200000Y-66687500D03*
X94800000Y-66687500D03*
X94400000Y-66687500D03*
D19*
X93562500Y-65850000D03*
X93562500Y-65450000D03*
X93562500Y-65050000D03*
X93562500Y-64650000D03*
X93562500Y-64250000D03*
X93562500Y-63850000D03*
X93562500Y-63450000D03*
X93562500Y-63050000D03*
X93562500Y-62650000D03*
X93562500Y-62250000D03*
X93562500Y-61850000D03*
X93562500Y-61450000D03*
X93562500Y-61050000D03*
X93562500Y-60650000D03*
%TD*%
D16*
%TO.C,D2*%
X71130000Y-67220000D03*
X71130000Y-66380000D03*
%TD*%
D12*
%TO.C,L1*%
X43880000Y-63800000D03*
X44520000Y-63800000D03*
%TD*%
D15*
%TO.C,R17*%
X69250000Y-64230000D03*
X69250000Y-64870000D03*
%TD*%
D20*
%TO.C,X2*%
X97580000Y-71685000D03*
X95480000Y-71685000D03*
X95480000Y-70035000D03*
X97580000Y-70035000D03*
%TD*%
D10*
%TO.C,C16*%
X93130000Y-72870000D03*
X93130000Y-72230000D03*
%TD*%
D21*
%TO.C,D3*%
X95380000Y-79100000D03*
X95380000Y-80500000D03*
X91880000Y-80500000D03*
X91880000Y-79100000D03*
%TD*%
D10*
%TO.C,C6*%
X76130000Y-71275000D03*
X76130000Y-70635000D03*
%TD*%
%TO.C,C22*%
X88503600Y-67586400D03*
X88503600Y-66946400D03*
%TD*%
%TO.C,R19*%
X94390000Y-77640000D03*
X94390000Y-77000000D03*
%TD*%
D12*
%TO.C,C1*%
X110215000Y-59875000D03*
X110855000Y-59875000D03*
%TD*%
D10*
%TO.C,C26*%
X85125400Y-67586000D03*
X85125400Y-66946000D03*
%TD*%
%TO.C,C4*%
X45880000Y-64370000D03*
X45880000Y-63730000D03*
%TD*%
D22*
%TO.C,R22*%
X94380000Y-75300000D03*
X93740000Y-75300000D03*
%TD*%
D12*
%TO.C,R6*%
X91060000Y-49550000D03*
X91700000Y-49550000D03*
%TD*%
D23*
%TO.C,J1*%
X45880000Y-55575000D03*
D24*
X44380000Y-57050000D03*
D23*
X45880000Y-58525000D03*
D24*
X47380000Y-57050000D03*
%TD*%
D25*
%TO.C,SW1*%
X49730000Y-47800000D03*
X45530000Y-47800000D03*
%TD*%
D22*
%TO.C,R7*%
X52605000Y-78800000D03*
X51965000Y-78800000D03*
%TD*%
D12*
%TO.C,R12*%
X100020000Y-54668000D03*
X100660000Y-54668000D03*
%TD*%
D26*
%TO.C,Q2*%
X97755000Y-76350000D03*
X95880000Y-77300000D03*
X95880000Y-75400000D03*
%TD*%
D12*
%TO.C,R23*%
X87130000Y-77550000D03*
X87770000Y-77550000D03*
%TD*%
D27*
%TO.C,U5*%
X100892000Y-49461000D03*
X100892000Y-50731000D03*
X100892000Y-52001000D03*
X100892000Y-53271000D03*
X93692000Y-53271000D03*
X93692000Y-52001000D03*
X93692000Y-50731000D03*
X93692000Y-49461000D03*
%TD*%
D15*
%TO.C,C2*%
X114345000Y-62730000D03*
X114345000Y-63370000D03*
%TD*%
D28*
%TO.C,U4*%
X80415000Y-67470000D03*
D29*
X78115000Y-61170000D03*
D28*
X78115000Y-67470000D03*
X75815000Y-67470000D03*
%TD*%
D12*
%TO.C,R4*%
X64950000Y-80600000D03*
X64310000Y-80600000D03*
%TD*%
%TO.C,R3*%
X47310000Y-63050000D03*
X47950000Y-63050000D03*
%TD*%
D26*
%TO.C,Q3*%
X88630000Y-79800000D03*
X86755000Y-80750000D03*
X86755000Y-78850000D03*
%TD*%
D15*
%TO.C,C17*%
X98880000Y-56730000D03*
X98880000Y-57370000D03*
%TD*%
D22*
%TO.C,R8*%
X51880000Y-47800000D03*
X51240000Y-47800000D03*
%TD*%
D10*
%TO.C,C5*%
X74860000Y-71245000D03*
X74860000Y-70605000D03*
%TD*%
D26*
%TO.C,Q1*%
X91130000Y-76300000D03*
X89255000Y-77250000D03*
X89255000Y-75350000D03*
%TD*%
D10*
%TO.C,R15*%
X101864000Y-55496000D03*
X101864000Y-54856000D03*
%TD*%
%TO.C,R18*%
X72000000Y-64820000D03*
X72000000Y-64180000D03*
%TD*%
D15*
%TO.C,C18*%
X99880000Y-56730000D03*
X99880000Y-57370000D03*
%TD*%
D25*
%TO.C,SW2*%
X49730000Y-78750000D03*
X45530000Y-78750000D03*
%TD*%
D10*
%TO.C,C23*%
X87614600Y-67586400D03*
X87614600Y-66946400D03*
%TD*%
D30*
%TO.C,J3*%
X107800898Y-58188082D03*
D31*
X106004847Y-56392031D03*
%TD*%
D32*
%TO.C,U3*%
X49870000Y-67450000D03*
D33*
X49870000Y-66350000D03*
X49870000Y-65250000D03*
X49870000Y-64150000D03*
X49870000Y-63050000D03*
X49870000Y-61950000D03*
X49870000Y-60850000D03*
X49870000Y-59750000D03*
D32*
X49870000Y-58650000D03*
X59370000Y-58650000D03*
D33*
X59370000Y-59750000D03*
X59370000Y-60850000D03*
X59370000Y-61950000D03*
X59370000Y-63050000D03*
X59370000Y-64150000D03*
X59370000Y-65250000D03*
X59370000Y-66350000D03*
D32*
X59370000Y-67450000D03*
%TD*%
D12*
%TO.C,R14*%
X91384000Y-52128000D03*
X92024000Y-52128000D03*
%TD*%
D34*
%TO.C,J7*%
X75375000Y-78910000D03*
D35*
X75190000Y-76000000D03*
D36*
X75095000Y-74020000D03*
D37*
X74175000Y-72955000D03*
X67425000Y-72955000D03*
D36*
X66505000Y-74020000D03*
D35*
X66410000Y-76000000D03*
D34*
X66225000Y-78910000D03*
D38*
X68000000Y-74850000D03*
X68400000Y-75750000D03*
X69200000Y-75750000D03*
X69600000Y-74850000D03*
X70000000Y-75750000D03*
X70400000Y-74850000D03*
X71200000Y-74850000D03*
X71600000Y-75750000D03*
X72000000Y-74850000D03*
X72400000Y-75750000D03*
X73200000Y-75750000D03*
X73600000Y-74850000D03*
D39*
X73550000Y-73740000D03*
X73050000Y-73740000D03*
X72550000Y-73740000D03*
X72050000Y-73740000D03*
X71550000Y-73740000D03*
X71050000Y-73740000D03*
X70550000Y-73740000D03*
X70050000Y-73740000D03*
X69550000Y-73740000D03*
X69050000Y-73740000D03*
X68550000Y-73740000D03*
X68050000Y-73740000D03*
%TD*%
D22*
%TO.C,R11*%
X84950000Y-69050000D03*
X84310000Y-69050000D03*
%TD*%
D10*
%TO.C,C27*%
X91170600Y-67586400D03*
X91170600Y-66946400D03*
%TD*%
D40*
%TO.C,J2*%
X107807969Y-67604847D03*
D41*
X106011918Y-69400898D03*
%TD*%
D42*
%TO.C,U1*%
X111055000Y-61725000D03*
X111555000Y-61725000D03*
X112055000Y-61725000D03*
X112555000Y-61725000D03*
D43*
X113130000Y-62300000D03*
X113130000Y-62800000D03*
X113130000Y-63300000D03*
X113130000Y-63800000D03*
D42*
X112555000Y-64375000D03*
X112055000Y-64375000D03*
X111555000Y-64375000D03*
X111055000Y-64375000D03*
D43*
X110480000Y-63800000D03*
X110480000Y-63300000D03*
X110480000Y-62800000D03*
X110480000Y-62300000D03*
%TD*%
D15*
%TO.C,R9*%
X90130000Y-79550000D03*
X90130000Y-80190000D03*
%TD*%
M02*
