%TF.GenerationSoftware,KiCad,Pcbnew,8.0.1*%
%TF.CreationDate,2024-03-30T16:51:40-04:00*%
%TF.ProjectId,pulp,70756c70-2e6b-4696-9361-645f70636258,rev?*%
%TF.SameCoordinates,Original*%
%TF.FileFunction,Legend,Top*%
%TF.FilePolarity,Positive*%
%FSLAX46Y46*%
G04 Gerber Fmt 4.6, Leading zero omitted, Abs format (unit mm)*
G04 Created by KiCad (PCBNEW 8.0.1) date 2024-03-30 16:51:40*
%MOMM*%
%LPD*%
G01*
G04 APERTURE LIST*
%ADD10C,0.125000*%
%ADD11C,0.100000*%
%ADD12C,0.150000*%
%ADD13C,0.120000*%
%ADD14C,0.381000*%
G04 APERTURE END LIST*
D10*
X39329855Y-74032309D02*
X39496521Y-74532309D01*
X39496521Y-74532309D02*
X39663188Y-74032309D01*
X39829854Y-74532309D02*
X39829854Y-74032309D01*
X40067949Y-74532309D02*
X40067949Y-74032309D01*
X40067949Y-74032309D02*
X40353663Y-74532309D01*
X40353663Y-74532309D02*
X40353663Y-74032309D01*
X39663188Y-79656119D02*
X39615569Y-79632309D01*
X39615569Y-79632309D02*
X39544140Y-79632309D01*
X39544140Y-79632309D02*
X39472712Y-79656119D01*
X39472712Y-79656119D02*
X39425093Y-79703738D01*
X39425093Y-79703738D02*
X39401283Y-79751357D01*
X39401283Y-79751357D02*
X39377474Y-79846595D01*
X39377474Y-79846595D02*
X39377474Y-79918023D01*
X39377474Y-79918023D02*
X39401283Y-80013261D01*
X39401283Y-80013261D02*
X39425093Y-80060880D01*
X39425093Y-80060880D02*
X39472712Y-80108500D01*
X39472712Y-80108500D02*
X39544140Y-80132309D01*
X39544140Y-80132309D02*
X39591759Y-80132309D01*
X39591759Y-80132309D02*
X39663188Y-80108500D01*
X39663188Y-80108500D02*
X39686997Y-80084690D01*
X39686997Y-80084690D02*
X39686997Y-79918023D01*
X39686997Y-79918023D02*
X39591759Y-79918023D01*
X39901283Y-80132309D02*
X39901283Y-79632309D01*
X39901283Y-79632309D02*
X40186997Y-80132309D01*
X40186997Y-80132309D02*
X40186997Y-79632309D01*
X40425093Y-80132309D02*
X40425093Y-79632309D01*
X40425093Y-79632309D02*
X40544141Y-79632309D01*
X40544141Y-79632309D02*
X40615569Y-79656119D01*
X40615569Y-79656119D02*
X40663188Y-79703738D01*
X40663188Y-79703738D02*
X40686998Y-79751357D01*
X40686998Y-79751357D02*
X40710807Y-79846595D01*
X40710807Y-79846595D02*
X40710807Y-79918023D01*
X40710807Y-79918023D02*
X40686998Y-80013261D01*
X40686998Y-80013261D02*
X40663188Y-80060880D01*
X40663188Y-80060880D02*
X40615569Y-80108500D01*
X40615569Y-80108500D02*
X40544141Y-80132309D01*
X40544141Y-80132309D02*
X40425093Y-80132309D01*
X39401283Y-49332309D02*
X39401283Y-48832309D01*
X39401283Y-48832309D02*
X39591759Y-48832309D01*
X39591759Y-48832309D02*
X39639378Y-48856119D01*
X39639378Y-48856119D02*
X39663188Y-48879928D01*
X39663188Y-48879928D02*
X39686997Y-48927547D01*
X39686997Y-48927547D02*
X39686997Y-48998976D01*
X39686997Y-48998976D02*
X39663188Y-49046595D01*
X39663188Y-49046595D02*
X39639378Y-49070404D01*
X39639378Y-49070404D02*
X39591759Y-49094214D01*
X39591759Y-49094214D02*
X39401283Y-49094214D01*
X39853664Y-48832309D02*
X39972712Y-49332309D01*
X39972712Y-49332309D02*
X40067950Y-48975166D01*
X40067950Y-48975166D02*
X40163188Y-49332309D01*
X40163188Y-49332309D02*
X40282236Y-48832309D01*
X40472712Y-49332309D02*
X40472712Y-48832309D01*
X40472712Y-48832309D02*
X40639379Y-49189452D01*
X40639379Y-49189452D02*
X40806045Y-48832309D01*
X40806045Y-48832309D02*
X40806045Y-49332309D01*
X40925094Y-49379928D02*
X41306046Y-49379928D01*
X41663188Y-49332309D02*
X41425093Y-49332309D01*
X41425093Y-49332309D02*
X41425093Y-48832309D01*
X39663188Y-51856119D02*
X39615569Y-51832309D01*
X39615569Y-51832309D02*
X39544140Y-51832309D01*
X39544140Y-51832309D02*
X39472712Y-51856119D01*
X39472712Y-51856119D02*
X39425093Y-51903738D01*
X39425093Y-51903738D02*
X39401283Y-51951357D01*
X39401283Y-51951357D02*
X39377474Y-52046595D01*
X39377474Y-52046595D02*
X39377474Y-52118023D01*
X39377474Y-52118023D02*
X39401283Y-52213261D01*
X39401283Y-52213261D02*
X39425093Y-52260880D01*
X39425093Y-52260880D02*
X39472712Y-52308500D01*
X39472712Y-52308500D02*
X39544140Y-52332309D01*
X39544140Y-52332309D02*
X39591759Y-52332309D01*
X39591759Y-52332309D02*
X39663188Y-52308500D01*
X39663188Y-52308500D02*
X39686997Y-52284690D01*
X39686997Y-52284690D02*
X39686997Y-52118023D01*
X39686997Y-52118023D02*
X39591759Y-52118023D01*
X39901283Y-52332309D02*
X39901283Y-51832309D01*
X39901283Y-51832309D02*
X40186997Y-52332309D01*
X40186997Y-52332309D02*
X40186997Y-51832309D01*
X40425093Y-52332309D02*
X40425093Y-51832309D01*
X40425093Y-51832309D02*
X40544141Y-51832309D01*
X40544141Y-51832309D02*
X40615569Y-51856119D01*
X40615569Y-51856119D02*
X40663188Y-51903738D01*
X40663188Y-51903738D02*
X40686998Y-51951357D01*
X40686998Y-51951357D02*
X40710807Y-52046595D01*
X40710807Y-52046595D02*
X40710807Y-52118023D01*
X40710807Y-52118023D02*
X40686998Y-52213261D01*
X40686998Y-52213261D02*
X40663188Y-52260880D01*
X40663188Y-52260880D02*
X40615569Y-52308500D01*
X40615569Y-52308500D02*
X40544141Y-52332309D01*
X40544141Y-52332309D02*
X40425093Y-52332309D01*
X39401283Y-77332309D02*
X39401283Y-76832309D01*
X39401283Y-76832309D02*
X39591759Y-76832309D01*
X39591759Y-76832309D02*
X39639378Y-76856119D01*
X39639378Y-76856119D02*
X39663188Y-76879928D01*
X39663188Y-76879928D02*
X39686997Y-76927547D01*
X39686997Y-76927547D02*
X39686997Y-76998976D01*
X39686997Y-76998976D02*
X39663188Y-77046595D01*
X39663188Y-77046595D02*
X39639378Y-77070404D01*
X39639378Y-77070404D02*
X39591759Y-77094214D01*
X39591759Y-77094214D02*
X39401283Y-77094214D01*
X39853664Y-76832309D02*
X39972712Y-77332309D01*
X39972712Y-77332309D02*
X40067950Y-76975166D01*
X40067950Y-76975166D02*
X40163188Y-77332309D01*
X40163188Y-77332309D02*
X40282236Y-76832309D01*
X40472712Y-77332309D02*
X40472712Y-76832309D01*
X40472712Y-76832309D02*
X40639379Y-77189452D01*
X40639379Y-77189452D02*
X40806045Y-76832309D01*
X40806045Y-76832309D02*
X40806045Y-77332309D01*
X40925094Y-77379928D02*
X41306046Y-77379928D01*
X41710807Y-77332309D02*
X41544141Y-77094214D01*
X41425093Y-77332309D02*
X41425093Y-76832309D01*
X41425093Y-76832309D02*
X41615569Y-76832309D01*
X41615569Y-76832309D02*
X41663188Y-76856119D01*
X41663188Y-76856119D02*
X41686998Y-76879928D01*
X41686998Y-76879928D02*
X41710807Y-76927547D01*
X41710807Y-76927547D02*
X41710807Y-76998976D01*
X41710807Y-76998976D02*
X41686998Y-77046595D01*
X41686998Y-77046595D02*
X41663188Y-77070404D01*
X41663188Y-77070404D02*
X41615569Y-77094214D01*
X41615569Y-77094214D02*
X41425093Y-77094214D01*
X39329855Y-46232309D02*
X39496521Y-46732309D01*
X39496521Y-46732309D02*
X39663188Y-46232309D01*
X39829854Y-46732309D02*
X39829854Y-46232309D01*
X40067949Y-46732309D02*
X40067949Y-46232309D01*
X40067949Y-46232309D02*
X40353663Y-46732309D01*
X40353663Y-46732309D02*
X40353663Y-46232309D01*
X108894464Y-60609806D02*
X108540911Y-60256253D01*
X108726105Y-60138402D02*
X108726105Y-60104730D01*
X108726105Y-60104730D02*
X108742941Y-60054222D01*
X108742941Y-60054222D02*
X108827120Y-59970043D01*
X108827120Y-59970043D02*
X108877628Y-59953207D01*
X108877628Y-59953207D02*
X108911300Y-59953207D01*
X108911300Y-59953207D02*
X108961807Y-59970043D01*
X108961807Y-59970043D02*
X108995479Y-60003715D01*
X108995479Y-60003715D02*
X109029151Y-60071058D01*
X109029151Y-60071058D02*
X109029151Y-60475119D01*
X109029151Y-60475119D02*
X109248017Y-60256253D01*
X109567899Y-59869028D02*
X109567899Y-59902700D01*
X109567899Y-59902700D02*
X109534227Y-59970043D01*
X109534227Y-59970043D02*
X109500555Y-60003715D01*
X109500555Y-60003715D02*
X109433212Y-60037387D01*
X109433212Y-60037387D02*
X109365868Y-60037387D01*
X109365868Y-60037387D02*
X109315361Y-60020551D01*
X109315361Y-60020551D02*
X109231181Y-59970043D01*
X109231181Y-59970043D02*
X109180673Y-59919536D01*
X109180673Y-59919536D02*
X109130166Y-59835356D01*
X109130166Y-59835356D02*
X109113330Y-59784849D01*
X109113330Y-59784849D02*
X109113330Y-59717505D01*
X109113330Y-59717505D02*
X109147002Y-59650162D01*
X109147002Y-59650162D02*
X109180673Y-59616490D01*
X109180673Y-59616490D02*
X109248017Y-59582818D01*
X109248017Y-59582818D02*
X109281689Y-59582818D01*
X109702586Y-59869028D02*
X109971960Y-59599654D01*
X109988795Y-59481803D02*
X110056139Y-59448131D01*
X110056139Y-59448131D02*
X110140318Y-59363952D01*
X110140318Y-59363952D02*
X110157154Y-59313444D01*
X110157154Y-59313444D02*
X110157154Y-59279773D01*
X110157154Y-59279773D02*
X110140318Y-59229265D01*
X110140318Y-59229265D02*
X110106646Y-59195593D01*
X110106646Y-59195593D02*
X110056139Y-59178757D01*
X110056139Y-59178757D02*
X110022467Y-59178757D01*
X110022467Y-59178757D02*
X109971959Y-59195593D01*
X109971959Y-59195593D02*
X109887780Y-59246101D01*
X109887780Y-59246101D02*
X109837272Y-59262937D01*
X109837272Y-59262937D02*
X109803601Y-59262937D01*
X109803601Y-59262937D02*
X109753093Y-59246101D01*
X109753093Y-59246101D02*
X109719421Y-59212429D01*
X109719421Y-59212429D02*
X109702585Y-59161922D01*
X109702585Y-59161922D02*
X109702585Y-59128250D01*
X109702585Y-59128250D02*
X109719421Y-59077742D01*
X109719421Y-59077742D02*
X109803601Y-58993563D01*
X109803601Y-58993563D02*
X109870944Y-58959891D01*
X110359184Y-59145086D02*
X110005631Y-58791533D01*
X110005631Y-58791533D02*
X110089810Y-58707353D01*
X110089810Y-58707353D02*
X110157154Y-58673681D01*
X110157154Y-58673681D02*
X110224497Y-58673681D01*
X110224497Y-58673681D02*
X110275005Y-58690517D01*
X110275005Y-58690517D02*
X110359184Y-58741025D01*
X110359184Y-58741025D02*
X110409692Y-58791533D01*
X110409692Y-58791533D02*
X110460199Y-58875712D01*
X110460199Y-58875712D02*
X110477035Y-58926220D01*
X110477035Y-58926220D02*
X110477035Y-58993563D01*
X110477035Y-58993563D02*
X110443364Y-59060907D01*
X110443364Y-59060907D02*
X110359184Y-59145086D01*
X110594886Y-58707353D02*
X110763245Y-58538994D01*
X110662230Y-58842040D02*
X110426528Y-58370636D01*
X110426528Y-58370636D02*
X110897932Y-58606338D01*
X110998947Y-57798217D02*
X111032619Y-57764545D01*
X111032619Y-57764545D02*
X111083126Y-57747709D01*
X111083126Y-57747709D02*
X111116798Y-57747709D01*
X111116798Y-57747709D02*
X111167306Y-57764545D01*
X111167306Y-57764545D02*
X111251485Y-57815052D01*
X111251485Y-57815052D02*
X111335664Y-57899232D01*
X111335664Y-57899232D02*
X111386172Y-57983411D01*
X111386172Y-57983411D02*
X111403008Y-58033919D01*
X111403008Y-58033919D02*
X111403008Y-58067591D01*
X111403008Y-58067591D02*
X111386172Y-58118098D01*
X111386172Y-58118098D02*
X111352500Y-58151770D01*
X111352500Y-58151770D02*
X111301993Y-58168606D01*
X111301993Y-58168606D02*
X111268321Y-58168606D01*
X111268321Y-58168606D02*
X111217813Y-58151770D01*
X111217813Y-58151770D02*
X111133634Y-58101262D01*
X111133634Y-58101262D02*
X111049455Y-58017083D01*
X111049455Y-58017083D02*
X110998947Y-57932904D01*
X110998947Y-57932904D02*
X110982111Y-57882396D01*
X110982111Y-57882396D02*
X110982111Y-57848724D01*
X110982111Y-57848724D02*
X110998947Y-57798217D01*
D11*
X104083754Y-55622355D02*
X103730200Y-55268802D01*
X103915395Y-55150951D02*
X103915395Y-55117279D01*
X103915395Y-55117279D02*
X103932231Y-55066771D01*
X103932231Y-55066771D02*
X104016410Y-54982592D01*
X104016410Y-54982592D02*
X104066918Y-54965756D01*
X104066918Y-54965756D02*
X104100589Y-54965756D01*
X104100589Y-54965756D02*
X104151097Y-54982592D01*
X104151097Y-54982592D02*
X104184769Y-55016264D01*
X104184769Y-55016264D02*
X104218440Y-55083607D01*
X104218440Y-55083607D02*
X104218440Y-55487668D01*
X104218440Y-55487668D02*
X104437307Y-55268802D01*
X104757188Y-54881577D02*
X104757188Y-54915249D01*
X104757188Y-54915249D02*
X104723516Y-54982592D01*
X104723516Y-54982592D02*
X104689845Y-55016264D01*
X104689845Y-55016264D02*
X104622501Y-55049936D01*
X104622501Y-55049936D02*
X104555158Y-55049936D01*
X104555158Y-55049936D02*
X104504650Y-55033100D01*
X104504650Y-55033100D02*
X104420471Y-54982592D01*
X104420471Y-54982592D02*
X104369963Y-54932085D01*
X104369963Y-54932085D02*
X104319455Y-54847905D01*
X104319455Y-54847905D02*
X104302619Y-54797398D01*
X104302619Y-54797398D02*
X104302619Y-54730054D01*
X104302619Y-54730054D02*
X104336291Y-54662711D01*
X104336291Y-54662711D02*
X104369963Y-54629039D01*
X104369963Y-54629039D02*
X104437306Y-54595367D01*
X104437306Y-54595367D02*
X104470978Y-54595367D01*
X104891875Y-54881577D02*
X105161249Y-54612203D01*
X105178085Y-54494352D02*
X105245428Y-54460680D01*
X105245428Y-54460680D02*
X105329608Y-54376501D01*
X105329608Y-54376501D02*
X105346443Y-54325993D01*
X105346443Y-54325993D02*
X105346443Y-54292322D01*
X105346443Y-54292322D02*
X105329608Y-54241814D01*
X105329608Y-54241814D02*
X105295936Y-54208142D01*
X105295936Y-54208142D02*
X105245428Y-54191306D01*
X105245428Y-54191306D02*
X105211756Y-54191306D01*
X105211756Y-54191306D02*
X105161249Y-54208142D01*
X105161249Y-54208142D02*
X105077069Y-54258650D01*
X105077069Y-54258650D02*
X105026562Y-54275486D01*
X105026562Y-54275486D02*
X104992890Y-54275486D01*
X104992890Y-54275486D02*
X104942382Y-54258650D01*
X104942382Y-54258650D02*
X104908711Y-54224978D01*
X104908711Y-54224978D02*
X104891875Y-54174471D01*
X104891875Y-54174471D02*
X104891875Y-54140799D01*
X104891875Y-54140799D02*
X104908711Y-54090291D01*
X104908711Y-54090291D02*
X104992890Y-54006112D01*
X104992890Y-54006112D02*
X105060234Y-53972440D01*
X105716832Y-53921933D02*
X105716832Y-53955605D01*
X105716832Y-53955605D02*
X105683161Y-54022948D01*
X105683161Y-54022948D02*
X105649489Y-54056620D01*
X105649489Y-54056620D02*
X105582145Y-54090292D01*
X105582145Y-54090292D02*
X105514802Y-54090292D01*
X105514802Y-54090292D02*
X105464294Y-54073456D01*
X105464294Y-54073456D02*
X105380115Y-54022948D01*
X105380115Y-54022948D02*
X105329607Y-53972440D01*
X105329607Y-53972440D02*
X105279100Y-53888261D01*
X105279100Y-53888261D02*
X105262264Y-53837753D01*
X105262264Y-53837753D02*
X105262264Y-53770410D01*
X105262264Y-53770410D02*
X105295936Y-53703066D01*
X105295936Y-53703066D02*
X105329607Y-53669395D01*
X105329607Y-53669395D02*
X105396951Y-53635723D01*
X105396951Y-53635723D02*
X105430623Y-53635723D01*
X106070386Y-53635723D02*
X105902027Y-53804082D01*
X105902027Y-53804082D02*
X105548474Y-53450528D01*
X106171401Y-52827601D02*
X106205073Y-52793929D01*
X106205073Y-52793929D02*
X106255580Y-52777093D01*
X106255580Y-52777093D02*
X106289252Y-52777093D01*
X106289252Y-52777093D02*
X106339760Y-52793929D01*
X106339760Y-52793929D02*
X106423939Y-52844437D01*
X106423939Y-52844437D02*
X106508118Y-52928616D01*
X106508118Y-52928616D02*
X106558626Y-53012796D01*
X106558626Y-53012796D02*
X106575462Y-53063303D01*
X106575462Y-53063303D02*
X106575462Y-53096975D01*
X106575462Y-53096975D02*
X106558626Y-53147483D01*
X106558626Y-53147483D02*
X106524954Y-53181154D01*
X106524954Y-53181154D02*
X106474447Y-53197990D01*
X106474447Y-53197990D02*
X106440775Y-53197990D01*
X106440775Y-53197990D02*
X106390267Y-53181154D01*
X106390267Y-53181154D02*
X106306088Y-53130647D01*
X106306088Y-53130647D02*
X106221908Y-53046467D01*
X106221908Y-53046467D02*
X106171401Y-52962288D01*
X106171401Y-52962288D02*
X106154565Y-52911780D01*
X106154565Y-52911780D02*
X106154565Y-52878109D01*
X106154565Y-52878109D02*
X106171401Y-52827601D01*
D10*
X103190193Y-69894464D02*
X103543746Y-69540911D01*
X103661597Y-69726105D02*
X103695269Y-69726105D01*
X103695269Y-69726105D02*
X103745777Y-69742941D01*
X103745777Y-69742941D02*
X103829956Y-69827120D01*
X103829956Y-69827120D02*
X103846792Y-69877628D01*
X103846792Y-69877628D02*
X103846792Y-69911300D01*
X103846792Y-69911300D02*
X103829956Y-69961807D01*
X103829956Y-69961807D02*
X103796284Y-69995479D01*
X103796284Y-69995479D02*
X103728941Y-70029151D01*
X103728941Y-70029151D02*
X103324880Y-70029151D01*
X103324880Y-70029151D02*
X103543746Y-70248017D01*
X103930971Y-70567899D02*
X103897299Y-70567899D01*
X103897299Y-70567899D02*
X103829956Y-70534227D01*
X103829956Y-70534227D02*
X103796284Y-70500555D01*
X103796284Y-70500555D02*
X103762612Y-70433212D01*
X103762612Y-70433212D02*
X103762612Y-70365868D01*
X103762612Y-70365868D02*
X103779448Y-70315361D01*
X103779448Y-70315361D02*
X103829956Y-70231181D01*
X103829956Y-70231181D02*
X103880463Y-70180673D01*
X103880463Y-70180673D02*
X103964643Y-70130166D01*
X103964643Y-70130166D02*
X104015150Y-70113330D01*
X104015150Y-70113330D02*
X104082494Y-70113330D01*
X104082494Y-70113330D02*
X104149837Y-70147002D01*
X104149837Y-70147002D02*
X104183509Y-70180673D01*
X104183509Y-70180673D02*
X104217181Y-70248017D01*
X104217181Y-70248017D02*
X104217181Y-70281689D01*
X103930971Y-70702586D02*
X104200345Y-70971960D01*
X104318196Y-70988795D02*
X104351868Y-71056139D01*
X104351868Y-71056139D02*
X104436047Y-71140318D01*
X104436047Y-71140318D02*
X104486555Y-71157154D01*
X104486555Y-71157154D02*
X104520226Y-71157154D01*
X104520226Y-71157154D02*
X104570734Y-71140318D01*
X104570734Y-71140318D02*
X104604406Y-71106646D01*
X104604406Y-71106646D02*
X104621242Y-71056139D01*
X104621242Y-71056139D02*
X104621242Y-71022467D01*
X104621242Y-71022467D02*
X104604406Y-70971959D01*
X104604406Y-70971959D02*
X104553898Y-70887780D01*
X104553898Y-70887780D02*
X104537062Y-70837272D01*
X104537062Y-70837272D02*
X104537062Y-70803601D01*
X104537062Y-70803601D02*
X104553898Y-70753093D01*
X104553898Y-70753093D02*
X104587570Y-70719421D01*
X104587570Y-70719421D02*
X104638077Y-70702585D01*
X104638077Y-70702585D02*
X104671749Y-70702585D01*
X104671749Y-70702585D02*
X104722257Y-70719421D01*
X104722257Y-70719421D02*
X104806436Y-70803601D01*
X104806436Y-70803601D02*
X104840108Y-70870944D01*
X104654913Y-71359184D02*
X105008466Y-71005631D01*
X105008466Y-71005631D02*
X105092646Y-71089810D01*
X105092646Y-71089810D02*
X105126318Y-71157154D01*
X105126318Y-71157154D02*
X105126318Y-71224497D01*
X105126318Y-71224497D02*
X105109482Y-71275005D01*
X105109482Y-71275005D02*
X105058974Y-71359184D01*
X105058974Y-71359184D02*
X105008466Y-71409692D01*
X105008466Y-71409692D02*
X104924287Y-71460199D01*
X104924287Y-71460199D02*
X104873779Y-71477035D01*
X104873779Y-71477035D02*
X104806436Y-71477035D01*
X104806436Y-71477035D02*
X104739092Y-71443364D01*
X104739092Y-71443364D02*
X104654913Y-71359184D01*
X105092646Y-71594886D02*
X105261005Y-71763245D01*
X104957959Y-71662230D02*
X105429363Y-71426528D01*
X105429363Y-71426528D02*
X105193661Y-71897932D01*
X105766080Y-72470351D02*
X105564050Y-72268321D01*
X105665065Y-72369336D02*
X106018618Y-72015783D01*
X106018618Y-72015783D02*
X105934439Y-72032619D01*
X105934439Y-72032619D02*
X105867095Y-72032619D01*
X105867095Y-72032619D02*
X105816588Y-72015783D01*
D11*
X108377644Y-65483754D02*
X108731197Y-65130200D01*
X108849048Y-65315395D02*
X108882720Y-65315395D01*
X108882720Y-65315395D02*
X108933228Y-65332231D01*
X108933228Y-65332231D02*
X109017407Y-65416410D01*
X109017407Y-65416410D02*
X109034243Y-65466918D01*
X109034243Y-65466918D02*
X109034243Y-65500589D01*
X109034243Y-65500589D02*
X109017407Y-65551097D01*
X109017407Y-65551097D02*
X108983735Y-65584769D01*
X108983735Y-65584769D02*
X108916392Y-65618440D01*
X108916392Y-65618440D02*
X108512331Y-65618440D01*
X108512331Y-65618440D02*
X108731197Y-65837307D01*
X109118422Y-66157188D02*
X109084750Y-66157188D01*
X109084750Y-66157188D02*
X109017407Y-66123516D01*
X109017407Y-66123516D02*
X108983735Y-66089845D01*
X108983735Y-66089845D02*
X108950063Y-66022501D01*
X108950063Y-66022501D02*
X108950063Y-65955158D01*
X108950063Y-65955158D02*
X108966899Y-65904650D01*
X108966899Y-65904650D02*
X109017407Y-65820471D01*
X109017407Y-65820471D02*
X109067914Y-65769963D01*
X109067914Y-65769963D02*
X109152094Y-65719455D01*
X109152094Y-65719455D02*
X109202601Y-65702619D01*
X109202601Y-65702619D02*
X109269945Y-65702619D01*
X109269945Y-65702619D02*
X109337288Y-65736291D01*
X109337288Y-65736291D02*
X109370960Y-65769963D01*
X109370960Y-65769963D02*
X109404632Y-65837306D01*
X109404632Y-65837306D02*
X109404632Y-65870978D01*
X109118422Y-66291875D02*
X109387796Y-66561249D01*
X109505647Y-66578085D02*
X109539319Y-66645428D01*
X109539319Y-66645428D02*
X109623498Y-66729608D01*
X109623498Y-66729608D02*
X109674006Y-66746443D01*
X109674006Y-66746443D02*
X109707677Y-66746443D01*
X109707677Y-66746443D02*
X109758185Y-66729608D01*
X109758185Y-66729608D02*
X109791857Y-66695936D01*
X109791857Y-66695936D02*
X109808693Y-66645428D01*
X109808693Y-66645428D02*
X109808693Y-66611756D01*
X109808693Y-66611756D02*
X109791857Y-66561249D01*
X109791857Y-66561249D02*
X109741349Y-66477069D01*
X109741349Y-66477069D02*
X109724513Y-66426562D01*
X109724513Y-66426562D02*
X109724513Y-66392890D01*
X109724513Y-66392890D02*
X109741349Y-66342382D01*
X109741349Y-66342382D02*
X109775021Y-66308711D01*
X109775021Y-66308711D02*
X109825528Y-66291875D01*
X109825528Y-66291875D02*
X109859200Y-66291875D01*
X109859200Y-66291875D02*
X109909708Y-66308711D01*
X109909708Y-66308711D02*
X109993887Y-66392890D01*
X109993887Y-66392890D02*
X110027559Y-66460234D01*
X110078066Y-67116832D02*
X110044394Y-67116832D01*
X110044394Y-67116832D02*
X109977051Y-67083161D01*
X109977051Y-67083161D02*
X109943379Y-67049489D01*
X109943379Y-67049489D02*
X109909707Y-66982145D01*
X109909707Y-66982145D02*
X109909707Y-66914802D01*
X109909707Y-66914802D02*
X109926543Y-66864294D01*
X109926543Y-66864294D02*
X109977051Y-66780115D01*
X109977051Y-66780115D02*
X110027559Y-66729607D01*
X110027559Y-66729607D02*
X110111738Y-66679100D01*
X110111738Y-66679100D02*
X110162246Y-66662264D01*
X110162246Y-66662264D02*
X110229589Y-66662264D01*
X110229589Y-66662264D02*
X110296933Y-66695936D01*
X110296933Y-66695936D02*
X110330604Y-66729607D01*
X110330604Y-66729607D02*
X110364276Y-66796951D01*
X110364276Y-66796951D02*
X110364276Y-66830623D01*
X110364276Y-67470386D02*
X110195917Y-67302027D01*
X110195917Y-67302027D02*
X110549471Y-66948474D01*
X110936696Y-68042805D02*
X110734665Y-67840775D01*
X110835680Y-67941790D02*
X111189234Y-67588237D01*
X111189234Y-67588237D02*
X111105054Y-67605073D01*
X111105054Y-67605073D02*
X111037711Y-67605073D01*
X111037711Y-67605073D02*
X110987203Y-67588237D01*
D12*
X53858095Y-68504819D02*
X53858095Y-69314342D01*
X53858095Y-69314342D02*
X53905714Y-69409580D01*
X53905714Y-69409580D02*
X53953333Y-69457200D01*
X53953333Y-69457200D02*
X54048571Y-69504819D01*
X54048571Y-69504819D02*
X54239047Y-69504819D01*
X54239047Y-69504819D02*
X54334285Y-69457200D01*
X54334285Y-69457200D02*
X54381904Y-69409580D01*
X54381904Y-69409580D02*
X54429523Y-69314342D01*
X54429523Y-69314342D02*
X54429523Y-68504819D01*
X54810476Y-68504819D02*
X55429523Y-68504819D01*
X55429523Y-68504819D02*
X55096190Y-68885771D01*
X55096190Y-68885771D02*
X55239047Y-68885771D01*
X55239047Y-68885771D02*
X55334285Y-68933390D01*
X55334285Y-68933390D02*
X55381904Y-68981009D01*
X55381904Y-68981009D02*
X55429523Y-69076247D01*
X55429523Y-69076247D02*
X55429523Y-69314342D01*
X55429523Y-69314342D02*
X55381904Y-69409580D01*
X55381904Y-69409580D02*
X55334285Y-69457200D01*
X55334285Y-69457200D02*
X55239047Y-69504819D01*
X55239047Y-69504819D02*
X54953333Y-69504819D01*
X54953333Y-69504819D02*
X54858095Y-69457200D01*
X54858095Y-69457200D02*
X54810476Y-69409580D01*
D13*
%TO.C,D4*%
X73590000Y-71510000D02*
X73590000Y-67590000D01*
X73590000Y-67590000D02*
X68380000Y-67590000D01*
X68380000Y-71510000D02*
X73590000Y-71510000D01*
%TO.C,J5*%
X38645000Y-52795000D02*
X37375000Y-52795000D01*
X38645000Y-51525000D02*
X38645000Y-52795000D01*
X36332071Y-49365000D02*
X35935000Y-49365000D01*
X36332071Y-48605000D02*
X35935000Y-48605000D01*
X36332071Y-46825000D02*
X35935000Y-46825000D01*
X36332071Y-46065000D02*
X35935000Y-46065000D01*
X36265000Y-51905000D02*
X35935000Y-51905000D01*
X36265000Y-51145000D02*
X35935000Y-51145000D01*
X35935000Y-52855000D02*
X35935000Y-45115000D01*
X35935000Y-50255000D02*
X33275000Y-50255000D01*
X35935000Y-47715000D02*
X33275000Y-47715000D01*
X35935000Y-45115000D02*
X33275000Y-45115000D01*
X33275000Y-52855000D02*
X35935000Y-52855000D01*
X33275000Y-51905000D02*
X27275000Y-51905000D01*
X33275000Y-51845000D02*
X27275000Y-51845000D01*
X33275000Y-51725000D02*
X27275000Y-51725000D01*
X33275000Y-51605000D02*
X27275000Y-51605000D01*
X33275000Y-51485000D02*
X27275000Y-51485000D01*
X33275000Y-51365000D02*
X27275000Y-51365000D01*
X33275000Y-51245000D02*
X27275000Y-51245000D01*
X33275000Y-49365000D02*
X27275000Y-49365000D01*
X33275000Y-46825000D02*
X27275000Y-46825000D01*
X33275000Y-45115000D02*
X33275000Y-52855000D01*
X27275000Y-51905000D02*
X27275000Y-51145000D01*
X27275000Y-51145000D02*
X33275000Y-51145000D01*
X27275000Y-49365000D02*
X27275000Y-48605000D01*
X27275000Y-48605000D02*
X33275000Y-48605000D01*
X27275000Y-46825000D02*
X27275000Y-46065000D01*
X27275000Y-46065000D02*
X33275000Y-46065000D01*
%TO.C,J6*%
X95935000Y-44575000D02*
X95935000Y-45905000D01*
X94605000Y-44575000D02*
X95935000Y-44575000D01*
X93335000Y-47235000D02*
X72955000Y-47235000D01*
X93335000Y-44575000D02*
X93335000Y-47235000D01*
X93335000Y-44575000D02*
X72955000Y-44575000D01*
X72955000Y-44575000D02*
X72955000Y-47235000D01*
%TO.C,J4*%
X38675000Y-80795000D02*
X37405000Y-80795000D01*
X38675000Y-79525000D02*
X38675000Y-80795000D01*
X36362071Y-77365000D02*
X35965000Y-77365000D01*
X36362071Y-76605000D02*
X35965000Y-76605000D01*
X36362071Y-74825000D02*
X35965000Y-74825000D01*
X36362071Y-74065000D02*
X35965000Y-74065000D01*
X36295000Y-79905000D02*
X35965000Y-79905000D01*
X36295000Y-79145000D02*
X35965000Y-79145000D01*
X35965000Y-80855000D02*
X35965000Y-73115000D01*
X35965000Y-78255000D02*
X33305000Y-78255000D01*
X35965000Y-75715000D02*
X33305000Y-75715000D01*
X35965000Y-73115000D02*
X33305000Y-73115000D01*
X33305000Y-80855000D02*
X35965000Y-80855000D01*
X33305000Y-79905000D02*
X27305000Y-79905000D01*
X33305000Y-79845000D02*
X27305000Y-79845000D01*
X33305000Y-79725000D02*
X27305000Y-79725000D01*
X33305000Y-79605000D02*
X27305000Y-79605000D01*
X33305000Y-79485000D02*
X27305000Y-79485000D01*
X33305000Y-79365000D02*
X27305000Y-79365000D01*
X33305000Y-79245000D02*
X27305000Y-79245000D01*
X33305000Y-77365000D02*
X27305000Y-77365000D01*
X33305000Y-74825000D02*
X27305000Y-74825000D01*
X33305000Y-73115000D02*
X33305000Y-80855000D01*
X27305000Y-79905000D02*
X27305000Y-79145000D01*
X27305000Y-79145000D02*
X33305000Y-79145000D01*
X27305000Y-77365000D02*
X27305000Y-76605000D01*
X27305000Y-76605000D02*
X33305000Y-76605000D01*
X27305000Y-74825000D02*
X27305000Y-74065000D01*
X27305000Y-74065000D02*
X33305000Y-74065000D01*
%TO.C,D1*%
X70530000Y-67300000D02*
X70530000Y-65940000D01*
X70530000Y-65940000D02*
X69730000Y-65940000D01*
X69730000Y-67300000D02*
X69730000Y-65940000D01*
%TO.C,U2*%
X100610000Y-66860000D02*
X100610000Y-66210000D01*
X100610000Y-59640000D02*
X100610000Y-60290000D01*
X99960000Y-66860000D02*
X100610000Y-66860000D01*
X99960000Y-59640000D02*
X100610000Y-59640000D01*
X94040000Y-66860000D02*
X93390000Y-66860000D01*
X94040000Y-59640000D02*
X93390000Y-59640000D01*
X93390000Y-66860000D02*
X93390000Y-66210000D01*
%TO.C,D2*%
X71530000Y-67300000D02*
X71530000Y-65940000D01*
X71530000Y-65940000D02*
X70730000Y-65940000D01*
X70730000Y-67300000D02*
X70730000Y-65940000D01*
%TO.C,X2*%
X98430000Y-72435000D02*
X98430000Y-69285000D01*
X98430000Y-69285000D02*
X94630000Y-69285000D01*
D12*
%TO.C,D3*%
X96330000Y-81300000D02*
X90930000Y-81300000D01*
X96330000Y-78300000D02*
X90830000Y-78300000D01*
X90830000Y-79300000D02*
X90830000Y-78300000D01*
D13*
%TO.C,J1*%
X47380000Y-58350000D02*
X47180000Y-58550000D01*
X47380000Y-57750000D02*
X47880000Y-57750000D01*
X47380000Y-57750000D02*
X47380000Y-58350000D01*
X47380000Y-56350000D02*
X47880000Y-56350000D01*
X47380000Y-55550000D02*
X47380000Y-56350000D01*
X47180000Y-55550000D02*
X47380000Y-55550000D01*
X44580000Y-58550000D02*
X44380000Y-58550000D01*
X44380000Y-58550000D02*
X44380000Y-57750000D01*
X44380000Y-56350000D02*
X44380000Y-55550000D01*
X44380000Y-55550000D02*
X44580000Y-55550000D01*
%TO.C,SW1*%
X49700000Y-49370000D02*
X45560000Y-49370000D01*
X49700000Y-49070000D02*
X49700000Y-49370000D01*
X49700000Y-46230000D02*
X49700000Y-46530000D01*
X45560000Y-49370000D02*
X45560000Y-49070000D01*
X45560000Y-46530000D02*
X45560000Y-46230000D01*
X45560000Y-46230000D02*
X49700000Y-46230000D01*
%TO.C,Q2*%
X96817500Y-77910000D02*
X97467500Y-77910000D01*
X96817500Y-77910000D02*
X96167500Y-77910000D01*
X96817500Y-74790000D02*
X97467500Y-74790000D01*
X96817500Y-74790000D02*
X95142500Y-74790000D01*
%TO.C,U5*%
X100017000Y-54091000D02*
X100017000Y-53831000D01*
X100017000Y-48641000D02*
X100017000Y-48901000D01*
X97292000Y-54091000D02*
X100017000Y-54091000D01*
X97292000Y-54091000D02*
X94567000Y-54091000D01*
X97292000Y-48641000D02*
X100017000Y-48641000D01*
X97292000Y-48641000D02*
X94567000Y-48641000D01*
X94567000Y-54091000D02*
X94567000Y-53831000D01*
X94567000Y-48901000D02*
X92892000Y-48901000D01*
X94567000Y-48641000D02*
X94567000Y-48901000D01*
%TO.C,U4*%
X81525000Y-66170000D02*
X81525000Y-62410000D01*
X81525000Y-62410000D02*
X80265000Y-62410000D01*
X74705000Y-68420000D02*
X74705000Y-62410000D01*
X74705000Y-62410000D02*
X75965000Y-62410000D01*
%TO.C,Q3*%
X87692500Y-81360000D02*
X88342500Y-81360000D01*
X87692500Y-81360000D02*
X87042500Y-81360000D01*
X87692500Y-78240000D02*
X88342500Y-78240000D01*
X87692500Y-78240000D02*
X86017500Y-78240000D01*
%TO.C,Q1*%
X90192500Y-77860000D02*
X90842500Y-77860000D01*
X90192500Y-77860000D02*
X89542500Y-77860000D01*
X90192500Y-74740000D02*
X90842500Y-74740000D01*
X90192500Y-74740000D02*
X88517500Y-74740000D01*
%TO.C,SW2*%
X49700000Y-80320000D02*
X45560000Y-80320000D01*
X49700000Y-80020000D02*
X49700000Y-80320000D01*
X49700000Y-77180000D02*
X49700000Y-77480000D01*
X45560000Y-80320000D02*
X45560000Y-80020000D01*
X45560000Y-77480000D02*
X45560000Y-77180000D01*
X45560000Y-77180000D02*
X49700000Y-77180000D01*
%TO.C,J3*%
X115211377Y-51315004D02*
X110968737Y-55557645D01*
X114673976Y-50777603D02*
X115211377Y-51315004D01*
X113415326Y-49518953D02*
X109172685Y-53761594D01*
X112877925Y-48981552D02*
X113415326Y-49518953D01*
X111640488Y-56229396D02*
X107963533Y-52552441D01*
X110431335Y-55020244D02*
X114673976Y-50777603D01*
X109759584Y-58110300D02*
X111640488Y-56229396D01*
X109101975Y-53690883D02*
X113344615Y-49448242D01*
X109017122Y-53606030D02*
X113259763Y-49363390D01*
X108932269Y-53521177D02*
X113174910Y-49278537D01*
X108847416Y-53436325D02*
X113090057Y-49193684D01*
X108807061Y-57719321D02*
X109087833Y-57438549D01*
X108762563Y-53351472D02*
X113005204Y-49108831D01*
X108677711Y-53266619D02*
X112920351Y-49023978D01*
X108635284Y-53224193D02*
X112877925Y-48981552D01*
X108269660Y-57181919D02*
X108550431Y-56901148D01*
X107963533Y-52552441D02*
X106082629Y-54433345D01*
X107921106Y-56271823D02*
X109802010Y-54390919D01*
X107058436Y-55875843D02*
X107291781Y-55642498D01*
X106521035Y-55338442D02*
X106754380Y-55105097D01*
X106082629Y-54433345D02*
X109759584Y-58110300D01*
X105106821Y-57290057D02*
X104208796Y-56392031D01*
X104208796Y-56392031D02*
X105106821Y-55494005D01*
%TO.C,U3*%
X60270000Y-68060000D02*
X59580000Y-68060000D01*
X59580000Y-68210000D02*
X59580000Y-68060000D01*
X59580000Y-68210000D02*
X49660000Y-68210000D01*
X59580000Y-58040000D02*
X59580000Y-57890000D01*
X59580000Y-57890000D02*
X49660000Y-57890000D01*
X49660000Y-68210000D02*
X49660000Y-68060000D01*
X49660000Y-58040000D02*
X49660000Y-57890000D01*
%TO.C,J7*%
X75500000Y-81550000D02*
X75500000Y-80600000D01*
X68150000Y-72830000D02*
X73450000Y-72830000D01*
X68050000Y-72600000D02*
X68300000Y-72250000D01*
X67800000Y-72250000D02*
X68050000Y-72600000D01*
X66100000Y-80600000D02*
X66100000Y-81550000D01*
%TO.C,J2*%
X106089700Y-71359584D02*
X107970604Y-73240488D01*
X106480679Y-70407061D02*
X106761451Y-70687833D01*
X106909943Y-66706821D02*
X107807969Y-65808796D01*
X107018081Y-69869660D02*
X107298852Y-70150431D01*
X107807969Y-65808796D02*
X108705995Y-66706821D01*
X107928177Y-69521106D02*
X109809081Y-71402010D01*
X107970604Y-73240488D02*
X111647559Y-69563533D01*
X108324157Y-68658436D02*
X108557502Y-68891781D01*
X108861558Y-68121035D02*
X109094903Y-68354380D01*
X109179756Y-72031335D02*
X113422397Y-76273976D01*
X109766655Y-67682629D02*
X106089700Y-71359584D01*
X110509117Y-70701975D02*
X114751758Y-74944615D01*
X110593970Y-70617122D02*
X114836610Y-74859763D01*
X110678823Y-70532269D02*
X114921463Y-74774910D01*
X110763675Y-70447416D02*
X115006316Y-74690057D01*
X110848528Y-70362563D02*
X115091169Y-74605204D01*
X110933381Y-70277711D02*
X115176022Y-74520351D01*
X110975807Y-70235284D02*
X115218448Y-74477925D01*
X111647559Y-69563533D02*
X109766655Y-67682629D01*
X112884996Y-76811377D02*
X108642355Y-72568737D01*
X113422397Y-76273976D02*
X112884996Y-76811377D01*
X114681047Y-75015326D02*
X110438406Y-70772685D01*
X115218448Y-74477925D02*
X114681047Y-75015326D01*
D14*
%TO.C,U1*%
X110331800Y-61576800D02*
X110382600Y-61627600D01*
%TD*%
M02*
