%TF.GenerationSoftware,KiCad,Pcbnew,8.0.1*%
%TF.CreationDate,2024-03-30T16:51:40-04:00*%
%TF.ProjectId,pulp,70756c70-2e6b-4696-9361-645f70636258,rev?*%
%TF.SameCoordinates,Original*%
%TF.FileFunction,Copper,L2,Bot*%
%TF.FilePolarity,Positive*%
%FSLAX46Y46*%
G04 Gerber Fmt 4.6, Leading zero omitted, Abs format (unit mm)*
G04 Created by KiCad (PCBNEW 8.0.1) date 2024-03-30 16:51:40*
%MOMM*%
%LPD*%
G01*
G04 APERTURE LIST*
G04 Aperture macros list*
%AMHorizOval*
0 Thick line with rounded ends*
0 $1 width*
0 $2 $3 position (X,Y) of the first rounded end (center of the circle)*
0 $4 $5 position (X,Y) of the second rounded end (center of the circle)*
0 Add line between two ends*
20,1,$1,$2,$3,$4,$5,0*
0 Add two circle primitives to create the rounded ends*
1,1,$1,$2,$3*
1,1,$1,$4,$5*%
%AMRotRect*
0 Rectangle, with rotation*
0 The origin of the aperture is its center*
0 $1 length*
0 $2 width*
0 $3 Rotation angle, in degrees counterclockwise*
0 Add horizontal line*
21,1,$1,$2,0,0,$3*%
G04 Aperture macros list end*
%TA.AperFunction,ComponentPad*%
%ADD10O,1.700000X1.700000*%
%TD*%
%TA.AperFunction,ComponentPad*%
%ADD11R,1.700000X1.700000*%
%TD*%
%TA.AperFunction,ComponentPad*%
%ADD12HorizOval,1.700000X0.000000X0.000000X0.000000X0.000000X0*%
%TD*%
%TA.AperFunction,ComponentPad*%
%ADD13RotRect,1.700000X1.700000X45.000000*%
%TD*%
%TA.AperFunction,ComponentPad*%
%ADD14O,0.950000X2.280000*%
%TD*%
%TA.AperFunction,ComponentPad*%
%ADD15O,1.330000X1.980000*%
%TD*%
%TA.AperFunction,ComponentPad*%
%ADD16O,0.950000X1.800000*%
%TD*%
%TA.AperFunction,ComponentPad*%
%ADD17C,0.650000*%
%TD*%
%TA.AperFunction,ComponentPad*%
%ADD18RotRect,1.700000X1.700000X315.000000*%
%TD*%
%TA.AperFunction,ComponentPad*%
%ADD19HorizOval,1.700000X0.000000X0.000000X0.000000X0.000000X0*%
%TD*%
%TA.AperFunction,ViaPad*%
%ADD20C,0.300000*%
%TD*%
%TA.AperFunction,ViaPad*%
%ADD21C,0.800000*%
%TD*%
%TA.AperFunction,Conductor*%
%ADD22C,0.180000*%
%TD*%
%TA.AperFunction,Conductor*%
%ADD23C,0.150000*%
%TD*%
G04 APERTURE END LIST*
D10*
%TO.P,J5,3,Pin_3*%
%TO.N,5V*%
X37375000Y-46445000D03*
%TO.P,J5,2,Pin_2*%
%TO.N,PWM_LEFT*%
X37375000Y-48985000D03*
D11*
%TO.P,J5,1,Pin_1*%
%TO.N,GND*%
X37375000Y-51525000D03*
%TD*%
D10*
%TO.P,J6,9,Pin_9*%
%TO.N,/GP5*%
X74285000Y-45905000D03*
%TO.P,J6,8,Pin_8*%
%TO.N,/GP4*%
X76825000Y-45905000D03*
%TO.P,J6,7,Pin_7*%
%TO.N,/GP3*%
X79365000Y-45905000D03*
%TO.P,J6,6,Pin_6*%
%TO.N,/GP2*%
X81905000Y-45905000D03*
%TO.P,J6,5,Pin_5*%
%TO.N,/GP1*%
X84445000Y-45905000D03*
%TO.P,J6,4,Pin_4*%
%TO.N,/GP0*%
X86985000Y-45905000D03*
%TO.P,J6,3,Pin_3*%
%TO.N,3V3*%
X89525000Y-45905000D03*
%TO.P,J6,2,Pin_2*%
%TO.N,5V*%
X92065000Y-45905000D03*
D11*
%TO.P,J6,1,Pin_1*%
%TO.N,GND*%
X94605000Y-45905000D03*
%TD*%
D10*
%TO.P,J4,3,Pin_3*%
%TO.N,5V*%
X37405000Y-74445000D03*
%TO.P,J4,2,Pin_2*%
%TO.N,PWM_RIGHT*%
X37405000Y-76985000D03*
D11*
%TO.P,J4,1,Pin_1*%
%TO.N,GND*%
X37405000Y-79525000D03*
%TD*%
D12*
%TO.P,J3,2,Pin_2*%
%TO.N,I2C_SDA 0*%
X107800898Y-58188082D03*
D13*
%TO.P,J3,1,Pin_1*%
%TO.N,I2C_SCL 0*%
X106004847Y-56392031D03*
%TD*%
D14*
%TO.P,J7,S1,SHIELD*%
%TO.N,unconnected-(J7-SHIELD-PadS1)_5*%
X75375000Y-78910000D03*
D15*
%TO.N,unconnected-(J7-SHIELD-PadS1)_0*%
X75190000Y-76000000D03*
D16*
%TO.N,unconnected-(J7-SHIELD-PadS1)_2*%
X75095000Y-74020000D03*
%TO.N,unconnected-(J7-SHIELD-PadS1)*%
X66505000Y-74020000D03*
D15*
%TO.N,unconnected-(J7-SHIELD-PadS1)_4*%
X66410000Y-76000000D03*
D14*
%TO.N,unconnected-(J7-SHIELD-PadS1)_1*%
X66225000Y-78910000D03*
D17*
%TO.P,J7,B12,GND*%
%TO.N,GND*%
X68000000Y-74850000D03*
%TO.P,J7,B11,RX1+*%
%TO.N,unconnected-(J7-RX1+-PadB11)*%
X68400000Y-75750000D03*
%TO.P,J7,B10,RX1-*%
%TO.N,unconnected-(J7-RX1--PadB10)*%
X69200000Y-75750000D03*
%TO.P,J7,B9,VBUS*%
%TO.N,Net-(D4-A)*%
X69600000Y-74850000D03*
%TO.P,J7,B8,SBU2*%
%TO.N,unconnected-(J7-SBU2-PadB8)*%
X70000000Y-75750000D03*
%TO.P,J7,B7,D-*%
%TO.N,/USB_D-*%
X70400000Y-74850000D03*
%TO.P,J7,B6,D+*%
%TO.N,/USB_D+*%
X71200000Y-74850000D03*
%TO.P,J7,B5,CC2*%
%TO.N,Net-(J7-CC2)*%
X71600000Y-75750000D03*
%TO.P,J7,B4,VBUS*%
%TO.N,Net-(D4-A)*%
X72000000Y-74850000D03*
%TO.P,J7,B3,TX2-*%
%TO.N,unconnected-(J7-TX2--PadB3)*%
X72400000Y-75750000D03*
%TO.P,J7,B2,TX2+*%
%TO.N,unconnected-(J7-TX2+-PadB2)*%
X73200000Y-75750000D03*
%TO.P,J7,B1,GND*%
%TO.N,GND*%
X73600000Y-74850000D03*
%TD*%
D18*
%TO.P,J2,1,Pin_1*%
%TO.N,I2C_SCL 1*%
X107807969Y-67604847D03*
D19*
%TO.P,J2,2,Pin_2*%
%TO.N,I2C_SDA 1*%
X106011918Y-69400898D03*
%TD*%
D20*
%TO.N,PWM_LEFT*%
X41800000Y-76000000D03*
X41600000Y-80400000D03*
D21*
%TO.N,GND*%
X115800000Y-63200000D03*
X104400000Y-66800000D03*
X63800000Y-78600000D03*
X68000000Y-77400000D03*
X45000000Y-52500000D03*
X47500000Y-52500000D03*
X50000000Y-52500000D03*
X52500000Y-55000000D03*
X55000000Y-55000000D03*
X57500000Y-55000000D03*
X60000000Y-55000000D03*
X62500000Y-55000000D03*
X65000000Y-57500000D03*
X65000000Y-60000000D03*
X60000000Y-70000000D03*
X57500000Y-70000000D03*
X55000000Y-70000000D03*
X52500000Y-70000000D03*
X50000000Y-70000000D03*
X47500000Y-70000000D03*
X45000000Y-67500000D03*
X45000000Y-65000000D03*
X81050000Y-70450000D03*
X65300000Y-70950000D03*
D20*
%TO.N,Net-(U2-XIN)*%
X94150000Y-69350000D03*
X96700000Y-67550000D03*
%TO.N,GND*%
X96000000Y-65850000D03*
X97250000Y-65300000D03*
D21*
X97550000Y-68400000D03*
X112600000Y-59600000D03*
X95800000Y-52750000D03*
X103500000Y-53800000D03*
X39800000Y-75600000D03*
X70800000Y-79200000D03*
X90000000Y-65700000D03*
X84950000Y-65650000D03*
X87250000Y-61800000D03*
X92750000Y-74300000D03*
X70600000Y-62000000D03*
X87550000Y-70600000D03*
X75250000Y-69450000D03*
X75300000Y-58850000D03*
X80150000Y-54450000D03*
X98350000Y-49900000D03*
X108700000Y-64550000D03*
X83800000Y-80250000D03*
X97850000Y-78950000D03*
X100900000Y-70850000D03*
X77550000Y-74450000D03*
X66850000Y-66400000D03*
D20*
X96650000Y-46500000D03*
X98350000Y-48200000D03*
%TO.N,PWM_RIGHT*%
X93500000Y-68000000D03*
X91626740Y-68376741D03*
%TO.N,/USB_D+*%
X70000000Y-69500000D03*
X70750000Y-75750000D03*
%TO.N,I2C_SCL 0*%
X103000000Y-61000000D03*
X107250000Y-63000000D03*
%TO.N,Net-(D4-A)*%
X68500000Y-72250000D03*
X71500000Y-72000000D03*
%TO.N,Net-(U2-USB_DM)*%
X90130000Y-62550000D03*
%TO.N,3V3*%
X80380000Y-65550000D03*
X67880000Y-65300000D03*
X92880000Y-70550000D03*
D21*
X100848000Y-58478000D03*
X89607134Y-56637866D03*
X92085000Y-66860000D03*
X94625000Y-63685000D03*
X98100000Y-58605000D03*
D20*
X85130000Y-68300000D03*
D21*
X86647562Y-59532437D03*
%TO.N,5V*%
X90130000Y-78550000D03*
X41130000Y-74300000D03*
X85130000Y-58300000D03*
X90202250Y-55430000D03*
X40630000Y-48300000D03*
X79880000Y-73800000D03*
X73130000Y-66300000D03*
%TO.N,/~{RST}*%
X85630000Y-73300000D03*
X99699988Y-68700000D03*
D20*
%TO.N,/RP2040/1V1*%
X99380000Y-60800000D03*
X98130000Y-65800000D03*
%TO.N,Net-(U2-USB_DM)*%
X98380000Y-61300000D03*
%TO.N,Net-(U2-USB_DP)*%
X90130000Y-62050000D03*
X97630000Y-61300000D03*
%TO.N,I2C_SDA 0*%
X108130000Y-60300000D03*
X109900000Y-61145000D03*
%TO.N,/Q_SS*%
X96250000Y-49500000D03*
X54500000Y-47000000D03*
D21*
%TO.N,Net-(U2-QSPI_SD0)*%
X99046252Y-54812349D03*
X95899500Y-58158258D03*
%TO.N,Net-(U2-QSPI_SD1)*%
X93707995Y-55679867D03*
X95099134Y-56847276D03*
%TO.N,Net-(U2-QSPI_SD2)*%
X93482000Y-54668000D03*
X95301673Y-55868510D03*
%TO.N,/LED_B*%
X86880000Y-76050000D03*
X101630000Y-73300000D03*
D20*
%TO.N,/MAX_8C GNSS/TXD*%
X91130000Y-63550000D03*
X61630000Y-65550000D03*
%TO.N,/MAX_8C GNSS/RXD*%
X91895166Y-63825000D03*
X62130000Y-64800000D03*
%TD*%
D22*
%TO.N,PWM_LEFT*%
X41600000Y-76200000D02*
X41800000Y-76000000D01*
X41600000Y-80400000D02*
X41600000Y-76200000D01*
%TO.N,GND*%
X98350000Y-48200000D02*
X96650000Y-46500000D01*
%TO.N,Net-(U2-XIN)*%
X94150000Y-69350000D02*
X95950000Y-67550000D01*
X95950000Y-67550000D02*
X96700000Y-67550000D01*
%TO.N,GND*%
X96550000Y-65300000D02*
X96000000Y-65850000D01*
X97250000Y-65300000D02*
X96550000Y-65300000D01*
%TO.N,PWM_RIGHT*%
X91626740Y-68376741D02*
X93123259Y-68376741D01*
X93123259Y-68376741D02*
X93500000Y-68000000D01*
%TO.N,/USB_D+*%
X71890000Y-71390000D02*
X70000000Y-69500000D01*
X71890000Y-72161544D02*
X71890000Y-71390000D01*
X70965000Y-75535000D02*
X70965000Y-73086544D01*
X70965000Y-73086544D02*
X71890000Y-72161544D01*
X70750000Y-75750000D02*
X70965000Y-75535000D01*
%TO.N,I2C_SCL 0*%
X107000000Y-63000000D02*
X105000000Y-61000000D01*
X105000000Y-61000000D02*
X103000000Y-61000000D01*
X107250000Y-63000000D02*
X107000000Y-63000000D01*
%TO.N,Net-(D4-A)*%
X68750000Y-72000000D02*
X68500000Y-72250000D01*
X71500000Y-72000000D02*
X68750000Y-72000000D01*
%TO.N,Net-(U2-USB_DM)*%
X90130000Y-62550000D02*
X97130000Y-62550000D01*
%TO.N,3V3*%
X86647562Y-59532437D02*
X86712563Y-59532437D01*
D23*
X67880000Y-65300000D02*
X68005000Y-65425000D01*
D22*
X98100000Y-58605000D02*
X100721000Y-58605000D01*
D23*
X92880000Y-70550000D02*
X90630000Y-68300000D01*
D22*
X94625000Y-63685000D02*
X92085000Y-66225000D01*
X86712563Y-59532437D02*
X89607134Y-56637866D01*
D23*
X68005000Y-65425000D02*
X80255000Y-65425000D01*
D22*
X92085000Y-66225000D02*
X92085000Y-66860000D01*
X100721000Y-58605000D02*
X100848000Y-58478000D01*
D23*
X80255000Y-65425000D02*
X80380000Y-65550000D01*
X90630000Y-68300000D02*
X85130000Y-68300000D01*
D22*
%TO.N,5V*%
X65880000Y-72550000D02*
X42200000Y-72550000D01*
X72130000Y-66300000D02*
X65880000Y-72550000D01*
X84630000Y-78550000D02*
X79880000Y-73800000D01*
D23*
X85130000Y-58300000D02*
X88000000Y-55430000D01*
D22*
X89802800Y-55430000D02*
X90202250Y-55430000D01*
X90130000Y-78550000D02*
X84630000Y-78550000D01*
X40630000Y-48300000D02*
X42200000Y-49870000D01*
X73130000Y-66300000D02*
X72130000Y-66300000D01*
X42200000Y-49870000D02*
X42200000Y-72550000D01*
D23*
X88000000Y-55430000D02*
X90202250Y-55430000D01*
D22*
X42200000Y-73230000D02*
X41130000Y-74300000D01*
X42200000Y-72550000D02*
X42200000Y-73230000D01*
%TO.N,/~{RST}*%
X85630000Y-73300000D02*
X95099988Y-73300000D01*
X95099988Y-73300000D02*
X99699988Y-68700000D01*
%TO.N,/RP2040/1V1*%
X99380000Y-60800000D02*
X99380000Y-64550000D01*
X99380000Y-64550000D02*
X98130000Y-65800000D01*
%TO.N,Net-(U2-USB_DM)*%
X97130000Y-62550000D02*
X98380000Y-61300000D01*
%TO.N,Net-(U2-USB_DP)*%
X96880000Y-62050000D02*
X97630000Y-61300000D01*
X90130000Y-62050000D02*
X96880000Y-62050000D01*
D23*
%TO.N,I2C_SDA 0*%
X108130000Y-60300000D02*
X109055000Y-60300000D01*
X109055000Y-60300000D02*
X109900000Y-61145000D01*
%TO.N,/Q_SS*%
X93750000Y-47000000D02*
X96250000Y-49500000D01*
X54500000Y-47000000D02*
X93750000Y-47000000D01*
D22*
%TO.N,Net-(U2-QSPI_SD0)*%
X99046252Y-55011506D02*
X95899500Y-58158258D01*
X99046252Y-54812349D02*
X99046252Y-55011506D01*
%TO.N,Net-(U2-QSPI_SD1)*%
X93931725Y-55679867D02*
X95099134Y-56847276D01*
X93707995Y-55679867D02*
X93931725Y-55679867D01*
%TO.N,Net-(U2-QSPI_SD2)*%
X93909102Y-54668000D02*
X93482000Y-54668000D01*
X95301673Y-55868510D02*
X95109612Y-55868510D01*
X95109612Y-55868510D02*
X93909102Y-54668000D01*
%TO.N,/LED_B*%
X86880000Y-76050000D02*
X98880000Y-76050000D01*
X98880000Y-76050000D02*
X101630000Y-73300000D01*
D23*
%TO.N,/MAX_8C GNSS/TXD*%
X61630000Y-64769669D02*
X62599669Y-63800000D01*
X61630000Y-65550000D02*
X61630000Y-64769669D01*
X62599669Y-63800000D02*
X90880000Y-63800000D01*
X90880000Y-63800000D02*
X91130000Y-63550000D01*
%TO.N,/MAX_8C GNSS/RXD*%
X62830000Y-64100000D02*
X91620166Y-64100000D01*
X91620166Y-64100000D02*
X91895166Y-63825000D01*
X62130000Y-64800000D02*
X62830000Y-64100000D01*
%TD*%
%TA.AperFunction,Conductor*%
%TO.N,GND*%
G36*
X69463321Y-69904284D02*
G01*
X69502485Y-69931155D01*
X69503903Y-69929556D01*
X69509516Y-69934528D01*
X69509517Y-69934530D01*
X69627760Y-70039283D01*
X69627762Y-70039284D01*
X69771903Y-70114936D01*
X69801958Y-70137051D01*
X70862726Y-71197819D01*
X70896211Y-71259142D01*
X70891227Y-71328834D01*
X70849355Y-71384767D01*
X70783891Y-71409184D01*
X70775045Y-71409500D01*
X68672259Y-71409500D01*
X68559621Y-71439681D01*
X68522075Y-71449742D01*
X68503067Y-71460717D01*
X68503066Y-71460717D01*
X68387422Y-71527483D01*
X68301953Y-71612951D01*
X68271900Y-71635065D01*
X68127761Y-71710716D01*
X68009516Y-71815471D01*
X67919781Y-71945475D01*
X67919780Y-71945476D01*
X67863762Y-72093181D01*
X67844722Y-72249999D01*
X67844722Y-72250000D01*
X67863762Y-72406818D01*
X67919780Y-72554523D01*
X68009517Y-72684530D01*
X68127760Y-72789283D01*
X68127762Y-72789284D01*
X68267634Y-72862696D01*
X68421014Y-72900500D01*
X68421015Y-72900500D01*
X68578985Y-72900500D01*
X68732365Y-72862696D01*
X68740135Y-72858618D01*
X68872240Y-72789283D01*
X68990483Y-72684530D01*
X69018417Y-72644059D01*
X69072699Y-72600070D01*
X69120467Y-72590500D01*
X70354766Y-72590500D01*
X70421805Y-72610185D01*
X70467560Y-72662989D01*
X70477504Y-72732147D01*
X70462153Y-72776500D01*
X70414741Y-72858618D01*
X70414742Y-72858618D01*
X70414742Y-72858619D01*
X70414742Y-72858620D01*
X70374500Y-73008803D01*
X70374500Y-73008805D01*
X70374500Y-73911065D01*
X70354815Y-73978104D01*
X70302011Y-74023859D01*
X70276281Y-74032355D01*
X70143501Y-74060577D01*
X70143500Y-74060577D01*
X70050435Y-74102013D01*
X69981185Y-74111297D01*
X69949565Y-74102013D01*
X69856498Y-74060577D01*
X69722841Y-74032168D01*
X69686764Y-74024500D01*
X69513236Y-74024500D01*
X69483483Y-74030824D01*
X69343501Y-74060577D01*
X69343496Y-74060579D01*
X69184977Y-74131157D01*
X69184972Y-74131160D01*
X69044591Y-74233153D01*
X69044589Y-74233155D01*
X68928477Y-74362112D01*
X68898121Y-74414688D01*
X68847553Y-74462903D01*
X68778946Y-74476124D01*
X68774552Y-74475625D01*
X68733350Y-74470201D01*
X68295797Y-74907754D01*
X68234474Y-74941239D01*
X68233898Y-74941363D01*
X68173299Y-74954243D01*
X68200000Y-74889782D01*
X68200000Y-74810218D01*
X68169552Y-74736709D01*
X68113291Y-74680448D01*
X68039782Y-74650000D01*
X67960218Y-74650000D01*
X67886709Y-74680448D01*
X67830448Y-74736709D01*
X67800000Y-74810218D01*
X67800000Y-74889782D01*
X67830448Y-74963291D01*
X67886709Y-75019552D01*
X67949859Y-75045709D01*
X67913696Y-75058611D01*
X67845643Y-75042783D01*
X67818941Y-75022494D01*
X67734128Y-74937681D01*
X67700643Y-74876358D01*
X67705627Y-74806666D01*
X67734128Y-74762319D01*
X68380231Y-74116215D01*
X68256340Y-74061056D01*
X68086711Y-74025000D01*
X67913289Y-74025000D01*
X67743657Y-74061056D01*
X67743656Y-74061056D01*
X67654935Y-74100558D01*
X67585685Y-74109842D01*
X67522408Y-74080213D01*
X67485196Y-74021078D01*
X67480500Y-73987278D01*
X67480500Y-73498919D01*
X67480499Y-73498917D01*
X67457342Y-73382499D01*
X67443012Y-73310457D01*
X67385288Y-73171098D01*
X67369479Y-73132931D01*
X67369478Y-73132929D01*
X67365591Y-73127112D01*
X67262720Y-72973155D01*
X67262717Y-72973151D01*
X67126848Y-72837282D01*
X67126844Y-72837279D01*
X66967070Y-72730521D01*
X66832698Y-72674863D01*
X66778295Y-72631022D01*
X66756230Y-72564728D01*
X66773509Y-72497029D01*
X66792466Y-72472625D01*
X69332308Y-69932783D01*
X69393629Y-69899300D01*
X69463321Y-69904284D01*
G37*
%TD.AperFunction*%
%TA.AperFunction,Conductor*%
G36*
X98015581Y-44019685D02*
G01*
X98036338Y-44036434D01*
X116912663Y-62962434D01*
X116946068Y-63023801D01*
X116940992Y-63093486D01*
X116912663Y-63137566D01*
X98036338Y-82063566D01*
X97975059Y-82097131D01*
X97948542Y-82100000D01*
X33154000Y-82100000D01*
X33086961Y-82080315D01*
X33041206Y-82027511D01*
X33030000Y-81976000D01*
X33030000Y-76985000D01*
X36049341Y-76985000D01*
X36069936Y-77220403D01*
X36069938Y-77220413D01*
X36131094Y-77448655D01*
X36131096Y-77448659D01*
X36131097Y-77448663D01*
X36212462Y-77623151D01*
X36230965Y-77662830D01*
X36230967Y-77662834D01*
X36303101Y-77765851D01*
X36366501Y-77856396D01*
X36366506Y-77856402D01*
X36488818Y-77978714D01*
X36522303Y-78040037D01*
X36517319Y-78109729D01*
X36475447Y-78165662D01*
X36444471Y-78182577D01*
X36312912Y-78231646D01*
X36312906Y-78231649D01*
X36197812Y-78317809D01*
X36197809Y-78317812D01*
X36111649Y-78432906D01*
X36111645Y-78432913D01*
X36061403Y-78567620D01*
X36061401Y-78567627D01*
X36055000Y-78627155D01*
X36055000Y-79275000D01*
X36971988Y-79275000D01*
X36939075Y-79332007D01*
X36905000Y-79459174D01*
X36905000Y-79590826D01*
X36939075Y-79717993D01*
X36971988Y-79775000D01*
X36055000Y-79775000D01*
X36055000Y-80422844D01*
X36061401Y-80482372D01*
X36061403Y-80482379D01*
X36111645Y-80617086D01*
X36111649Y-80617093D01*
X36197809Y-80732187D01*
X36197812Y-80732190D01*
X36312906Y-80818350D01*
X36312913Y-80818354D01*
X36447620Y-80868596D01*
X36447627Y-80868598D01*
X36507155Y-80874999D01*
X36507172Y-80875000D01*
X37155000Y-80875000D01*
X37155000Y-79958012D01*
X37212007Y-79990925D01*
X37339174Y-80025000D01*
X37470826Y-80025000D01*
X37597993Y-79990925D01*
X37655000Y-79958012D01*
X37655000Y-80875000D01*
X38302828Y-80875000D01*
X38302844Y-80874999D01*
X38362372Y-80868598D01*
X38362379Y-80868596D01*
X38497086Y-80818354D01*
X38497093Y-80818350D01*
X38612187Y-80732190D01*
X38612190Y-80732187D01*
X38698350Y-80617093D01*
X38698354Y-80617086D01*
X38748596Y-80482379D01*
X38748598Y-80482372D01*
X38754999Y-80422844D01*
X38755000Y-80422827D01*
X38755000Y-80400000D01*
X40944722Y-80400000D01*
X40963762Y-80556818D01*
X40986622Y-80617093D01*
X41019780Y-80704523D01*
X41109517Y-80834530D01*
X41227760Y-80939283D01*
X41227762Y-80939284D01*
X41367634Y-81012696D01*
X41521014Y-81050500D01*
X41521015Y-81050500D01*
X41678985Y-81050500D01*
X41832365Y-81012696D01*
X41972240Y-80939283D01*
X42090483Y-80834530D01*
X42180220Y-80704523D01*
X42236237Y-80556818D01*
X42255278Y-80400000D01*
X42236237Y-80243182D01*
X42198558Y-80143830D01*
X42190500Y-80099859D01*
X42190500Y-76578914D01*
X42210185Y-76511875D01*
X42232274Y-76486098D01*
X42290482Y-76434531D01*
X42290483Y-76434530D01*
X42380220Y-76304523D01*
X42436237Y-76156818D01*
X42455278Y-76000000D01*
X42451888Y-75972076D01*
X42436237Y-75843181D01*
X42387624Y-75715000D01*
X42380220Y-75695477D01*
X42290483Y-75565470D01*
X42172240Y-75460717D01*
X42172238Y-75460716D01*
X42172237Y-75460715D01*
X42032365Y-75387303D01*
X41878986Y-75349500D01*
X41878985Y-75349500D01*
X41721015Y-75349500D01*
X41721014Y-75349500D01*
X41567634Y-75387303D01*
X41427762Y-75460715D01*
X41309516Y-75565471D01*
X41219779Y-75695477D01*
X41198883Y-75750574D01*
X41170625Y-75794279D01*
X41127482Y-75837422D01*
X41049741Y-75972074D01*
X41049742Y-75972074D01*
X41049742Y-75972075D01*
X41049742Y-75972076D01*
X41009500Y-76122259D01*
X41009500Y-76122261D01*
X41009500Y-80099859D01*
X41001442Y-80143830D01*
X40963763Y-80243181D01*
X40944722Y-80399999D01*
X40944722Y-80400000D01*
X38755000Y-80400000D01*
X38755000Y-79775000D01*
X37838012Y-79775000D01*
X37870925Y-79717993D01*
X37905000Y-79590826D01*
X37905000Y-79459174D01*
X37870925Y-79332007D01*
X37838012Y-79275000D01*
X38755000Y-79275000D01*
X38755000Y-78627172D01*
X38754999Y-78627155D01*
X38748598Y-78567627D01*
X38748596Y-78567620D01*
X38698354Y-78432913D01*
X38698350Y-78432906D01*
X38612190Y-78317812D01*
X38612187Y-78317809D01*
X38497093Y-78231649D01*
X38497088Y-78231646D01*
X38365528Y-78182577D01*
X38309595Y-78140705D01*
X38285178Y-78075241D01*
X38300030Y-78006968D01*
X38321175Y-77978720D01*
X38443495Y-77856401D01*
X38579035Y-77662830D01*
X38678903Y-77448663D01*
X38740063Y-77220408D01*
X38760659Y-76985000D01*
X38740063Y-76749592D01*
X38679220Y-76522520D01*
X38678905Y-76521344D01*
X38678904Y-76521343D01*
X38678903Y-76521337D01*
X38579035Y-76307171D01*
X38572129Y-76297307D01*
X38443494Y-76113597D01*
X38276402Y-75946506D01*
X38276396Y-75946501D01*
X38090842Y-75816575D01*
X38047217Y-75761998D01*
X38040023Y-75692500D01*
X38071546Y-75630145D01*
X38090842Y-75613425D01*
X38133912Y-75583267D01*
X38276401Y-75483495D01*
X38443495Y-75316401D01*
X38579035Y-75122830D01*
X38678903Y-74908663D01*
X38740063Y-74680408D01*
X38760659Y-74445000D01*
X38740063Y-74209592D01*
X38678903Y-73981337D01*
X38579035Y-73767171D01*
X38480965Y-73627111D01*
X38443494Y-73573597D01*
X38276402Y-73406506D01*
X38276395Y-73406501D01*
X38082834Y-73270967D01*
X38082830Y-73270965D01*
X37958500Y-73212989D01*
X37868663Y-73171097D01*
X37868659Y-73171096D01*
X37868655Y-73171094D01*
X37640413Y-73109938D01*
X37640403Y-73109936D01*
X37405001Y-73089341D01*
X37404999Y-73089341D01*
X37169596Y-73109936D01*
X37169586Y-73109938D01*
X36941344Y-73171094D01*
X36941335Y-73171098D01*
X36727171Y-73270964D01*
X36727169Y-73270965D01*
X36533597Y-73406505D01*
X36366505Y-73573597D01*
X36230965Y-73767169D01*
X36230964Y-73767171D01*
X36131098Y-73981335D01*
X36131094Y-73981344D01*
X36069938Y-74209586D01*
X36069936Y-74209596D01*
X36049341Y-74444999D01*
X36049341Y-74445000D01*
X36069936Y-74680403D01*
X36069938Y-74680413D01*
X36131094Y-74908655D01*
X36131096Y-74908659D01*
X36131097Y-74908663D01*
X36197004Y-75050000D01*
X36230965Y-75122830D01*
X36230967Y-75122834D01*
X36366501Y-75316395D01*
X36366506Y-75316402D01*
X36533597Y-75483493D01*
X36533603Y-75483498D01*
X36719158Y-75613425D01*
X36762783Y-75668002D01*
X36769977Y-75737500D01*
X36738454Y-75799855D01*
X36719158Y-75816575D01*
X36533597Y-75946505D01*
X36366505Y-76113597D01*
X36230965Y-76307169D01*
X36230964Y-76307171D01*
X36131098Y-76521335D01*
X36131094Y-76521344D01*
X36069938Y-76749586D01*
X36069936Y-76749596D01*
X36049341Y-76984999D01*
X36049341Y-76985000D01*
X33030000Y-76985000D01*
X33030000Y-48985000D01*
X36019341Y-48985000D01*
X36039936Y-49220403D01*
X36039938Y-49220413D01*
X36101094Y-49448655D01*
X36101096Y-49448659D01*
X36101097Y-49448663D01*
X36191286Y-49642074D01*
X36200965Y-49662830D01*
X36200967Y-49662834D01*
X36237671Y-49715252D01*
X36336501Y-49856396D01*
X36336506Y-49856402D01*
X36458818Y-49978714D01*
X36492303Y-50040037D01*
X36487319Y-50109729D01*
X36445447Y-50165662D01*
X36414471Y-50182577D01*
X36282912Y-50231646D01*
X36282906Y-50231649D01*
X36167812Y-50317809D01*
X36167809Y-50317812D01*
X36081649Y-50432906D01*
X36081645Y-50432913D01*
X36031403Y-50567620D01*
X36031401Y-50567627D01*
X36025000Y-50627155D01*
X36025000Y-51275000D01*
X36941988Y-51275000D01*
X36909075Y-51332007D01*
X36875000Y-51459174D01*
X36875000Y-51590826D01*
X36909075Y-51717993D01*
X36941988Y-51775000D01*
X36025000Y-51775000D01*
X36025000Y-52422844D01*
X36031401Y-52482372D01*
X36031403Y-52482379D01*
X36081645Y-52617086D01*
X36081649Y-52617093D01*
X36167809Y-52732187D01*
X36167812Y-52732190D01*
X36282906Y-52818350D01*
X36282913Y-52818354D01*
X36417620Y-52868596D01*
X36417627Y-52868598D01*
X36477155Y-52874999D01*
X36477172Y-52875000D01*
X37125000Y-52875000D01*
X37125000Y-51958012D01*
X37182007Y-51990925D01*
X37309174Y-52025000D01*
X37440826Y-52025000D01*
X37567993Y-51990925D01*
X37625000Y-51958012D01*
X37625000Y-52875000D01*
X38272828Y-52875000D01*
X38272844Y-52874999D01*
X38332372Y-52868598D01*
X38332379Y-52868596D01*
X38467086Y-52818354D01*
X38467093Y-52818350D01*
X38582187Y-52732190D01*
X38582190Y-52732187D01*
X38668350Y-52617093D01*
X38668354Y-52617086D01*
X38718596Y-52482379D01*
X38718598Y-52482372D01*
X38724999Y-52422844D01*
X38725000Y-52422827D01*
X38725000Y-51775000D01*
X37808012Y-51775000D01*
X37840925Y-51717993D01*
X37875000Y-51590826D01*
X37875000Y-51459174D01*
X37840925Y-51332007D01*
X37808012Y-51275000D01*
X38725000Y-51275000D01*
X38725000Y-50627172D01*
X38724999Y-50627155D01*
X38718598Y-50567627D01*
X38718596Y-50567620D01*
X38668354Y-50432913D01*
X38668350Y-50432906D01*
X38582190Y-50317812D01*
X38582187Y-50317809D01*
X38467093Y-50231649D01*
X38467088Y-50231646D01*
X38335528Y-50182577D01*
X38279595Y-50140705D01*
X38255178Y-50075241D01*
X38270030Y-50006968D01*
X38291175Y-49978720D01*
X38413495Y-49856401D01*
X38549035Y-49662830D01*
X38648903Y-49448663D01*
X38710063Y-49220408D01*
X38730659Y-48985000D01*
X38728534Y-48960717D01*
X38722112Y-48887305D01*
X38710063Y-48749592D01*
X38648903Y-48521337D01*
X38549035Y-48307171D01*
X38547407Y-48304845D01*
X38544015Y-48300000D01*
X39724540Y-48300000D01*
X39744326Y-48488256D01*
X39744327Y-48488259D01*
X39802818Y-48668277D01*
X39802821Y-48668284D01*
X39897467Y-48832216D01*
X39945333Y-48885376D01*
X40024129Y-48972888D01*
X40177265Y-49084148D01*
X40177270Y-49084151D01*
X40350192Y-49161142D01*
X40350197Y-49161144D01*
X40535354Y-49200500D01*
X40644045Y-49200500D01*
X40711084Y-49220185D01*
X40731726Y-49236819D01*
X41573181Y-50078274D01*
X41606666Y-50139597D01*
X41609500Y-50165955D01*
X41609500Y-72934045D01*
X41589815Y-73001084D01*
X41573181Y-73021726D01*
X41231726Y-73363181D01*
X41170403Y-73396666D01*
X41144045Y-73399500D01*
X41035354Y-73399500D01*
X41007154Y-73405494D01*
X40850197Y-73438855D01*
X40850192Y-73438857D01*
X40677270Y-73515848D01*
X40677265Y-73515851D01*
X40524129Y-73627111D01*
X40397466Y-73767785D01*
X40302821Y-73931715D01*
X40302818Y-73931722D01*
X40246629Y-74104656D01*
X40244326Y-74111744D01*
X40224540Y-74300000D01*
X40244326Y-74488256D01*
X40244327Y-74488259D01*
X40302818Y-74668277D01*
X40302821Y-74668284D01*
X40397467Y-74832216D01*
X40495632Y-74941239D01*
X40524129Y-74972888D01*
X40677265Y-75084148D01*
X40677270Y-75084151D01*
X40850192Y-75161142D01*
X40850197Y-75161144D01*
X41035354Y-75200500D01*
X41035355Y-75200500D01*
X41224644Y-75200500D01*
X41224646Y-75200500D01*
X41409803Y-75161144D01*
X41582730Y-75084151D01*
X41735871Y-74972888D01*
X41862533Y-74832216D01*
X41957179Y-74668284D01*
X42015674Y-74488256D01*
X42035460Y-74300000D01*
X42034950Y-74295148D01*
X42047516Y-74226419D01*
X42070586Y-74194505D01*
X42672518Y-73592575D01*
X42750258Y-73457924D01*
X42750995Y-73455171D01*
X42755752Y-73437423D01*
X42772857Y-73373584D01*
X42790500Y-73307741D01*
X42790500Y-73264500D01*
X42810185Y-73197461D01*
X42862989Y-73151706D01*
X42914500Y-73140500D01*
X65451808Y-73140500D01*
X65518847Y-73160185D01*
X65564602Y-73212989D01*
X65574546Y-73282147D01*
X65568406Y-73304528D01*
X65568755Y-73304634D01*
X65566985Y-73310464D01*
X65529500Y-73498917D01*
X65529500Y-74541082D01*
X65566985Y-74729535D01*
X65566988Y-74729543D01*
X65576346Y-74752136D01*
X65583813Y-74821605D01*
X65552537Y-74884084D01*
X65549467Y-74887266D01*
X65521002Y-74915731D01*
X65413177Y-75064141D01*
X65329890Y-75227600D01*
X65273197Y-75402081D01*
X65244500Y-75583267D01*
X65244500Y-76416732D01*
X65270187Y-76578914D01*
X65273198Y-76597922D01*
X65329889Y-76772397D01*
X65400584Y-76911144D01*
X65413177Y-76935858D01*
X65521000Y-77084265D01*
X65521004Y-77084270D01*
X65650733Y-77213999D01*
X65679942Y-77235220D01*
X65722608Y-77290549D01*
X65728587Y-77360163D01*
X65695982Y-77421958D01*
X65675949Y-77438640D01*
X65603151Y-77487282D01*
X65467282Y-77623151D01*
X65467279Y-77623155D01*
X65360521Y-77782929D01*
X65360520Y-77782931D01*
X65286989Y-77960452D01*
X65286986Y-77960464D01*
X65249500Y-78148917D01*
X65249500Y-79671082D01*
X65286986Y-79859535D01*
X65286989Y-79859547D01*
X65360520Y-80037068D01*
X65360521Y-80037070D01*
X65467279Y-80196844D01*
X65467282Y-80196848D01*
X65603151Y-80332717D01*
X65603155Y-80332720D01*
X65762927Y-80439477D01*
X65762928Y-80439477D01*
X65762929Y-80439478D01*
X65762931Y-80439479D01*
X65866485Y-80482372D01*
X65940457Y-80513012D01*
X66128917Y-80550499D01*
X66128920Y-80550500D01*
X66128922Y-80550500D01*
X66321080Y-80550500D01*
X66321081Y-80550499D01*
X66509543Y-80513012D01*
X66687073Y-80439477D01*
X66846845Y-80332720D01*
X66982720Y-80196845D01*
X67089477Y-80037073D01*
X67163012Y-79859543D01*
X67200500Y-79671078D01*
X67200500Y-78148922D01*
X67200500Y-78148919D01*
X67200499Y-78148917D01*
X67174415Y-78017784D01*
X67163012Y-77960457D01*
X67128489Y-77877111D01*
X67089479Y-77782931D01*
X67089478Y-77782929D01*
X67078065Y-77765849D01*
X66982720Y-77623155D01*
X66982717Y-77623151D01*
X66916656Y-77557090D01*
X66883171Y-77495767D01*
X66888155Y-77426075D01*
X66930027Y-77370142D01*
X66948038Y-77358927D01*
X67020855Y-77321825D01*
X67169272Y-77213994D01*
X67298994Y-77084272D01*
X67406825Y-76935855D01*
X67490111Y-76772397D01*
X67546802Y-76597922D01*
X67562630Y-76497987D01*
X67575500Y-76416732D01*
X67575500Y-76391020D01*
X67595185Y-76323981D01*
X67647989Y-76278226D01*
X67717147Y-76268282D01*
X67780703Y-76297307D01*
X67791643Y-76308041D01*
X67844590Y-76366845D01*
X67984970Y-76468838D01*
X67984976Y-76468842D01*
X68143495Y-76539420D01*
X68143501Y-76539422D01*
X68313236Y-76575500D01*
X68313237Y-76575500D01*
X68486762Y-76575500D01*
X68486764Y-76575500D01*
X68656499Y-76539422D01*
X68697103Y-76521344D01*
X68749564Y-76497987D01*
X68818814Y-76488702D01*
X68850436Y-76497987D01*
X68943496Y-76539420D01*
X68943501Y-76539422D01*
X69113236Y-76575500D01*
X69113237Y-76575500D01*
X69286762Y-76575500D01*
X69286764Y-76575500D01*
X69456499Y-76539422D01*
X69497103Y-76521344D01*
X69549564Y-76497987D01*
X69618814Y-76488702D01*
X69650436Y-76497987D01*
X69743496Y-76539420D01*
X69743501Y-76539422D01*
X69913236Y-76575500D01*
X69913237Y-76575500D01*
X70086762Y-76575500D01*
X70086764Y-76575500D01*
X70256499Y-76539422D01*
X70256501Y-76539420D01*
X70256504Y-76539420D01*
X70294470Y-76522516D01*
X70415024Y-76468842D01*
X70474404Y-76425699D01*
X70503489Y-76404568D01*
X70569295Y-76381087D01*
X70606049Y-76384488D01*
X70671014Y-76400500D01*
X70671015Y-76400500D01*
X70828985Y-76400500D01*
X70968618Y-76366084D01*
X71038421Y-76369153D01*
X71071179Y-76386163D01*
X71184976Y-76468842D01*
X71343495Y-76539420D01*
X71343501Y-76539422D01*
X71513236Y-76575500D01*
X71513237Y-76575500D01*
X71686762Y-76575500D01*
X71686764Y-76575500D01*
X71856499Y-76539422D01*
X71897103Y-76521344D01*
X71949564Y-76497987D01*
X72018814Y-76488702D01*
X72050436Y-76497987D01*
X72143496Y-76539420D01*
X72143501Y-76539422D01*
X72313236Y-76575500D01*
X72313237Y-76575500D01*
X72486762Y-76575500D01*
X72486764Y-76575500D01*
X72656499Y-76539422D01*
X72697103Y-76521344D01*
X72749564Y-76497987D01*
X72818814Y-76488702D01*
X72850436Y-76497987D01*
X72943496Y-76539420D01*
X72943501Y-76539422D01*
X73113236Y-76575500D01*
X73113237Y-76575500D01*
X73286762Y-76575500D01*
X73286764Y-76575500D01*
X73456499Y-76539422D01*
X73456501Y-76539420D01*
X73456504Y-76539420D01*
X73549563Y-76497987D01*
X73615024Y-76468842D01*
X73755410Y-76366845D01*
X73808351Y-76308047D01*
X73867836Y-76271400D01*
X73937693Y-76272729D01*
X73995741Y-76311615D01*
X74023551Y-76375712D01*
X74024500Y-76391020D01*
X74024500Y-76416732D01*
X74050187Y-76578914D01*
X74053198Y-76597922D01*
X74109889Y-76772397D01*
X74180584Y-76911144D01*
X74193177Y-76935858D01*
X74301000Y-77084265D01*
X74301004Y-77084270D01*
X74430729Y-77213995D01*
X74430734Y-77213999D01*
X74579143Y-77321824D01*
X74651956Y-77358924D01*
X74702753Y-77406898D01*
X74719548Y-77474719D01*
X74697011Y-77540854D01*
X74683344Y-77557090D01*
X74617279Y-77623155D01*
X74510521Y-77782929D01*
X74510520Y-77782931D01*
X74436989Y-77960452D01*
X74436986Y-77960464D01*
X74399500Y-78148917D01*
X74399500Y-79671082D01*
X74436986Y-79859535D01*
X74436989Y-79859547D01*
X74510520Y-80037068D01*
X74510521Y-80037070D01*
X74617279Y-80196844D01*
X74617282Y-80196848D01*
X74753151Y-80332717D01*
X74753155Y-80332720D01*
X74912927Y-80439477D01*
X74912928Y-80439477D01*
X74912929Y-80439478D01*
X74912931Y-80439479D01*
X75016485Y-80482372D01*
X75090457Y-80513012D01*
X75278917Y-80550499D01*
X75278920Y-80550500D01*
X75278922Y-80550500D01*
X75471080Y-80550500D01*
X75471081Y-80550499D01*
X75659543Y-80513012D01*
X75837073Y-80439477D01*
X75996845Y-80332720D01*
X76132720Y-80196845D01*
X76239477Y-80037073D01*
X76313012Y-79859543D01*
X76350500Y-79671078D01*
X76350500Y-78148922D01*
X76350500Y-78148919D01*
X76350499Y-78148917D01*
X76324415Y-78017784D01*
X76313012Y-77960457D01*
X76278489Y-77877111D01*
X76239479Y-77782931D01*
X76239478Y-77782929D01*
X76228065Y-77765849D01*
X76132720Y-77623155D01*
X76132717Y-77623151D01*
X75996848Y-77487282D01*
X75996844Y-77487279D01*
X75924051Y-77438640D01*
X75879246Y-77385028D01*
X75870539Y-77315703D01*
X75900694Y-77252675D01*
X75920056Y-77235220D01*
X75949272Y-77213994D01*
X76078994Y-77084272D01*
X76186825Y-76935855D01*
X76270111Y-76772397D01*
X76326802Y-76597922D01*
X76342630Y-76497987D01*
X76355500Y-76416732D01*
X76355500Y-75583267D01*
X76330144Y-75423181D01*
X76326802Y-75402078D01*
X76270111Y-75227603D01*
X76186825Y-75064145D01*
X76120523Y-74972888D01*
X76078999Y-74915734D01*
X76078995Y-74915729D01*
X76050534Y-74887268D01*
X76017049Y-74825945D01*
X76022033Y-74756253D01*
X76023639Y-74752169D01*
X76033012Y-74729543D01*
X76070500Y-74541078D01*
X76070500Y-73800000D01*
X78974540Y-73800000D01*
X78994326Y-73988256D01*
X78994327Y-73988259D01*
X79052818Y-74168277D01*
X79052821Y-74168284D01*
X79147467Y-74332216D01*
X79265138Y-74462903D01*
X79274129Y-74472888D01*
X79427265Y-74584148D01*
X79427270Y-74584151D01*
X79600192Y-74661142D01*
X79600197Y-74661144D01*
X79785354Y-74700500D01*
X79894045Y-74700500D01*
X79961084Y-74720185D01*
X79981726Y-74736819D01*
X84267424Y-79022517D01*
X84267425Y-79022518D01*
X84267427Y-79022519D01*
X84306294Y-79044958D01*
X84330745Y-79059075D01*
X84345162Y-79067398D01*
X84345164Y-79067400D01*
X84345165Y-79067400D01*
X84402076Y-79100258D01*
X84552259Y-79140500D01*
X89394738Y-79140500D01*
X89461777Y-79160185D01*
X89486884Y-79181523D01*
X89524129Y-79222888D01*
X89524133Y-79222892D01*
X89524135Y-79222893D01*
X89677265Y-79334148D01*
X89677270Y-79334151D01*
X89850192Y-79411142D01*
X89850197Y-79411144D01*
X90035354Y-79450500D01*
X90035355Y-79450500D01*
X90224644Y-79450500D01*
X90224646Y-79450500D01*
X90409803Y-79411144D01*
X90582730Y-79334151D01*
X90735871Y-79222888D01*
X90862533Y-79082216D01*
X90957179Y-78918284D01*
X91015674Y-78738256D01*
X91035460Y-78550000D01*
X91015674Y-78361744D01*
X90957179Y-78181716D01*
X90862533Y-78017784D01*
X90735871Y-77877112D01*
X90735863Y-77877106D01*
X90582734Y-77765851D01*
X90582729Y-77765848D01*
X90409807Y-77688857D01*
X90409802Y-77688855D01*
X90264001Y-77657865D01*
X90224646Y-77649500D01*
X90035354Y-77649500D01*
X90002897Y-77656398D01*
X89850197Y-77688855D01*
X89850192Y-77688857D01*
X89677270Y-77765848D01*
X89677265Y-77765851D01*
X89524135Y-77877106D01*
X89524133Y-77877107D01*
X89510489Y-77892259D01*
X89486886Y-77918474D01*
X89427401Y-77955121D01*
X89394738Y-77959500D01*
X84925955Y-77959500D01*
X84858916Y-77939815D01*
X84838274Y-77923181D01*
X82965093Y-76050000D01*
X85974540Y-76050000D01*
X85994326Y-76238256D01*
X85994327Y-76238259D01*
X86052818Y-76418277D01*
X86052821Y-76418284D01*
X86147467Y-76582216D01*
X86274129Y-76722888D01*
X86427265Y-76834148D01*
X86427270Y-76834151D01*
X86600192Y-76911142D01*
X86600197Y-76911144D01*
X86785354Y-76950500D01*
X86785355Y-76950500D01*
X86974644Y-76950500D01*
X86974646Y-76950500D01*
X87159803Y-76911144D01*
X87332730Y-76834151D01*
X87485864Y-76722892D01*
X87485866Y-76722892D01*
X87485866Y-76722890D01*
X87485871Y-76722888D01*
X87523113Y-76681525D01*
X87582599Y-76644879D01*
X87615262Y-76640500D01*
X98957739Y-76640500D01*
X98957741Y-76640500D01*
X99084159Y-76606626D01*
X99107925Y-76600258D01*
X99242575Y-76522518D01*
X101528275Y-74236819D01*
X101589598Y-74203334D01*
X101615956Y-74200500D01*
X101724644Y-74200500D01*
X101724646Y-74200500D01*
X101909803Y-74161144D01*
X102082730Y-74084151D01*
X102235871Y-73972888D01*
X102362533Y-73832216D01*
X102457179Y-73668284D01*
X102515674Y-73488256D01*
X102535460Y-73300000D01*
X102515674Y-73111744D01*
X102457179Y-72931716D01*
X102362533Y-72767784D01*
X102235871Y-72627112D01*
X102185479Y-72590500D01*
X102082734Y-72515851D01*
X102082729Y-72515848D01*
X101909807Y-72438857D01*
X101909802Y-72438855D01*
X101759075Y-72406818D01*
X101724646Y-72399500D01*
X101535354Y-72399500D01*
X101502897Y-72406398D01*
X101350197Y-72438855D01*
X101350192Y-72438857D01*
X101177270Y-72515848D01*
X101177265Y-72515851D01*
X101024129Y-72627111D01*
X100897466Y-72767785D01*
X100802821Y-72931715D01*
X100802818Y-72931722D01*
X100751605Y-73089341D01*
X100744326Y-73111744D01*
X100725085Y-73294818D01*
X100724540Y-73300001D01*
X100725050Y-73304854D01*
X100712479Y-73373584D01*
X100689410Y-73405494D01*
X98671726Y-75423181D01*
X98610403Y-75456666D01*
X98584045Y-75459500D01*
X87615262Y-75459500D01*
X87548223Y-75439815D01*
X87523115Y-75418476D01*
X87485871Y-75377112D01*
X87485869Y-75377110D01*
X87485866Y-75377107D01*
X87485864Y-75377106D01*
X87332734Y-75265851D01*
X87332729Y-75265848D01*
X87159807Y-75188857D01*
X87159802Y-75188855D01*
X87014001Y-75157865D01*
X86974646Y-75149500D01*
X86785354Y-75149500D01*
X86752897Y-75156398D01*
X86600197Y-75188855D01*
X86600192Y-75188857D01*
X86427270Y-75265848D01*
X86427265Y-75265851D01*
X86274129Y-75377111D01*
X86147466Y-75517785D01*
X86052821Y-75681715D01*
X86052818Y-75681722D01*
X86000357Y-75843182D01*
X85994326Y-75861744D01*
X85974540Y-76050000D01*
X82965093Y-76050000D01*
X80820589Y-73905496D01*
X80787104Y-73844173D01*
X80784950Y-73804849D01*
X80785460Y-73800000D01*
X80765674Y-73611744D01*
X80707179Y-73431716D01*
X80631133Y-73300000D01*
X84724540Y-73300000D01*
X84744326Y-73488256D01*
X84744327Y-73488259D01*
X84802818Y-73668277D01*
X84802821Y-73668284D01*
X84897467Y-73832216D01*
X84987063Y-73931722D01*
X85024129Y-73972888D01*
X85177265Y-74084148D01*
X85177270Y-74084151D01*
X85350192Y-74161142D01*
X85350197Y-74161144D01*
X85535354Y-74200500D01*
X85535355Y-74200500D01*
X85724644Y-74200500D01*
X85724646Y-74200500D01*
X85909803Y-74161144D01*
X86082730Y-74084151D01*
X86235864Y-73972892D01*
X86235866Y-73972892D01*
X86235866Y-73972890D01*
X86235871Y-73972888D01*
X86273113Y-73931525D01*
X86332599Y-73894879D01*
X86365262Y-73890500D01*
X95177727Y-73890500D01*
X95177729Y-73890500D01*
X95296175Y-73858762D01*
X95327913Y-73850258D01*
X95462563Y-73772518D01*
X99598262Y-69636819D01*
X99659585Y-69603334D01*
X99685943Y-69600500D01*
X99794632Y-69600500D01*
X99794634Y-69600500D01*
X99979791Y-69561144D01*
X100152718Y-69484151D01*
X100267306Y-69400898D01*
X104656259Y-69400898D01*
X104676854Y-69636301D01*
X104676856Y-69636311D01*
X104738012Y-69864553D01*
X104738014Y-69864557D01*
X104738015Y-69864561D01*
X104819490Y-70039284D01*
X104837883Y-70078728D01*
X104837885Y-70078732D01*
X104863950Y-70115956D01*
X104973423Y-70272299D01*
X105140517Y-70439393D01*
X105237302Y-70507163D01*
X105334083Y-70574930D01*
X105334085Y-70574931D01*
X105334088Y-70574933D01*
X105548255Y-70674801D01*
X105776510Y-70735961D01*
X105964836Y-70752437D01*
X106011917Y-70756557D01*
X106011918Y-70756557D01*
X106011919Y-70756557D01*
X106051152Y-70753124D01*
X106247326Y-70735961D01*
X106475581Y-70674801D01*
X106689748Y-70574933D01*
X106883319Y-70439393D01*
X107050413Y-70272299D01*
X107185953Y-70078728D01*
X107285821Y-69864561D01*
X107346981Y-69636306D01*
X107367577Y-69400898D01*
X107363810Y-69357849D01*
X107377576Y-69289352D01*
X107426190Y-69239169D01*
X107494218Y-69223234D01*
X107538850Y-69234249D01*
X107665509Y-69292093D01*
X107665510Y-69292093D01*
X107665512Y-69292094D01*
X107807969Y-69312575D01*
X107950426Y-69292094D01*
X108081342Y-69232306D01*
X108128025Y-69194687D01*
X109397807Y-67924903D01*
X109435428Y-67878220D01*
X109495216Y-67747304D01*
X109515697Y-67604847D01*
X109495216Y-67462390D01*
X109463609Y-67393182D01*
X109435429Y-67331476D01*
X109435428Y-67331475D01*
X109435428Y-67331474D01*
X109397809Y-67284791D01*
X109397804Y-67284786D01*
X109397800Y-67284781D01*
X108128028Y-66015012D01*
X108128022Y-66015007D01*
X108122449Y-66010515D01*
X108081342Y-65977387D01*
X107950428Y-65917600D01*
X107950424Y-65917599D01*
X107807969Y-65897119D01*
X107665513Y-65917599D01*
X107665509Y-65917600D01*
X107534598Y-65977386D01*
X107487903Y-66015015D01*
X106218134Y-67284787D01*
X106218125Y-67284797D01*
X106180509Y-67331473D01*
X106120722Y-67462387D01*
X106120721Y-67462391D01*
X106100241Y-67604847D01*
X106120721Y-67747302D01*
X106120722Y-67747307D01*
X106178566Y-67873965D01*
X106188510Y-67943124D01*
X106159485Y-68006680D01*
X106100707Y-68044454D01*
X106054965Y-68049005D01*
X106011920Y-68045239D01*
X106011917Y-68045239D01*
X105776514Y-68065834D01*
X105776504Y-68065836D01*
X105548262Y-68126992D01*
X105548253Y-68126996D01*
X105334089Y-68226862D01*
X105334087Y-68226863D01*
X105140515Y-68362403D01*
X104973423Y-68529495D01*
X104837883Y-68723067D01*
X104837882Y-68723069D01*
X104738016Y-68937233D01*
X104738012Y-68937242D01*
X104676856Y-69165484D01*
X104676854Y-69165494D01*
X104656259Y-69400897D01*
X104656259Y-69400898D01*
X100267306Y-69400898D01*
X100305859Y-69372888D01*
X100432521Y-69232216D01*
X100527167Y-69068284D01*
X100585662Y-68888256D01*
X100605448Y-68700000D01*
X100585662Y-68511744D01*
X100527167Y-68331716D01*
X100432521Y-68167784D01*
X100305859Y-68027112D01*
X100277737Y-68006680D01*
X100152722Y-67915851D01*
X100152717Y-67915848D01*
X99979795Y-67838857D01*
X99979790Y-67838855D01*
X99833989Y-67807865D01*
X99794634Y-67799500D01*
X99605342Y-67799500D01*
X99572885Y-67806398D01*
X99420185Y-67838855D01*
X99420180Y-67838857D01*
X99247258Y-67915848D01*
X99247253Y-67915851D01*
X99094117Y-68027111D01*
X98967454Y-68167785D01*
X98872809Y-68331715D01*
X98872806Y-68331722D01*
X98814315Y-68511740D01*
X98814314Y-68511744D01*
X98794528Y-68700000D01*
X98794528Y-68700002D01*
X98795038Y-68704856D01*
X98782467Y-68773586D01*
X98759398Y-68805495D01*
X94891714Y-72673181D01*
X94830391Y-72706666D01*
X94804033Y-72709500D01*
X86365262Y-72709500D01*
X86298223Y-72689815D01*
X86273115Y-72668476D01*
X86235871Y-72627112D01*
X86235869Y-72627110D01*
X86235866Y-72627107D01*
X86235864Y-72627106D01*
X86082734Y-72515851D01*
X86082729Y-72515848D01*
X85909807Y-72438857D01*
X85909802Y-72438855D01*
X85759075Y-72406818D01*
X85724646Y-72399500D01*
X85535354Y-72399500D01*
X85502897Y-72406398D01*
X85350197Y-72438855D01*
X85350192Y-72438857D01*
X85177270Y-72515848D01*
X85177265Y-72515851D01*
X85024129Y-72627111D01*
X84897466Y-72767785D01*
X84802821Y-72931715D01*
X84802818Y-72931722D01*
X84751605Y-73089341D01*
X84744326Y-73111744D01*
X84724540Y-73300000D01*
X80631133Y-73300000D01*
X80612533Y-73267784D01*
X80485871Y-73127112D01*
X80464719Y-73111744D01*
X80332734Y-73015851D01*
X80332729Y-73015848D01*
X80159807Y-72938857D01*
X80159802Y-72938855D01*
X80014001Y-72907865D01*
X79974646Y-72899500D01*
X79785354Y-72899500D01*
X79752897Y-72906398D01*
X79600197Y-72938855D01*
X79600192Y-72938857D01*
X79427270Y-73015848D01*
X79427265Y-73015851D01*
X79274129Y-73127111D01*
X79147466Y-73267785D01*
X79052821Y-73431715D01*
X79052818Y-73431722D01*
X79006720Y-73573599D01*
X78994326Y-73611744D01*
X78974540Y-73800000D01*
X76070500Y-73800000D01*
X76070500Y-73498922D01*
X76070500Y-73498919D01*
X76070499Y-73498917D01*
X76047342Y-73382499D01*
X76033012Y-73310457D01*
X75975288Y-73171098D01*
X75959479Y-73132931D01*
X75959478Y-73132929D01*
X75955591Y-73127112D01*
X75852720Y-72973155D01*
X75852717Y-72973151D01*
X75716848Y-72837282D01*
X75716844Y-72837279D01*
X75557070Y-72730521D01*
X75557068Y-72730520D01*
X75379547Y-72656989D01*
X75379535Y-72656986D01*
X75191081Y-72619500D01*
X75191078Y-72619500D01*
X74998922Y-72619500D01*
X74998919Y-72619500D01*
X74810464Y-72656986D01*
X74810452Y-72656989D01*
X74632931Y-72730520D01*
X74632929Y-72730521D01*
X74473155Y-72837279D01*
X74473151Y-72837282D01*
X74337282Y-72973151D01*
X74337279Y-72973155D01*
X74230521Y-73132929D01*
X74230520Y-73132931D01*
X74156989Y-73310452D01*
X74156986Y-73310464D01*
X74119500Y-73498917D01*
X74119500Y-73987278D01*
X74099815Y-74054317D01*
X74047011Y-74100072D01*
X73977853Y-74110016D01*
X73945065Y-74100558D01*
X73856342Y-74061056D01*
X73686711Y-74025000D01*
X73513289Y-74025000D01*
X73343659Y-74061056D01*
X73219767Y-74116215D01*
X73865871Y-74762318D01*
X73899356Y-74823641D01*
X73894372Y-74893332D01*
X73865871Y-74937680D01*
X73781058Y-75022493D01*
X73719735Y-75055978D01*
X73650043Y-75050994D01*
X73644528Y-75048033D01*
X73713291Y-75019552D01*
X73769552Y-74963291D01*
X73800000Y-74889782D01*
X73800000Y-74810218D01*
X73769552Y-74736709D01*
X73713291Y-74680448D01*
X73639782Y-74650000D01*
X73560218Y-74650000D01*
X73486709Y-74680448D01*
X73430448Y-74736709D01*
X73400000Y-74810218D01*
X73400000Y-74889782D01*
X73426700Y-74954243D01*
X73366101Y-74941363D01*
X73304619Y-74908170D01*
X73304201Y-74907754D01*
X72866649Y-74470201D01*
X72825450Y-74475626D01*
X72756414Y-74464861D01*
X72704158Y-74418481D01*
X72701877Y-74414687D01*
X72671522Y-74362111D01*
X72555410Y-74233155D01*
X72415024Y-74131158D01*
X72415023Y-74131157D01*
X72256504Y-74060579D01*
X72256498Y-74060577D01*
X72122841Y-74032168D01*
X72086764Y-74024500D01*
X71913236Y-74024500D01*
X71883483Y-74030824D01*
X71743501Y-74060577D01*
X71743492Y-74060580D01*
X71729931Y-74066618D01*
X71660681Y-74075901D01*
X71597405Y-74046270D01*
X71560194Y-73987133D01*
X71555500Y-73953337D01*
X71555500Y-73382499D01*
X71575185Y-73315460D01*
X71591819Y-73294818D01*
X71954922Y-72931715D01*
X72362518Y-72524119D01*
X72440258Y-72389468D01*
X72463019Y-72304523D01*
X72480500Y-72239285D01*
X72480500Y-71312259D01*
X72440258Y-71162076D01*
X72419141Y-71125500D01*
X72362518Y-71027425D01*
X70629375Y-69294282D01*
X70601114Y-69250572D01*
X70580220Y-69195477D01*
X70490483Y-69065470D01*
X70434853Y-69016186D01*
X70397727Y-68956998D01*
X70398495Y-68887133D01*
X70429398Y-68835693D01*
X72321849Y-66943243D01*
X72383170Y-66909760D01*
X72452862Y-66914744D01*
X72501677Y-66947953D01*
X72524128Y-66972887D01*
X72524135Y-66972893D01*
X72677265Y-67084148D01*
X72677270Y-67084151D01*
X72850192Y-67161142D01*
X72850197Y-67161144D01*
X73035354Y-67200500D01*
X73035355Y-67200500D01*
X73224644Y-67200500D01*
X73224646Y-67200500D01*
X73409803Y-67161144D01*
X73582730Y-67084151D01*
X73735871Y-66972888D01*
X73862533Y-66832216D01*
X73957179Y-66668284D01*
X74015674Y-66488256D01*
X74035460Y-66300000D01*
X74018376Y-66137458D01*
X74030945Y-66068732D01*
X74078677Y-66017708D01*
X74141697Y-66000500D01*
X79860517Y-66000500D01*
X79927556Y-66020185D01*
X79942741Y-66031682D01*
X80007760Y-66089283D01*
X80007762Y-66089284D01*
X80147634Y-66162696D01*
X80301014Y-66200500D01*
X80301015Y-66200500D01*
X80458985Y-66200500D01*
X80612365Y-66162696D01*
X80752240Y-66089283D01*
X80870483Y-65984530D01*
X80960220Y-65854523D01*
X81016237Y-65706818D01*
X81035278Y-65550000D01*
X81018607Y-65412696D01*
X81016237Y-65393181D01*
X80980897Y-65299999D01*
X80960220Y-65245477D01*
X80870483Y-65115470D01*
X80752240Y-65010717D01*
X80752238Y-65010716D01*
X80752237Y-65010715D01*
X80612366Y-64937304D01*
X80541742Y-64919897D01*
X80481361Y-64884741D01*
X80449573Y-64822521D01*
X80456469Y-64752993D01*
X80499860Y-64698230D01*
X80565970Y-64675620D01*
X80571417Y-64675500D01*
X91695930Y-64675500D01*
X91695932Y-64675500D01*
X91842301Y-64636281D01*
X91973531Y-64560515D01*
X92061706Y-64472338D01*
X92119717Y-64439621D01*
X92127531Y-64437696D01*
X92267406Y-64364283D01*
X92385649Y-64259530D01*
X92475386Y-64129523D01*
X92531403Y-63981818D01*
X92550444Y-63825000D01*
X92541177Y-63748674D01*
X92531403Y-63668181D01*
X92501942Y-63590499D01*
X92475386Y-63520477D01*
X92385649Y-63390470D01*
X92348224Y-63357315D01*
X92311098Y-63298126D01*
X92311866Y-63228261D01*
X92350283Y-63169901D01*
X92414154Y-63141576D01*
X92430452Y-63140500D01*
X93685334Y-63140500D01*
X93752373Y-63160185D01*
X93798128Y-63212989D01*
X93808072Y-63282147D01*
X93798613Y-63314937D01*
X93797820Y-63316717D01*
X93747197Y-63472520D01*
X93739326Y-63496744D01*
X93723166Y-63650500D01*
X93719540Y-63685002D01*
X93720050Y-63689856D01*
X93707479Y-63758586D01*
X93684410Y-63790495D01*
X91612483Y-65862423D01*
X91612479Y-65862428D01*
X91534741Y-65997076D01*
X91534740Y-65997076D01*
X91531141Y-66010513D01*
X91531141Y-66010515D01*
X91494500Y-66147259D01*
X91494500Y-66147260D01*
X91493515Y-66150937D01*
X91465890Y-66201815D01*
X91352466Y-66327785D01*
X91257821Y-66491715D01*
X91257818Y-66491722D01*
X91200450Y-66668284D01*
X91199326Y-66671744D01*
X91179540Y-66860000D01*
X91199326Y-67048256D01*
X91199327Y-67048259D01*
X91257818Y-67228277D01*
X91257821Y-67228284D01*
X91352467Y-67392216D01*
X91415653Y-67462391D01*
X91479129Y-67532888D01*
X91479130Y-67532889D01*
X91479342Y-67533043D01*
X91479434Y-67533163D01*
X91483958Y-67537236D01*
X91483212Y-67538063D01*
X91522005Y-67588375D01*
X91527980Y-67657989D01*
X91495371Y-67719782D01*
X91436127Y-67753754D01*
X91394372Y-67764045D01*
X91254501Y-67837456D01*
X91254499Y-67837458D01*
X91197026Y-67888374D01*
X91133793Y-67918095D01*
X91064529Y-67908911D01*
X91027119Y-67883239D01*
X90983367Y-67839487D01*
X90983365Y-67839485D01*
X90891144Y-67786241D01*
X90852136Y-67763719D01*
X90778950Y-67744109D01*
X90705766Y-67724500D01*
X90705765Y-67724500D01*
X85463798Y-67724500D01*
X85406172Y-67710296D01*
X85362365Y-67687304D01*
X85362364Y-67687303D01*
X85362363Y-67687303D01*
X85208986Y-67649500D01*
X85208985Y-67649500D01*
X85051015Y-67649500D01*
X85051014Y-67649500D01*
X84897634Y-67687303D01*
X84757762Y-67760715D01*
X84639516Y-67865471D01*
X84549781Y-67995475D01*
X84549780Y-67995476D01*
X84493762Y-68143181D01*
X84474722Y-68299999D01*
X84474722Y-68300000D01*
X84493762Y-68456818D01*
X84549780Y-68604523D01*
X84639517Y-68734530D01*
X84757760Y-68839283D01*
X84757762Y-68839284D01*
X84897634Y-68912696D01*
X85051014Y-68950500D01*
X85051015Y-68950500D01*
X85208985Y-68950500D01*
X85362365Y-68912696D01*
X85406172Y-68889703D01*
X85463798Y-68875500D01*
X90340258Y-68875500D01*
X90407297Y-68895185D01*
X90427939Y-68911819D01*
X92237663Y-70721543D01*
X92265924Y-70765252D01*
X92299780Y-70854523D01*
X92389517Y-70984530D01*
X92507760Y-71089283D01*
X92507762Y-71089284D01*
X92647634Y-71162696D01*
X92801014Y-71200500D01*
X92801015Y-71200500D01*
X92958985Y-71200500D01*
X93112365Y-71162696D01*
X93183235Y-71125500D01*
X93252240Y-71089283D01*
X93370483Y-70984530D01*
X93460220Y-70854523D01*
X93516237Y-70706818D01*
X93535278Y-70550000D01*
X93516237Y-70393182D01*
X93460220Y-70245477D01*
X93370483Y-70115470D01*
X93252240Y-70010717D01*
X93252238Y-70010716D01*
X93252237Y-70010715D01*
X93112368Y-69937305D01*
X93112369Y-69937305D01*
X93112365Y-69937304D01*
X93104541Y-69935375D01*
X93046541Y-69902661D01*
X92322802Y-69178922D01*
X92289317Y-69117599D01*
X92294301Y-69047907D01*
X92336173Y-68991974D01*
X92401637Y-68967557D01*
X92410483Y-68967241D01*
X93200998Y-68967241D01*
X93201000Y-68967241D01*
X93332553Y-68931991D01*
X93351184Y-68926999D01*
X93387270Y-68906164D01*
X93455168Y-68889692D01*
X93521195Y-68912544D01*
X93564386Y-68967465D01*
X93571028Y-69037018D01*
X93565211Y-69057523D01*
X93513763Y-69193181D01*
X93494722Y-69349999D01*
X93494722Y-69350000D01*
X93513762Y-69506818D01*
X93562869Y-69636301D01*
X93569780Y-69654523D01*
X93659517Y-69784530D01*
X93777760Y-69889283D01*
X93777762Y-69889284D01*
X93917634Y-69962696D01*
X94071014Y-70000500D01*
X94071015Y-70000500D01*
X94228985Y-70000500D01*
X94382365Y-69962696D01*
X94430743Y-69937305D01*
X94522240Y-69889283D01*
X94640483Y-69784530D01*
X94730220Y-69654523D01*
X94751114Y-69599426D01*
X94779373Y-69555718D01*
X96158274Y-68176819D01*
X96219597Y-68143334D01*
X96245955Y-68140500D01*
X96394781Y-68140500D01*
X96452407Y-68154703D01*
X96467635Y-68162696D01*
X96544325Y-68181598D01*
X96621014Y-68200500D01*
X96621015Y-68200500D01*
X96778985Y-68200500D01*
X96932365Y-68162696D01*
X97072240Y-68089283D01*
X97190483Y-67984530D01*
X97280220Y-67854523D01*
X97336237Y-67706818D01*
X97355278Y-67550000D01*
X97344641Y-67462391D01*
X97336237Y-67393181D01*
X97295132Y-67284797D01*
X97280220Y-67245477D01*
X97190483Y-67115470D01*
X97072240Y-67010717D01*
X97072238Y-67010716D01*
X97072237Y-67010715D01*
X96932365Y-66937303D01*
X96778986Y-66899500D01*
X96778985Y-66899500D01*
X96621015Y-66899500D01*
X96621014Y-66899500D01*
X96467636Y-66937303D01*
X96452408Y-66945296D01*
X96394781Y-66959500D01*
X95872259Y-66959500D01*
X95759621Y-66989681D01*
X95722075Y-66999742D01*
X95703066Y-67010717D01*
X95665165Y-67032599D01*
X95665163Y-67032599D01*
X95587427Y-67077481D01*
X95587421Y-67077485D01*
X94317513Y-68347392D01*
X94256190Y-68380877D01*
X94186498Y-68375893D01*
X94130565Y-68334021D01*
X94106148Y-68268557D01*
X94113890Y-68215740D01*
X94136237Y-68156818D01*
X94155278Y-68000000D01*
X94136237Y-67843182D01*
X94134596Y-67838856D01*
X94104880Y-67760500D01*
X94080220Y-67695477D01*
X93990483Y-67565470D01*
X93872240Y-67460717D01*
X93872238Y-67460716D01*
X93872237Y-67460715D01*
X93732365Y-67387303D01*
X93578986Y-67349500D01*
X93578985Y-67349500D01*
X93421015Y-67349500D01*
X93421014Y-67349500D01*
X93267634Y-67387303D01*
X93127762Y-67460715D01*
X93009516Y-67565471D01*
X92919780Y-67695476D01*
X92915707Y-67706216D01*
X92873527Y-67761917D01*
X92807928Y-67785972D01*
X92799766Y-67786241D01*
X92723793Y-67786241D01*
X92656754Y-67766556D01*
X92610999Y-67713752D01*
X92601055Y-67644594D01*
X92630080Y-67581038D01*
X92650908Y-67561923D01*
X92667318Y-67550000D01*
X92690871Y-67532888D01*
X92817533Y-67392216D01*
X92912179Y-67228284D01*
X92970674Y-67048256D01*
X92990460Y-66860000D01*
X92970674Y-66671744D01*
X92912179Y-66491716D01*
X92865023Y-66410040D01*
X92848551Y-66342142D01*
X92871403Y-66276115D01*
X92884724Y-66260367D01*
X94523274Y-64621819D01*
X94584597Y-64588334D01*
X94610955Y-64585500D01*
X94719644Y-64585500D01*
X94719646Y-64585500D01*
X94904803Y-64546144D01*
X95077730Y-64469151D01*
X95230871Y-64357888D01*
X95357533Y-64217216D01*
X95452179Y-64053284D01*
X95510674Y-63873256D01*
X95530460Y-63685000D01*
X95510674Y-63496744D01*
X95452179Y-63316716D01*
X95452177Y-63316712D01*
X95451387Y-63314937D01*
X95451236Y-63313813D01*
X95450171Y-63310535D01*
X95450770Y-63310340D01*
X95442101Y-63245688D01*
X95471729Y-63182411D01*
X95530863Y-63145196D01*
X95564666Y-63140500D01*
X97207739Y-63140500D01*
X97207741Y-63140500D01*
X97339294Y-63105250D01*
X97357925Y-63100258D01*
X97492575Y-63022518D01*
X98577819Y-61937272D01*
X98639142Y-61903788D01*
X98708834Y-61908772D01*
X98764767Y-61950644D01*
X98789184Y-62016108D01*
X98789500Y-62024954D01*
X98789500Y-64254044D01*
X98769815Y-64321083D01*
X98753181Y-64341725D01*
X97931956Y-65162949D01*
X97901902Y-65185064D01*
X97757761Y-65260716D01*
X97639516Y-65365471D01*
X97549781Y-65495475D01*
X97549780Y-65495476D01*
X97493762Y-65643181D01*
X97474722Y-65799999D01*
X97474722Y-65800000D01*
X97493762Y-65956818D01*
X97536206Y-66068732D01*
X97549780Y-66104523D01*
X97639517Y-66234530D01*
X97757760Y-66339283D01*
X97757762Y-66339284D01*
X97897634Y-66412696D01*
X98051014Y-66450500D01*
X98051015Y-66450500D01*
X98208985Y-66450500D01*
X98362365Y-66412696D01*
X98367422Y-66410042D01*
X98502240Y-66339283D01*
X98620483Y-66234530D01*
X98710220Y-66104523D01*
X98731114Y-66049426D01*
X98759373Y-66005718D01*
X99852518Y-64912575D01*
X99930258Y-64777925D01*
X99934869Y-64760717D01*
X99944644Y-64724236D01*
X99944644Y-64724234D01*
X99952771Y-64693903D01*
X99970500Y-64627741D01*
X99970500Y-61100140D01*
X99978558Y-61056169D01*
X99999860Y-61000000D01*
X102344722Y-61000000D01*
X102363762Y-61156818D01*
X102418754Y-61301818D01*
X102419780Y-61304523D01*
X102509517Y-61434530D01*
X102627760Y-61539283D01*
X102627762Y-61539284D01*
X102767634Y-61612696D01*
X102921014Y-61650500D01*
X102921015Y-61650500D01*
X103078985Y-61650500D01*
X103232365Y-61612696D01*
X103247592Y-61604703D01*
X103305219Y-61590500D01*
X104704045Y-61590500D01*
X104771084Y-61610185D01*
X104791726Y-61626819D01*
X106637425Y-63472518D01*
X106772075Y-63550258D01*
X106790701Y-63555248D01*
X106790704Y-63555250D01*
X106790705Y-63555250D01*
X106818505Y-63562699D01*
X106922259Y-63590500D01*
X106944781Y-63590500D01*
X107002407Y-63604703D01*
X107017635Y-63612696D01*
X107094325Y-63631598D01*
X107171014Y-63650500D01*
X107171015Y-63650500D01*
X107328985Y-63650500D01*
X107482365Y-63612696D01*
X107524657Y-63590499D01*
X107622240Y-63539283D01*
X107740483Y-63434530D01*
X107830220Y-63304523D01*
X107886237Y-63156818D01*
X107905278Y-63000000D01*
X107886237Y-62843182D01*
X107830220Y-62695477D01*
X107740483Y-62565470D01*
X107622240Y-62460717D01*
X107622238Y-62460716D01*
X107622237Y-62460715D01*
X107482365Y-62387303D01*
X107328986Y-62349500D01*
X107328985Y-62349500D01*
X107235955Y-62349500D01*
X107168916Y-62329815D01*
X107148274Y-62313181D01*
X105362576Y-60527483D01*
X105362571Y-60527479D01*
X105227927Y-60449743D01*
X105227926Y-60449742D01*
X105204941Y-60443583D01*
X105181957Y-60437425D01*
X105181954Y-60437424D01*
X105137909Y-60425622D01*
X105077741Y-60409500D01*
X105077740Y-60409500D01*
X103305219Y-60409500D01*
X103247592Y-60395296D01*
X103244324Y-60393581D01*
X103232365Y-60387304D01*
X103232364Y-60387303D01*
X103232363Y-60387303D01*
X103078986Y-60349500D01*
X103078985Y-60349500D01*
X102921015Y-60349500D01*
X102921014Y-60349500D01*
X102767634Y-60387303D01*
X102627762Y-60460715D01*
X102509516Y-60565471D01*
X102419781Y-60695475D01*
X102419780Y-60695476D01*
X102363762Y-60843181D01*
X102344722Y-60999999D01*
X102344722Y-61000000D01*
X99999860Y-61000000D01*
X100016237Y-60956818D01*
X100035278Y-60800000D01*
X100035278Y-60799999D01*
X100016237Y-60643181D01*
X99974187Y-60532305D01*
X99960220Y-60495477D01*
X99870483Y-60365470D01*
X99752240Y-60260717D01*
X99752238Y-60260716D01*
X99752237Y-60260715D01*
X99612365Y-60187303D01*
X99458986Y-60149500D01*
X99458985Y-60149500D01*
X99301015Y-60149500D01*
X99301014Y-60149500D01*
X99147634Y-60187303D01*
X99007762Y-60260715D01*
X98889516Y-60365471D01*
X98799781Y-60495474D01*
X98756182Y-60610435D01*
X98714003Y-60666137D01*
X98648406Y-60690194D01*
X98610566Y-60686860D01*
X98458986Y-60649500D01*
X98458985Y-60649500D01*
X98301015Y-60649500D01*
X98301014Y-60649500D01*
X98147634Y-60687303D01*
X98062626Y-60731920D01*
X97994118Y-60745646D01*
X97947374Y-60731920D01*
X97862365Y-60687303D01*
X97708986Y-60649500D01*
X97708985Y-60649500D01*
X97551015Y-60649500D01*
X97551014Y-60649500D01*
X97397634Y-60687303D01*
X97257762Y-60760715D01*
X97139516Y-60865471D01*
X97049779Y-60995478D01*
X97028883Y-61050574D01*
X97000623Y-61094282D01*
X96671724Y-61423182D01*
X96610403Y-61456666D01*
X96584045Y-61459500D01*
X90435219Y-61459500D01*
X90377592Y-61445296D01*
X90362363Y-61437303D01*
X90208986Y-61399500D01*
X90208985Y-61399500D01*
X90051015Y-61399500D01*
X90051014Y-61399500D01*
X89897634Y-61437303D01*
X89757762Y-61510715D01*
X89757760Y-61510717D01*
X89651670Y-61604704D01*
X89639516Y-61615471D01*
X89549781Y-61745475D01*
X89549780Y-61745476D01*
X89493762Y-61893181D01*
X89474722Y-62049999D01*
X89474722Y-62050000D01*
X89493762Y-62206818D01*
X89512426Y-62256031D01*
X89517792Y-62325694D01*
X89512426Y-62343969D01*
X89493762Y-62393181D01*
X89474722Y-62549999D01*
X89474722Y-62550000D01*
X89493762Y-62706818D01*
X89545479Y-62843182D01*
X89549780Y-62854523D01*
X89624266Y-62962434D01*
X89639518Y-62984531D01*
X89665653Y-63007685D01*
X89702780Y-63066874D01*
X89702012Y-63136740D01*
X89663595Y-63195099D01*
X89599724Y-63223424D01*
X89583426Y-63224500D01*
X62523902Y-63224500D01*
X62377532Y-63263719D01*
X62246304Y-63339485D01*
X62246301Y-63339487D01*
X61169487Y-64416301D01*
X61169485Y-64416304D01*
X61093719Y-64547532D01*
X61054500Y-64693903D01*
X61054500Y-65210307D01*
X61046442Y-65254278D01*
X60993763Y-65393181D01*
X60974722Y-65549999D01*
X60974722Y-65550000D01*
X60993762Y-65706818D01*
X61029102Y-65800000D01*
X61049780Y-65854523D01*
X61139517Y-65984530D01*
X61257760Y-66089283D01*
X61257762Y-66089284D01*
X61397634Y-66162696D01*
X61551014Y-66200500D01*
X61551015Y-66200500D01*
X61708985Y-66200500D01*
X61862365Y-66162696D01*
X62002240Y-66089283D01*
X62120483Y-65984530D01*
X62210220Y-65854523D01*
X62266237Y-65706818D01*
X62285278Y-65550000D01*
X62284444Y-65543131D01*
X62295902Y-65474208D01*
X62342804Y-65422420D01*
X62358496Y-65414726D01*
X62362362Y-65412696D01*
X62362365Y-65412696D01*
X62502240Y-65339283D01*
X62620483Y-65234530D01*
X62710220Y-65104523D01*
X62744075Y-65015250D01*
X62772331Y-64971547D01*
X63032062Y-64711816D01*
X63093384Y-64678334D01*
X63119742Y-64675500D01*
X67284382Y-64675500D01*
X67351421Y-64695185D01*
X67397176Y-64747989D01*
X67407120Y-64817147D01*
X67386432Y-64869938D01*
X67357006Y-64912571D01*
X67299781Y-64995475D01*
X67299780Y-64995476D01*
X67243762Y-65143181D01*
X67224722Y-65299999D01*
X67224722Y-65300000D01*
X67243762Y-65456818D01*
X67279102Y-65550000D01*
X67299780Y-65604523D01*
X67389517Y-65734530D01*
X67507760Y-65839283D01*
X67507762Y-65839284D01*
X67647635Y-65912696D01*
X67719673Y-65930451D01*
X67751999Y-65943461D01*
X67782861Y-65961279D01*
X67782862Y-65961279D01*
X67782865Y-65961281D01*
X67929234Y-66000500D01*
X71295045Y-66000500D01*
X71362084Y-66020185D01*
X71407839Y-66072989D01*
X71417783Y-66142147D01*
X71388758Y-66205703D01*
X71382726Y-66212181D01*
X65671726Y-71923181D01*
X65610403Y-71956666D01*
X65584045Y-71959500D01*
X42914500Y-71959500D01*
X42847461Y-71939815D01*
X42801706Y-71887011D01*
X42790500Y-71835500D01*
X42790500Y-58300000D01*
X84224540Y-58300000D01*
X84244326Y-58488256D01*
X84244327Y-58488259D01*
X84302818Y-58668277D01*
X84302821Y-58668284D01*
X84397467Y-58832216D01*
X84427811Y-58865916D01*
X84524129Y-58972888D01*
X84677265Y-59084148D01*
X84677270Y-59084151D01*
X84850192Y-59161142D01*
X84850197Y-59161144D01*
X85035354Y-59200500D01*
X85035355Y-59200500D01*
X85224644Y-59200500D01*
X85224646Y-59200500D01*
X85409803Y-59161144D01*
X85582730Y-59084151D01*
X85619102Y-59057725D01*
X85684906Y-59034246D01*
X85752960Y-59050071D01*
X85801655Y-59100176D01*
X85815531Y-59168654D01*
X85809917Y-59196362D01*
X85761889Y-59344177D01*
X85761888Y-59344181D01*
X85742102Y-59532437D01*
X85761888Y-59720693D01*
X85761889Y-59720696D01*
X85820380Y-59900714D01*
X85820383Y-59900721D01*
X85915029Y-60064653D01*
X85985736Y-60143181D01*
X86041691Y-60205325D01*
X86194827Y-60316585D01*
X86194832Y-60316588D01*
X86367754Y-60393579D01*
X86367759Y-60393581D01*
X86552916Y-60432937D01*
X86552917Y-60432937D01*
X86742206Y-60432937D01*
X86742208Y-60432937D01*
X86927365Y-60393581D01*
X87100292Y-60316588D01*
X87253433Y-60205325D01*
X87380095Y-60064653D01*
X87474741Y-59900721D01*
X87533236Y-59720693D01*
X87549063Y-59570105D01*
X87575645Y-59505496D01*
X87584692Y-59495399D01*
X89505408Y-57574685D01*
X89566731Y-57541200D01*
X89593089Y-57538366D01*
X89701778Y-57538366D01*
X89701780Y-57538366D01*
X89886937Y-57499010D01*
X90059864Y-57422017D01*
X90213005Y-57310754D01*
X90339667Y-57170082D01*
X90434313Y-57006150D01*
X90492808Y-56826122D01*
X90512594Y-56637866D01*
X90492808Y-56449610D01*
X90480967Y-56413170D01*
X90478972Y-56343332D01*
X90515052Y-56283499D01*
X90548456Y-56261578D01*
X90654980Y-56214151D01*
X90808121Y-56102888D01*
X90934783Y-55962216D01*
X91029429Y-55798284D01*
X91087924Y-55618256D01*
X91107710Y-55430000D01*
X91087924Y-55241744D01*
X91029429Y-55061716D01*
X90934783Y-54897784D01*
X90808121Y-54757112D01*
X90808113Y-54757106D01*
X90685469Y-54668000D01*
X92576540Y-54668000D01*
X92596326Y-54856256D01*
X92596327Y-54856259D01*
X92654818Y-55036277D01*
X92654821Y-55036284D01*
X92749467Y-55200216D01*
X92824672Y-55283739D01*
X92854902Y-55346730D01*
X92850453Y-55405029D01*
X92842340Y-55430000D01*
X92822321Y-55491611D01*
X92802535Y-55679867D01*
X92822321Y-55868123D01*
X92822322Y-55868126D01*
X92880813Y-56048144D01*
X92880816Y-56048151D01*
X92975462Y-56212083D01*
X93102124Y-56352755D01*
X93255260Y-56464015D01*
X93255265Y-56464018D01*
X93428187Y-56541009D01*
X93428192Y-56541011D01*
X93613349Y-56580367D01*
X93613350Y-56580367D01*
X93802640Y-56580367D01*
X93802641Y-56580367D01*
X93897183Y-56560271D01*
X93966850Y-56565587D01*
X94010645Y-56593880D01*
X94158544Y-56741779D01*
X94192029Y-56803102D01*
X94194184Y-56842415D01*
X94193674Y-56847269D01*
X94193674Y-56847273D01*
X94193674Y-56847276D01*
X94213460Y-57035532D01*
X94213461Y-57035535D01*
X94271952Y-57215553D01*
X94271955Y-57215560D01*
X94366601Y-57379492D01*
X94404891Y-57422017D01*
X94493263Y-57520164D01*
X94646399Y-57631424D01*
X94646404Y-57631427D01*
X94819326Y-57708418D01*
X94819327Y-57708418D01*
X94819331Y-57708420D01*
X94946056Y-57735356D01*
X95007538Y-57768548D01*
X95041315Y-57829711D01*
X95038207Y-57894964D01*
X95019512Y-57952501D01*
X95013826Y-57970002D01*
X94994040Y-58158258D01*
X95013826Y-58346514D01*
X95013827Y-58346517D01*
X95072318Y-58526535D01*
X95072321Y-58526542D01*
X95166967Y-58690474D01*
X95263955Y-58798190D01*
X95293629Y-58831146D01*
X95446765Y-58942406D01*
X95446770Y-58942409D01*
X95619692Y-59019400D01*
X95619697Y-59019402D01*
X95804854Y-59058758D01*
X95804855Y-59058758D01*
X95994144Y-59058758D01*
X95994146Y-59058758D01*
X96179303Y-59019402D01*
X96352230Y-58942409D01*
X96505371Y-58831146D01*
X96632033Y-58690474D01*
X96681381Y-58605000D01*
X97194540Y-58605000D01*
X97214326Y-58793256D01*
X97214327Y-58793259D01*
X97272818Y-58973277D01*
X97272821Y-58973284D01*
X97367467Y-59137216D01*
X97479957Y-59262148D01*
X97494129Y-59277888D01*
X97647265Y-59389148D01*
X97647270Y-59389151D01*
X97820192Y-59466142D01*
X97820197Y-59466144D01*
X98005354Y-59505500D01*
X98005355Y-59505500D01*
X98194644Y-59505500D01*
X98194646Y-59505500D01*
X98379803Y-59466144D01*
X98552730Y-59389151D01*
X98705864Y-59277892D01*
X98705866Y-59277892D01*
X98705866Y-59277890D01*
X98705871Y-59277888D01*
X98743113Y-59236525D01*
X98802599Y-59199879D01*
X98835262Y-59195500D01*
X100263242Y-59195500D01*
X100330281Y-59215185D01*
X100336127Y-59219182D01*
X100395265Y-59262148D01*
X100395270Y-59262151D01*
X100568192Y-59339142D01*
X100568197Y-59339144D01*
X100753354Y-59378500D01*
X100753355Y-59378500D01*
X100942644Y-59378500D01*
X100942646Y-59378500D01*
X101127803Y-59339144D01*
X101300730Y-59262151D01*
X101453871Y-59150888D01*
X101580533Y-59010216D01*
X101675179Y-58846284D01*
X101733674Y-58666256D01*
X101753460Y-58478000D01*
X101733674Y-58289744D01*
X101675179Y-58109716D01*
X101580533Y-57945784D01*
X101453871Y-57805112D01*
X101453870Y-57805111D01*
X101300734Y-57693851D01*
X101300729Y-57693848D01*
X101127807Y-57616857D01*
X101127802Y-57616855D01*
X100982001Y-57585865D01*
X100942646Y-57577500D01*
X100753354Y-57577500D01*
X100720897Y-57584398D01*
X100568197Y-57616855D01*
X100568192Y-57616857D01*
X100395270Y-57693848D01*
X100395265Y-57693851D01*
X100242129Y-57805111D01*
X100115465Y-57945785D01*
X100115463Y-57945788D01*
X100111588Y-57952501D01*
X100061021Y-58000716D01*
X100004202Y-58014500D01*
X98835262Y-58014500D01*
X98768223Y-57994815D01*
X98743115Y-57973476D01*
X98705871Y-57932112D01*
X98705869Y-57932110D01*
X98705866Y-57932107D01*
X98705864Y-57932106D01*
X98552734Y-57820851D01*
X98552729Y-57820848D01*
X98379807Y-57743857D01*
X98379802Y-57743855D01*
X98213088Y-57708420D01*
X98194646Y-57704500D01*
X98005354Y-57704500D01*
X97986912Y-57708420D01*
X97820197Y-57743855D01*
X97820192Y-57743857D01*
X97647270Y-57820848D01*
X97647265Y-57820851D01*
X97494129Y-57932111D01*
X97367466Y-58072785D01*
X97272821Y-58236715D01*
X97272818Y-58236722D01*
X97237145Y-58346514D01*
X97214326Y-58416744D01*
X97194540Y-58605000D01*
X96681381Y-58605000D01*
X96726679Y-58526542D01*
X96785174Y-58346514D01*
X96804960Y-58158258D01*
X96804450Y-58153406D01*
X96817016Y-58084677D01*
X96840086Y-58052763D01*
X98500818Y-56392031D01*
X104297119Y-56392031D01*
X104317599Y-56534486D01*
X104317600Y-56534490D01*
X104377386Y-56665401D01*
X104377387Y-56665402D01*
X104377388Y-56665404D01*
X104415007Y-56712087D01*
X104415010Y-56712090D01*
X104415015Y-56712096D01*
X105492896Y-57789974D01*
X105684791Y-57981869D01*
X105684795Y-57981872D01*
X105684797Y-57981874D01*
X105731473Y-58019490D01*
X105862387Y-58079277D01*
X105862388Y-58079277D01*
X105862390Y-58079278D01*
X106004847Y-58099759D01*
X106147304Y-58079278D01*
X106273965Y-58021432D01*
X106343123Y-58011489D01*
X106406679Y-58040513D01*
X106444454Y-58099291D01*
X106449005Y-58145034D01*
X106445239Y-58188079D01*
X106445239Y-58188082D01*
X106465834Y-58423485D01*
X106465836Y-58423495D01*
X106526992Y-58651737D01*
X106526994Y-58651741D01*
X106526995Y-58651745D01*
X106592983Y-58793256D01*
X106626863Y-58865912D01*
X106626865Y-58865916D01*
X106701768Y-58972888D01*
X106762403Y-59059483D01*
X106929497Y-59226577D01*
X107002784Y-59277893D01*
X107123063Y-59362114D01*
X107123065Y-59362115D01*
X107123068Y-59362117D01*
X107337235Y-59461985D01*
X107337241Y-59461986D01*
X107337242Y-59461987D01*
X107392183Y-59476708D01*
X107565490Y-59523145D01*
X107698627Y-59534793D01*
X107763696Y-59560245D01*
X107804675Y-59616836D01*
X107808553Y-59686598D01*
X107774099Y-59747382D01*
X107758270Y-59760364D01*
X107757767Y-59760711D01*
X107757760Y-59760716D01*
X107757760Y-59760717D01*
X107668848Y-59839485D01*
X107639516Y-59865471D01*
X107549781Y-59995475D01*
X107549780Y-59995476D01*
X107493762Y-60143181D01*
X107474722Y-60299999D01*
X107474722Y-60300000D01*
X107493762Y-60456818D01*
X107549780Y-60604523D01*
X107639517Y-60734530D01*
X107757760Y-60839283D01*
X107757762Y-60839284D01*
X107897634Y-60912696D01*
X108051014Y-60950500D01*
X108051015Y-60950500D01*
X108208985Y-60950500D01*
X108362365Y-60912696D01*
X108406172Y-60889703D01*
X108463798Y-60875500D01*
X108765258Y-60875500D01*
X108832297Y-60895185D01*
X108852939Y-60911819D01*
X109257663Y-61316543D01*
X109285924Y-61360252D01*
X109319781Y-61449525D01*
X109362018Y-61510715D01*
X109409517Y-61579530D01*
X109527760Y-61684283D01*
X109527762Y-61684284D01*
X109667634Y-61757696D01*
X109821014Y-61795500D01*
X109821015Y-61795500D01*
X109978985Y-61795500D01*
X110132365Y-61757696D01*
X110155650Y-61745475D01*
X110272240Y-61684283D01*
X110390483Y-61579530D01*
X110480220Y-61449523D01*
X110536237Y-61301818D01*
X110555278Y-61145000D01*
X110546835Y-61075460D01*
X110536237Y-60988181D01*
X110489699Y-60865471D01*
X110480220Y-60840477D01*
X110390483Y-60710470D01*
X110272240Y-60605717D01*
X110272238Y-60605716D01*
X110272237Y-60605715D01*
X110132368Y-60532305D01*
X110132369Y-60532305D01*
X110132365Y-60532304D01*
X110124541Y-60530375D01*
X110066541Y-60497661D01*
X109408367Y-59839487D01*
X109408365Y-59839485D01*
X109342750Y-59801602D01*
X109277136Y-59763719D01*
X109203950Y-59744109D01*
X109130766Y-59724500D01*
X109130765Y-59724500D01*
X108463798Y-59724500D01*
X108406172Y-59710296D01*
X108383824Y-59698567D01*
X108362364Y-59687303D01*
X108323716Y-59677778D01*
X108263336Y-59642622D01*
X108231547Y-59580403D01*
X108238443Y-59510874D01*
X108281834Y-59456111D01*
X108300979Y-59445002D01*
X108478728Y-59362117D01*
X108672299Y-59226577D01*
X108839393Y-59059483D01*
X108974933Y-58865912D01*
X109074801Y-58651745D01*
X109135961Y-58423490D01*
X109156557Y-58188082D01*
X109135961Y-57952674D01*
X109086421Y-57767785D01*
X109074803Y-57724426D01*
X109074802Y-57724425D01*
X109074801Y-57724419D01*
X108974933Y-57510253D01*
X108967060Y-57499008D01*
X108839392Y-57316679D01*
X108672300Y-57149588D01*
X108672293Y-57149583D01*
X108478732Y-57014049D01*
X108478728Y-57014047D01*
X108449987Y-57000645D01*
X108264561Y-56914179D01*
X108264557Y-56914178D01*
X108264553Y-56914176D01*
X108036311Y-56853020D01*
X108036301Y-56853018D01*
X107800899Y-56832423D01*
X107800896Y-56832423D01*
X107757850Y-56836189D01*
X107689350Y-56822422D01*
X107639167Y-56773807D01*
X107623234Y-56705778D01*
X107634249Y-56661149D01*
X107635222Y-56659020D01*
X107692094Y-56534488D01*
X107712575Y-56392031D01*
X107692094Y-56249574D01*
X107686254Y-56236787D01*
X107632307Y-56118660D01*
X107632306Y-56118659D01*
X107632306Y-56118658D01*
X107594687Y-56071975D01*
X107594682Y-56071970D01*
X107594678Y-56071965D01*
X106324906Y-54802196D01*
X106324900Y-54802191D01*
X106324896Y-54802187D01*
X106278220Y-54764571D01*
X106147306Y-54704784D01*
X106147302Y-54704783D01*
X106004847Y-54684303D01*
X105862391Y-54704783D01*
X105862387Y-54704784D01*
X105731476Y-54764570D01*
X105684781Y-54802199D01*
X104415012Y-56071971D01*
X104415003Y-56071981D01*
X104377387Y-56118657D01*
X104317600Y-56249571D01*
X104317599Y-56249575D01*
X104297119Y-56392031D01*
X98500818Y-56392031D01*
X99164586Y-55728263D01*
X99225907Y-55694780D01*
X99226091Y-55694740D01*
X99326055Y-55673493D01*
X99326059Y-55673491D01*
X99326060Y-55673491D01*
X99450111Y-55618259D01*
X99498982Y-55596500D01*
X99652123Y-55485237D01*
X99778785Y-55344565D01*
X99873431Y-55180633D01*
X99931926Y-55000605D01*
X99951712Y-54812349D01*
X99931926Y-54624093D01*
X99873431Y-54444065D01*
X99778785Y-54280133D01*
X99652123Y-54139461D01*
X99652122Y-54139460D01*
X99498986Y-54028200D01*
X99498981Y-54028197D01*
X99326059Y-53951206D01*
X99326054Y-53951204D01*
X99180253Y-53920214D01*
X99140898Y-53911849D01*
X98951606Y-53911849D01*
X98919149Y-53918747D01*
X98766449Y-53951204D01*
X98766444Y-53951206D01*
X98593522Y-54028197D01*
X98593517Y-54028200D01*
X98440381Y-54139460D01*
X98313718Y-54280134D01*
X98219073Y-54444064D01*
X98219070Y-54444071D01*
X98178525Y-54568857D01*
X98160578Y-54624093D01*
X98141860Y-54802187D01*
X98140792Y-54812349D01*
X98160242Y-54997420D01*
X98147672Y-55066149D01*
X98124602Y-55098061D01*
X96208648Y-57014016D01*
X96147325Y-57047501D01*
X96077633Y-57042517D01*
X96021700Y-57000645D01*
X95997283Y-56935181D01*
X95997645Y-56913385D01*
X96004594Y-56847276D01*
X95984808Y-56659020D01*
X95958359Y-56577619D01*
X95956364Y-56507778D01*
X95984141Y-56456328D01*
X95990190Y-56449610D01*
X96034206Y-56400726D01*
X96128852Y-56236794D01*
X96187347Y-56056766D01*
X96207133Y-55868510D01*
X96187347Y-55680254D01*
X96128852Y-55500226D01*
X96034206Y-55336294D01*
X95907544Y-55195622D01*
X95907543Y-55195621D01*
X95754407Y-55084361D01*
X95754402Y-55084358D01*
X95581480Y-55007367D01*
X95581475Y-55007365D01*
X95435674Y-54976375D01*
X95396319Y-54968010D01*
X95207027Y-54968010D01*
X95207024Y-54968010D01*
X95138597Y-54982553D01*
X95068930Y-54977235D01*
X95025138Y-54948943D01*
X94271679Y-54195484D01*
X94271677Y-54195482D01*
X94266433Y-54192454D01*
X94221047Y-54147067D01*
X94214533Y-54135784D01*
X94087871Y-53995112D01*
X94087870Y-53995111D01*
X93934734Y-53883851D01*
X93934729Y-53883848D01*
X93761807Y-53806857D01*
X93761802Y-53806855D01*
X93616001Y-53775865D01*
X93576646Y-53767500D01*
X93387354Y-53767500D01*
X93354897Y-53774398D01*
X93202197Y-53806855D01*
X93202192Y-53806857D01*
X93029270Y-53883848D01*
X93029265Y-53883851D01*
X92876129Y-53995111D01*
X92749466Y-54135785D01*
X92654821Y-54299715D01*
X92654818Y-54299722D01*
X92596327Y-54479740D01*
X92596326Y-54479744D01*
X92576540Y-54668000D01*
X90685469Y-54668000D01*
X90654984Y-54645851D01*
X90654979Y-54645848D01*
X90482057Y-54568857D01*
X90482052Y-54568855D01*
X90336251Y-54537865D01*
X90296896Y-54529500D01*
X90107604Y-54529500D01*
X90075147Y-54536398D01*
X89922447Y-54568855D01*
X89922442Y-54568857D01*
X89749520Y-54645848D01*
X89749515Y-54645851D01*
X89596385Y-54757106D01*
X89596379Y-54757111D01*
X89545632Y-54813472D01*
X89486145Y-54850121D01*
X89453482Y-54854500D01*
X87924234Y-54854500D01*
X87777863Y-54893719D01*
X87646635Y-54969485D01*
X87646632Y-54969487D01*
X85252939Y-57363181D01*
X85191616Y-57396666D01*
X85165258Y-57399500D01*
X85035354Y-57399500D01*
X85002897Y-57406398D01*
X84850197Y-57438855D01*
X84850192Y-57438857D01*
X84677270Y-57515848D01*
X84677265Y-57515851D01*
X84524129Y-57627111D01*
X84397466Y-57767785D01*
X84302821Y-57931715D01*
X84302818Y-57931722D01*
X84248220Y-58099759D01*
X84244326Y-58111744D01*
X84224540Y-58300000D01*
X42790500Y-58300000D01*
X42790500Y-49792261D01*
X42790500Y-49792259D01*
X42750258Y-49642076D01*
X42750258Y-49642075D01*
X42750258Y-49642074D01*
X42672520Y-49507427D01*
X42672516Y-49507422D01*
X41570589Y-48405496D01*
X41537104Y-48344173D01*
X41534950Y-48304849D01*
X41535460Y-48300000D01*
X41515674Y-48111744D01*
X41457179Y-47931716D01*
X41362533Y-47767784D01*
X41235871Y-47627112D01*
X41224754Y-47619035D01*
X41082734Y-47515851D01*
X41082729Y-47515848D01*
X40909807Y-47438857D01*
X40909802Y-47438855D01*
X40752206Y-47405358D01*
X40724646Y-47399500D01*
X40535354Y-47399500D01*
X40507794Y-47405358D01*
X40350197Y-47438855D01*
X40350192Y-47438857D01*
X40177270Y-47515848D01*
X40177265Y-47515851D01*
X40024129Y-47627111D01*
X39897466Y-47767785D01*
X39802821Y-47931715D01*
X39802818Y-47931722D01*
X39744327Y-48111740D01*
X39744326Y-48111744D01*
X39724540Y-48300000D01*
X38544015Y-48300000D01*
X38413494Y-48113597D01*
X38246402Y-47946506D01*
X38246396Y-47946501D01*
X38060842Y-47816575D01*
X38017217Y-47761998D01*
X38010023Y-47692500D01*
X38041546Y-47630145D01*
X38060842Y-47613425D01*
X38166726Y-47539284D01*
X38246401Y-47483495D01*
X38413495Y-47316401D01*
X38549035Y-47122830D01*
X38606312Y-47000000D01*
X53844722Y-47000000D01*
X53863762Y-47156818D01*
X53898570Y-47248598D01*
X53919780Y-47304523D01*
X54009517Y-47434530D01*
X54127760Y-47539283D01*
X54127762Y-47539284D01*
X54267634Y-47612696D01*
X54421014Y-47650500D01*
X54421015Y-47650500D01*
X54578985Y-47650500D01*
X54732365Y-47612696D01*
X54776172Y-47589703D01*
X54833798Y-47575500D01*
X93460258Y-47575500D01*
X93527297Y-47595185D01*
X93547939Y-47611819D01*
X95607663Y-49671543D01*
X95635924Y-49715252D01*
X95669781Y-49804525D01*
X95705585Y-49856396D01*
X95759517Y-49934530D01*
X95877760Y-50039283D01*
X95877762Y-50039284D01*
X96017634Y-50112696D01*
X96171014Y-50150500D01*
X96171015Y-50150500D01*
X96328985Y-50150500D01*
X96482365Y-50112696D01*
X96488018Y-50109729D01*
X96622240Y-50039283D01*
X96740483Y-49934530D01*
X96830220Y-49804523D01*
X96886237Y-49656818D01*
X96905278Y-49500000D01*
X96886237Y-49343182D01*
X96830220Y-49195477D01*
X96740483Y-49065470D01*
X96622240Y-48960717D01*
X96622238Y-48960716D01*
X96622237Y-48960715D01*
X96482368Y-48887305D01*
X96482369Y-48887305D01*
X96482365Y-48887304D01*
X96474541Y-48885375D01*
X96416541Y-48852661D01*
X95030561Y-47466681D01*
X94997076Y-47405358D01*
X95002060Y-47335666D01*
X95043932Y-47279733D01*
X95109396Y-47255316D01*
X95118242Y-47255000D01*
X95502828Y-47255000D01*
X95502844Y-47254999D01*
X95562372Y-47248598D01*
X95562379Y-47248596D01*
X95697086Y-47198354D01*
X95697093Y-47198350D01*
X95812187Y-47112190D01*
X95812190Y-47112187D01*
X95898350Y-46997093D01*
X95898354Y-46997086D01*
X95948596Y-46862379D01*
X95948598Y-46862372D01*
X95954999Y-46802844D01*
X95955000Y-46802827D01*
X95955000Y-46155000D01*
X95038012Y-46155000D01*
X95070925Y-46097993D01*
X95105000Y-45970826D01*
X95105000Y-45839174D01*
X95070925Y-45712007D01*
X95038012Y-45655000D01*
X95955000Y-45655000D01*
X95955000Y-45007172D01*
X95954999Y-45007155D01*
X95948598Y-44947627D01*
X95948596Y-44947620D01*
X95898354Y-44812913D01*
X95898350Y-44812906D01*
X95812190Y-44697812D01*
X95812187Y-44697809D01*
X95697093Y-44611649D01*
X95697086Y-44611645D01*
X95562379Y-44561403D01*
X95562372Y-44561401D01*
X95502844Y-44555000D01*
X94855000Y-44555000D01*
X94855000Y-45471988D01*
X94797993Y-45439075D01*
X94670826Y-45405000D01*
X94539174Y-45405000D01*
X94412007Y-45439075D01*
X94355000Y-45471988D01*
X94355000Y-44555000D01*
X93707155Y-44555000D01*
X93647627Y-44561401D01*
X93647620Y-44561403D01*
X93512913Y-44611645D01*
X93512906Y-44611649D01*
X93397812Y-44697809D01*
X93397809Y-44697812D01*
X93311649Y-44812906D01*
X93311645Y-44812913D01*
X93262578Y-44944470D01*
X93220707Y-45000404D01*
X93155242Y-45024821D01*
X93086969Y-45009969D01*
X93058715Y-44988819D01*
X93014366Y-44944470D01*
X92936401Y-44866505D01*
X92936397Y-44866502D01*
X92936396Y-44866501D01*
X92742834Y-44730967D01*
X92742830Y-44730965D01*
X92671727Y-44697809D01*
X92528663Y-44631097D01*
X92528659Y-44631096D01*
X92528655Y-44631094D01*
X92300413Y-44569938D01*
X92300403Y-44569936D01*
X92065001Y-44549341D01*
X92064999Y-44549341D01*
X91829596Y-44569936D01*
X91829586Y-44569938D01*
X91601344Y-44631094D01*
X91601335Y-44631098D01*
X91387171Y-44730964D01*
X91387169Y-44730965D01*
X91193597Y-44866505D01*
X91026505Y-45033597D01*
X90896575Y-45219158D01*
X90841998Y-45262783D01*
X90772500Y-45269977D01*
X90710145Y-45238454D01*
X90693425Y-45219158D01*
X90563494Y-45033597D01*
X90396402Y-44866506D01*
X90396395Y-44866501D01*
X90202834Y-44730967D01*
X90202830Y-44730965D01*
X90131727Y-44697809D01*
X89988663Y-44631097D01*
X89988659Y-44631096D01*
X89988655Y-44631094D01*
X89760413Y-44569938D01*
X89760403Y-44569936D01*
X89525001Y-44549341D01*
X89524999Y-44549341D01*
X89289596Y-44569936D01*
X89289586Y-44569938D01*
X89061344Y-44631094D01*
X89061335Y-44631098D01*
X88847171Y-44730964D01*
X88847169Y-44730965D01*
X88653597Y-44866505D01*
X88486505Y-45033597D01*
X88356575Y-45219158D01*
X88301998Y-45262783D01*
X88232500Y-45269977D01*
X88170145Y-45238454D01*
X88153425Y-45219158D01*
X88023494Y-45033597D01*
X87856402Y-44866506D01*
X87856395Y-44866501D01*
X87662834Y-44730967D01*
X87662830Y-44730965D01*
X87591727Y-44697809D01*
X87448663Y-44631097D01*
X87448659Y-44631096D01*
X87448655Y-44631094D01*
X87220413Y-44569938D01*
X87220403Y-44569936D01*
X86985001Y-44549341D01*
X86984999Y-44549341D01*
X86749596Y-44569936D01*
X86749586Y-44569938D01*
X86521344Y-44631094D01*
X86521335Y-44631098D01*
X86307171Y-44730964D01*
X86307169Y-44730965D01*
X86113597Y-44866505D01*
X85946505Y-45033597D01*
X85816575Y-45219158D01*
X85761998Y-45262783D01*
X85692500Y-45269977D01*
X85630145Y-45238454D01*
X85613425Y-45219158D01*
X85483494Y-45033597D01*
X85316402Y-44866506D01*
X85316395Y-44866501D01*
X85122834Y-44730967D01*
X85122830Y-44730965D01*
X85051727Y-44697809D01*
X84908663Y-44631097D01*
X84908659Y-44631096D01*
X84908655Y-44631094D01*
X84680413Y-44569938D01*
X84680403Y-44569936D01*
X84445001Y-44549341D01*
X84444999Y-44549341D01*
X84209596Y-44569936D01*
X84209586Y-44569938D01*
X83981344Y-44631094D01*
X83981335Y-44631098D01*
X83767171Y-44730964D01*
X83767169Y-44730965D01*
X83573597Y-44866505D01*
X83406505Y-45033597D01*
X83276575Y-45219158D01*
X83221998Y-45262783D01*
X83152500Y-45269977D01*
X83090145Y-45238454D01*
X83073425Y-45219158D01*
X82943494Y-45033597D01*
X82776402Y-44866506D01*
X82776395Y-44866501D01*
X82582834Y-44730967D01*
X82582830Y-44730965D01*
X82511727Y-44697809D01*
X82368663Y-44631097D01*
X82368659Y-44631096D01*
X82368655Y-44631094D01*
X82140413Y-44569938D01*
X82140403Y-44569936D01*
X81905001Y-44549341D01*
X81904999Y-44549341D01*
X81669596Y-44569936D01*
X81669586Y-44569938D01*
X81441344Y-44631094D01*
X81441335Y-44631098D01*
X81227171Y-44730964D01*
X81227169Y-44730965D01*
X81033597Y-44866505D01*
X80866505Y-45033597D01*
X80736575Y-45219158D01*
X80681998Y-45262783D01*
X80612500Y-45269977D01*
X80550145Y-45238454D01*
X80533425Y-45219158D01*
X80403494Y-45033597D01*
X80236402Y-44866506D01*
X80236395Y-44866501D01*
X80042834Y-44730967D01*
X80042830Y-44730965D01*
X79971727Y-44697809D01*
X79828663Y-44631097D01*
X79828659Y-44631096D01*
X79828655Y-44631094D01*
X79600413Y-44569938D01*
X79600403Y-44569936D01*
X79365001Y-44549341D01*
X79364999Y-44549341D01*
X79129596Y-44569936D01*
X79129586Y-44569938D01*
X78901344Y-44631094D01*
X78901335Y-44631098D01*
X78687171Y-44730964D01*
X78687169Y-44730965D01*
X78493597Y-44866505D01*
X78326505Y-45033597D01*
X78196575Y-45219158D01*
X78141998Y-45262783D01*
X78072500Y-45269977D01*
X78010145Y-45238454D01*
X77993425Y-45219158D01*
X77863494Y-45033597D01*
X77696402Y-44866506D01*
X77696395Y-44866501D01*
X77502834Y-44730967D01*
X77502830Y-44730965D01*
X77431727Y-44697809D01*
X77288663Y-44631097D01*
X77288659Y-44631096D01*
X77288655Y-44631094D01*
X77060413Y-44569938D01*
X77060403Y-44569936D01*
X76825001Y-44549341D01*
X76824999Y-44549341D01*
X76589596Y-44569936D01*
X76589586Y-44569938D01*
X76361344Y-44631094D01*
X76361335Y-44631098D01*
X76147171Y-44730964D01*
X76147169Y-44730965D01*
X75953597Y-44866505D01*
X75786505Y-45033597D01*
X75656575Y-45219158D01*
X75601998Y-45262783D01*
X75532500Y-45269977D01*
X75470145Y-45238454D01*
X75453425Y-45219158D01*
X75323494Y-45033597D01*
X75156402Y-44866506D01*
X75156395Y-44866501D01*
X74962834Y-44730967D01*
X74962830Y-44730965D01*
X74891727Y-44697809D01*
X74748663Y-44631097D01*
X74748659Y-44631096D01*
X74748655Y-44631094D01*
X74520413Y-44569938D01*
X74520403Y-44569936D01*
X74285001Y-44549341D01*
X74284999Y-44549341D01*
X74049596Y-44569936D01*
X74049586Y-44569938D01*
X73821344Y-44631094D01*
X73821335Y-44631098D01*
X73607171Y-44730964D01*
X73607169Y-44730965D01*
X73413597Y-44866505D01*
X73246505Y-45033597D01*
X73110965Y-45227169D01*
X73110964Y-45227171D01*
X73011098Y-45441335D01*
X73011094Y-45441344D01*
X72949938Y-45669586D01*
X72949936Y-45669596D01*
X72929341Y-45904999D01*
X72929341Y-45905000D01*
X72949936Y-46140403D01*
X72949938Y-46140413D01*
X72984234Y-46268407D01*
X72982571Y-46338257D01*
X72943408Y-46396119D01*
X72879180Y-46423623D01*
X72864459Y-46424500D01*
X54833798Y-46424500D01*
X54776172Y-46410296D01*
X54732365Y-46387304D01*
X54732364Y-46387303D01*
X54732363Y-46387303D01*
X54578986Y-46349500D01*
X54578985Y-46349500D01*
X54421015Y-46349500D01*
X54421014Y-46349500D01*
X54267634Y-46387303D01*
X54127762Y-46460715D01*
X54009516Y-46565471D01*
X53919781Y-46695475D01*
X53919780Y-46695476D01*
X53863762Y-46843181D01*
X53844722Y-46999999D01*
X53844722Y-47000000D01*
X38606312Y-47000000D01*
X38648903Y-46908663D01*
X38710063Y-46680408D01*
X38730659Y-46445000D01*
X38710063Y-46209592D01*
X38648903Y-45981337D01*
X38549035Y-45767171D01*
X38470493Y-45655000D01*
X38413494Y-45573597D01*
X38246402Y-45406506D01*
X38246395Y-45406501D01*
X38244251Y-45405000D01*
X38207521Y-45379281D01*
X38052834Y-45270967D01*
X38052830Y-45270965D01*
X37983110Y-45238454D01*
X37838663Y-45171097D01*
X37838659Y-45171096D01*
X37838655Y-45171094D01*
X37610413Y-45109938D01*
X37610403Y-45109936D01*
X37375001Y-45089341D01*
X37374999Y-45089341D01*
X37139596Y-45109936D01*
X37139586Y-45109938D01*
X36911344Y-45171094D01*
X36911335Y-45171098D01*
X36697171Y-45270964D01*
X36697169Y-45270965D01*
X36503597Y-45406505D01*
X36336505Y-45573597D01*
X36200965Y-45767169D01*
X36200964Y-45767171D01*
X36101098Y-45981335D01*
X36101094Y-45981344D01*
X36039938Y-46209586D01*
X36039936Y-46209596D01*
X36019341Y-46444999D01*
X36019341Y-46445000D01*
X36039936Y-46680403D01*
X36039938Y-46680413D01*
X36101094Y-46908655D01*
X36101096Y-46908659D01*
X36101097Y-46908663D01*
X36196002Y-47112187D01*
X36200965Y-47122830D01*
X36200967Y-47122834D01*
X36336501Y-47316395D01*
X36336506Y-47316402D01*
X36503597Y-47483493D01*
X36503603Y-47483498D01*
X36689158Y-47613425D01*
X36732783Y-47668002D01*
X36739977Y-47737500D01*
X36708454Y-47799855D01*
X36689158Y-47816575D01*
X36503597Y-47946505D01*
X36336505Y-48113597D01*
X36200965Y-48307169D01*
X36200964Y-48307171D01*
X36101098Y-48521335D01*
X36101094Y-48521344D01*
X36039938Y-48749586D01*
X36039936Y-48749596D01*
X36019341Y-48984999D01*
X36019341Y-48985000D01*
X33030000Y-48985000D01*
X33030000Y-44124000D01*
X33049685Y-44056961D01*
X33102489Y-44011206D01*
X33154000Y-44000000D01*
X97948542Y-44000000D01*
X98015581Y-44019685D01*
G37*
%TD.AperFunction*%
%TD*%
M02*
